<svg width="99" height="26" viewBox="0 0 99 26" fill="none" xmlns="http://www.w3.org/2000/svg">
<g clip-path="url(#clip0_1293_6239)">
<path d="M73.345 1.94225C73.5567 1.94084 73.7152 1.90143 73.7054 1.64953C73.7208 1.41873 73.6353 1.29911 73.3898 1.30333C73.1823 1.30755 73.0322 1.3357 73.0322 1.60027C73.0322 1.82825 73.0995 1.94506 73.345 1.94225Z" fill="black"/>
<path d="M75.1347 3.85898C75.174 3.43257 75.3815 3.10607 75.8219 3.016C76.2356 2.93016 76.5693 2.9963 76.4978 3.55782C76.4768 3.71966 76.495 3.88712 76.495 4.05178C76.495 4.17562 76.495 4.29946 76.495 4.4219C76.4908 5.0383 76.1725 5.23813 75.6059 4.96793C75.1291 4.73995 75.094 4.3065 75.1347 3.85898ZM75.0071 5.28035C75.5793 5.69269 76.2272 5.58292 76.8624 5.46471C77.1135 5.41827 77.0938 5.2128 77.0938 5.02422C77.0924 4.48382 77.0938 3.94482 77.0924 3.40442C77.0924 2.8232 77.0924 2.24199 77.0924 1.66077C77.0924 1.63966 77.091 1.61855 77.0924 1.59885C77.1135 1.34976 76.9859 1.28221 76.7573 1.27939C76.5133 1.27517 76.4894 1.41168 76.495 1.59604C76.4978 1.74099 76.4824 1.88735 76.4964 2.03089C76.5301 2.37287 76.4852 2.53471 76.0449 2.4953C75.209 2.42212 74.6411 2.90764 74.5148 3.70699C74.4195 4.3065 74.4672 4.88912 75.0071 5.28035Z" fill="black"/>
<path d="M82.1922 5.52522C82.3212 5.521 82.4601 5.50411 82.4727 5.34649C82.4825 5.20858 82.4797 5.03829 82.2707 5.03126C81.8402 5.01718 81.8598 4.68928 81.8486 4.40501C81.8332 3.96874 81.8444 3.53248 81.8444 3.09621H81.843C81.843 2.59803 81.8416 2.09984 81.843 1.60166C81.8444 1.42293 81.836 1.27516 81.5878 1.27939C81.3634 1.28361 81.2414 1.33849 81.2442 1.59181C81.2582 2.67121 81.2414 3.75202 81.2778 4.83001C81.2975 5.38449 81.7 5.5407 82.1922 5.52522Z" fill="black"/>
<path d="M72.8623 2.96374C73.3125 3.09884 73.1372 3.45629 73.1526 3.73072C73.1751 4.16557 73.1568 4.60324 73.1596 5.04092C73.161 5.26608 73.112 5.51236 73.4808 5.50533C73.823 5.4997 73.75 5.26186 73.7543 5.06906C73.7627 4.73694 73.7571 4.40341 73.7557 4.07128C73.7557 3.65472 73.7543 3.23957 73.7571 2.82301C73.7571 2.66539 73.7388 2.51903 73.5327 2.53592C73.2929 2.55562 73.0208 2.43318 72.8245 2.63302C72.7529 2.70479 72.7375 2.92715 72.8623 2.96374Z" fill="black"/>
<path d="M68.6062 5.49969C68.9077 5.53065 68.9358 5.3477 68.9456 5.11409C68.975 4.31333 69.0171 3.51117 69.055 2.71042C69.0956 2.70338 69.1391 2.69775 69.1798 2.69212C69.4028 3.22549 69.6243 3.76026 69.8459 4.29504C69.9174 4.46392 69.9553 4.64546 70.2077 4.65672C70.4868 4.67079 70.5485 4.47799 70.6312 4.288C70.857 3.77012 71.0828 3.25082 71.3072 2.73293C71.3857 2.74419 71.4643 2.75404 71.5414 2.7653C71.5414 3.52665 71.5428 4.288 71.54 5.04935C71.54 5.29141 71.54 5.51095 71.8836 5.50391C72.2398 5.49688 72.143 5.24075 72.136 5.05921C72.0967 4.02202 72.0505 2.98484 71.9902 1.94907C71.9775 1.73093 72.1206 1.42555 71.7377 1.34674C71.3577 1.26934 71.2399 1.50858 71.1235 1.80271C70.8683 2.44444 70.5906 3.07772 70.2652 3.85174C69.9174 3.01299 69.6243 2.33185 69.3537 1.64087C69.2359 1.33689 69.0129 1.31578 68.7534 1.34815C68.4758 1.38333 68.5403 1.60568 68.5319 1.7816C68.4786 2.87929 68.4239 3.9784 68.379 5.0775C68.372 5.24778 68.3159 5.47014 68.6062 5.49969Z" fill="black"/>
<path d="M78.8959 3.10177C79.1441 2.95119 79.4162 2.95119 79.6658 3.05111C79.9168 3.15103 79.7934 3.40856 79.8158 3.59996C79.8313 3.7435 79.8186 3.88845 79.8186 4.03341C79.8186 4.13614 79.8355 4.24309 79.8158 4.34161C79.7625 4.60336 80.0024 5.01711 79.4793 5.04526C79.0375 5.06918 78.6561 4.96645 78.4934 4.48796C78.3195 3.97571 78.5088 3.3382 78.8959 3.10177ZM78.2858 5.25213C78.8594 5.69965 79.534 5.5927 80.1903 5.46182C80.4427 5.41256 80.4203 5.20569 80.4217 5.02133C80.4231 4.46123 80.4217 3.90112 80.4217 3.34242H80.4189C80.4189 2.76261 80.4147 2.1828 80.4217 1.60159C80.4245 1.36235 80.3249 1.27791 80.0879 1.27931C79.8523 1.28072 79.8158 1.41019 79.82 1.59596C79.8214 1.67899 79.8102 1.76343 79.82 1.84364C79.8775 2.30102 79.8186 2.55152 79.2212 2.49382C78.5355 2.42767 77.9969 2.92586 77.8539 3.60418C77.7235 4.21917 77.7487 4.83275 78.2858 5.25213Z" fill="black"/>
<path d="M96.1156 3.53386C96.117 3.8871 96.1113 4.24174 96.117 4.59497C96.1296 5.31692 96.4774 5.61949 97.1786 5.52379C97.3146 5.50549 97.4871 5.52942 97.4969 5.3141C97.5053 5.10582 97.41 5.00309 97.1968 5.02983C96.7691 5.0833 96.7256 4.78073 96.7032 4.47816C96.6821 4.20937 96.6947 3.93776 96.6821 3.66756C96.6667 3.29884 96.6386 2.93576 97.1982 3.02442C97.3805 3.05397 97.4618 2.93857 97.452 2.76125C97.4436 2.61489 97.3651 2.50794 97.2192 2.53749C96.7102 2.64304 96.6457 2.31232 96.6513 1.84229C95.8982 2.55157 95.901 2.55016 96.1043 3.22285C96.1338 3.31855 96.1156 3.42972 96.1156 3.53386Z" fill="black"/>
<path d="M87.4976 3.41003C87.4976 3.97013 87.4976 4.53024 87.4962 5.09035C87.4962 5.30989 87.5046 5.50972 87.8117 5.5055C88.3909 5.49565 88.9687 5.50128 89.5493 5.50128C89.7134 5.50269 89.8256 5.44921 89.834 5.25782C89.8424 5.03969 89.7316 4.96088 89.5339 4.95947C89.2029 4.95947 88.8719 4.95806 88.541 4.95384C88.3545 4.95243 88.1918 4.95665 88.1357 4.69208C87.966 3.88429 88.1469 3.62816 88.9603 3.60142C89.022 3.59861 89.0837 3.5972 89.1454 3.59861C89.3375 3.59861 89.4652 3.53528 89.4595 3.31292C89.4539 3.08072 89.3039 3.05257 89.1244 3.05398C88.9785 3.0568 88.8327 3.03709 88.6896 3.0568C88.2619 3.1159 88.1287 2.95125 88.1189 2.51076C88.1076 2.01398 88.2647 1.83807 88.7485 1.9014C88.9926 1.93236 89.2436 1.90562 89.4918 1.90562C89.6517 1.90562 89.7709 1.87325 89.7793 1.6706C89.7891 1.45106 89.6811 1.37507 89.4834 1.37507C88.9869 1.37507 88.4905 1.39336 87.9955 1.36662C87.6224 1.34692 87.4682 1.46091 87.4892 1.85496C87.5172 2.37144 87.4962 2.89214 87.4976 3.41003Z" fill="black"/>
<path d="M93.3835 5.44917C93.8715 5.60678 94.3638 5.63634 94.8322 5.39006C95.1477 5.22259 95.3188 4.9538 95.3118 4.58086C95.3006 4.0306 94.9065 3.86173 94.483 3.70411C94.2628 3.62389 93.9248 3.60841 93.9809 3.26644C94.0426 2.8921 94.3834 2.99624 94.727 2.97794C94.8266 2.94276 95.1365 3.22985 95.1828 2.82877C95.2304 2.42346 94.856 2.54168 94.6499 2.48679C94.3862 2.41502 94.1113 2.46428 93.8547 2.55434C93.5336 2.66834 93.3456 2.90195 93.3176 3.24955C93.2895 3.59997 93.4382 3.85469 93.7537 4.00246C93.9613 4.09956 94.1759 4.17556 94.3834 4.26844C94.5643 4.34865 94.7172 4.46265 94.6765 4.68922C94.6386 4.90313 94.4704 5.01009 94.2754 5.02135C94.0524 5.03542 93.8239 5.01009 93.5995 4.98194C93.4578 4.96505 93.3526 4.98194 93.3078 5.12971C93.2699 5.24933 93.2306 5.39991 93.3835 5.44917Z" fill="black"/>
<path d="M91.5863 4.09947C91.9776 4.06569 92.007 4.28946 92.0183 4.59906C92.0323 4.96355 91.8892 5.09725 91.5681 5.04799C91.2147 5.06769 90.9384 4.96355 90.9328 4.59484C90.9286 4.18109 91.2554 4.12902 91.5863 4.09947ZM90.8248 5.43641C91.3675 5.65313 91.9622 5.65454 92.4558 5.40685C92.8218 5.2225 92.5484 4.7215 92.6143 4.36967C92.6185 4.34997 92.6157 4.32886 92.6157 4.30775C92.6157 4.1628 92.6157 4.01785 92.6143 3.87149C92.6115 2.67809 92.0112 2.21791 90.8669 2.52611C90.6986 2.57255 90.5317 2.59506 90.5738 2.83149C90.6131 3.06088 90.7743 3.05807 90.9496 3.0257C91.174 2.98629 91.3984 2.95393 91.627 3.01444C91.8514 3.07355 92.014 3.21005 91.986 3.44789C91.9565 3.6815 91.735 3.59706 91.5821 3.61958C91.3591 3.65335 91.1193 3.65054 90.9174 3.73498C90.5556 3.88837 90.3158 4.16984 90.3087 4.59203C90.3031 4.98044 90.4602 5.29005 90.8248 5.43641Z" fill="black"/>
<path d="M10.4085 2.55862C11.5697 2.57973 12.7309 2.5544 13.8906 2.56988C15.7839 2.59521 17.2171 3.44945 18.231 5.04111C18.7247 5.81794 19.0598 6.66514 19.3642 7.53063C19.4357 7.73328 19.3459 8.19065 19.7821 8.04007C20.1705 7.90638 20.7665 8.03866 20.7469 7.27168C20.6992 5.35916 20.6964 3.44523 20.7161 1.5327C20.7217 1.02044 20.5464 0.919117 20.0766 0.921931C16.9689 0.940226 13.8598 0.931782 10.7507 0.931782C7.57987 0.931782 4.40907 0.931782 1.23826 0.930375C0.983028 0.930375 0.713769 0.899414 0.751634 1.29346C0.779682 1.59603 0.609993 1.99852 1.15272 2.02807C1.3785 2.04074 1.60148 2.11251 1.82727 2.13784C2.93796 2.26168 3.57605 2.90482 3.84531 3.96171C4.00097 4.56966 4.06829 5.18887 4.10896 5.81231C4.33194 9.13214 4.37401 12.4576 4.29267 15.7831C4.24779 17.6505 4.2506 19.5265 3.99116 21.3827C3.68543 23.5612 2.76687 23.989 1.32241 24.0805C0.882056 24.1087 0.724988 24.2635 0.734805 24.7279C0.747427 25.2767 1.10504 25.1233 1.3771 25.1247C5.25331 25.1304 9.12811 25.129 13.0043 25.1275C13.296 25.1275 13.6312 25.2373 13.627 24.7068C13.6242 24.2803 13.5036 24.1058 13.0716 24.1115C12.7631 24.1157 12.4532 24.0538 12.1461 24.013C11.1882 23.8863 10.5431 23.3656 10.2528 22.441C10.128 22.047 10.0327 21.6374 9.98357 21.2279C9.69888 18.889 9.71992 16.5388 9.71711 14.19C9.71571 13.9015 9.79565 13.7847 10.1042 13.7959C10.7044 13.8185 11.306 13.7833 11.9062 13.81C13.5428 13.8818 14.3338 14.4827 14.8877 16.0504C14.9775 16.3052 15.0841 16.5627 15.1177 16.8259C15.1892 17.3846 15.5959 17.2213 15.9199 17.2368C16.3855 17.2593 16.2508 16.899 16.2508 16.664C16.2593 14.3335 16.2326 12.0044 16.2719 9.67536C16.2817 9.0871 16.0826 8.97171 15.5679 9.01111C15.2748 9.03363 15.1822 9.15325 15.1247 9.40938C14.9999 9.95823 14.8148 10.4888 14.5329 10.9785C14.1304 11.685 13.5583 12.1804 12.7294 12.2606C11.8656 12.345 10.9947 12.3605 10.1266 12.4196C9.81809 12.4407 9.68346 12.3549 9.67925 12.0143C9.64279 9.01955 9.65681 6.02763 9.87558 3.03852C9.90363 2.65854 10.0425 2.553 10.4085 2.55862Z" fill="black"/>
<mask id="mask0_1293_6239" style="mask-type:luminance" maskUnits="userSpaceOnUse" x="84" y="7" width="15" height="19">
<path d="M84.7432 7.34204H98.2454V25.637H84.7432V7.34204Z" fill="white"/>
</mask>
<g mask="url(#mask0_1293_6239)">
<path d="M91.6975 25.5905C93.5571 25.492 95.3087 25.0276 96.6802 23.6499C99.2017 21.1181 98.5945 17.044 95.4489 15.4017C94.8445 15.0864 94.2008 14.8458 93.5782 14.5629C92.5404 14.0943 91.483 13.6552 90.6037 12.9023C89.8211 12.2338 89.5926 11.2698 89.9474 10.2354C90.2699 9.29959 91.0454 8.75496 92.0804 8.71837C93.3874 8.67334 94.407 9.20671 95.1769 10.2467C95.6902 10.9391 96.0155 11.723 96.2904 12.535C96.3577 12.732 96.3086 13.0993 96.7279 12.9572C97.0449 12.8488 97.4039 12.8643 97.3562 12.3154C97.2524 11.1375 97.2174 9.95117 97.1781 8.76763C97.1669 8.40454 97.0294 8.21878 96.6872 8.09635C95.7238 7.75156 94.7337 7.53905 93.7198 7.44476C91.6457 7.24915 89.6066 7.31811 87.7723 8.47772C86.0768 9.54868 85.2199 11.1023 85.2606 13.1246C85.2998 15.1469 86.3236 16.5261 88.1018 17.3775C88.681 17.6547 89.2812 17.8855 89.8786 18.1192C90.7285 18.4527 91.5755 18.7876 92.3356 19.3055C93.257 19.9332 93.6328 20.7973 93.3986 21.8935C93.163 22.9941 92.4913 23.7188 91.3848 23.9341C89.8001 24.2423 88.4903 23.6921 87.4455 22.486C86.7163 21.6445 86.2226 20.6593 85.8342 19.6236C85.7234 19.328 85.5915 19.2394 85.2844 19.3351C85.0236 19.4167 84.7838 19.4111 84.8118 19.822C84.8581 20.5242 84.8244 21.2335 84.8244 21.94C84.8679 21.94 84.9114 21.94 84.9549 21.94C84.9549 22.6042 84.9787 23.2699 84.9464 23.9313C84.9212 24.414 85.1259 24.6251 85.5691 24.7616C87.5689 25.3766 89.6094 25.7017 91.6975 25.5905Z" fill="black"/>
</g>
<mask id="mask1_1293_6239" style="mask-type:luminance" maskUnits="userSpaceOnUse" x="48" y="0" width="20" height="26">
<path d="M48.4834 0.496826H67.511V25.6369H48.4834V0.496826Z" fill="white"/>
</mask>
<g mask="url(#mask1_1293_6239)">
<path d="M60.5872 22.1017C60.2478 22.7758 59.8005 23.3655 59.1848 23.8214C58.4429 24.3731 57.6225 24.4111 56.7573 24.2605C56.338 24.1873 56.387 23.8679 56.3786 23.5921C56.3309 21.8892 56.2889 20.1878 56.2524 18.4864C56.2398 17.9671 56.2496 17.4478 56.2496 16.9271C56.23 16.9285 56.2117 16.9285 56.1921 16.9285C56.1921 14.7063 56.2005 12.4842 56.1837 10.2621C56.1795 9.89196 56.3337 9.7639 56.6507 9.66257C58.3167 9.13202 59.6798 9.61332 60.6152 11.1051C61.3277 12.2393 61.6264 13.513 61.7554 14.8232C62.0008 17.3493 61.7442 19.8022 60.5872 22.1017ZM57.3365 8.12861C56.976 8.26794 56.6198 8.41993 56.2258 8.57895C56.2117 8.41852 56.1921 8.31719 56.1935 8.21587C56.2258 5.80375 56.2482 3.39163 56.3057 0.979516C56.3155 0.557325 56.2552 0.433482 55.8093 0.523549C53.6355 0.961221 51.4548 1.37215 49.2769 1.79153C49.0287 1.83797 48.7973 1.85908 48.7959 2.22357C48.7959 2.65421 49.0932 2.59791 49.347 2.63028C50.2951 2.7485 50.72 3.0961 50.9654 4.00522C51.0523 4.32467 51.1155 4.6568 51.1309 4.98611C51.1814 6.00359 51.229 7.02247 51.2347 8.03995C51.2599 13.4693 51.3328 18.8973 51.1561 24.3239C51.1435 24.7024 51.2613 24.8206 51.6077 24.8966C53.7421 25.3639 55.8934 25.6974 58.0811 25.5961C61.4062 25.4413 64.2236 24.2549 65.8728 21.1856C67.4042 18.333 67.5879 15.2805 66.4997 12.2408C65.0622 8.22853 61.3122 6.59325 57.3365 8.12861Z" fill="black"/>
</g>
<mask id="mask2_1293_6239" style="mask-type:luminance" maskUnits="userSpaceOnUse" x="68" y="6" width="17" height="20">
<path d="M68.2295 6.98169H84.385V25.6369H68.2295V6.98169Z" fill="white"/>
</mask>
<g mask="url(#mask2_1293_6239)">
<path d="M78.4849 14.3237C77.7402 14.311 76.997 14.3195 76.2523 14.3195C76.2523 14.3603 76.2523 14.4025 76.2523 14.4433C75.5287 14.4433 74.805 14.4405 74.0814 14.4461C73.8163 14.4475 73.6537 14.3997 73.6789 14.0648C73.7855 12.6448 74.0225 11.2558 74.7293 9.99907C75.1809 9.1955 75.7643 8.47073 76.8034 8.58473C77.8005 8.6959 78.1469 9.53606 78.4204 10.3593C78.8046 11.5133 78.8804 12.7152 78.8846 13.9254C78.8846 14.2153 78.7808 14.3293 78.4849 14.3237ZM79.4343 7.7122C76.8749 6.9804 74.3997 7.29564 72.1629 8.77612C68.3751 11.2825 67.1396 17.2748 69.5026 21.4137C71.4168 24.7659 75.4361 26.3576 79.4035 25.3246C81.0513 24.8954 82.4649 24.0693 83.5798 22.7633C83.7481 22.5663 83.95 22.4087 83.6976 22.0794C83.4157 21.7135 83.225 21.8457 82.9403 22.0357C80.2589 23.8258 76.6884 23.2305 74.9102 20.6889C73.9748 19.3506 73.6382 17.8209 73.5737 16.2095C73.5569 15.7986 73.7364 15.7324 74.0884 15.7352C75.6647 15.7493 77.2396 15.7423 78.8159 15.7409C80.4118 15.7409 82.0091 15.7282 83.605 15.7507C84.0173 15.7563 84.1421 15.6226 84.1253 15.2173C84.0706 13.9606 83.8687 12.7335 83.4003 11.564C82.65 9.69227 81.4061 8.27512 79.4343 7.7122Z" fill="black"/>
</g>
<mask id="mask3_1293_6239" style="mask-type:luminance" maskUnits="userSpaceOnUse" x="17" y="6" width="19" height="20">
<path d="M17.9668 6.98169H35.5584V25.6369H17.9668V6.98169Z" fill="white"/>
</mask>
<g mask="url(#mask3_1293_6239)">
<path d="M29.4981 21.5769C29.3467 22.2946 29.0732 22.9715 28.6273 23.5612C27.755 24.7166 26.2909 24.8108 25.2798 23.7765C24.4622 22.9405 24.1228 21.8682 23.8633 20.7691C23.5071 19.2633 23.4048 17.7293 23.4314 16.6977C23.4496 14.4756 23.524 12.7742 24.0008 11.1178C24.1635 10.5549 24.3878 10.0201 24.7342 9.54302C25.65 8.28489 27.2992 8.22156 28.3131 9.40651C28.9512 10.1524 29.299 11.0446 29.5052 11.9847C30.2064 15.1793 30.1727 18.3809 29.4981 21.5769ZM33.2818 9.99898C30.4532 6.70449 24.4552 6.40614 21.0347 9.42058C18.6731 11.5006 17.9158 14.249 18.0687 17.2973C18.1865 19.6742 18.8694 21.8499 20.6547 23.5288C23.2715 25.9916 28.1883 26.3504 31.3998 24.307C34.2901 22.4677 35.304 19.6517 35.3924 16.564C35.3363 14.0337 34.8525 11.8271 33.2818 9.99898Z" fill="black"/>
</g>
<path d="M84.1429 2.98499C84.4696 2.99344 84.7627 3.15105 84.7473 3.47895C84.7249 3.92226 84.3168 3.60139 84.1148 3.73368C83.9073 3.6225 83.523 3.87581 83.5048 3.51836C83.4894 3.19187 83.7769 2.97373 84.1429 2.98499ZM85.1863 5.19024C85.1372 4.74553 84.8006 5.03543 84.5987 5.04247C84.2817 5.05232 83.969 5.06358 83.7067 4.86093C83.5384 4.73005 83.4108 4.53162 83.4767 4.31771C83.5384 4.11224 83.7586 4.19809 83.9115 4.19246C84.2845 4.1812 84.6576 4.18401 85.0306 4.18964C85.2732 4.19386 85.412 4.1235 85.4303 3.84345C85.4836 3.04973 84.8875 2.42348 84.0924 2.46429C83.2524 2.50651 82.7573 3.13557 82.7896 4.11365C82.8218 5.07765 83.3533 5.5688 84.4121 5.56176C84.4374 5.56036 84.5271 5.57443 84.6015 5.54769C84.8202 5.46466 85.2339 5.62368 85.1863 5.19024Z" fill="black"/>
<path d="M49.4108 7.57539C47.7293 7.02372 46.2231 7.38681 44.8544 8.44791C43.9821 9.12201 43.3959 10.0283 42.8672 11.0542C42.8672 9.9284 42.849 8.87574 42.877 7.82448C42.8882 7.43325 42.769 7.36429 42.417 7.43606C40.1844 7.89625 37.949 8.34659 35.7136 8.7927C35.4682 8.84196 35.3013 8.89262 35.3041 9.21208C35.3069 9.52169 35.4444 9.60894 35.7108 9.62301C37.2422 9.70604 37.4428 10.4871 37.5493 11.6509C37.8593 15.0341 37.8354 18.4173 37.576 21.8046C37.4666 23.2429 37.2043 24.0634 35.6617 24.1028C35.6421 24.1028 35.6211 24.1098 35.6014 24.1126C35.1316 24.1914 35.363 24.5629 35.3181 24.8106C35.2634 25.1188 35.4738 25.1301 35.701 25.1301C38.977 25.1273 42.2516 25.1259 45.5261 25.1315C45.7814 25.1315 45.8823 25.0682 45.9006 24.7867C45.9286 24.3364 45.8305 24.0802 45.3144 24.0999C45.0072 24.1112 44.6959 24.0451 44.3874 24.0085C43.6904 23.9283 43.243 23.5455 43.0734 22.8657C42.9892 22.5252 42.9331 22.1719 42.9065 21.8215C42.6821 19.0196 42.6877 16.2148 42.8223 13.4087C42.8672 12.4601 43.0874 12.1787 43.9933 11.9043C45.2793 11.5158 46.5078 11.7283 47.6409 12.401C48.0869 12.6656 48.2033 12.5629 48.3562 12.1266C48.8049 10.853 49.2733 9.58502 49.7838 8.33533C49.9759 7.8667 49.8132 7.70767 49.4108 7.57539Z" fill="black"/>
</g>
<defs>
<clipPath id="clip0_1293_6239">
<rect width="97.5112" height="25.1396" fill="white" transform="translate(0.735352 0.496826)"/>
</clipPath>
</defs>
</svg>
