<svg width="120" height="63" viewBox="0 0 120 63" fill="none" xmlns="http://www.w3.org/2000/svg">
<path d="M78.8325 34.2236C74.6477 24.8421 65.6536 21.4976 60.0975 13.1907C54.2755 21.2807 45.2061 24.3987 41.214 34.8623C41.214 29.6383 40.6874 25.4348 41.1836 21.1582C41.6638 17.0236 43.2408 13.7623 46.4986 11.1392C51.0896 7.44324 55.5857 3.63293 59.9031 0.0529671C64.2105 3.55889 68.6659 7.21895 73.1586 10.8331C78.1783 14.8716 78.739 19.6678 79.0044 26.2298C79.1122 28.8944 78.8325 31.7751 78.8325 34.2236Z" fill="#312C71"/>
<path d="M3.803 58.4871L8.171 48.9652L12.584 58.4871H3.803ZM14.7421 63.1443H17.8938L9.02572 43.5991L0.157227 63.1443H1.66663L3.13316 59.9471H13.2608L14.7421 63.1443Z" fill="#312C71"/>
<path d="M44.6191 43.5991H49.411V63.1443H46.4676V46.5638C46.4442 45.4415 45.5769 44.1161 44.6191 43.5991Z" fill="#312C71"/>
<path d="M31.7905 61.8258H26.6323V45.2259H31.7905C38.918 46.1637 39.1059 60.513 31.7905 61.8258ZM32.3049 43.5996H21.7188C22.6765 44.1166 23.5438 45.4419 23.5672 46.5642V63.1443H32.3049C42.9006 63.1443 42.9006 43.5991 32.3049 43.5996Z" fill="#312C71"/>
<path d="M70.4974 43.5991H54.8076V45.2259H61.1817V63.1443H64.1234V45.2259H70.4974V43.5991Z" fill="#312C71"/>
<path d="M90.3036 43.5991V56.7192C90.3036 59.5392 88.0174 61.8254 85.1969 61.8254C82.3768 61.8254 80.0907 59.5392 80.0907 56.7192V43.5991H79.8339H76.9394H75.042C75.9998 44.1161 76.8666 45.4415 76.8904 46.5638L76.9394 46.9513V56.6936C76.9394 60.2562 79.8274 63.1443 83.39 63.1443H85.3164C88.8786 63.1443 91.7667 60.2562 91.7667 56.6936V43.5991H90.3036Z" fill="#312C71"/>
<path d="M97.7949 43.5991C97.7949 43.5991 101.093 44.663 102.506 47.5264L107.747 58.0766L116.082 43.5991L119.843 63.1443H116.349L114.415 49.7415L107.147 62.8741L100.546 50.275L99.2792 62.8741H97.8789L99.2628 46.5162C99.3684 45.6831 99.187 44.8254 97.7949 43.5991Z" fill="#312C71"/>
</svg>
