<svg width="94" height="31" viewBox="0 0 94 31" fill="none" xmlns="http://www.w3.org/2000/svg">
<path d="M0.644571 13.3577C0.728545 12.743 0.835031 12.1298 1.00727 11.5356C1.18665 10.9181 1.38247 10.3039 1.65369 9.71497C1.84772 9.29331 2.04211 8.8713 2.25902 8.46215C2.59205 7.83395 2.97869 7.2372 3.40499 6.66546C3.67621 6.30169 3.9728 5.95972 4.26224 5.61132C4.45306 5.38191 4.67782 5.18002 4.88973 4.96811C5.32925 4.52966 5.79629 4.12051 6.28584 3.73959C6.72572 3.39762 7.1949 3.0946 7.67373 2.80695C8.08467 2.56038 8.50097 2.32418 8.93942 2.13015C9.38394 1.93326 9.82168 1.71314 10.2812 1.5602C11.0416 1.30721 11.8149 1.09173 12.6068 0.950941C13.4847 0.795143 14.3713 0.72439 15.2603 0.707239C15.7427 0.697948 16.2273 0.745115 16.709 0.78871C17.3361 0.845526 17.9568 0.954159 18.5696 1.09423C19.1957 1.23717 19.8092 1.42906 20.4124 1.65346C21.0656 1.89681 21.6985 2.18411 22.3159 2.50571C22.7873 2.75084 23.2236 3.05315 23.6674 3.34331C24.1133 3.63525 24.5268 3.9715 24.9252 4.32134C25.3422 4.68725 25.7407 5.07424 26.1205 5.48304C26.7876 6.20164 27.3583 6.98706 27.8857 7.80822C27.9833 7.96045 28.073 8.11839 28.1591 8.27741C28.2281 8.40498 28.2081 8.44142 28.0716 8.4425C27.7628 8.44535 27.4541 8.44071 27.145 8.44428C27.0317 8.44571 26.9777 8.39604 26.9149 8.29956C26.5918 7.80501 26.2445 7.32546 25.8496 6.88594C25.5288 6.5286 25.1954 6.18306 24.8394 5.85645C24.3224 5.3812 23.771 4.95454 23.1903 4.56468C22.6876 4.22736 22.1584 3.9297 21.6066 3.68063C21.1039 3.45337 20.5854 3.26148 20.0604 3.08638C19.6681 2.9556 19.2621 2.8777 18.8698 2.74977C18.7758 2.71904 18.669 2.71189 18.5811 2.70904C18.3774 2.70189 18.1959 2.62149 18.0007 2.59433C16.9541 2.44747 15.9043 2.43317 14.854 2.53394C13.627 2.65222 12.446 2.94988 11.3011 3.41406C10.8508 3.59702 10.4174 3.80784 9.99284 4.03511C9.37751 4.36422 8.80006 4.758 8.24333 5.18002C7.86062 5.46982 7.50185 5.78963 7.15917 6.12195C6.73894 6.52932 6.35123 6.9717 5.99782 7.44088C5.69766 7.83967 5.40679 8.24417 5.15022 8.67298C4.80968 9.24364 4.50845 9.83432 4.25259 10.4464C4.09215 10.8313 3.93742 11.2204 3.83773 11.6271C3.75518 11.964 3.63405 12.2914 3.56222 12.6287C3.51541 12.8492 3.48039 13.0771 3.45359 13.3023C3.37676 13.9519 3.32138 14.604 3.32781 15.2601C3.3321 15.71 3.33889 16.1595 3.39356 16.6066C3.37248 16.6291 3.37462 16.6498 3.39856 16.6687C3.41929 17.1458 3.49897 17.6192 3.6101 18.0777C3.78699 18.8074 4.00961 19.5267 4.30691 20.2224C4.63602 20.9929 5.03266 21.7236 5.49863 22.4176C5.79093 22.8528 6.11039 23.2673 6.45343 23.6657C6.76824 24.0316 7.09806 24.3836 7.45576 24.7031C8.08967 25.2691 8.76039 25.7901 9.49329 26.23C9.96247 26.5112 10.447 26.7585 10.9416 26.989C11.7066 27.3459 12.5063 27.6039 13.3311 27.7808C14.7236 28.0799 16.1315 28.1667 17.5476 28.0149C18.3449 27.9295 19.1331 27.7733 19.8978 27.5278C20.5439 27.3202 21.1771 27.0758 21.7899 26.7824C21.9043 26.7277 21.9836 26.7195 22.0962 26.8135C22.3988 27.0661 22.7158 27.3013 22.9999 27.5757C23.0828 27.6558 23.1971 27.6993 23.2757 27.8137C23.1242 27.9134 22.977 28.0224 22.8187 28.1117C22.2141 28.453 21.6013 28.7774 20.9577 29.0419C20.6447 29.1705 20.3259 29.2866 20.0111 29.4096C19.6409 29.5539 19.2421 29.6254 18.8576 29.7344C18.327 29.8848 17.7831 29.9581 17.2393 30.041C16.2544 30.1914 15.2693 30.2046 14.2777 30.1525C13.7395 30.1242 13.206 30.0545 12.6775 29.972C12.1433 29.8887 11.6152 29.7522 11.0924 29.6025C10.1061 29.3202 9.17133 28.9186 8.27048 28.4355C7.59976 28.0756 6.96478 27.6611 6.35266 27.2069C5.90063 26.8714 5.48648 26.4948 5.07125 26.1206C4.67854 25.7662 4.32835 25.3659 3.98709 24.9593C3.7123 24.6316 3.43823 24.3032 3.19488 23.952C2.67603 23.2037 2.21792 22.4211 1.83486 21.5925C1.51611 20.9028 1.25597 20.1949 1.0405 19.4677C0.916504 19.049 0.84861 18.6194 0.745697 18.1971C0.68352 17.9423 0.633851 17.6782 0.611338 17.4256C0.570959 16.9803 0.513428 16.5337 0.511999 16.0848C0.510212 15.402 0.496991 14.7195 0.563813 14.038C0.584181 13.8311 0.620272 13.6267 0.637781 13.4202C0.662438 13.402 0.665296 13.3809 0.644571 13.3577Z" fill="#010101"/>
<path d="M6.31625 8.69675C6.3745 8.73177 6.41523 8.77107 6.44275 8.82503C6.52958 8.99584 6.61427 9.16772 6.70646 9.33566C6.76828 9.44858 6.76828 9.55149 6.70432 9.66441C6.33019 10.3276 6.05146 11.0316 5.83349 11.7591C5.57942 12.6092 5.42327 13.4747 5.44042 14.3659C5.44899 14.8319 5.43149 15.2971 5.48973 15.7627C5.55477 16.2848 5.65482 16.7976 5.79847 17.3021C6.23907 18.848 6.99983 20.2205 8.08292 21.4068C8.88157 22.282 9.81779 22.9881 10.8709 23.5369C11.9622 24.1054 13.1231 24.4535 14.3413 24.6107C15.2568 24.7286 16.1694 24.6983 17.0846 24.5596C18.1083 24.4045 19.076 24.0915 20.0026 23.6416C21.1486 23.0852 22.1505 22.3356 23.011 21.3968C24.281 20.0114 25.0925 18.3924 25.4723 16.5589C25.6849 15.5319 25.7082 14.4917 25.5949 13.4518C25.3648 11.3446 24.5311 9.49789 23.1336 7.90703C22.6605 7.36853 22.1402 6.87469 21.5516 6.45768C21.4219 6.36548 21.3991 6.29795 21.4502 6.14143C21.5531 5.82483 21.6124 5.49787 21.6781 5.1727C21.7085 5.02333 21.7185 5.01261 21.8486 5.08765C22.1881 5.28383 22.5186 5.49466 22.8359 5.7255C24.078 6.6292 25.1053 7.73265 25.9083 9.04086C26.6701 10.2812 27.1868 11.614 27.4513 13.048C27.6396 14.0714 27.6964 15.0984 27.601 16.1315C27.3866 18.4552 26.5633 20.5414 25.1107 22.3741C24.45 23.2082 23.6899 23.9375 22.8198 24.5571C22.0344 25.1163 21.2032 25.5866 20.307 25.9407C19.135 26.4042 17.9186 26.6586 16.6601 26.7504C15.7857 26.8141 14.9302 26.7136 14.0687 26.6039C13.6206 26.5468 13.1782 26.4489 12.758 26.3163C11.7167 25.9882 10.7097 25.5694 9.78277 24.9731C8.99985 24.4696 8.26981 23.9032 7.6266 23.2346C6.95481 22.536 6.37557 21.7645 5.88888 20.9223C5.51189 20.2698 5.21101 19.5862 4.95909 18.8798C4.74397 18.2773 4.60425 17.6545 4.50241 17.0234C4.29194 15.7213 4.2948 14.4223 4.52778 13.1209C4.81222 11.5336 5.39861 10.07 6.27909 8.72069C6.28338 8.71461 6.29267 8.71175 6.31625 8.69675Z" fill="#89BB41"/>
<path d="M52.2236 9.71395C52.2793 9.44416 52.2629 9.20546 52.2629 8.96819C52.2632 7.33588 52.2632 5.70356 52.2629 4.0709C52.2629 3.92939 52.2668 3.78753 52.2589 3.64638C52.2529 3.53882 52.29 3.49594 52.4004 3.49809C52.6506 3.50273 52.9011 3.49951 53.1516 3.49951C53.5436 3.49951 53.9359 3.50344 54.3283 3.49701C54.4494 3.49523 54.4976 3.53596 54.4834 3.65531C54.4784 3.69641 54.4826 3.73857 54.4826 3.78002C54.4826 6.84525 54.4826 9.91013 54.4823 12.975C54.4823 13.308 54.508 13.2716 54.1893 13.2737C53.63 13.2777 53.0704 13.2705 52.5116 13.2795C52.3451 13.282 52.2268 13.233 52.1278 13.0994C51.8991 12.7903 51.6615 12.4876 51.4278 12.1821C50.9654 11.5764 50.5033 10.97 50.0402 10.3643C49.7715 10.013 49.5003 9.66356 49.2323 9.31123C48.8653 8.82919 48.5005 8.34571 48.1349 7.86259C47.9773 7.65462 47.8201 7.44701 47.6639 7.24118C47.5871 7.26905 47.6103 7.3273 47.6107 7.37125C47.6118 9.24548 47.6146 11.1194 47.6175 12.9932C47.6175 13.035 47.6168 13.0765 47.6182 13.1183C47.6225 13.2334 47.5718 13.2791 47.4528 13.2784C46.8349 13.2737 46.2175 13.2769 45.5996 13.2737C45.4256 13.2727 45.4234 13.2669 45.4209 13.0865C45.4184 12.92 45.4213 12.7535 45.4213 12.5869C45.4213 9.66321 45.4213 6.73984 45.4217 3.81647C45.4217 3.78324 45.4213 3.74965 45.4217 3.71642C45.4238 3.50166 45.4238 3.50023 45.6389 3.49987C46.1814 3.4988 46.7242 3.50202 47.2666 3.49773C47.3981 3.49666 47.4831 3.52739 47.5721 3.64566C48.1392 4.39857 48.7106 5.14898 49.2859 5.89581C49.7415 6.48685 50.1928 7.08145 50.647 7.67356C51.0015 8.13524 51.3642 8.59013 51.6997 9.06646C51.8537 9.28479 52.036 9.48347 52.2236 9.71395Z" fill="#010101"/>
<path d="M67.1197 19.6976H67.1172C67.1172 19.9806 67.1158 20.2632 67.1175 20.5463C67.1193 20.7628 67.1354 20.7814 67.338 20.7825C67.7132 20.7846 68.0888 20.79 68.4636 20.7785C68.7806 20.7689 69.0918 20.7092 69.3966 20.6202C69.5607 20.5723 69.7029 20.4905 69.804 20.3483C70.2525 19.7176 69.9162 18.8814 69.1662 18.7213C68.5451 18.5884 67.9205 18.6606 67.2976 18.6395C67.1715 18.6352 67.1179 18.7003 67.119 18.8239C67.1211 19.1151 67.1197 19.4064 67.1197 19.6976ZM67.119 23.6122H67.1168C67.1168 23.9202 67.1147 24.2282 67.1172 24.5359C67.119 24.7382 67.1254 24.7453 67.3312 24.746C67.8233 24.7475 68.3157 24.7532 68.8074 24.7407C69.1486 24.7317 69.4878 24.6839 69.8176 24.5906C69.9616 24.5499 70.0977 24.4948 70.2142 24.3894C70.5062 24.1264 70.5512 23.7859 70.5165 23.43C70.4726 22.9804 70.2056 22.7099 69.7726 22.5992C69.5138 22.5327 69.248 22.4909 68.9836 22.483C68.4254 22.4666 67.8662 22.4759 67.3076 22.4784C67.1322 22.4791 67.1225 22.4891 67.12 22.6635C67.1158 22.9797 67.119 23.296 67.119 23.6122ZM70.8539 21.5089C70.9979 21.5604 71.1297 21.6022 71.2573 21.654C71.9902 21.9517 72.5198 22.4516 72.6763 23.242C72.8817 24.2779 72.6434 25.2002 71.8008 25.8956C71.3952 26.2304 70.9039 26.3926 70.3825 26.4727C70.0509 26.5238 69.7193 26.537 69.3859 26.5374C68.0009 26.5384 66.6162 26.5384 65.2312 26.5391C65.1976 26.5391 65.1643 26.5366 65.1311 26.5391C65.0186 26.5477 64.9546 26.5091 64.9675 26.3844C64.9725 26.3347 64.9682 26.2844 64.9682 26.2343C64.9678 23.1873 64.9675 20.1403 64.9671 17.093C64.9671 17.0515 64.9689 17.0097 64.9667 16.9682C64.9614 16.8743 65.0028 16.8285 65.0982 16.8332C65.1233 16.8342 65.1486 16.8325 65.1736 16.8328C66.5665 16.8407 67.9601 16.8132 69.353 16.8478C69.8583 16.8607 70.3386 16.9872 70.8063 17.1784C71.7622 17.5689 72.3647 18.7124 72.1824 19.7858C72.1278 20.1078 72.0559 20.4219 71.8608 20.6938C71.6575 20.9776 71.3874 21.1812 71.0829 21.3453C71.0068 21.3864 70.9092 21.4006 70.8539 21.5089Z" fill="#A5A5A5"/>
<path d="M57.072 24.7697C57.3657 24.749 57.5651 24.7661 57.7638 24.7215C58.3512 24.5896 58.8368 24.3037 59.2474 23.8571C59.792 23.2646 60.0693 22.5682 60.1007 21.7809C60.1333 20.9591 59.9067 20.2079 59.3836 19.5519C58.8658 18.9022 58.1994 18.5324 57.3746 18.4834C56.3062 18.4195 55.4525 18.8458 54.8543 19.7255C54.1364 20.7818 54.055 21.9275 54.5899 23.0684C55.0887 24.1326 55.9363 24.7597 57.072 24.7697ZM57.0412 26.6379C56.0907 26.6718 55.1059 26.3938 54.2183 25.7828C53.3339 25.1742 52.6835 24.3734 52.329 23.3618C52.0625 22.601 51.9981 21.8106 52.0853 21.0005C52.184 20.079 52.5052 19.2549 53.0784 18.5367C53.9303 17.469 55.033 16.8233 56.4002 16.6464C57.4311 16.5127 58.4291 16.6224 59.3839 17.043C59.9228 17.2807 60.3948 17.6223 60.8154 18.0328C61.6305 18.8283 62.1218 19.7809 62.2544 20.9205C62.4052 22.2176 62.1908 23.4318 61.4279 24.506C60.6335 25.6248 59.5622 26.3406 58.1883 26.5735C57.8484 26.6311 57.5079 26.6321 57.0412 26.6379Z" fill="#A5A5A5"/>
<path d="M6.72529 14.7578C6.49159 11.7901 8.19501 8.15745 11.644 6.44473C15.1302 4.71344 19.0923 5.45205 21.7381 7.8387C24.8362 10.6338 25.479 15.2624 23.5648 18.7653C21.8127 21.9717 18.303 23.6237 15.3382 23.4007C15.4082 23.2088 15.5379 23.0548 15.629 22.8804C15.6698 22.8025 15.7466 22.7997 15.8241 22.7968C17.0552 22.7503 18.2051 22.4145 19.2832 21.8259C19.8713 21.505 20.4056 21.1116 20.889 20.6438C21.5608 19.9939 22.1215 19.2656 22.5271 18.4244C22.9576 17.5314 23.2299 16.592 23.2978 15.6004C23.4515 13.3603 22.7729 11.401 21.2746 9.72937C20.0918 8.40973 18.5974 7.63109 16.8708 7.28876C16.1479 7.14547 15.4132 7.14011 14.6792 7.2198C12.8189 7.42169 11.2195 8.17567 9.90344 9.50246C8.74924 10.6663 8.04743 12.0714 7.75477 13.6801C7.71761 13.8841 7.70189 14.0928 7.68581 14.2997C7.67759 14.4058 7.634 14.4684 7.53287 14.4998C7.26379 14.5838 6.99615 14.671 6.72529 14.7578Z" fill="#A5A5A5"/>
<path d="M93.0198 8.41157V12.9848C93.0198 13.0348 93.0177 13.0848 93.0202 13.1348C93.0255 13.236 92.988 13.2885 92.8772 13.2878C92.243 13.2853 91.6087 13.2881 90.9741 13.2838C90.8197 13.2828 90.8161 13.2706 90.8165 13.0737C90.8172 12.2908 90.8193 11.5079 90.8204 10.725C90.8211 10.3916 90.8229 10.0585 90.8204 9.72514C90.8186 9.46035 90.8165 9.45892 90.5588 9.45785C90.1665 9.45678 89.7741 9.45856 89.3818 9.45821C88.6557 9.45785 87.9295 9.45678 87.2031 9.45606C86.959 9.45606 86.9551 9.45785 86.9551 9.71084C86.9554 10.8018 86.9576 11.8931 86.959 12.9844C86.959 13.0426 86.9594 13.1009 86.9605 13.1591C86.9622 13.2542 86.9147 13.2906 86.8218 13.2903C86.1872 13.2871 85.5529 13.2853 84.9183 13.2856C84.8064 13.2856 84.7421 13.2488 84.7532 13.1263C84.756 13.0934 84.7535 13.0598 84.7535 13.0266C84.7535 9.95276 84.7535 6.87895 84.7546 3.80515C84.7546 3.4714 84.7228 3.49927 85.0673 3.49891C85.5929 3.4982 86.1189 3.49748 86.6449 3.49891C86.9815 3.49998 86.9594 3.46139 86.9587 3.80265C86.9576 4.78532 86.9558 5.76835 86.9547 6.75139C86.9547 6.95114 86.9551 7.15124 86.9579 7.351C86.9612 7.57719 86.9626 7.58291 87.1763 7.58326C88.3201 7.58576 89.4636 7.58648 90.6071 7.58505C90.8118 7.58469 90.8175 7.57826 90.8183 7.37387C90.8211 6.64919 90.8204 5.92451 90.8204 5.19983C90.8208 4.70814 90.82 4.2168 90.8204 3.7251C90.8208 3.50284 90.8215 3.49998 91.0391 3.49927C91.6237 3.49784 92.2079 3.49784 92.7922 3.49891C93.018 3.49963 93.0202 3.50141 93.0202 3.73833C93.0209 4.97114 93.0198 6.20395 93.0198 7.43711C93.0194 7.76193 93.0194 8.08675 93.0198 8.41157Z" fill="#89BB41"/>
<path d="M65.357 8.36032C65.357 6.83593 65.357 5.31117 65.357 3.78678C65.357 3.73675 65.3599 3.68672 65.3574 3.6367C65.3531 3.54558 65.3863 3.49376 65.486 3.49876C65.536 3.50127 65.5861 3.49841 65.6364 3.49841C67.8069 3.49841 69.9774 3.49841 72.1478 3.49841C72.1896 3.49841 72.2318 3.50198 72.2733 3.49805C72.3933 3.48626 72.4348 3.54057 72.4333 3.65778C72.4276 4.04084 72.4283 4.42427 72.4276 4.80733C72.4276 4.96563 72.4255 5.12429 72.4337 5.28223C72.4408 5.41444 72.3815 5.4609 72.2568 5.45625C72.1485 5.45268 72.0399 5.45875 71.9313 5.45875C70.5455 5.45768 69.1598 5.45661 67.774 5.45554C67.5793 5.45518 67.5746 5.45518 67.5736 5.64671C67.5707 6.17986 67.5711 6.713 67.5718 7.24615C67.5721 7.44983 67.5743 7.44804 67.7837 7.44769C69.0776 7.44554 70.3715 7.44411 71.6658 7.44268C71.699 7.44268 71.7326 7.4459 71.7658 7.44268C71.9016 7.42946 71.9341 7.49879 71.9331 7.62207C71.9284 8.12198 71.9316 8.62189 71.9313 9.12181C71.9313 9.33335 71.9302 9.33371 71.7044 9.33371C70.4269 9.33335 69.1498 9.33228 67.8723 9.33228C67.5546 9.33228 67.5714 9.30619 67.5718 9.62601C67.5729 10.1177 67.5707 10.609 67.5714 11.1007C67.5718 11.3326 67.5736 11.3341 67.8094 11.3341C69.2952 11.333 70.7814 11.3309 72.2672 11.3309C72.6056 11.3309 72.5816 11.2941 72.582 11.6342C72.582 12.1006 72.5824 12.5672 72.5816 13.0336C72.5809 13.2833 72.5802 13.2855 72.3401 13.2869C71.9309 13.2891 71.5218 13.2891 71.1126 13.2891C69.3263 13.2887 67.5396 13.2883 65.7529 13.2876C65.7115 13.2876 65.6697 13.2869 65.6279 13.2862C65.3534 13.2819 65.352 13.2819 65.352 13.0089C65.3513 11.4595 65.3517 9.90973 65.3517 8.36032H65.357Z" fill="#89BB41"/>
<path d="M79.2784 19.748C78.87 20.6853 78.4723 21.5982 78.0746 22.5105C78.1857 22.5641 78.2704 22.5466 78.3526 22.5466C78.9615 22.5484 79.5704 22.5477 80.1789 22.5484C80.5355 22.5488 80.5359 22.5455 80.3912 22.2111C80.0871 21.5093 79.7873 20.8053 79.4828 20.1039C79.4342 19.9924 79.3971 19.872 79.2784 19.748ZM84.5109 26.5277C84.4405 26.5313 84.3744 26.537 84.3086 26.537C83.6908 26.537 83.0733 26.5313 82.4559 26.5388C82.2976 26.5406 82.2189 26.4845 82.1596 26.3397C81.9513 25.832 81.7297 25.3292 81.5136 24.8246C81.5003 24.7939 81.4864 24.7635 81.4771 24.7317C81.4099 24.4966 81.2634 24.428 81.014 24.4312C79.8541 24.4455 78.6938 24.4409 77.5339 24.4287C77.3256 24.4269 77.2148 24.493 77.1376 24.6824C76.9168 25.2213 76.6809 25.7537 76.4537 26.2897C76.3511 26.5323 76.354 26.5356 76.0921 26.5359C75.4746 26.5366 74.8571 26.5356 74.2393 26.5341C74.1817 26.5341 74.1224 26.5445 74.0527 26.5095C74.1674 26.2365 74.28 25.961 74.3983 25.6876C75.1347 23.9845 75.8719 22.2815 76.6098 20.5791C77.103 19.4414 77.5989 18.305 78.0913 17.1673C78.2354 16.8342 78.2314 16.8325 78.5863 16.8325C79.1037 16.8325 79.6211 16.8317 80.1385 16.8328C80.3665 16.8332 80.3601 16.8375 80.4448 17.0361C80.7378 17.7251 81.0354 18.4122 81.3317 19.0998C81.7862 20.1543 82.2397 21.2091 82.696 22.2625C83.093 23.1787 83.4928 24.0935 83.8923 25.0087C84.0889 25.4585 84.2876 25.9077 84.4837 26.3576C84.503 26.4019 84.5345 26.4455 84.5109 26.5277Z" fill="#A5A5A5"/>
<path d="M39.8699 19.6286C39.7127 19.4828 39.5812 19.3566 39.4364 19.2444C38.8393 18.781 38.1554 18.5651 37.4096 18.5834C36.18 18.6134 35.1974 19.2866 34.7471 20.369C34.5999 20.7238 34.5113 21.0947 34.5302 21.4871C34.5463 21.8273 34.5116 22.1696 34.5938 22.5062C34.8504 23.5604 35.4804 24.2782 36.5216 24.6088C36.9651 24.7496 37.4293 24.7278 37.887 24.6831C38.2612 24.6463 38.6235 24.5559 38.9705 24.4004C39.147 24.3215 39.2177 24.2139 39.2149 24.0174C39.2038 23.3181 39.2092 22.6184 39.2081 21.9187C39.2081 21.8687 39.2117 21.8183 39.207 21.769C39.1949 21.6425 39.2424 21.5871 39.3764 21.5936C39.5511 21.6025 39.7269 21.5961 39.902 21.5961C40.3194 21.5957 40.7368 21.5946 41.1541 21.5964C41.3521 21.5971 41.3564 21.5996 41.3568 21.7801C41.3578 22.8296 41.3557 23.8791 41.3589 24.9282C41.3593 25.0472 41.3167 25.1323 41.2338 25.2127C40.4688 25.9541 39.5654 26.4173 38.5074 26.5766C37.6083 26.7117 36.7135 26.7256 35.8306 26.4751C35.0969 26.2668 34.4477 25.9048 33.8866 25.3856C33.3985 24.9336 32.9829 24.4298 32.711 23.8169C32.4755 23.2866 32.324 22.7367 32.3076 22.1549C32.2994 21.8637 32.2926 21.5714 32.3036 21.2805C32.3494 20.092 32.781 19.0661 33.6122 18.2082C33.9913 17.8169 34.4001 17.4678 34.8808 17.203C35.4132 16.9096 35.9785 16.7284 36.5802 16.6473C37.3678 16.5416 38.1436 16.5902 38.9083 16.8042C39.634 17.0079 40.274 17.3756 40.8583 17.8444C40.9919 17.9523 40.9898 17.9748 40.8833 18.1349C40.556 18.627 40.1954 19.0962 39.8699 19.6286Z" fill="#A5A5A5"/>
<path d="M79.0006 3.29078C80.2409 3.27006 81.3079 3.61096 82.257 4.31812C82.5114 4.50823 82.7354 4.73299 82.9634 4.9524C83.0781 5.06281 83.081 5.15358 82.9724 5.28007C82.5972 5.71567 82.2159 6.1459 81.8392 6.58006C81.7656 6.66475 81.7088 6.6576 81.6374 6.57649C81.4276 6.33779 81.1893 6.1316 80.9384 5.93543C80.5368 5.62097 80.0754 5.46553 79.5812 5.40585C78.9924 5.33475 78.4045 5.37334 77.8721 5.65277C77.2185 5.99617 76.6461 6.44785 76.3934 7.17574C76.074 8.09552 76.0822 9.02174 76.5567 9.88614C77.0581 10.7984 77.856 11.2933 78.9109 11.3358C79.6695 11.3666 80.3642 11.1686 80.9781 10.7169C81.1864 10.5636 81.3769 10.3864 81.538 10.1842C81.617 10.0852 81.6638 10.0823 81.7496 10.1731C82.0529 10.494 82.3624 10.8091 82.6715 11.1247C82.7647 11.2197 82.8644 11.3087 82.9602 11.4012C83.036 11.4749 83.0553 11.5352 82.9652 11.6292C82.2916 12.3321 81.528 12.8938 80.5832 13.1804C79.8693 13.397 79.141 13.4352 78.4038 13.3577C77.1896 13.2304 76.144 12.7377 75.2903 11.8711C74.6386 11.2094 74.2187 10.4118 74.0404 9.49521C73.8696 8.61509 73.8796 7.73997 74.1276 6.87486C74.3062 6.25131 74.6025 5.68601 75.0145 5.18323C75.6877 4.36208 76.5249 3.78462 77.5501 3.48589C78.0426 3.3426 78.545 3.28292 79.0006 3.29078Z" fill="#89BB41"/>
<path d="M32.268 8.40176C32.268 6.89416 32.268 5.38655 32.268 3.87895C32.268 3.79569 32.272 3.71243 32.2687 3.62917C32.2648 3.53341 32.3048 3.49088 32.402 3.4991C32.4517 3.50339 32.5021 3.49982 32.5521 3.49982C34.5971 3.49982 36.6418 3.49982 38.6869 3.49982C38.7205 3.49982 38.7537 3.49946 38.7873 3.49982C38.9952 3.50339 38.9963 3.50339 38.9963 3.70493C38.9963 4.07977 38.9945 4.45462 38.9949 4.82947C38.9952 4.9624 39.0006 5.09568 39.0006 5.22897C39.001 5.42336 38.9956 5.43015 38.808 5.42872C38.6829 5.42765 38.5579 5.41443 38.4328 5.41443C37.1807 5.41335 35.9289 5.413 34.6768 5.41407C34.4592 5.41407 34.456 5.41693 34.456 5.6349C34.456 6.20128 34.4585 6.76766 34.4614 7.33404C34.4624 7.5345 34.4642 7.53522 34.6647 7.53522C35.9332 7.53522 37.2018 7.53486 38.4707 7.53486C38.5289 7.53486 38.5879 7.53879 38.6458 7.53414C38.7451 7.52593 38.7766 7.57023 38.7741 7.66529C38.7676 7.9315 38.7655 8.19807 38.7651 8.46465C38.7651 8.71443 38.7698 8.96456 38.7719 9.21434C38.7741 9.44661 38.7737 9.44768 38.5429 9.44732C37.5162 9.44696 36.4896 9.44625 35.463 9.44518C35.196 9.44482 34.9288 9.44303 34.6618 9.44303C34.4596 9.44303 34.456 9.44411 34.456 9.64457C34.4564 10.7191 34.4567 11.7936 34.461 12.8681C34.4628 13.2758 34.4678 13.2758 34.0533 13.2758C33.5276 13.2758 33.0016 13.2762 32.476 13.2751C32.2673 13.2744 32.267 13.2726 32.2666 13.0743C32.2666 11.517 32.2666 9.95938 32.2666 8.40176H32.268Z" fill="#010101"/>
<path d="M61.0119 9.33986C61.0119 10.5727 61.0119 11.8058 61.0119 13.0386C61.0119 13.0637 61.0112 13.0887 61.0134 13.1137C61.0234 13.2359 60.9812 13.3024 60.8444 13.2913C60.745 13.2831 60.6442 13.2899 60.5438 13.2895C60.0514 13.2884 59.559 13.2888 59.0662 13.2856C58.8068 13.2841 58.8061 13.2809 58.8061 13.0219C58.8058 10.5977 58.8065 8.17352 58.8058 5.74935C58.8058 5.35413 58.8526 5.40023 58.4645 5.39916C57.7384 5.39701 57.0119 5.39844 56.2858 5.39844C56.006 5.39844 56.0335 5.40666 56.0343 5.13652C56.0357 4.66162 56.0375 4.18672 56.0414 3.71217C56.0432 3.50349 56.0457 3.50242 56.2447 3.4992C56.378 3.49706 56.5117 3.49849 56.6453 3.49849C58.9076 3.49849 61.1702 3.49849 63.4325 3.49849C63.4908 3.49849 63.5494 3.49741 63.6076 3.49884C63.7963 3.50349 63.7995 3.50385 63.8002 3.69645C63.8024 4.19636 63.802 4.69628 63.8002 5.19619C63.7995 5.39487 63.7967 5.39773 63.5876 5.39809C62.8279 5.39952 62.0682 5.39844 61.3085 5.3988C61.2503 5.3988 61.1917 5.40023 61.1334 5.39916C61.0527 5.39737 61.0077 5.43025 61.0084 5.51601C61.0094 5.59105 61.0066 5.66609 61.0066 5.74113C61.0066 6.94071 61.0066 8.14028 61.0066 9.33986H61.0119Z" fill="#89BB41"/>
<path d="M86.5074 21.6715C86.5074 20.1479 86.5074 18.6245 86.5074 17.1008C86.5074 17.0758 86.5064 17.0508 86.5071 17.0262C86.5117 16.8382 86.5117 16.8343 86.7061 16.8336C87.3068 16.8314 87.9075 16.8314 88.5082 16.8339C88.6872 16.8346 88.6886 16.8396 88.6936 17.0147C88.6968 17.123 88.6947 17.2313 88.6947 17.3392C88.6947 19.6705 88.6947 22.0014 88.6943 24.3326C88.6943 24.6456 88.6943 24.6467 89.0066 24.6467C90.1744 24.6471 91.3426 24.6464 92.5107 24.646C92.5607 24.646 92.6107 24.6449 92.6608 24.646C92.8491 24.6499 92.8519 24.6503 92.8527 24.8415C92.8541 25.3492 92.8498 25.857 92.8548 26.3648C92.8562 26.4909 92.8191 26.5499 92.6854 26.5402C92.5775 26.5327 92.4689 26.5381 92.3602 26.5381C90.5164 26.5385 88.6729 26.5388 86.829 26.5392C86.7955 26.5392 86.7622 26.5395 86.729 26.5392C86.5114 26.5356 86.5089 26.5356 86.5089 26.3169C86.5082 24.7686 86.5085 23.2199 86.5085 21.6715H86.5074Z" fill="#A5A5A5"/>
<path d="M44.1297 21.66V17.0897C44.1297 17.0482 44.1315 17.0064 44.1293 16.965C44.124 16.8685 44.1708 16.8324 44.2644 16.8324C44.8901 16.8342 45.5154 16.8338 46.1411 16.8331C46.2326 16.8331 46.2819 16.8703 46.2794 16.966C46.278 17.0243 46.2801 17.0825 46.2801 17.1408C46.2801 19.5467 46.2801 21.9523 46.2798 24.3582C46.2798 24.4 46.2812 24.4415 46.2791 24.4829C46.273 24.5977 46.3223 24.6541 46.4413 24.647C46.5078 24.643 46.5746 24.6466 46.6414 24.6466C47.8345 24.6463 49.0273 24.6459 50.2201 24.6455C50.2619 24.6455 50.3037 24.6484 50.3452 24.6455C50.4417 24.6395 50.477 24.6838 50.4763 24.7785C50.4738 25.3198 50.4742 25.8608 50.4756 26.4018C50.476 26.494 50.4435 26.543 50.3459 26.5387C50.2959 26.5362 50.2458 26.5387 50.1958 26.5387C48.2687 26.5387 46.3416 26.5391 44.4145 26.5391C44.3644 26.5391 44.3144 26.5366 44.2644 26.5387C44.1701 26.5426 44.1261 26.5005 44.1307 26.4051C44.1336 26.3468 44.1307 26.2886 44.1307 26.2303C44.1307 24.707 44.1307 23.1833 44.1307 21.66H44.1297Z" fill="#A5A5A5"/>
<path d="M43.0256 8.41633C43.0256 9.94824 43.0256 11.4798 43.0256 13.0117C43.0256 13.0367 43.026 13.0617 43.0256 13.0867C43.0214 13.2732 43.0214 13.275 42.8305 13.275C42.2384 13.2761 41.646 13.2768 41.0539 13.275C40.8291 13.2747 40.8291 13.2718 40.8291 13.0588C40.8305 10.2116 40.8316 7.36469 40.8334 4.51744C40.8334 4.22621 40.8409 3.93498 40.8366 3.64375C40.8348 3.53405 40.8741 3.49796 40.9813 3.49832C41.6152 3.50118 42.2495 3.50153 42.8834 3.49796C42.9949 3.49724 43.0335 3.54227 43.0239 3.64625C43.0203 3.68735 43.0231 3.72951 43.0231 3.77096C43.0231 5.3193 43.0231 6.868 43.0231 8.41633H43.0256Z" fill="#010101"/>
<path d="M0.644664 13.3574C0.665544 13.3808 0.662664 13.402 0.637823 13.4204C0.616943 13.3966 0.620183 13.3758 0.644664 13.3574Z" fill="#89BB41"/>
<path d="M3.39854 16.6689C3.37442 16.6499 3.37226 16.629 3.3935 16.6067C3.41834 16.6257 3.4205 16.6463 3.39854 16.6689Z" fill="#89BB41"/>
</svg>
