<svg width="96" height="38" viewBox="0 0 96 38" fill="none" xmlns="http://www.w3.org/2000/svg">
<path d="M15.9205 22.436H40.9941V7.9926H35.1457V18.268H31.4047V7.98987H25.5615V18.2566H21.773V7.90536C0.860659 8.46449 0.238281 22.4922 0.238281 22.4922H6.25622C7.9902 14.6016 15.9205 13.3086 15.9205 13.3086V22.436Z" fill="#231F20"/>
<path d="M15.8916 29.4529H21.74V25.2121H15.8916V29.4529Z" fill="#231F20"/>
<path d="M31.41 25.2118H25.5615V29.4526H31.41V25.2118Z" fill="#231F20"/>
<path d="M40.9939 25.2118H35.1455V29.4526H40.9939V25.2118Z" fill="#231F20"/>
<path d="M65.251 16.4726C65.6594 14.3484 62.7893 12.1942 62.7893 12.1942L64.9944 12.0811C69.3325 12.1792 65.251 16.4726 65.251 16.4726ZM77.1953 0.940113V18.267H69.9267C69.9267 18.267 79.3818 8.55208 65.4565 8.00848L59.2535 8.01066L56.685 13.5011C59.8058 15.0409 60.7037 18.3144 60.7037 18.3144H52.9937V7.96568H47.1894V22.7452C47.1894 22.7452 47.1449 25.1985 43.6807 25.1985V29.4996C43.6807 29.4996 52.4478 29.8103 53.0182 22.4816H83.0578V6.45757C83.0578 6.45757 89.1588 7.8659 89.1588 13.3973V22.498L95.1085 21.6234V14.0595C95.1085 14.0595 95.7194 1.3185 77.1953 0.940113Z" fill="#231F20"/>
<path d="M3.55328 36.4872L4.36297 35.0184L5.16487 36.4872H3.55328ZM3.44312 33.9767L1.02148 38.0027H2.71207L3.16643 37.1862H5.54393L5.99013 38.0027H7.68072L5.26724 33.9767H3.44312Z" fill="#231F20"/>
<path d="M8.24316 38.0027H9.66707V33.9767H8.24316V38.0027Z" fill="#231F20"/>
<path d="M15.1685 36.4872L15.9782 35.0184L16.7797 36.4872H15.1685ZM15.058 33.9767L12.6367 38.0027H14.3273L14.7813 37.1862H17.1588L17.6054 38.0027H19.2956L16.8821 33.9767H15.058Z" fill="#231F20"/>
<path d="M22.4776 34.9946C22.1723 34.9946 21.9064 35.0783 21.6798 35.2457C21.4532 35.4131 21.2951 35.5843 21.2058 35.7602V35.0462H19.7822V38.0027H21.2058V36.7301C21.34 36.4608 21.4806 36.2765 21.6264 36.1767C21.7721 36.0769 21.9457 36.027 22.146 36.027C22.3671 36.027 22.5855 36.1026 22.8014 36.2533L23.3266 35.2065C23.1608 35.1348 23.018 35.0819 22.8978 35.047C22.7784 35.0124 22.6382 34.9946 22.4776 34.9946Z" fill="#231F20"/>
<path d="M25.8525 37.2884C25.7524 37.3446 25.6545 37.392 25.5588 37.4318C25.4627 37.4713 25.3659 37.4912 25.2687 37.4912C25.166 37.4912 25.0762 37.465 24.9983 37.413C24.9208 37.3612 24.8819 37.2857 24.8819 37.187C24.8819 37.0499 24.9594 36.9414 25.1148 36.8615C25.2698 36.7811 25.5157 36.6908 25.8525 36.5902V37.2884ZM27.3176 37.3099C27.2898 37.2568 27.2761 37.1755 27.2761 37.0676V35.9267C27.2761 35.6366 27.1292 35.4084 26.8354 35.2432C26.5417 35.0778 26.1036 34.9949 25.5217 34.9949C25.2921 34.9949 25.0658 35.0096 24.8418 35.0385C24.6182 35.0677 24.4034 35.1121 24.1976 35.171C23.9924 35.2301 23.8014 35.3065 23.6249 35.3994V36.2012C23.8459 36.0425 24.0896 35.913 24.3552 35.8125C24.6215 35.7116 24.9097 35.6614 25.2205 35.6614C25.4838 35.6614 25.6548 35.7018 25.7338 35.7833C25.8132 35.8643 25.8525 35.9766 25.8525 36.1194C25.7969 36.141 25.7442 36.1581 25.6945 36.1718C25.6445 36.1854 25.5688 36.2042 25.4675 36.2285C25.3659 36.2525 25.2164 36.2876 25.0191 36.334C24.6712 36.4155 24.3923 36.4937 24.1816 36.5692C23.9709 36.6445 23.8029 36.7415 23.6779 36.8607C23.5533 36.9795 23.4902 37.13 23.4902 37.3116C23.4902 37.4318 23.527 37.5482 23.5989 37.6613C23.6716 37.7745 23.7977 37.868 23.9783 37.9427C24.1586 38.0171 24.3949 38.0544 24.6875 38.0544C24.9902 38.0544 25.235 38.0247 25.4219 37.9658C25.6088 37.9067 25.7787 37.8317 25.9315 37.7409C25.9708 37.8279 26.0369 37.9021 26.1292 37.9628C26.2216 38.0239 26.3848 38.0544 26.6196 38.0544C26.867 38.0544 27.0791 38.0359 27.2557 37.9994C27.4326 37.9623 27.6247 37.9143 27.8328 37.8541V37.3053C27.68 37.3615 27.5591 37.3898 27.4697 37.3898C27.3959 37.3898 27.3451 37.3631 27.3176 37.3099Z" fill="#231F20"/>
<path d="M31.0571 37.1126C30.8831 37.2178 30.7077 37.2707 30.5312 37.2707C30.2515 37.2707 30.0115 37.2012 29.8112 37.0619V35.934C30.0775 35.8086 30.3175 35.7457 30.5312 35.7457C30.7448 35.7457 30.9288 35.8122 31.0845 35.9441C31.24 36.0769 31.3178 36.2694 31.3178 36.5229C31.3178 36.8108 31.2311 37.0073 31.0571 37.1126ZM32.3479 35.4741C32.1913 35.3269 31.9892 35.2105 31.7418 35.1244C31.4944 35.0382 31.2088 34.9949 30.885 34.9949C30.6428 34.9949 30.4299 35.0181 30.2452 35.0633C30.0612 35.1091 29.9169 35.1617 29.8112 35.222V33.9767H28.3877V38.0026H29.8112V37.7352C29.9032 37.7933 29.9922 37.8429 30.0779 37.8846C30.1632 37.926 30.283 37.965 30.4369 38.0005C30.5909 38.0365 30.7734 38.0544 30.984 38.0544C31.2759 38.0544 31.563 38.0013 31.8445 37.895C32.1264 37.7884 32.3575 37.6226 32.5396 37.3974C32.721 37.172 32.8119 36.8882 32.8119 36.5458C32.8119 36.3446 32.7736 36.1524 32.6972 35.9695C32.6208 35.7863 32.5044 35.6214 32.3479 35.4741Z" fill="#231F20"/>
<path d="M33.906 34.0561C33.7903 34.1433 33.7324 34.2472 33.7324 34.3674C33.7324 34.4489 33.7588 34.5234 33.8111 34.5902C33.8637 34.6572 33.9357 34.7101 34.0262 34.7491C34.1167 34.7875 34.2176 34.8069 34.3277 34.8069C34.4909 34.8069 34.6315 34.7644 34.7502 34.6788C34.8681 34.5937 34.9275 34.4896 34.9275 34.3674C34.9275 34.2472 34.8681 34.1433 34.7502 34.0561C34.6315 33.9686 34.4909 33.925 34.3277 33.925C34.1627 33.925 34.0217 33.9686 33.906 34.0561Z" fill="#231F20"/>
<path d="M33.6191 38.0027H35.0427V35.0464H33.6191V38.0027Z" fill="#231F20"/>
<path d="M38.0237 36.515L37.2062 35.0462H35.6777L37.2689 37.6177L36.1636 39.3491H37.6012L40.3341 35.0462H38.9517L38.0237 36.515Z" fill="#231F20"/>
<path d="M42.9297 37.2884C42.8295 37.3446 42.7316 37.392 42.6356 37.4318C42.5395 37.4713 42.4431 37.4912 42.3455 37.4912C42.2428 37.4912 42.1534 37.465 42.0755 37.413C41.9976 37.3612 41.959 37.2857 41.959 37.187C41.959 37.0499 42.0365 36.9414 42.1919 36.8615C42.347 36.7811 42.5929 36.6908 42.9297 36.5902V37.2884ZM44.3948 37.3099C44.3669 37.2568 44.3536 37.1755 44.3536 37.0676V35.9267C44.3536 35.6366 44.206 35.4084 43.9126 35.2432C43.6188 35.0778 43.1804 34.9949 42.5985 34.9949C42.3692 34.9949 42.1426 35.0096 41.919 35.0385C41.6949 35.0677 41.4802 35.1121 41.2747 35.171C41.0692 35.2301 40.8786 35.3065 40.7017 35.3994V36.2012C40.9231 36.0425 41.1664 35.913 41.4327 35.8125C41.6983 35.7116 41.9868 35.6614 42.2977 35.6614C42.561 35.6614 42.7316 35.7018 42.8106 35.7833C42.8896 35.8643 42.9297 35.9766 42.9297 36.1194C42.874 36.141 42.8214 36.1581 42.7717 36.1718C42.7212 36.1854 42.6456 36.2042 42.5443 36.2285C42.4431 36.2525 42.2936 36.2876 42.0963 36.334C41.7483 36.4155 41.4691 36.4937 41.2588 36.5692C41.0481 36.6445 40.8801 36.7415 40.7551 36.8607C40.6297 36.9795 40.5674 37.13 40.5674 37.3116C40.5674 37.4318 40.6034 37.5482 40.6761 37.6613C40.7484 37.7745 40.8749 37.868 41.0551 37.9427C41.2354 38.0171 41.472 38.0544 41.7643 38.0544C42.067 38.0544 42.3121 38.0247 42.4987 37.9658C42.6856 37.9067 42.8559 37.8317 43.0087 37.7409C43.048 37.8279 43.114 37.9021 43.2064 37.9628C43.2984 38.0239 43.4619 38.0544 43.6967 38.0544C43.9437 38.0544 44.1559 38.0359 44.3328 37.9994C44.509 37.9623 44.7019 37.9143 44.9099 37.8541V37.3053C44.7571 37.3615 44.6362 37.3898 44.5461 37.3898C44.473 37.3898 44.4222 37.3631 44.3948 37.3099Z" fill="#231F20"/>
<path d="M52.1076 37.0669L48.4075 33.9321H47.7725V37.9688H48.5098V34.8609L52.1781 37.9688H52.8576V33.9321H52.1076V37.0669Z" fill="#231F20"/>
<path d="M54.4928 36.3707C54.5425 36.16 54.6493 35.9975 54.814 35.883C54.9775 35.7693 55.1886 35.7118 55.4464 35.7118C55.7038 35.7118 55.9089 35.7693 56.0602 35.883C56.213 35.9975 56.2983 36.16 56.3173 36.3707H54.4928ZM55.4453 35.2541C54.9468 35.2541 54.5417 35.3811 54.2298 35.6349C53.9175 35.889 53.7617 36.2183 53.7617 36.6237C53.7617 36.8938 53.8355 37.1316 53.9831 37.3374C54.1319 37.5429 54.3288 37.7065 54.5751 37.8281C54.8218 37.9497 55.1441 38.0107 55.5432 38.0107C55.834 38.0107 56.0877 37.9876 56.3043 37.9415C56.5205 37.8954 56.7386 37.8183 56.9589 37.7106V37.1975C56.5609 37.4126 56.1255 37.52 55.6544 37.52C55.3169 37.52 55.041 37.4448 54.827 37.2935C54.6141 37.143 54.4983 36.9391 54.4798 36.6839H57.0227V36.6171C57.0227 36.2025 56.8795 35.8715 56.5932 35.6245C56.3076 35.3776 55.9248 35.2541 55.4453 35.2541Z" fill="#231F20"/>
<path d="M61.2437 36.9233L60.3328 35.3105H59.7968L58.8792 36.9233L57.9345 35.3105H57.166L58.7717 38.0156H59.0064L60.0613 36.1632L61.128 38.0156H61.3632L62.9566 35.3105H62.1896L61.2437 36.9233Z" fill="#231F20"/>
<path d="M64.838 36.4364L64.582 36.3293C64.3877 36.2502 64.2516 36.1829 64.1744 36.1267C64.0969 36.0708 64.0583 36.0119 64.0583 35.9498C64.0583 35.8783 64.1006 35.8208 64.1855 35.7775C64.2716 35.7339 64.3836 35.7121 64.5227 35.7121C64.7923 35.7121 65.1399 35.8058 65.5649 35.9926V35.4732C65.1925 35.3274 64.8294 35.2543 64.4748 35.2543C64.134 35.2543 63.8551 35.3192 63.6392 35.4482C63.423 35.5777 63.3143 35.7445 63.3143 35.949C63.3143 36.1071 63.3862 36.2535 63.5294 36.3876C63.6726 36.5217 63.9752 36.6834 64.4374 36.8723C64.6681 36.9691 64.8187 37.0424 64.888 37.0939C64.9581 37.1452 64.9926 37.2098 64.9926 37.2867C64.9926 37.3622 64.9388 37.4268 64.8309 37.4811C64.723 37.5353 64.5939 37.5623 64.4448 37.5623C64.3002 37.5623 64.1214 37.5299 63.91 37.4655C63.6985 37.4006 63.4912 37.3161 63.2891 37.212V37.7785C63.5435 37.869 63.7549 37.9311 63.9229 37.9649C64.091 37.9985 64.2823 38.0154 64.4978 38.0154C64.8632 38.0154 65.1614 37.9456 65.3939 37.8057C65.6261 37.6659 65.7426 37.4873 65.7426 37.2692C65.7426 36.9647 65.4414 36.6869 64.838 36.4364Z" fill="#231F20"/>
<path d="M70.1153 37.0552C69.7066 36.7698 69.5019 36.4056 69.5019 35.9623C69.5019 35.5228 69.7103 35.1575 70.1254 34.8653C70.5411 34.5733 71.063 34.4275 71.6924 34.4275C72.3059 34.4275 72.9342 34.5627 73.5763 34.8337V34.2126C72.8715 33.9883 72.2302 33.876 71.6535 33.876C70.8175 33.876 70.1139 34.0766 69.5442 34.4776C68.9737 34.8789 68.6885 35.3734 68.6885 35.9615C68.6885 36.3317 68.8131 36.6763 69.0616 36.9944C69.3109 37.3128 69.6491 37.5623 70.0764 37.7436C70.5029 37.9248 71.0237 38.0156 71.6368 38.0156C72.3916 38.0156 73.0574 37.8987 73.6338 37.665V37.0296C72.9995 37.3319 72.3497 37.4829 71.6839 37.4829C71.0474 37.4829 70.5241 37.3404 70.1153 37.0552Z" fill="#231F20"/>
<path d="M76.9686 35.3876C76.7772 35.2988 76.5602 35.2546 76.3187 35.2546C75.8748 35.2546 75.5027 35.3887 75.2034 35.6578V33.9321H74.4854V37.9688H75.2034V36.0621C75.3718 35.9236 75.525 35.8244 75.6641 35.7644C75.8032 35.7047 75.9519 35.675 76.1088 35.675C76.3217 35.675 76.4934 35.7341 76.6229 35.8527C76.7534 35.9716 76.818 36.1283 76.818 36.323V37.9688H77.5364V36.4525C77.5364 36.1439 77.4901 35.9116 77.3962 35.7548C77.3031 35.5989 77.1611 35.4765 76.9686 35.3876Z" fill="#231F20"/>
<path d="M80.0956 37.4459C79.902 37.5827 79.6921 37.6512 79.4644 37.6512C79.313 37.6512 79.1899 37.6165 79.0942 37.5473C78.9989 37.4775 78.9514 37.3875 78.9514 37.2777C78.9514 37.17 79.0018 37.08 79.102 37.0075C79.2029 36.935 79.3746 36.8633 79.6175 36.7919L80.0956 36.6558V37.4459ZM80.8011 37.5053V36.3712C80.8011 36.1469 80.7929 35.9945 80.7751 35.9143C80.7584 35.8339 80.7191 35.7535 80.6561 35.6736C80.5934 35.5935 80.5226 35.5289 80.4439 35.4806C80.2088 35.3298 79.8957 35.2543 79.5063 35.2543C78.9855 35.2543 78.5868 35.3746 78.3094 35.6147V36.1886C78.6777 35.8928 79.0556 35.7448 79.4454 35.7448C79.879 35.7448 80.0956 35.9062 80.0956 36.2281V36.371L79.1814 36.6024C78.8802 36.6793 78.6484 36.784 78.4844 36.9162C78.3209 37.0484 78.2393 37.1983 78.2393 37.3657C78.2393 37.5508 78.3235 37.7049 78.4915 37.8273C78.6595 37.9497 78.8698 38.0107 79.122 38.0107C79.4662 38.0107 79.7911 37.9246 80.0956 37.752C80.1502 37.9246 80.3312 38.0107 80.6372 38.0107C80.7444 38.0107 80.8471 37.9974 80.9443 37.9704C81.0429 37.9437 81.1724 37.893 81.3348 37.8185V37.5064C81.1505 37.5969 81.0144 37.6416 80.9276 37.6416C80.8434 37.6416 80.8011 37.5961 80.8011 37.5053Z" fill="#231F20"/>
<path d="M84.4046 35.3833C84.2099 35.2974 83.9996 35.2546 83.7737 35.2546C83.3653 35.2546 83.0015 35.3852 82.6803 35.6469V35.3105H81.9492V37.9688H82.6803V36.0673C82.9173 35.8184 83.2047 35.6935 83.5445 35.6935C83.8104 35.6935 83.9996 35.7521 84.1127 35.8688C84.2258 35.9855 84.2822 36.1801 84.2822 36.4519V37.9688H85.0007V36.4467C85.0007 36.1226 84.9495 35.8857 84.849 35.7363C84.7473 35.5866 84.5993 35.4691 84.4046 35.3833Z" fill="#231F20"/>
<path d="M88.4316 35.3833C88.2369 35.2974 88.0266 35.2546 87.7999 35.2546C87.3923 35.2546 87.0284 35.3852 86.7072 35.6469V35.3105H85.9766V37.9688H86.7072V36.0673C86.9443 35.8184 87.2317 35.6935 87.5711 35.6935C87.837 35.6935 88.0266 35.7521 88.1393 35.8688C88.2528 35.9855 88.3092 36.1801 88.3092 36.4519V37.9688H89.0276V36.4467C89.0276 36.1226 88.9764 35.8857 88.8756 35.7363C88.7739 35.5866 88.6263 35.4691 88.4316 35.3833Z" fill="#231F20"/>
<path d="M90.5748 36.3707C90.6249 36.16 90.7313 35.9975 90.896 35.883C91.0603 35.7693 91.271 35.7118 91.5284 35.7118C91.7858 35.7118 91.9909 35.7693 92.1422 35.883C92.2951 35.9975 92.3811 36.16 92.3993 36.3707H90.5748ZM91.5277 35.2541C91.0292 35.2541 90.6241 35.3811 90.3118 35.6349C89.9995 35.889 89.8438 36.2183 89.8438 36.6237C89.8438 36.8938 89.9176 37.1316 90.0656 37.3374C90.2139 37.5429 90.4112 37.7065 90.6575 37.8281C90.9045 37.9497 91.2265 38.0107 91.6252 38.0107C91.916 38.0107 92.1697 37.9876 92.3863 37.9415C92.6025 37.8954 92.821 37.8183 93.041 37.7106V37.1975C92.643 37.4126 92.2075 37.52 91.7365 37.52C91.399 37.52 91.123 37.4448 90.9094 37.2935C90.6965 37.143 90.5804 36.9391 90.5618 36.6839H93.1047V36.6171C93.1047 36.2025 92.9616 35.8715 92.6756 35.6245C92.3896 35.3776 92.0076 35.2541 91.5277 35.2541Z" fill="#231F20"/>
<path d="M93.8926 37.9688H94.611V33.9321H93.8926V37.9688Z" fill="#231F20"/>
</svg>
