<svg width="108" height="36" viewBox="0 0 108 36" fill="none" xmlns="http://www.w3.org/2000/svg">
<path d="M0.712891 28.4809C4.42824 27.4815 8.14358 26.481 11.8593 25.4828C20.9759 23.0337 30.0929 20.5846 39.2107 18.1378C40.2942 17.847 41.3842 17.579 42.4654 17.2799C42.8028 17.1866 42.9355 17.2397 42.9101 17.6161C42.8824 18.0161 42.9006 18.4195 42.9048 18.821C42.9162 19.8495 42.7607 19.7282 43.8473 19.735C44.9319 19.7422 46.0166 19.7324 47.1012 19.7399C47.2927 19.7415 47.5008 19.6717 47.726 19.8446C46.8389 21.0335 45.9556 22.2186 45.0715 23.4026C44.5672 24.0774 44.1021 24.7879 43.544 25.4149C43.0072 26.0177 42.8612 26.6725 42.8915 27.4497C42.937 28.6105 42.9025 28.6113 41.7474 28.6113C28.2099 28.6117 14.672 28.612 1.13447 28.6117C0.993816 28.6117 0.853164 28.6048 0.712891 28.6014C0.712891 28.5612 0.712891 28.5211 0.712891 28.4809Z" fill="#000069"/>
<path d="M107.067 28.3747C105.719 24.7834 104.406 21.3209 103.128 17.8455C102.933 17.3159 102.69 17.0964 102.107 17.1358C101.267 17.1931 100.42 17.165 99.5772 17.1426C99.2295 17.1335 99.0494 17.2321 98.9209 17.5782C97.6395 21.0331 96.3319 24.4782 95.052 27.9334C94.8712 28.4214 94.6623 28.6742 94.0762 28.6291C93.1974 28.5613 92.3099 28.6022 91.4262 28.6166C91.1221 28.6215 91.0012 28.5321 91.0046 28.2091C91.0186 26.9038 91.0163 25.5981 91.0053 24.2928C91.0027 23.9387 91.2082 23.6908 91.3769 23.4239C92.6712 21.374 93.9719 19.3279 95.3527 17.151C94.5023 17.151 93.749 17.2185 93.0132 17.1328C92.2094 17.0395 91.7935 17.3534 91.4398 18.0472C90.878 19.1489 90.2065 20.1945 89.5275 21.3561C89.0317 20.5259 88.5847 19.7563 88.1169 18.9999C87.74 18.3899 87.5542 17.5202 86.9515 17.2317C86.3775 16.9565 85.5749 17.1574 84.8728 17.1514C84.5175 17.1483 84.1623 17.151 83.6948 17.151C84.0288 17.6863 84.3067 18.1397 84.5918 18.5886C85.6564 20.2647 86.7213 21.9411 87.792 23.6134C87.9364 23.8397 88.0278 24.0638 88.0255 24.3413C88.0153 25.6068 88.0096 26.8723 88.0281 28.137C88.0334 28.4953 87.9459 28.6227 87.5622 28.62C85.0718 28.6033 82.581 28.6018 80.0906 28.6204C79.6356 28.6238 79.6129 28.4862 79.7247 28.0987C80.7203 24.6541 81.6829 21.1996 82.6951 17.7595C82.8634 17.1881 82.7031 17.121 82.2049 17.1423C81.463 17.1737 80.7184 17.1684 79.9761 17.1434C79.6064 17.1309 79.4684 17.245 79.3869 17.623C78.8846 19.9527 78.3466 22.2744 77.7882 24.7394C77.381 23.1611 77.0061 21.7106 76.6326 20.2597C76.4082 19.3866 76.1633 18.5177 75.9741 17.6366C75.8881 17.2367 75.7076 17.1119 75.3198 17.1453C74.7428 17.1953 74.0346 16.9258 73.6175 17.2477C73.2039 17.5669 73.254 18.3088 73.1069 18.8657C72.611 20.7427 72.1409 22.6269 71.5593 24.5343C71.4054 23.8966 71.2443 23.2605 71.0998 22.6209C70.7245 20.9604 70.3503 19.2991 69.9901 17.6351C69.9166 17.2947 69.7953 17.1241 69.4025 17.1407C68.6204 17.1741 67.8349 17.1779 67.0535 17.1404C66.566 17.1169 66.5443 17.2878 66.6611 17.6886C67.6461 21.0714 68.6158 24.4588 69.5894 27.8451C69.6281 27.9797 69.6379 28.1257 69.6937 28.2515C69.8423 28.5855 69.6664 28.6159 69.3976 28.614C68.3937 28.6068 67.3886 28.592 66.3855 28.6215C66.0223 28.6322 65.9017 28.4604 65.7941 28.1719C64.4983 24.6988 63.185 21.2318 61.9066 17.7523C61.7307 17.2731 61.4983 17.1165 61.0017 17.1396C60.1198 17.1806 59.2342 17.1661 58.3513 17.1423C58.0146 17.1332 57.8546 17.2442 57.7371 17.5597C56.4568 20.9949 55.1629 24.4247 53.8701 27.8553C53.7738 28.1109 53.7605 28.5188 53.5069 28.5654C53.0224 28.6545 52.5094 28.6079 52.0098 28.584C51.8213 28.5749 51.8646 28.3713 51.8627 28.2402C51.8566 27.7181 51.8293 27.1938 51.8676 26.6744C51.9032 26.1857 51.7595 26.0083 51.2413 26.0231C49.9368 26.0595 48.6307 26.0356 47.325 26.036C47.2113 26.0363 47.0975 26.036 46.9137 26.036C47.1817 25.4593 47.5749 25.0578 47.9005 24.6162C49.0314 23.0819 50.1528 21.5389 51.3455 20.0531C51.8274 19.453 51.7338 18.8221 51.7421 18.1754C51.7554 17.151 51.7451 17.1502 50.7386 17.1502C48.269 17.1498 45.7994 17.1502 43.3105 17.071C43.9391 16.8974 44.5662 16.7188 45.1963 16.5505C53.3473 14.369 61.4991 12.1895 69.6505 10.0084C80.1425 7.20106 90.6342 4.39332 101.126 1.58445C102.984 1.08704 104.842 0.590782 106.696 0.0755615C107.054 -0.0241451 107.138 0.0558472 107.138 0.420177C107.13 9.65888 107.131 18.898 107.13 28.1367C107.13 28.173 107.111 28.2094 107.067 28.3747Z" fill="#000069"/>
<path d="M101.05 20.3337C101.921 22.9731 102.785 25.6148 103.672 28.2485C103.789 28.595 103.666 28.6147 103.393 28.614C101.788 28.609 100.183 28.6132 98.5779 28.6098C98.3944 28.6094 98.1298 28.678 98.25 28.3167C99.1382 25.65 100.025 22.9822 100.911 20.3151C100.958 20.3211 101.004 20.3276 101.05 20.3337Z" fill="#000069"/>
<path d="M56.9678 28.6106C57.9133 25.7665 58.8273 23.0171 59.7899 20.1225C60.5334 22.362 61.2279 24.4547 61.9228 26.5471C62.1116 27.1165 62.2982 27.6867 62.4938 28.2538C62.584 28.5151 62.5135 28.6151 62.2292 28.614C60.5038 28.6072 58.7784 28.6106 56.9678 28.6106Z" fill="#000069"/>
<path d="M74.7527 21.7475C75.3001 24.0135 75.8476 26.2799 76.4105 28.6103C75.3354 28.6103 74.3167 28.6076 73.298 28.6118C72.8999 28.6137 73.0322 28.373 73.0819 28.1663C73.5164 26.3564 73.9508 24.5465 74.3857 22.7366C74.4645 22.4076 74.546 22.0789 74.6268 21.7498C74.6685 21.749 74.7106 21.7483 74.7527 21.7475Z" fill="#000069"/>
<path d="M76.8147 33.4217C77.1062 33.3909 77.5903 33.5403 77.5911 32.997C77.5915 32.4314 77.0945 32.544 76.7343 32.5311C76.4291 32.5205 76.105 32.4375 76.097 32.9667C76.0883 33.5471 76.456 33.4091 76.8147 33.4217ZM76.6998 34.8945C76.8651 34.8945 76.9652 34.8941 77.0653 34.8945C77.4023 34.8964 77.695 34.7891 77.6802 34.407C77.6662 34.04 77.3777 33.9232 77.0399 33.9259C76.8397 33.9274 76.6391 33.9331 76.4393 33.9247C76.2088 33.9156 76.1387 34.0279 76.108 34.2462C76.0344 34.7759 76.2214 35.0075 76.6998 34.8945ZM75.5306 33.866C75.5306 33.6821 75.5261 33.6218 75.5314 33.5619C75.5742 33.0695 75.3183 32.2915 75.6485 32.1425C76.2305 31.8805 76.9883 31.9738 77.6556 32.1152C78.1977 32.2301 78.424 32.939 78.0445 33.3735C77.8095 33.6427 77.8781 33.7276 78.0722 33.9566C78.5245 34.4908 78.2094 35.257 77.5225 35.3718C77.4243 35.3885 77.3223 35.3953 77.223 35.3912C76.6649 35.3661 75.9537 35.6194 75.5916 35.2911C75.255 34.9855 75.5704 34.2743 75.5306 33.866Z" fill="#000069"/>
<path d="M96.5194 34.1716C96.5194 33.5984 96.5179 33.0255 96.5201 32.4523C96.5209 32.2601 96.4637 32.0425 96.7943 32.0459C97.0862 32.0489 97.1051 32.2059 97.1032 32.4322C97.0956 33.2742 97.1032 34.1162 97.096 34.9582C97.0949 35.1042 97.1696 35.3082 96.9546 35.3669C96.7344 35.4276 96.5285 35.4041 96.3719 35.1834C95.9659 34.6125 95.5477 34.0503 95.1265 33.4899C95.0374 33.3716 94.9988 33.1927 94.7296 33.1586C94.7296 33.7428 94.7402 34.3137 94.7239 34.8839C94.7186 35.072 94.8486 35.3643 94.479 35.3817C94.1139 35.3988 94.1939 35.1171 94.192 34.9162C94.184 34.1143 94.1848 33.3125 94.1931 32.5107C94.1946 32.3465 94.1181 32.1221 94.3751 32.0656C94.6318 32.0091 94.8331 32.0906 94.9953 32.3181C95.4469 32.9523 95.9155 33.5745 96.3772 34.2015C96.4246 34.1913 96.472 34.1814 96.5194 34.1716Z" fill="#000069"/>
<path d="M84.3836 33.6488C84.8549 33.6689 85.2954 33.6033 85.2837 33.0699C85.2711 32.5232 84.7897 32.5577 84.3848 32.5202C83.9363 32.4785 83.8631 32.6889 83.8604 33.0813C83.8578 33.5029 83.9344 33.7546 84.3836 33.6488ZM83.305 33.7326C83.305 33.2917 83.313 32.85 83.302 32.4091C83.2959 32.1528 83.3998 32.0448 83.655 32.0509C84.0959 32.0622 84.5375 32.0482 84.9781 32.0675C85.4641 32.0888 85.7394 32.3792 85.8607 32.8311C85.9771 33.2652 85.8694 33.6833 85.4925 33.8831C85.0634 34.1106 85.2021 34.3093 85.3856 34.5743C85.4652 34.6895 85.5547 34.8044 85.6032 34.9333C85.6559 35.0724 85.9426 35.2199 85.6787 35.364C85.5267 35.4474 85.2783 35.4595 85.1445 35.2377C84.9891 34.9807 84.82 34.7301 84.6884 34.4609C84.5497 34.1781 84.334 34.0882 84.0523 34.1557C83.7588 34.2259 83.9025 34.481 83.8764 34.6581C83.8563 34.7957 83.8684 34.9382 83.8722 35.0785C83.8771 35.2597 83.8404 35.389 83.6148 35.3901C83.3763 35.3916 83.3001 35.2764 83.3035 35.0565C83.31 34.6152 83.3054 34.1739 83.305 33.7326Z" fill="#000069"/>
<path d="M86.5657 33.6417C86.6066 33.2038 86.3333 32.5063 86.6719 32.1707C87.0354 31.8106 87.7413 32.0923 88.2956 32.0498C88.3953 32.0422 88.4962 32.0502 88.5962 32.0521C88.7524 32.0551 88.873 32.0964 88.87 32.2883C88.8669 32.4729 88.7589 32.5256 88.5962 32.5252C88.2755 32.5241 87.9536 32.5404 87.6337 32.5233C87.2982 32.5051 87.1234 32.579 87.1215 32.9786C87.1196 33.3835 87.3 33.4461 87.6325 33.4256C87.9324 33.407 88.2342 33.4233 88.5352 33.423C88.6869 33.4226 88.807 33.4434 88.8154 33.6425C88.8241 33.8536 88.7327 33.9291 88.5329 33.9249C88.2524 33.9192 87.9696 33.9446 87.6909 33.9211C87.2978 33.8878 87.1219 33.9886 87.1185 34.4394C87.115 34.9053 87.355 34.9102 87.6826 34.8985C87.9627 34.8882 88.244 34.8981 88.525 34.8951C88.6929 34.8936 88.8514 34.8913 88.8685 35.1225C88.8851 35.3493 88.7479 35.3925 88.5682 35.3929C88.0063 35.3929 87.4449 35.3872 86.883 35.394C86.5998 35.3974 86.56 35.2314 86.5638 35.0039C86.5706 34.5827 86.5657 34.1611 86.5657 33.6417Z" fill="#000069"/>
<path d="M105.51 34.6224C105.769 33.9404 106.027 33.2602 106.284 32.5801C106.327 32.4679 106.364 32.3534 106.409 32.2419C106.526 31.9534 106.791 32.0163 106.976 32.0743C107.232 32.1547 107.012 32.3545 106.972 32.4626C106.649 33.3235 106.286 34.1697 105.97 35.033C105.868 35.3112 105.728 35.395 105.448 35.4019C105.15 35.4087 105.025 35.2733 104.928 35.0171C104.619 34.1932 104.284 33.3785 103.974 32.5551C103.917 32.4034 103.666 32.1892 103.973 32.0724C104.236 31.972 104.45 32.0584 104.556 32.3943C104.756 33.0229 105.006 33.6359 105.25 34.2497C105.297 34.3688 105.282 34.5371 105.51 34.6224Z" fill="#000069"/>
<path d="M89.6381 33.559C89.6843 33.1447 89.4133 32.4755 89.7355 32.1521C90.0559 31.8306 90.725 32.079 91.2402 32.0505C91.3801 32.0426 91.5208 32.0524 91.6614 32.0498C91.8161 32.0467 91.9321 32.0695 91.9405 32.2693C91.9499 32.4945 91.8377 32.5354 91.6467 32.5293C91.346 32.5195 91.0442 32.5403 90.7444 32.524C90.3971 32.5051 90.1859 32.5566 90.1924 32.9983C90.1984 33.4218 90.4141 33.4377 90.7246 33.4248C91.0249 33.4119 91.3263 33.4252 91.6269 33.4233C91.7983 33.4225 91.8832 33.4942 91.8821 33.6739C91.8809 33.8547 91.7907 33.9249 91.6224 33.9226C91.5822 33.9218 91.542 33.9218 91.5018 33.9249C91.1049 33.9537 90.6321 33.7729 90.3292 34.0045C90.021 34.2399 90.2496 34.7191 90.2064 35.0888C90.184 35.2768 90.1279 35.3814 89.9209 35.3905C89.6567 35.4019 89.6358 35.2416 89.6373 35.044C89.64 34.5826 89.6381 34.1213 89.6381 33.559Z" fill="#000069"/>
<path d="M80.0506 33.3845C80.6239 33.0349 80.5314 31.948 81.6001 32.0818C81.4632 32.3025 81.3647 32.4708 81.257 32.6334C80.7657 33.3754 80.1458 34.0665 80.3619 35.0719C80.4089 35.2911 80.2956 35.4021 80.0586 35.3949C79.8622 35.3892 79.7322 35.3115 79.7747 35.1133C80.0006 34.0585 79.3193 33.3526 78.8181 32.5762C78.7332 32.4443 78.6525 32.3097 78.5664 32.1702C79.1013 31.9969 79.0934 32.0018 79.4467 32.5311C79.6427 32.8249 79.78 33.1646 80.0506 33.3845Z" fill="#000069"/>
<path d="M100.354 33.9659C100.354 33.7854 100.341 33.6042 100.356 33.4252C100.405 32.852 100.376 32.3622 99.5739 32.518C99.4287 32.5461 99.299 32.4884 99.2979 32.2921C99.2963 32.0999 99.4108 32.0551 99.5663 32.0547C100.267 32.0528 100.969 32.0525 101.67 32.0536C101.827 32.054 101.937 32.1014 101.932 32.2943C101.927 32.4896 101.8 32.5465 101.654 32.5195C100.881 32.3785 100.882 32.8513 100.913 33.3991C100.942 33.9185 100.922 34.4405 100.919 34.9614C100.917 35.1586 100.946 35.3785 100.641 35.3917C100.327 35.4054 100.356 35.1878 100.354 34.9876C100.353 34.6471 100.354 34.3063 100.354 33.9659Z" fill="#000069"/>
<path d="M98.0848 33.6661C98.0848 33.2252 98.0885 32.7846 98.0832 32.3437C98.0806 32.1451 98.1602 32.0529 98.3649 32.0552C98.5613 32.0575 98.6625 32.1337 98.6622 32.3384C98.6595 33.26 98.6591 34.1817 98.6614 35.1033C98.6622 35.3054 98.5689 35.3857 98.3706 35.3929C98.1143 35.4017 98.0802 35.2523 98.0821 35.0487C98.0874 34.5877 98.084 34.1271 98.0848 33.6661Z" fill="#000069"/>
<path d="M103.154 33.7267C103.154 34.1684 103.155 34.6101 103.153 35.0518C103.152 35.2114 103.167 35.3789 102.924 35.3888C102.691 35.3983 102.597 35.2974 102.598 35.0715C102.601 34.168 102.599 33.265 102.598 32.3615C102.598 32.1735 102.663 32.062 102.874 32.0537C103.138 32.0427 103.156 32.2038 103.155 32.4017C103.151 32.8434 103.153 33.2851 103.154 33.7267Z" fill="#000069"/>
<path d="M93.169 33.7317C93.169 34.1703 93.1671 34.6086 93.1697 35.0472C93.1713 35.2496 93.1307 35.3983 92.8767 35.3857C92.6496 35.3744 92.6329 35.225 92.6329 35.0574C92.6325 34.1604 92.6333 33.2638 92.6333 32.3668C92.6329 32.1875 92.6761 32.0605 92.8968 32.0582C93.1133 32.056 93.1701 32.1693 93.1694 32.3566C93.1667 32.8149 93.1686 33.2733 93.169 33.7317Z" fill="#000069"/>
</svg>
