<svg width="51" height="51" viewBox="0 0 51 51" fill="none" xmlns="http://www.w3.org/2000/svg">
<g clip-path="url(#clip0_1293_6434)">
<mask id="mask0_1293_6434" style="mask-type:luminance" maskUnits="userSpaceOnUse" x="-6" y="-6" width="63" height="63">
<path d="M-5.33887 -5.34611H56.3534V56.3462H-5.33887V-5.34611Z" fill="white"/>
</mask>
<g mask="url(#mask0_1293_6434)">
<path d="M50.7176 25.5002C50.7176 39.4237 39.4304 50.7109 25.5069 50.7109C11.5833 50.7109 0.295898 39.4237 0.295898 25.5002C0.295898 11.5766 11.5833 0.289413 25.5069 0.289413C39.4304 0.289413 50.7176 11.5766 50.7176 25.5002Z" fill="#EE3423"/>
<path d="M14.5784 26.3563C14.8809 25.4986 15.1723 24.6376 15.432 23.7648C15.737 22.7407 16.0806 21.7276 16.4292 20.7172C16.5631 20.3288 16.5933 19.9064 16.8431 19.4324C17.3139 20.9297 17.7443 22.3136 18.1847 23.6943C18.4761 24.6078 18.7758 25.5185 19.0838 26.4262C19.1866 26.7296 19.1225 26.7869 18.7951 26.7812C17.4891 26.7579 16.1822 26.7758 14.8756 26.7797C14.4271 26.7812 14.4326 26.7697 14.5784 26.3563ZM32.6135 25.5005C33.8069 25.4653 34.9873 25.5307 36.0889 26.0261C37.0396 26.4536 37.6877 27.1894 38.025 28.1878C38.4291 29.3838 38.4149 30.5748 38.0357 31.7764C37.7011 32.8361 36.9507 33.4672 35.9386 33.7818C35.1549 34.0253 34.3288 34.0167 33.5175 33.9052C32.697 33.7923 32.2689 33.2521 32.2598 32.3497C32.2491 31.2773 32.2572 30.2047 32.2572 29.1323C32.2547 29.1323 32.2518 29.1323 32.2491 29.1321C32.2491 28.0473 32.258 26.9624 32.2432 25.8778C32.2393 25.5909 32.3178 25.5091 32.6135 25.5005ZM32.2537 20.911H32.2605C32.2605 19.9251 32.2551 18.9391 32.2625 17.9532C32.2666 17.4134 32.4589 17.1656 32.98 17.0959C33.8151 16.9842 34.6576 16.9847 35.475 17.2028C36.7477 17.5424 37.5792 18.5516 37.727 19.8793C37.8206 20.7199 37.7988 21.5404 37.4323 22.336C36.9898 23.2964 36.1901 23.7792 35.2334 24.0336C34.3603 24.2658 33.4573 24.2785 32.5545 24.2637C32.2938 24.2594 32.2477 24.1712 32.2498 23.9427C32.2588 22.9322 32.2537 21.9215 32.2537 20.911ZM8.74294 35.2927C10.4703 35.2781 12.1983 35.2857 13.9259 35.2855C14.7053 35.2855 14.6921 35.2853 14.7119 34.5125C14.7193 34.2209 14.6031 34.1565 14.344 34.1526C13.9374 34.1462 13.5311 34.1125 13.1256 34.0792C12.5691 34.0333 12.3692 33.8209 12.4924 33.3378C12.7114 32.4801 12.9623 31.6304 13.2099 30.7803C13.4266 30.0365 13.6835 29.3032 13.869 28.5522C13.9463 28.239 14.0577 28.1302 14.3748 28.1347C15.9418 28.1567 17.509 28.16 19.0762 28.1697C19.6876 28.1736 19.6686 28.1793 19.8558 28.7638C20.3209 30.2176 20.7962 31.6684 21.2858 33.1141C21.4834 33.6973 21.3105 34.0241 20.7026 34.081C20.3105 34.1178 19.916 34.1425 19.5222 34.1489C19.2964 34.1526 19.1761 34.2085 19.1856 34.4617C19.2164 35.2814 18.9444 35.268 19.9792 35.2855C20.1272 35.2879 20.2755 35.2863 20.4236 35.2863C25.2857 35.2863 30.1481 35.2836 35.0105 35.2888C35.7638 35.2894 36.5189 35.2898 37.2654 35.2005C38.3832 35.0673 39.4957 34.8557 40.455 34.2252C42.6295 32.7958 43.0908 30.6501 42.4837 28.2353C42.123 26.8003 41.0068 25.9179 39.7263 25.2592C39.2185 24.9981 38.6709 24.8835 38.0456 24.8809C38.1696 24.6824 38.2765 24.637 38.4034 24.6154C38.7608 24.5547 39.0824 24.3974 39.4036 24.2395C41.925 22.9982 42.3389 20.6006 41.5571 18.5204C41.0551 17.1856 39.8996 16.4831 38.5576 16.0994C37.6614 15.8429 36.7403 15.7473 35.8141 15.7418C32.7538 15.7237 29.6932 15.7216 26.6329 15.72C25.7768 15.7195 25.8918 15.5929 25.8654 16.4905C25.857 16.7792 25.9594 16.8493 26.2243 16.8489C26.6681 16.8479 27.1126 16.8798 27.5453 16.9921C27.9819 17.1054 28.1676 17.3186 28.2159 17.7644C28.232 17.9113 28.2283 18.0604 28.2283 18.2082C28.2285 22.8113 28.2283 27.4144 28.2272 32.0174C28.227 32.3999 28.2289 32.7828 28.2147 33.1649C28.2056 33.4147 28.1659 33.6788 27.934 33.8201C27.0376 34.3665 25.8443 34.2431 25.4593 33.1069C24.4714 30.1907 23.4897 27.2723 22.5106 24.353C21.5941 21.6208 20.6853 18.8862 19.7702 16.1537C19.6726 15.8619 19.5078 15.6938 19.1471 15.7078C18.3585 15.7385 17.5678 15.7278 16.7782 15.7109C16.525 15.7056 16.4068 15.787 16.3268 16.0274C15.9577 17.1372 15.57 18.2409 15.1902 19.3473C14.7627 20.5934 14.3425 21.8423 13.9084 23.0862C13.4542 24.3883 12.9767 25.6824 12.5284 26.9866C11.8436 28.978 11.173 30.9746 10.4008 32.9346C10.1261 33.6323 9.67882 34.138 8.85481 34.1555C8.3002 34.1674 8.3002 34.1697 8.29938 34.7163C8.29938 34.7533 8.30472 34.7911 8.29855 34.8271C8.23727 35.1837 8.38636 35.2957 8.74294 35.2927Z" fill="white"/>
</g>
</g>
<defs>
<clipPath id="clip0_1293_6434">
<rect width="50.2792" height="50.2792" fill="white" transform="translate(0.367188 0.360596)"/>
</clipPath>
</defs>
</svg>
