<svg width="101" height="61" viewBox="0 0 101 61" fill="none" xmlns="http://www.w3.org/2000/svg">
<path d="M11.282 59.773V55.9341H13.5909V55.1701H11.282V51.8829H14.4089V51.1185H10.8998C10.6889 51.1185 10.5176 51.2898 10.5176 51.5007V60.1552C10.5176 60.366 10.6889 60.5374 10.8998 60.5374H14.6636V59.773H11.282Z" fill="black"/>
<path d="M55.7986 59.773V55.9341H58.1079V55.1701H55.7986V51.8829H58.9255V51.1185H55.4164C55.2055 51.1185 55.0342 51.2898 55.0342 51.5007V60.1552C55.0342 60.366 55.2055 60.5374 55.4164 60.5374H59.1802V59.773H55.7986Z" fill="black"/>
<path d="M25.4404 60.6472L18.9534 53.1203V60.1549H18.1895V51.0629L24.676 58.5898V51.5004H25.4404V60.6472Z" fill="black"/>
<path d="M34.0354 51.1181H27.7637V51.8825H30.5176V60.1548H31.2815V51.8825H34.0354V51.1181Z" fill="black"/>
<path d="M39.6307 60.6487C38.5899 60.6487 37.7715 60.3364 37.1982 59.7209C36.2648 58.7184 36.3556 57.2868 36.3596 57.2264L36.3588 51.3885H37.1228V57.2536C37.1212 57.2915 37.0541 58.4491 37.7616 59.2044C38.184 59.6557 38.813 59.8843 39.6307 59.8843C42.3076 59.8843 42.3534 57.3602 42.3538 57.2524V51.3885H43.1181V57.2536C43.1181 58.4278 42.3889 60.6487 39.6307 60.6487Z" fill="black"/>
<path d="M84.7273 60.6487C83.6865 60.6487 82.8681 60.3364 82.2952 59.7209C81.3614 58.7184 81.4518 57.2868 81.4566 57.2264L81.4554 51.3885H82.2194V57.2536C82.2182 57.2915 82.1507 58.4491 82.8582 59.2044C83.2806 59.6557 83.9096 59.8843 84.7273 59.8843C87.4042 59.8843 87.45 57.3602 87.4504 57.2524V51.3885H88.2147V57.2536C88.2147 58.4278 87.4859 60.6487 84.7273 60.6487Z" fill="#F78C33"/>
<path d="M51.3038 60.52L47.7437 56.5031H48.593C50.363 56.5031 51.2951 55.7217 51.3627 54.18C51.3702 54.013 51.3579 53.8428 51.3271 53.6754C51.1333 52.6366 50.1849 51.8825 49.0711 51.8825H47.2068V60.2665H46.4424V51.1185H49.0711C50.5529 51.1185 51.8175 52.1352 52.0781 53.536C52.1195 53.7603 52.1357 53.9881 52.1262 54.2135C52.052 55.9014 51.0681 56.9631 49.3925 57.211L51.8759 60.0135L51.3038 60.52Z" fill="black"/>
<path d="M74.2978 51.6737C72.086 51.6737 70.2868 53.5179 70.2868 55.7846C70.2868 58.0512 72.086 59.895 74.2978 59.895C76.51 59.895 78.3092 58.0512 78.3092 55.7846C78.3092 53.5179 76.51 51.6737 74.2978 51.6737ZM74.2978 60.6594C71.6648 60.6594 69.5225 58.4725 69.5225 55.7846C69.5225 53.0966 71.6648 50.9093 74.2978 50.9093C76.9313 50.9093 79.0736 53.0966 79.0736 55.7846C79.0736 58.4725 76.9313 60.6594 74.2978 60.6594Z" fill="#F78C33"/>
<path d="M64.6134 60.7678C64.4389 60.7678 64.2624 60.7516 64.0859 60.7185C62.8936 60.4942 62.0269 59.5518 61.8252 58.2591L62.5801 58.1415C62.7329 59.1194 63.3488 59.8021 64.2273 59.9675C65.0655 60.1247 65.9092 59.7559 66.3218 59.0472C66.7147 58.372 66.7996 57.7376 66.5666 57.2125C66.3546 56.7347 65.8887 56.3778 65.3206 56.257C64.187 56.0173 63.0677 55.6596 62.5544 54.6785C62.2338 54.0649 62.1959 52.9452 62.6879 52.1319C62.9682 51.6695 63.534 51.1184 64.6395 51.1184C66.5575 51.1184 67.2003 52.5022 67.2718 53.2342L66.5117 53.3112C66.4955 53.1651 66.3045 51.8824 64.6395 51.8824C64.0378 51.8824 63.6011 52.0995 63.3417 52.5279C62.9789 53.1268 63.0464 53.9702 63.2316 54.3247C63.532 54.8984 64.1618 55.2308 65.4785 55.51C66.2863 55.6805 66.9543 56.2017 67.2654 56.9025C67.5 57.4316 67.6409 58.2994 66.982 59.4317C66.4951 60.2684 65.5843 60.7678 64.6134 60.7678Z" fill="#F78C33"/>
<path d="M91.5085 55.7843C91.5085 53.5177 93.3081 51.6735 95.5195 51.6735C97.7317 51.6735 99.5309 53.5177 99.5309 55.7843C99.5309 58.051 97.7317 59.8948 95.5195 59.8948C93.3081 59.8948 91.5085 58.051 91.5085 55.7843ZM100.295 55.7843C100.295 53.096 98.153 50.9091 95.5195 50.9091C92.8864 50.9091 90.7441 53.096 90.7441 55.7843C90.7441 58.4723 92.8864 60.6592 95.5195 60.6592C96.5492 60.6592 97.5011 60.3216 98.2817 59.7539L99.4286 61.0833L100.007 60.5842L98.8637 59.2588C99.7461 58.3736 100.295 57.1437 100.295 55.7843Z" fill="#F78C33"/>
<path d="M16.6775 36.8838L0.838867 1.15477L3.41192 0.0141258L16.6491 29.8745L29.5941 0.0243912L32.1763 1.1445L16.6775 36.8838Z" fill="black"/>
<path d="M46.6923 36.6782C46.0246 36.6782 45.3534 36.6111 44.689 36.4725C40.1059 35.5159 36.9635 31.4476 36.2832 25.5904L39.0793 25.2655C39.6206 29.9291 41.8751 33.0095 45.2642 33.7171C48.3344 34.359 51.6007 32.8796 53.2061 30.1226C54.5832 27.7564 54.9168 25.6291 54.1979 23.8003C53.4907 22.0019 51.6978 20.5126 49.4012 19.8162C44.5512 18.3447 41.3472 17.3726 39.3731 14.107C37.9845 11.81 37.6797 7.42784 39.5729 4.07145C41.0819 1.39574 43.7232 -0.0777321 47.0109 -0.0777321C51.682 -0.0777321 54.0048 2.59166 55.1304 4.83109C56.2928 7.14317 56.3966 9.4438 56.4006 9.54053L53.5879 9.65266L54.9942 9.59659L53.5882 9.657C53.5875 9.63844 53.4927 7.79541 52.5791 6.02385C51.4392 3.81245 49.6175 2.73735 47.0109 2.73735C44.719 2.73735 43.0414 3.65136 42.0243 5.45451C40.7178 7.77054 40.8481 11.106 41.7819 12.6509C43.1401 14.8979 45.3499 15.6453 50.2184 17.1223C53.3778 18.0809 55.7831 20.1395 56.8175 22.7702C57.5392 24.6061 57.9206 27.6178 55.6386 31.5384C53.7778 34.7349 50.2844 36.6782 46.6923 36.6782Z" fill="#EA8110"/>
<path d="M82.8278 2.73759C89.1232 2.73759 94.5086 6.79478 96.6327 12.4905H99.6077C97.3604 5.21391 90.6887 -0.0774956 82.8278 -0.0774956C74.9669 -0.0774956 68.2952 5.21391 66.0479 12.4905H69.0228C71.147 6.79478 76.5324 2.73759 82.8278 2.73759Z" fill="#EA8110"/>
<path d="M95.186 26.1625C92.5439 30.288 87.9924 33.0193 82.8277 33.0193C77.6631 33.0193 73.1119 30.288 70.4694 26.1625H67.2295C70.1678 31.904 76.0549 35.8344 82.8277 35.8344C86.6196 35.8344 90.1319 34.5994 93.0074 32.508L97.2245 37.3967L99.3562 35.558L95.1474 30.6788C96.4582 29.3641 97.5645 27.8393 98.4236 26.1625H95.186Z" fill="black"/>
</svg>
