<svg width="92" height="33" viewBox="0 0 92 33" fill="none" xmlns="http://www.w3.org/2000/svg">
<g clip-path="url(#clip0_1293_6339)">
<mask id="mask0_1293_6339" style="mask-type:luminance" maskUnits="userSpaceOnUse" x="0" y="-30" width="92" height="93">
<path d="M0.282227 -29.4168H91.9242V62.2251H0.282227V-29.4168Z" fill="white"/>
</mask>
<g mask="url(#mask0_1293_6339)">
<mask id="mask1_1293_6339" style="mask-type:luminance" maskUnits="userSpaceOnUse" x="4" y="18" width="87" height="15">
<path d="M4.17188 18.2016H90.043V32.7834H4.17188V18.2016Z" fill="white"/>
</mask>
<g mask="url(#mask1_1293_6339)">
<g opacity="0.570007">
<path d="M60.4982 24.2677V24.2497C60.8757 24.2497 61.2542 24.265 61.6309 24.2457C62.0607 24.2241 62.474 24.1025 62.8381 23.8773C63.2755 23.6073 63.4872 22.9777 63.3647 22.4364C63.2129 21.7644 62.8164 21.3993 62.1239 21.2824C61.2875 21.1409 60.4413 21.1895 59.6004 21.14C59.2448 21.1192 59.0997 21.2533 59.0985 21.5949C59.096 22.4016 59.0921 23.2087 59.0783 24.0154C59.0747 24.2323 59.1749 24.276 59.3649 24.2708C59.7424 24.2604 60.1203 24.2677 60.4982 24.2677ZM55.9628 25.2303C55.9628 23.1335 55.9695 21.0368 55.9561 18.9403C55.9539 18.6119 56.0548 18.5193 56.3783 18.523C58.1634 18.5426 59.9505 18.4992 61.7335 18.563C62.8247 18.6021 63.9146 18.7591 64.8817 19.3686C65.7172 19.8949 66.242 20.6207 66.4604 21.5802C66.6898 22.5879 66.6956 23.5734 66.2866 24.5485C65.8574 25.5721 65.0879 26.1889 64.0502 26.4928C63.7359 26.5848 63.676 26.6208 63.8859 26.9489C64.648 28.1393 65.3518 29.367 66.0801 30.5794C66.3672 31.0572 66.6699 31.5258 66.9491 32.0084C67.1633 32.3787 67.1123 32.4575 66.698 32.4581C65.7337 32.4596 64.7693 32.4526 63.8049 32.4633C63.5679 32.466 63.4222 32.3955 63.31 32.178C62.6814 30.9567 62.0402 29.7418 61.403 28.5248C61.1559 28.0532 60.9081 27.5818 60.6604 27.1105C60.6036 27.002 60.5305 26.9107 60.3952 26.9104C60.0174 26.9098 59.6392 26.9037 59.2619 26.9165C59.0096 26.9251 59.0866 27.1322 59.0866 27.2721C59.0875 28.6522 59.0954 30.0326 59.0979 31.4131C59.0997 32.459 59.0973 32.459 58.0361 32.459C57.5018 32.459 56.9669 32.4443 56.4335 32.4648C56.1281 32.4767 56.0086 32.4086 55.9976 32.0649C55.9252 29.7867 56.0077 27.5082 55.9628 25.2303Z" fill="#471482"/>
<path d="M78.2589 18.8723C78.273 19.5749 78.2779 20.2775 78.3057 20.9795C78.3188 21.3179 78.2189 21.4096 77.8563 21.4038C75.9804 21.3732 74.1039 21.3839 72.2277 21.3815C72.0319 21.3812 71.9118 21.4478 71.914 21.6784C71.9195 22.3425 71.9192 23.0069 71.9017 23.6704C71.8941 23.9566 72.0643 23.9407 72.2561 23.9404C73.9631 23.9392 75.6701 23.9407 77.377 23.941C77.9189 23.941 77.9086 23.9453 77.9312 24.4817C77.9608 25.184 77.8582 25.8796 77.8554 26.5788C77.8542 26.854 77.6923 26.8158 77.5209 26.8162C75.788 26.8171 74.0547 26.8299 72.3218 26.8152C71.9815 26.8125 71.9048 26.9347 71.9115 27.2423C71.9265 27.9061 71.9234 28.5708 71.9027 29.2343C71.8941 29.5083 71.9754 29.588 72.253 29.5865C74.1293 29.577 76.0058 29.5844 77.8823 29.5877C78.6322 29.5892 78.6322 29.5914 78.6319 30.3474C78.6319 30.9465 78.624 31.5455 78.635 32.1445C78.6393 32.3739 78.5748 32.4637 78.3274 32.4631C75.2653 32.4561 72.2029 32.4567 69.1406 32.4631C68.9005 32.4637 68.8162 32.3797 68.8229 32.1464C68.829 31.9264 68.7945 31.7053 68.7942 31.4844C68.7911 27.3043 68.7914 23.1245 68.7871 18.9444C68.7868 18.7028 68.7838 18.5229 69.1241 18.5244C72.1082 18.5381 75.0921 18.5366 78.0763 18.5406C78.1276 18.5406 78.1789 18.5552 78.2305 18.5632C78.2318 18.5879 78.2388 18.6111 78.2513 18.6328C78.2544 18.679 78.2574 18.7251 78.2602 18.7712C78.2599 18.8048 78.2592 18.8387 78.2589 18.8723Z" fill="#471482"/>
<path d="M15.6834 23.4799C15.6834 21.8395 15.6923 20.4068 15.677 18.9744C15.6733 18.6347 15.7775 18.5141 16.1227 18.526C16.8259 18.5495 17.53 18.537 18.2338 18.5388C18.7989 18.54 18.8008 18.5397 18.8011 19.0881C18.8026 21.7191 18.8057 24.3498 18.8029 26.9806C18.802 27.89 19.1304 28.6579 19.8024 29.2603C20.8517 30.2 22.3406 30.1379 23.3853 29.1861C24.1627 28.478 24.3305 27.575 24.336 26.6134C24.3512 24.0737 24.3469 21.534 24.3332 18.9946C24.3311 18.6448 24.4117 18.5077 24.7856 18.5229C25.4882 18.552 26.1929 18.5306 26.8967 18.5361C27.4616 18.5404 27.4637 18.5443 27.4649 19.1311C27.4683 20.5898 27.4762 22.0484 27.4695 23.507C27.4631 24.8737 27.5254 26.2432 27.4102 27.6065C27.2667 29.3071 26.7049 30.8155 25.2093 31.8098C23.8756 32.6966 22.3965 32.9074 20.8255 32.7171C20.1305 32.633 19.4423 32.5442 18.7989 32.2656C16.9909 31.482 16.0146 30.0582 15.7641 28.1432C15.553 26.5266 15.7381 24.8957 15.6834 23.4799Z" fill="#471482"/>
<path d="M41.4741 23.6528C41.4741 21.8988 41.4826 20.4142 41.467 18.9299C41.464 18.6195 41.5556 18.5178 41.8644 18.5248C42.6199 18.5422 43.3762 18.5462 44.1314 18.5239C44.4542 18.5144 44.5492 18.6061 44.5477 18.9348C44.5364 21.6043 44.5248 24.2741 44.5538 26.9434C44.5676 28.216 45.1593 29.3059 46.5043 29.791C47.9455 30.3109 49.7331 29.385 50.016 27.6258C50.188 26.5557 50.1449 25.4756 50.136 24.3972C50.1211 22.5488 50.1113 20.7004 50.096 18.852C50.0942 18.6238 50.1822 18.5242 50.4204 18.5273C51.2412 18.5377 52.0624 18.5438 52.8832 18.5331C53.2256 18.5285 53.2143 18.7414 53.214 18.9736C53.2131 20.7838 53.214 22.5937 53.2143 24.404C53.2143 25.3546 53.2265 26.3052 53.2125 27.2559C53.1914 28.673 52.7402 29.9587 51.84 31.0422C51.0088 32.0426 49.866 32.5216 48.5873 32.6969C47.1995 32.8876 45.8399 32.7788 44.5554 32.2134C42.8817 31.4763 41.8348 30.2018 41.5706 28.3705C41.332 26.7158 41.5532 25.0452 41.4741 23.6528Z" fill="#471482"/>
<path d="M85.0898 32.7774C83.5487 32.7707 82.2336 32.5581 81.0618 31.7947C80.7579 31.5967 80.4683 31.3756 80.1824 31.152C80.1109 31.0961 79.9734 31.0322 80.1317 30.8841C80.7964 30.2618 81.319 29.511 81.9398 28.8475C82.1343 28.6391 82.2688 28.6565 82.4438 28.8511C83.0569 29.533 83.859 29.8806 84.7416 29.9368C85.3806 29.9771 86.0261 29.7947 86.5426 29.3622C87.1154 28.882 87.0372 27.964 86.4207 27.5086C85.8333 27.0748 85.1381 26.912 84.4694 26.6722C83.446 26.305 82.4151 25.9461 81.5646 25.2252C80.673 24.4697 80.3351 23.5417 80.479 22.3653C80.6064 21.327 80.9818 20.4366 81.6966 19.701C82.4307 18.9459 83.3688 18.5295 84.3909 18.3358C86.016 18.0279 87.5791 18.2512 89.0637 18.9886C89.2271 19.0699 89.3652 19.193 89.5176 19.2877C89.9905 19.5822 90.0327 19.6231 89.6197 20.1109C89.1498 20.6657 88.6397 21.1862 88.1607 21.7333C87.9939 21.9242 87.8638 21.952 87.6848 21.7611C87.0311 21.0646 85.3155 20.834 84.4089 21.356C83.9956 21.594 83.695 21.9239 83.6541 22.38C83.6104 22.8666 83.8988 23.2326 84.32 23.4806C85.2651 24.0366 86.3361 24.2635 87.3482 24.6451C89.3435 25.3975 90.1649 26.6404 90.029 28.5325C89.8717 30.7215 88.538 32.105 86.4922 32.6078C85.9738 32.7355 85.4506 32.8052 85.0898 32.7774Z" fill="#471482"/>
<path d="M4.1814 25.5091C4.1814 23.3342 4.19087 21.1589 4.17193 18.9842C4.16888 18.6241 4.28649 18.4893 4.62434 18.5007C5.01412 18.5138 5.40391 18.5339 5.79369 18.5343C8.23106 18.5379 10.6684 18.5404 13.1055 18.5318C13.3725 18.5309 13.4632 18.5773 13.5057 18.8807C13.6065 19.5955 13.5411 20.3072 13.5579 21.0196C13.5643 21.2835 13.4418 21.4207 13.1211 21.4158C11.2711 21.3871 9.42088 21.3868 7.57093 21.3736C7.39651 21.3724 7.30609 21.4231 7.30731 21.6159C7.3125 22.3841 7.31617 23.1527 7.30548 23.921C7.3012 24.2173 7.49181 24.1742 7.67265 24.1742C9.32801 24.1736 10.9834 24.1812 12.6384 24.1666C12.9693 24.1638 13.1082 24.2426 13.0957 24.5988C13.0731 25.2623 13.0908 25.927 13.0933 26.5914C13.0945 26.9097 12.9977 27.0661 12.6195 27.0606C10.9907 27.0368 9.36131 27.0597 7.73222 27.0402C7.38245 27.0359 7.29662 27.137 7.30089 27.4785C7.31953 29.015 7.30242 30.5522 7.31433 32.0887C7.31678 32.3734 7.2456 32.4733 6.94502 32.4657C6.13735 32.4446 5.32876 32.447 4.52109 32.4654C4.24128 32.4715 4.17468 32.381 4.1759 32.1122C4.18598 29.9113 4.18171 27.7104 4.1814 25.5091Z" fill="#471482"/>
<path d="M39.9361 18.6087C40.05 19.4448 39.966 20.2849 39.9914 21.1228C39.9679 21.1506 39.9447 21.1781 39.9211 21.2059C39.8979 21.2056 39.8756 21.2095 39.8539 21.2184C39.8228 21.2373 39.7913 21.2563 39.7602 21.2752C38.6525 21.2755 37.5446 21.2884 36.4372 21.2688C36.0957 21.2627 35.9995 21.3574 36.001 21.7062C36.0129 25.0139 36.0071 28.3216 36.0016 31.6295C36.0004 32.4561 35.9921 32.4568 35.182 32.4583C34.5305 32.4598 33.8786 32.4522 33.2273 32.4623C32.9808 32.4662 32.8867 32.3932 32.8876 32.1271C32.8995 28.7676 32.8998 25.408 32.9038 22.0484C32.9038 21.9576 32.9114 21.8666 32.9194 21.7762C32.9466 21.4573 32.8977 21.2456 32.482 21.256C31.4546 21.2816 30.4261 21.2709 29.3982 21.2642C29.2061 21.263 28.9467 21.318 28.9565 20.981C28.9571 20.9484 28.9574 20.916 28.958 20.8833C28.9562 20.2455 28.9736 19.607 28.9449 18.9704C28.9293 18.6277 29.0307 18.5214 29.3783 18.5229C32.8687 18.5376 36.3587 18.537 39.849 18.5409C39.8781 18.5635 39.9071 18.5861 39.9361 18.6087Z" fill="#471482"/>
<path d="M78.2511 18.6328C78.2387 18.6113 78.232 18.5882 78.2305 18.5634C78.2453 18.5773 78.2608 18.5904 78.2735 18.6058C78.275 18.6076 78.259 18.6234 78.2511 18.6328Z" fill="#471482"/>
<path d="M78.2598 18.8723C78.2601 18.839 78.2607 18.8053 78.261 18.772C78.301 18.8059 78.2998 18.8393 78.2598 18.8723Z" fill="#471482"/>
<path d="M28.9572 20.8839C28.9565 20.9164 28.9562 20.9485 28.9556 20.981C28.9177 20.9479 28.9186 20.9158 28.9572 20.8839Z" fill="#471482"/>
<path d="M39.9209 21.2058C39.9442 21.1785 39.9673 21.1509 39.9903 21.1236C39.9912 21.1712 39.9712 21.2013 39.9209 21.2058Z" fill="#471482"/>
</g>
</g>
<path d="M32.7904 10.4254C32.8857 10.1792 32.8243 9.91836 32.8237 9.66879C32.8194 6.88013 32.8121 4.09177 32.7828 1.30341C32.7794 0.970141 32.9095 0.893468 33.1799 0.898049C33.9979 0.912407 34.8157 0.932874 35.6334 0.943259C35.8167 0.945397 35.8858 1.01291 35.8772 1.19772C35.8653 1.45798 35.8742 1.71885 35.8742 1.97973C35.8738 6.11095 35.8693 10.2425 35.8812 14.3737C35.8824 14.7308 35.7941 14.8432 35.4294 14.8273C34.4305 14.7839 33.4288 14.7644 32.4312 14.834C32.0417 14.8609 31.8022 14.7455 31.6152 14.399C30.2302 11.8331 28.6143 9.40578 27.1162 6.90732C26.739 6.27804 26.3232 5.67229 25.9206 5.04912C25.7786 5.15726 25.8275 5.26876 25.8275 5.36437C25.8241 8.36167 25.8155 11.3593 25.8302 14.3569C25.832 14.7341 25.7098 14.8145 25.3634 14.8072C24.6499 14.7916 23.935 14.8078 23.2221 14.8383C22.8964 14.8524 22.7492 14.7742 22.7571 14.414C22.8549 10.0891 22.6976 5.76362 22.784 1.43843C22.7944 0.914544 22.7935 0.919738 23.3299 0.919738C24.3816 0.919738 25.4334 0.920654 26.4851 0.90538C26.8022 0.900493 26.998 0.999772 27.1712 1.28875C28.6167 3.69802 30.0864 6.09262 31.5367 8.49883C31.8923 9.0887 32.1935 9.71156 32.6035 10.2681C32.6474 10.328 32.671 10.4111 32.7904 10.4254Z" fill="#471382"/>
<path d="M77.7589 7.84396C77.7589 5.6806 77.7675 3.51754 77.7504 1.35418C77.7476 1.009 77.8518 0.887114 78.1835 0.895972C78.9622 0.916439 79.7414 0.931713 80.5204 0.928047C80.8271 0.926826 80.8439 1.09636 80.8427 1.32822C80.8356 2.67047 80.8317 4.01271 80.8338 5.35496C80.8353 6.18341 80.7666 6.09329 81.5587 6.0939C83.0778 6.09543 84.5969 6.09971 86.1164 6.10123C86.7178 6.10184 86.7178 6.10001 86.7175 5.47929C86.7175 4.09794 86.7267 2.71659 86.7099 1.33524C86.7062 1.02152 86.7875 0.88467 87.1122 0.895057C87.9299 0.921633 88.7477 0.935684 89.5658 0.946376C89.7472 0.94882 89.8282 1.01083 89.8101 1.19778C89.8001 1.30103 89.8086 1.40611 89.8086 1.51058C89.8086 5.78476 89.8086 10.0592 89.8083 14.3337C89.8083 14.8259 89.7946 14.8396 89.311 14.821C88.5968 14.7938 87.8823 14.7791 87.1699 14.8335C86.8101 14.8607 86.7047 14.7397 86.7087 14.3744C86.7279 12.6542 86.7105 10.9338 86.7245 9.2137C86.727 8.91098 86.6586 8.81719 86.339 8.81964C84.6122 8.83338 82.8851 8.82453 81.1582 8.81078C80.8879 8.80864 80.8146 8.87401 80.8182 9.16299C80.8417 10.935 80.8341 12.7074 80.8466 14.4797C80.8485 14.7446 80.7397 14.8115 80.4956 14.8081C79.7298 14.7977 78.9634 14.7953 78.1976 14.8109C77.8747 14.8173 77.747 14.7327 77.7501 14.3728C77.7675 12.1966 77.7586 10.0201 77.7589 7.84396Z" fill="#471382"/>
<path d="M51.0966 7.85309C51.0966 5.70317 51.1045 3.55295 51.0889 1.40303C51.0862 1.03829 51.1781 0.904494 51.5594 0.907244C54.3636 0.928016 57.1681 0.929237 59.9727 0.938402C60.5042 0.939929 60.5042 0.943289 60.5039 1.49131C60.5036 2.13005 60.4896 2.7688 60.5097 3.40662C60.5186 3.68705 60.426 3.75303 60.1584 3.7515C58.3146 3.74081 56.4708 3.75731 54.6272 3.73745C54.2536 3.73317 54.1632 3.85628 54.1763 4.20421C54.1983 4.77637 54.1916 5.35096 54.1663 5.92342C54.1519 6.25027 54.2625 6.34894 54.5869 6.3465C56.3266 6.33275 58.0662 6.34894 59.8059 6.33092C60.1309 6.32756 60.1972 6.43539 60.189 6.7317C60.1703 7.40863 60.1679 8.08708 60.1926 8.76371C60.2042 9.08445 60.0869 9.15899 59.79 9.15716C58.0763 9.14677 56.3623 9.16388 54.6486 9.14494C54.2677 9.14097 54.1608 9.25674 54.1773 9.63125C54.2048 10.2682 54.1941 10.9084 54.1669 11.546C54.1525 11.8863 54.2548 11.9919 54.6031 11.9889C56.5245 11.9715 58.4459 11.9782 60.3677 11.9785C60.8891 11.9785 60.8894 11.9816 60.8824 12.4923C60.8735 13.1436 60.824 13.7952 60.8824 14.4458C60.9093 14.7433 60.7962 14.8206 60.5054 14.8191C57.766 14.8054 55.0262 14.8054 52.2867 14.8038C52.0273 14.8038 51.7662 14.8044 51.509 14.8325C51.1845 14.8683 51.0874 14.7485 51.0892 14.4205C51.1027 12.2314 51.0963 10.0421 51.0966 7.85309Z" fill="#471382"/>
<path d="M63.1095 7.85436C63.1834 4.00173 65.5808 1.02429 69.7331 0.634808C71.5005 0.468936 73.1412 0.805873 74.5553 1.95628C75.3125 2.57242 75.3107 2.58953 74.5437 3.2075C74.0677 3.59057 73.5985 3.98127 73.1253 4.36738C73.0053 4.46544 72.9091 4.56777 72.7319 4.41107C71.1343 2.99948 68.9 3.09509 67.4802 4.62459C65.8273 6.40611 65.904 9.56531 67.6418 11.2671C69.1218 12.7169 71.3802 12.6738 72.7786 11.1474C73.0151 10.8892 73.1623 10.9011 73.411 11.1073C73.9907 11.5879 74.5852 12.0522 75.1888 12.5024C75.4503 12.6973 75.4967 12.8409 75.275 13.1186C74.3405 14.2873 73.0612 14.8433 71.6566 15.0739C69.8076 15.3776 68.0352 15.0492 66.422 14.0555C64.547 12.9002 63.4962 11.195 63.1776 9.0231C63.1434 8.79155 63.1263 8.55695 63.1113 8.32326C63.1015 8.16747 63.1095 8.01076 63.1095 7.85436Z" fill="#471382"/>
<path d="M4.41248 7.85804C4.41248 5.68246 4.42256 3.50657 4.4024 1.3313C4.39904 0.963816 4.54139 0.893251 4.849 0.895084C7.6786 0.91219 10.5082 0.929297 13.3381 0.929909C13.6695 0.929909 13.7493 1.03621 13.7389 1.35116C13.7169 2.02778 13.7212 2.70623 13.741 3.38316C13.7496 3.67978 13.6472 3.7537 13.361 3.75187C11.5434 3.73965 9.72619 3.7537 7.90893 3.73965C7.5946 3.7369 7.47607 3.80716 7.48951 4.14318C7.51639 4.8195 7.52464 5.49856 7.4944 6.17458C7.47821 6.54023 7.61048 6.59613 7.93703 6.59246C9.5594 6.57475 11.1824 6.59491 12.8047 6.57291C13.1939 6.56772 13.2859 6.70091 13.2697 7.06503C13.2425 7.67598 13.2419 8.29028 13.274 8.90092C13.2929 9.2678 13.2064 9.39335 12.8133 9.38785C11.1781 9.36463 9.54199 9.38724 7.90648 9.37074C7.58238 9.36769 7.4886 9.46055 7.49196 9.78344C7.50845 11.3206 7.49348 12.8577 7.51059 14.3949C7.51426 14.7217 7.41345 14.8311 7.09026 14.8164C6.33818 14.7822 5.58458 14.7788 4.83312 14.8341C4.52245 14.857 4.40271 14.7639 4.40485 14.4242C4.41951 12.2355 4.41248 10.0468 4.41248 7.85804Z" fill="#471382"/>
<path d="M44.9809 9.25094C44.9809 10.9842 44.9764 12.7178 44.9858 14.451C44.9873 14.721 44.9082 14.8212 44.6303 14.8154C43.8644 14.7992 43.0977 14.7941 42.3319 14.8124C41.9968 14.8203 41.8902 14.721 41.8917 14.3704C41.9048 10.942 41.8926 7.51402 41.9094 4.086C41.9115 3.70569 41.7713 3.61007 41.442 3.61435C40.4159 3.62749 39.3899 3.62076 38.3641 3.64551C38.0363 3.65345 37.9352 3.54928 37.9474 3.21998C37.9706 2.58246 37.9639 1.9428 37.9413 1.30497C37.9312 1.02241 38.0055 0.898389 38.3018 0.899611C41.7307 0.915801 45.1593 0.926493 48.5883 0.933213C48.8174 0.933824 48.9072 0.999195 48.9011 1.24571C48.8849 1.92325 48.8861 2.6014 48.8986 3.27894C48.9032 3.54134 48.799 3.61466 48.5522 3.61282C47.5002 3.6058 46.4478 3.62718 45.3964 3.60793C45.0515 3.60183 44.9479 3.71118 44.9504 4.05056C44.9632 5.78382 44.9562 7.51738 44.9562 9.25094C44.9644 9.25094 44.9727 9.25094 44.9809 9.25094Z" fill="#471382"/>
<path d="M19.4597 7.90771C19.4597 10.0833 19.4557 12.2586 19.4649 14.4341C19.4661 14.7036 19.3891 14.8044 19.1133 14.8013C18.3346 14.7931 17.5553 14.8025 16.7767 14.816C16.5027 14.8206 16.3918 14.7353 16.3924 14.4338C16.4013 10.0436 16.4019 5.65332 16.3897 1.26306C16.3887 0.941705 16.5231 0.89008 16.781 0.895273C17.5465 0.910241 18.3123 0.931319 19.0778 0.923071C19.397 0.919406 19.4664 1.04923 19.4652 1.34249C19.4554 3.5309 19.46 5.71931 19.4597 7.90771Z" fill="#471382"/>
</g>
</g>
<defs>
<clipPath id="clip0_1293_6339">
<rect width="91.6419" height="32.0747" fill="white" transform="translate(0.282227 0.595947)"/>
</clipPath>
</defs>
</svg>
