<svg width="135" height="86" viewBox="0 0 135 86" fill="none" xmlns="http://www.w3.org/2000/svg">
<g clip-path="url(#clip0_1293_6665)">
<mask id="mask0_1293_6665" style="mask-type:luminance" maskUnits="userSpaceOnUse" x="0" y="-18" width="135" height="135">
<path d="M0 -17.8047H134.375V116.57H0V-17.8047Z" fill="white"/>
</mask>
<g mask="url(#mask0_1293_6665)">
<path d="M75.0918 35.5446C77.851 38.3418 77.9589 41.5368 76.9842 44.8684C76.3854 46.9136 74.6882 47.2836 73.1165 45.8408C72.2654 45.0601 71.7512 44.0761 71.3821 42.9979C71.2195 42.5222 71.0377 42.0488 70.811 41.6009C70.5539 41.0929 70.2843 41.079 69.9596 41.5592C69.6657 41.9937 69.4561 42.4851 69.1681 42.9245C68.3677 44.1473 67.6662 45.4615 66.7086 46.5486C64.5259 49.0264 61.6677 49.3422 58.9377 47.482C58.3204 47.0614 57.761 46.433 57.4036 45.7759C55.8524 42.9258 55.5228 39.8316 55.7763 36.6447C56.0025 33.8035 57.2714 31.3597 58.8535 29.0977C61.1907 25.7567 63.6614 22.5093 66.0793 19.2252C68.1325 16.436 70.1419 13.6186 71.4816 10.3968C72.57 7.77779 73.0891 5.09612 72.2233 2.29395C72.1382 2.01803 72.0419 1.7457 72.0021 1.45634C73.0067 3.16515 73.4797 5.03027 73.581 6.9917C73.7655 10.5804 72.7214 13.8627 71.0332 16.9775C69.3961 19.9974 67.1708 22.5998 65.1046 25.3155C63.2601 27.741 61.3739 30.1364 59.5961 32.6098C58.2752 34.4476 57.4591 36.5251 56.9736 38.7557C56.277 41.9556 59.5491 45.818 62.4184 45.5734C64.0014 45.4382 65.2578 44.7202 66.1205 43.4772C66.976 42.245 67.6259 40.869 68.3506 39.5476C68.6687 38.9676 68.8953 38.3311 69.2577 37.7819C69.8319 36.9112 70.4845 36.9663 70.9575 37.9091C71.3678 38.7266 71.6746 39.5964 72.097 40.4072C72.5821 41.3379 73.0842 42.271 73.6889 43.1251C74.2914 43.9757 74.9588 43.973 75.7126 43.2591C75.8783 43.1023 76.0288 42.9258 76.1659 42.7435C77.1701 41.406 77.1885 40.9998 76.0423 39.7729C75.1576 38.8256 74.6676 37.7842 74.8418 36.4825C74.8813 36.1865 74.9946 35.9002 75.0918 35.5446Z" fill="#09401F"/>
<path d="M62.4039 13.8295C62.0581 14.337 61.7486 14.7365 61.5009 15.171C61.2738 15.5692 61.0158 15.5983 60.6628 15.3726C59.857 14.8561 59.049 14.3432 58.2002 13.8026C58.6499 13.021 59.1023 12.2349 59.6268 11.3238C60.6118 11.8958 61.5667 12.4499 62.5602 13.0268C62.8523 12.5843 63.1577 12.157 63.4229 11.7059C63.6048 11.3959 63.8005 11.2656 64.1337 11.4712C64.8934 11.9393 65.6683 12.3854 66.4011 12.892C66.527 12.9789 66.5718 13.3713 66.4875 13.5388C66.1427 14.2254 65.7328 14.8794 65.3109 15.6082C64.2878 14.9824 63.3781 14.4257 62.4039 13.8295Z" fill="#09401F"/>
<path d="M64.1832 34.0526C64.4232 34.1767 64.6678 34.2931 64.903 34.4262C65.7285 34.8938 66.0998 35.9047 65.7795 36.7956C65.4454 37.7269 64.5397 38.2411 63.5355 38.07C62.6571 37.9204 61.9606 37.0899 61.9418 36.1708C61.923 35.2306 62.6047 34.4015 63.5453 34.2165C63.7653 34.1731 63.9834 34.1189 64.2029 34.0696L64.1832 34.0526Z" fill="#09401F"/>
<path d="M69.291 50.0076C69.8357 49.1445 70.3557 48.2939 70.9138 47.4692C70.9859 47.3626 71.3111 47.2999 71.4249 47.3698C72.0842 47.7747 72.7306 48.2056 73.342 48.6786C73.454 48.7651 73.4687 49.1301 73.3845 49.2918C72.9487 50.1285 72.4667 50.9406 71.9646 51.8257C71.0218 51.1847 70.2361 50.6504 69.291 50.0076Z" fill="#09401F"/>
<path d="M64.2024 34.0698C64.2844 32.6383 65.221 31.9261 66.3766 31.2883C67.9188 30.4363 69.3853 29.4473 70.8858 28.5197C71.0721 28.4046 71.2665 28.3038 71.5496 28.1443C71.3355 29.0971 71.1577 29.8513 70.2636 30.3615C68.3954 31.4289 66.6091 32.6392 64.7847 33.7836C64.6006 33.8992 64.3856 33.965 64.1836 34.0533C64.1827 34.0528 64.2024 34.0698 64.2024 34.0698Z" fill="#09401F"/>
<path d="M79.0232 19.9529C79.215 19.2909 79.348 18.8076 79.4962 18.3288C79.5634 18.1116 79.6391 17.8912 79.7484 17.6932C79.9984 17.2404 80.3115 16.7454 80.9049 16.9676C81.472 17.1803 81.3609 17.7304 81.2548 18.2625C81.1338 18.2177 81.0268 18.1962 80.9394 18.1429C80.3854 17.8061 80.1041 17.8657 79.907 18.4766C79.606 19.411 79.3735 20.3673 79.1079 21.3133C79.03 21.5914 78.939 21.8664 78.8136 22.2754C78.5341 21.2501 78.3016 20.3803 78.0589 19.5135C77.9411 19.0916 77.7453 18.8094 77.219 18.7682C76.9418 18.7467 76.5463 18.4726 76.4665 18.2271C76.4007 18.0233 76.6578 17.5611 76.8831 17.4589C77.1187 17.3523 77.581 17.4383 77.7767 17.6206C78.114 17.9346 78.3482 18.3736 78.5744 18.7879C78.7455 19.101 78.8369 19.458 79.0232 19.9529Z" fill="#09401F"/>
<path d="M74.1292 29.9253C74.1292 28.9502 74.2134 28.0951 74.1099 27.2629C73.9384 25.8824 73.3086 24.6659 72.29 23.7252C71.6034 23.0905 71.3763 22.4039 71.5837 21.534C73.8725 22.0536 75.502 27.1737 74.1292 29.9253Z" fill="#09401F"/>
<path d="M78.1743 9.85758C78.2474 9.99419 78.2868 10.0488 78.3074 10.1098C78.6397 11.0898 78.3253 11.978 77.5764 12.1791C76.883 12.3655 76.2156 11.8159 76.027 10.8027C75.7587 9.3595 76.0871 8.01575 76.771 6.75531C76.8292 6.76651 76.8875 6.7777 76.9457 6.7889C76.8194 7.39986 76.668 8.00724 76.5757 8.62312C76.5121 9.0473 76.4718 9.49253 76.5336 9.91178C76.5717 10.1684 76.7912 10.5541 76.9865 10.5926C77.2292 10.641 77.5414 10.409 77.803 10.262C77.9325 10.189 78.0162 10.035 78.1743 9.85758Z" fill="#09401F"/>
<path d="M55.0072 31.8325C55.1026 32.1062 55.1765 32.2706 55.2173 32.4426C55.4072 33.2444 55.0466 33.9964 54.3931 34.1796C53.7696 34.3548 53.1264 33.9252 52.9105 33.0827C52.5101 31.5239 52.8635 30.0758 53.7728 28.7374C53.6599 29.274 53.5215 29.8066 53.4422 30.3481C53.3696 30.8404 53.3024 31.3474 53.3472 31.8379C53.3723 32.1134 53.5766 32.5102 53.7961 32.5904C54.0012 32.6657 54.343 32.4126 54.6041 32.2675C54.7349 32.1949 54.82 32.0404 55.0072 31.8325Z" fill="#09401F"/>
<path d="M68.4701 53.4009C68.4701 53.8784 68.5874 54.3989 68.4333 54.8204C68.3075 55.1644 67.89 55.55 67.5415 55.6203C67.2316 55.6826 66.6771 55.43 66.5194 55.1523C66.2403 54.6605 66.0871 54.0508 66.0482 53.4789C65.9689 52.3205 66.2798 51.2299 67.0179 50.257C66.9427 50.6574 66.8562 51.0565 66.7953 51.4597C66.7102 52.0213 66.5767 52.5884 66.596 53.1483C66.6072 53.4659 66.8141 53.9308 67.0596 54.0379C67.2665 54.1279 67.6629 53.8081 67.9635 53.6473C68.071 53.5895 68.1435 53.4659 68.2322 53.3723C68.3115 53.3817 68.3908 53.3915 68.4701 53.4009Z" fill="#09401F"/>
<path d="M79.4287 34.7148C80.8988 35.8301 81.263 38.9015 80.1633 40.6206C80.2036 39.8901 80.3604 39.0986 80.2569 38.3421C80.1615 37.6424 79.8668 36.9347 79.5121 36.3152C79.1882 35.75 79.1573 35.2644 79.4287 34.7148Z" fill="#09401F"/>
<path d="M61.155 51.5675C61.1783 51.7171 61.2894 51.9469 61.2226 52.0978C61.0887 52.4002 60.9158 52.7845 60.6524 52.9072C60.2417 53.0989 59.8986 52.7899 59.753 52.3921C59.3647 51.3301 59.6397 50.3434 60.2202 49.4054C60.1288 49.9223 59.9868 50.4365 59.9662 50.9561C59.9546 51.2638 60.1351 51.5792 60.2292 51.8909C60.5069 51.7937 60.7846 51.697 61.155 51.5675Z" fill="#09401F"/>
<path d="M55.028 22.0939C55.9042 21.3759 56.8757 20.9047 58.0443 21.0033C58.6893 21.0575 59.204 21.3598 59.3849 22.0039C59.5735 22.6735 59.2183 23.1824 58.6696 23.495C58.2257 23.7476 57.7106 23.8744 57.2273 24.0572C56.2728 23.9707 55.5696 23.5644 54.9716 22.8988C54.6849 22.5795 54.7329 22.3358 55.028 22.0939ZM61.8158 1.91439C59.7751 3.62006 58.305 5.76826 57.1041 8.10908C54.4695 13.2458 53.3201 18.778 52.8256 24.4742C52.7562 25.2715 52.8158 26.0799 52.8158 26.8831C52.8767 26.8795 52.9376 26.8754 52.9985 26.8719C53.2373 26.144 53.4756 25.4166 53.6623 24.8464C54.4726 25.361 55.1808 25.9348 55.9852 26.2914C57.0974 26.7836 58.3337 26.4513 58.9903 25.469C60.1679 23.7069 60.4984 21.7472 59.8978 19.698C59.6169 18.7404 58.9007 18.3408 57.8844 18.3928C56.821 18.4474 55.953 18.9285 55.2224 19.6689C54.8744 20.0219 54.5689 20.4169 54.1246 20.9311C54.1533 20.5674 54.1568 20.3856 54.1833 20.2069C54.8493 15.6937 56.0135 11.3296 58.2141 7.30193C59.8888 4.23594 61.9757 1.54441 65.3109 0.0962963C65.3292 0.0882339 65.3288 0.0376186 65.353 -0.0515175C63.994 0.339514 62.8572 1.04409 61.8158 1.91439Z" fill="#09401F"/>
<path d="M68.8982 4.16616C68.9587 3.75094 69.0093 3.40157 69.0715 2.9747C69.8142 3.16641 70.2823 3.50996 70.3866 4.33816C69.8773 4.27904 69.4209 4.22663 68.8982 4.16616ZM68.3307 4.0506C67.8801 3.91264 67.4635 3.78498 67.0617 3.66181C67.1558 2.99799 67.5647 2.58098 67.9701 2.73686C68.5443 2.95813 68.4816 3.44905 68.3307 4.0506ZM70.5895 2.79464C69.9651 1.86342 69.0169 1.35548 67.9509 1.06882C67.369 0.912495 67.025 1.17945 66.9009 1.74696C66.8181 2.12635 66.776 2.51559 66.6792 2.89094C66.3057 4.33368 66.3003 4.33189 67.5822 4.99749C67.6127 5.01362 67.6198 5.07543 67.7175 5.29222C65.4309 6.52892 63.1317 7.77234 60.833 9.01575C60.842 9.04935 60.8505 9.08339 60.8594 9.11743C61.1385 9.06682 61.4211 9.03009 61.6966 8.96335C64.0338 8.39315 66.0781 7.25589 67.8828 5.68953C68.3576 5.27744 68.8261 5.12918 69.4447 5.23579C70.3992 5.40062 70.9241 4.98495 70.9443 4.00939C70.9523 3.60313 70.8157 3.13192 70.5895 2.79464Z" fill="#09401F"/>
<path d="M79.9096 27.0252C80.3844 26.9275 80.4682 27.8628 80.4682 27.8628C79.9096 27.9188 79.4348 27.1228 79.9096 27.0252ZM81.566 28.2193C81.4298 28.0769 81.3662 27.8386 81.3282 27.6334C81.2337 27.1192 81.2099 26.5898 81.0854 26.0845C81.003 25.7491 80.7589 25.5309 80.3535 25.7105C79.8541 25.9318 79.0375 27.1819 79.0559 27.7235C79.0837 28.5221 79.6794 28.7743 80.298 29.005C80.3804 29.0354 80.4552 29.086 80.6545 29.1913C79.231 31.3597 76.7764 32.2223 75.1191 33.9907C77.5437 32.9753 79.5732 31.4569 81.0764 29.1985C81.261 29.4636 81.3725 29.6235 81.4867 29.7875C82.2235 29.1214 82.2204 28.9042 81.566 28.2193Z" fill="#09401F"/>
<path d="M5.08407 72.9453V75.6086H6.79915C7.11314 75.6086 7.37606 75.571 7.58748 75.4957C7.7989 75.42 7.96821 75.3197 8.09631 75.1943C8.22397 75.0684 8.31579 74.922 8.37268 74.7544C8.42911 74.5869 8.45733 74.4091 8.45733 74.2205C8.45733 74.0239 8.42598 73.847 8.36327 73.6897C8.30011 73.5325 8.20202 73.3986 8.06809 73.2875C7.93372 73.1769 7.76217 73.0918 7.55254 73.0331C7.34336 72.9749 7.08984 72.9453 6.79287 72.9453H5.08407ZM5.08407 71.7767H6.43454C7.00832 71.7767 7.4437 71.6723 7.74111 71.4627C8.03853 71.2535 8.18724 70.9207 8.18724 70.4638C8.18724 69.9908 8.05331 69.6536 7.78501 69.4529C7.51716 69.2518 7.09835 69.151 6.52905 69.151H5.08407V71.7767ZM3.39453 76.9277V67.8444H6.52905C7.12344 67.8444 7.63137 67.9013 8.05242 68.0142C8.47301 68.1275 8.81835 68.2883 9.0889 68.4979C9.35854 68.7076 9.55652 68.9606 9.68238 69.2581C9.8078 69.5555 9.87051 69.8905 9.87051 70.2632C9.87051 70.4768 9.83916 70.6806 9.77645 70.8755C9.71374 71.0703 9.61609 71.2526 9.48441 71.4219C9.35227 71.5917 9.18475 71.7453 8.98184 71.8837C8.77849 72.0222 8.53661 72.1391 8.25622 72.2354C9.50411 72.5162 10.1281 73.1903 10.1281 74.2582C10.1281 74.6434 10.0551 74.9995 9.90858 75.326C9.76167 75.653 9.54801 75.9347 9.26761 76.1712C8.98722 76.4077 8.64143 76.5931 8.23114 76.7271C7.82084 76.861 7.35187 76.9277 6.82423 76.9277H3.39453Z" fill="#09401F"/>
<path d="M16.7551 75.5645C17.0817 75.5645 17.3737 75.5099 17.6313 75.401C17.8888 75.2922 18.1065 75.1395 18.2848 74.9428C18.4626 74.7457 18.5988 74.507 18.6928 74.2266C18.7873 73.9458 18.8344 73.6318 18.8344 73.2842V67.8442H20.5239V73.2842C20.5239 73.8244 20.437 74.3238 20.2632 74.7825C20.0894 75.2411 19.8395 75.6366 19.513 75.9699C19.186 76.3027 18.7905 76.562 18.3255 76.7488C17.8606 76.9347 17.337 77.0283 16.7551 77.0283C16.1728 77.0283 15.6497 76.9347 15.1847 76.7488C14.7198 76.562 14.3252 76.3027 14.0004 75.9699C13.6762 75.6366 13.4267 75.2411 13.2529 74.7825C13.0791 74.3238 12.9922 73.8244 12.9922 73.2842V67.8442H14.6822V73.2779C14.6822 73.6255 14.7292 73.9395 14.8237 74.2203C14.9178 74.5007 15.0526 74.7404 15.2286 74.9397C15.4047 75.1386 15.621 75.2922 15.8786 75.401C16.1361 75.5099 16.4282 75.5645 16.7551 75.5645Z" fill="#09401F"/>
<path d="M24.8397 67.8538C24.8899 67.8601 24.9351 67.8727 24.9746 67.8915C25.0144 67.9103 25.0534 67.9376 25.091 67.973C25.1286 68.0088 25.1707 68.0558 25.2164 68.1145L29.9845 74.1887C29.9675 74.0423 29.9563 73.8989 29.95 73.7587C29.9437 73.6185 29.9406 73.4873 29.9406 73.3659V67.8444H31.429V76.9277H30.556C30.4221 76.9277 30.311 76.9067 30.2232 76.865C30.135 76.8229 30.0494 76.7477 29.9657 76.6388L25.2164 70.5893C25.229 70.7236 25.2388 70.8562 25.2451 70.9884C25.2509 71.1205 25.2545 71.2405 25.2545 71.3494V76.9277H23.7656V67.8444H24.6512C24.7269 67.8444 24.7896 67.8476 24.8397 67.8538Z" fill="#09401F"/>
<path d="M36.8883 73.498H39.7841L38.6786 70.4764C38.6285 70.3425 38.5729 70.1843 38.512 70.0025C38.4515 69.8202 38.3915 69.6222 38.3333 69.4086C38.2742 69.6222 38.2168 69.8211 38.1604 70.0052C38.104 70.1897 38.0484 70.351 37.9938 70.4894L36.8883 73.498ZM42.7681 76.9277H41.4615C41.3146 76.9277 41.1946 76.891 41.1001 76.818C41.006 76.7445 40.9379 76.6536 40.8958 76.5448L40.2177 74.6917H36.4547L35.7766 76.5448C35.743 76.6411 35.6772 76.7289 35.5786 76.8086C35.4801 76.8883 35.3596 76.9277 35.2171 76.9277H33.9043L37.4724 67.8444H39.2L42.7681 76.9277Z" fill="#09401F"/>
<path d="M50.7017 67.8444V69.233H47.969V76.9277H46.2795V69.233H43.5342V67.8444H50.7017Z" fill="#09401F"/>
<path d="M55.6631 67.8444H57.0261C57.1726 67.8444 57.2922 67.8803 57.3844 67.9515C57.4763 68.0227 57.5457 68.1145 57.5918 68.2278L59.7275 73.7681C59.7987 73.9482 59.8663 74.1462 59.9317 74.3616C59.9967 74.5775 60.058 74.8046 60.1167 75.0433C60.213 74.5618 60.3326 74.1368 60.4751 73.7681L62.6045 68.2278C62.6421 68.1315 62.7088 68.0433 62.8056 67.964C62.9019 67.8843 63.021 67.8444 63.1635 67.8444H64.5265L60.858 76.9277H59.3315L55.6631 67.8444Z" fill="#09401F"/>
<path d="M72.723 67.8444V69.1886H68.6967V71.7077H71.8688V73.008H68.6967V75.5773H72.723V76.9277H66.9941V67.8444H72.723Z" fill="#09401F"/>
<path d="M76.7811 67.8538C76.8313 67.8601 76.8765 67.8727 76.916 67.8915C76.9558 67.9103 76.9948 67.9376 77.0324 67.973C77.07 68.0088 77.1121 68.0558 77.1578 68.1145L81.9259 74.1887C81.9089 74.0423 81.8977 73.8989 81.8914 73.7587C81.8851 73.6185 81.882 73.4873 81.882 73.3659V67.8444H83.3704V76.9277H82.4974C82.3635 76.9277 82.2524 76.9067 82.1646 76.865C82.0764 76.8229 81.9904 76.7477 81.9071 76.6388L77.1578 70.5893C77.1704 70.7236 77.1802 70.8562 77.1865 70.9884C77.1923 71.1205 77.1959 71.2405 77.1959 71.3494V76.9277H75.707V67.8444H76.5926C76.6683 67.8444 76.731 67.8476 76.7811 67.8538Z" fill="#09401F"/>
<path d="M93.5387 67.8444V69.233H90.8059V76.9277H89.1164V69.233H86.3711V67.8444H93.5387Z" fill="#09401F"/>
<path d="M100.063 75.5645C100.389 75.5645 100.681 75.5099 100.939 75.401C101.196 75.2922 101.414 75.1395 101.592 74.9428C101.77 74.7457 101.906 74.507 102 74.2266C102.095 73.9458 102.142 73.6318 102.142 73.2842V67.8442H103.832V73.2842C103.832 73.8244 103.745 74.3238 103.571 74.7825C103.397 75.2411 103.147 75.6366 102.821 75.9699C102.494 76.3027 102.098 76.562 101.633 76.7488C101.168 76.9347 100.645 77.0283 100.063 77.0283C99.4805 77.0283 98.9573 76.9347 98.4924 76.7488C98.0274 76.562 97.6328 76.3027 97.3081 75.9699C96.9838 75.6366 96.7343 75.2411 96.5605 74.7825C96.3867 74.3238 96.2998 73.8244 96.2998 73.2842V67.8442H97.9898V73.2779C97.9898 73.6255 98.0368 73.9395 98.1313 74.2203C98.2254 74.5007 98.3602 74.7404 98.5363 74.9397C98.7123 75.1386 98.9286 75.2922 99.1862 75.401C99.4437 75.5099 99.7358 75.5645 100.063 75.5645Z" fill="#09401F"/>
<path d="M108.82 72.1664H109.875C110.193 72.1664 110.471 72.1265 110.707 72.0472C110.944 71.9675 111.139 71.8578 111.291 71.7171C111.445 71.5769 111.559 71.4107 111.634 71.2177C111.709 71.0251 111.747 70.8137 111.747 70.5834C111.747 70.123 111.595 69.7691 111.291 69.5219C110.988 69.2746 110.524 69.151 109.9 69.151H108.82V72.1664ZM108.82 73.3789V76.9277H107.13V67.8444H109.9C110.52 67.8444 111.051 67.9085 111.493 68.0361C111.934 68.1638 112.297 68.343 112.579 68.5732C112.862 68.8034 113.069 69.0789 113.201 69.3991C113.333 69.7199 113.399 70.0724 113.399 70.4576C113.399 70.7635 113.354 71.0524 113.264 71.3247C113.174 71.5971 113.044 71.8439 112.874 72.0656C112.705 72.2878 112.495 72.4826 112.246 72.6501C111.997 72.8177 111.713 72.9516 111.395 73.0524C111.609 73.1737 111.793 73.3471 111.948 73.5733L114.222 76.9277H112.702C112.555 76.9277 112.431 76.8986 112.328 76.8399C112.225 76.7813 112.138 76.6975 112.067 76.5887L110.158 73.6803C110.087 73.5715 110.008 73.494 109.922 73.4479C109.836 73.4017 109.71 73.3789 109.542 73.3789H108.82Z" fill="#09401F"/>
<path d="M122.551 67.8444V69.1886H118.525V71.7077H121.697V73.008H118.525V75.5773H122.551V76.9277H116.822V67.8444H122.551Z" fill="#09401F"/>
<path d="M130.404 69.4961C130.358 69.5884 130.304 69.6533 130.244 69.691C130.183 69.7286 130.111 69.7474 130.027 69.7474C129.943 69.7474 129.849 69.7151 129.744 69.6502C129.64 69.5852 129.516 69.5131 129.374 69.4334C129.231 69.3537 129.065 69.2816 128.874 69.2166C128.684 69.1517 128.459 69.1194 128.199 69.1194C127.964 69.1194 127.76 69.1476 127.586 69.2041C127.413 69.2605 127.266 69.3389 127.147 69.4397C127.027 69.54 126.938 69.6605 126.88 69.8007C126.821 69.9413 126.792 70.095 126.792 70.2625C126.792 70.4762 126.852 70.6544 126.971 70.7964C127.09 70.9389 127.248 71.0602 127.445 71.1606C127.642 71.2614 127.866 71.3514 128.117 71.4311C128.368 71.5104 128.625 71.5955 128.887 71.6855C129.148 71.7756 129.405 71.8799 129.656 71.9995C129.908 72.1187 130.131 72.2696 130.329 72.4519C130.525 72.6338 130.683 72.8568 130.803 73.1207C130.922 73.3845 130.982 73.7047 130.982 74.0819C130.982 74.4922 130.912 74.8765 130.772 75.2344C130.631 75.5927 130.426 75.9045 130.156 76.1705C129.886 76.4366 129.556 76.6458 129.166 76.7985C128.777 76.9512 128.331 77.0278 127.828 77.0278C127.539 77.0278 127.255 76.9996 126.974 76.9432C126.693 76.8863 126.425 76.8061 126.167 76.7013C125.909 76.5965 125.668 76.4711 125.444 76.3246C125.221 76.1777 125.02 76.0146 124.845 75.8341L125.335 75.0239C125.38 74.9656 125.436 74.9164 125.501 74.8765C125.566 74.8366 125.638 74.8169 125.718 74.8169C125.823 74.8169 125.935 74.8599 126.057 74.9455C126.178 75.0315 126.322 75.1269 126.487 75.2312C126.653 75.3361 126.847 75.4315 127.071 75.517C127.295 75.603 127.564 75.646 127.878 75.646C128.36 75.646 128.733 75.5318 128.997 75.3038C129.261 75.0754 129.392 74.7475 129.392 74.3206C129.392 74.0819 129.333 73.887 129.214 73.7361C129.094 73.5856 128.936 73.4588 128.739 73.3563C128.542 73.2537 128.318 73.1668 128.067 73.0956C127.816 73.0244 127.56 72.9469 127.301 72.8631C127.041 72.7793 126.786 72.679 126.534 72.5617C126.283 72.4443 126.059 72.2916 125.862 72.103C125.665 71.9144 125.507 71.6788 125.388 71.3962C125.268 71.1135 125.209 70.7651 125.209 70.3503C125.209 70.0197 125.275 69.6972 125.407 69.3832C125.539 69.0692 125.731 68.7906 125.985 68.5474C126.238 68.3047 126.549 68.1103 126.917 67.9633C127.286 67.8169 127.707 67.7434 128.18 67.7434C128.716 67.7434 129.21 67.8276 129.663 67.9947C130.115 68.1622 130.5 68.3969 130.819 68.6984L130.404 69.4961Z" fill="#09401F"/>
<path d="M16.7525 80.553L15.1874 84.4006H13.3004L11.7354 80.553H13.2874L14.2473 83.1998L15.2009 80.553H16.7525Z" fill="#09401F"/>
<path d="M19.948 81.5152V81.9882H21.3948V82.8956H19.948V83.439H21.5919V84.4006H18.4883V80.553H21.5919V81.5152H19.948Z" fill="#09401F"/>
<path d="M28.0166 84.4006H26.5568L25.0115 82.4661V84.4006H23.5518V80.553H25.0115L26.5568 82.5203V80.553H28.0166V84.4006Z" fill="#09401F"/>
<path d="M33.7367 80.553V81.5093H32.5004V84.4006H31.0406V81.5093H29.8174V80.553H33.7367Z" fill="#09401F"/>
<path d="M36.9657 80.5538V82.7221C36.9657 82.8995 37.0128 83.0402 37.1073 83.1432C37.2013 83.2467 37.3536 83.2982 37.5642 83.2982C37.7747 83.2982 37.9301 83.2467 38.0309 83.1432C38.1317 83.0402 38.1823 82.8995 38.1823 82.7221V80.5538H39.6353V82.7221C39.6353 83.0881 39.5435 83.4007 39.3594 83.6596C39.1753 83.9185 38.9231 84.1134 38.6029 84.2437C38.2831 84.3741 37.9256 84.4395 37.531 84.4395C37.1368 84.4395 36.787 84.3741 36.4824 84.2437C36.1779 84.1134 35.94 83.9194 35.7689 83.6623C35.5978 83.4052 35.5127 83.0917 35.5127 82.7221V80.5538H36.9657Z" fill="#09401F"/>
<path d="M43.1336 82.2161H43.7123C43.8525 82.2161 43.9578 82.1897 44.0281 82.1373C44.098 82.0849 44.1329 82.0025 44.1329 81.8901C44.1329 81.7888 44.0971 81.7091 44.0245 81.6509C43.9524 81.5931 43.848 81.564 43.7123 81.564H43.1336V82.2161ZM44.0146 84.4006L43.1403 83.0206H43.1336V84.4006H41.6738V80.553H43.844C44.2207 80.553 44.5427 80.6086 44.8106 80.7188C45.0775 80.8294 45.2782 80.9799 45.4121 81.1698C45.5456 81.3602 45.6128 81.5747 45.6128 81.8139C45.6128 82.0715 45.5259 82.2995 45.353 82.4988C45.1797 82.6981 44.9311 82.841 44.6063 82.9279L45.6191 84.4006H44.0146Z" fill="#09401F"/>
<path d="M48.9461 81.5152V81.9882H50.3929V82.8956H48.9461V83.439H50.5899V84.4006H47.4863V80.553H50.5899V81.5152H48.9461Z" fill="#09401F"/>
<path d="M57.4917 83.3709C57.5553 83.3292 57.5871 83.2611 57.5871 83.1671C57.5871 82.9821 57.4577 82.8898 57.1992 82.8898H56.535V83.4331H57.1992C57.3305 83.4331 57.4281 83.4125 57.4917 83.3709ZM56.535 82.0531H57.1002C57.2319 82.0531 57.3296 82.0312 57.3932 81.9877C57.4568 81.9443 57.4886 81.8771 57.4886 81.7866C57.4886 81.6925 57.4568 81.6227 57.3932 81.5774C57.3296 81.5322 57.2319 81.5093 57.1002 81.5093H56.535V82.0531ZM58.8462 82.7622C59.0016 82.9306 59.0796 83.1254 59.0796 83.3462C59.0796 83.6831 58.9447 83.9433 58.6751 84.1261C58.4055 84.3093 58.0189 84.4006 57.5145 84.4006H55.0752V80.553H57.4487C57.9226 80.553 58.2948 80.6381 58.5667 80.8083C58.8386 80.979 58.9743 81.2271 58.9743 81.5528C58.9743 81.7776 58.9031 81.9671 58.7607 82.1207C58.6182 82.2748 58.4287 82.3774 58.1918 82.428C58.4722 82.4822 58.6908 82.5937 58.8462 82.7622Z" fill="#09401F"/>
<path d="M62.4071 80.5538V82.7221C62.4071 82.8995 62.4542 83.0402 62.5487 83.1432C62.6427 83.2467 62.795 83.2982 63.0056 83.2982C63.2161 83.2982 63.3715 83.2467 63.4723 83.1432C63.5731 83.0402 63.6237 82.8995 63.6237 82.7221V80.5538H65.0767V82.7221C65.0767 83.0881 64.9849 83.4007 64.8008 83.6596C64.6167 83.9185 64.3645 84.1134 64.0443 84.2437C63.7245 84.3741 63.367 84.4395 62.9724 84.4395C62.5782 84.4395 62.2284 84.3741 61.9238 84.2437C61.6193 84.1134 61.3814 83.9194 61.2103 83.6623C61.0392 83.4052 60.9541 83.0917 60.9541 82.7221V80.5538H62.4071Z" fill="#09401F"/>
<path d="M68.575 84.4006H67.1152V80.553H68.575V84.4006Z" fill="#09401F"/>
<path d="M72.1004 83.4878H73.5077V84.4006H70.6406V80.553H72.1004V83.4878Z" fill="#09401F"/>
<path d="M77.9648 83.1017C78.1574 82.9534 78.2541 82.7411 78.2541 82.4656C78.2541 82.1906 78.1574 81.9787 77.9648 81.83C77.7717 81.6818 77.511 81.6074 77.1823 81.6074H76.8338V83.3247H77.1823C77.511 83.3247 77.7717 83.2504 77.9648 83.1017ZM78.5928 80.7976C78.9587 80.9606 79.2404 81.1873 79.4375 81.4766C79.6351 81.7669 79.7336 82.0961 79.7336 82.4656C79.7336 82.832 79.6351 83.1612 79.4375 83.4551C79.2404 83.7485 78.9587 83.9796 78.5928 84.148C78.2268 84.3164 77.8004 84.4006 77.314 84.4006H75.374V80.553H77.314C77.8004 80.553 78.2268 80.6346 78.5928 80.7976Z" fill="#09401F"/>
<path d="M83.1277 84.4006H81.668V80.553H83.1277V84.4006Z" fill="#09401F"/>
<path d="M89.7939 84.4006H88.3342L86.7889 82.4661V84.4006H85.3291V80.553H86.7889L88.3342 82.5203V80.553H89.7939V84.4006Z" fill="#09401F"/>
<path d="M94.5752 81.8684C94.5183 81.7922 94.4373 81.7336 94.332 81.6919C94.2267 81.6502 94.0995 81.6292 93.9504 81.6292C93.67 81.6292 93.4527 81.7044 93.2995 81.8549C93.1459 82.005 93.0693 82.211 93.0693 82.4717C93.0693 82.7723 93.1549 82.9971 93.326 83.1454C93.4966 83.2941 93.76 83.3685 94.1148 83.3685C94.4525 83.3685 94.7244 83.256 94.9304 83.0316H93.7663V82.1779H96.1402V83.3846C95.9387 83.6708 95.6601 83.9163 95.3049 84.121C94.9501 84.3256 94.5004 84.4282 93.9571 84.4282C93.4747 84.4282 93.055 84.3458 92.698 84.181C92.3406 84.0157 92.0664 83.785 91.8761 83.488C91.6852 83.1911 91.5898 82.852 91.5898 82.4717C91.5898 82.0914 91.6852 81.7524 91.8761 81.4554C92.0664 81.1584 92.3397 80.9273 92.6944 80.7625C93.0496 80.5976 93.4662 80.5152 93.9441 80.5152C94.5533 80.5152 95.0496 80.6366 95.4334 80.8794C95.8168 81.1221 96.0439 81.4518 96.1138 81.8684H94.5752Z" fill="#09401F"/>
<path d="M104.821 80.553V84.4006H103.368V82.4822L102.651 84.4006H101.402L100.685 82.4822V84.4006H99.2256V80.553H101.014L102.04 82.8625L103.04 80.553H104.821Z" fill="#09401F"/>
<path d="M108.346 81.5152V81.9882H109.793V82.8956H108.346V83.439H109.99V84.4006H106.887V80.553H109.99V81.5152H108.346Z" fill="#09401F"/>
<path d="M116.414 84.4006H114.954L113.409 82.4661V84.4006H111.949V80.553H113.409L114.954 82.5203V80.553H116.414V84.4006Z" fill="#09401F"/>
<path d="M121.109 82.9118L120.689 81.8412L120.268 82.9118H121.109ZM121.465 83.8192H119.912L119.683 84.4006H118.15L119.853 80.553H121.537L123.233 84.4006H121.695L121.465 83.8192Z" fill="#09401F"/>
</g>
</g>
<defs>
<clipPath id="clip0_1293_6665">
<rect width="134.375" height="86" fill="white"/>
</clipPath>
</defs>
</svg>
