<svg width="102" height="22" viewBox="0 0 102 22" fill="none" xmlns="http://www.w3.org/2000/svg">
<g clip-path="url(#clip0_1293_6202)">
<mask id="mask0_1293_6202" style="mask-type:luminance" maskUnits="userSpaceOnUse" x="0" y="-38" width="102" height="103">
<path d="M0.414062 -37.3377H101.923V64.1711H0.414062V-37.3377Z" fill="white"/>
</mask>
<g mask="url(#mask0_1293_6202)">
<path d="M9.65354 6.92958C9.97702 8.70497 10.3773 10.3684 11.12 11.934C11.2662 12.2419 11.5355 12.3187 11.8174 12.431C12.5191 12.7109 13.1935 13.0611 13.9294 13.2509C14.6579 13.4387 15.3891 13.619 16.1484 13.6383C16.1982 13.6397 16.2465 13.6806 16.3054 13.7984C15.8351 13.8853 15.3661 13.9817 14.8941 14.0572C13.6655 14.2538 12.5587 14.7952 11.4201 15.2459C11.257 15.3102 11.1379 15.4431 11.0737 15.6079C10.5983 16.8274 10.109 18.0445 9.8772 19.339C9.81122 19.7068 9.83017 20.0899 9.60922 20.5352C9.49045 19.5871 9.40823 18.7341 9.16325 17.9159C8.92336 17.1143 8.61545 16.334 8.27674 15.5673C8.19791 15.389 8.0426 15.2838 7.86732 15.2046C6.27093 14.4856 4.63088 13.9279 2.85516 13.8653C2.76278 13.862 2.61695 13.8999 2.61526 13.7605C2.61323 13.6187 2.75974 13.6576 2.85177 13.6522C4.5446 13.5513 6.14979 13.1274 7.6792 12.4033C8.02196 12.2409 8.24663 12.0213 8.40126 11.667C8.93655 10.4398 9.26646 9.15872 9.50703 7.84993C9.55846 7.56841 9.40823 7.25881 9.65354 6.92958Z" fill="#59B8B3"/>
</g>
<path d="M84.5701 0.429018C84.2182 0.499397 83.8636 0.498379 83.5087 0.497025C83.3219 0.496349 83.1348 0.495674 82.9483 0.505487C82.6184 0.523083 82.4963 0.650984 82.499 1.00423C82.5156 3.12442 82.5041 5.2446 82.5017 7.36478C82.5017 7.47238 82.5004 7.5793 82.4997 7.68656C82.4987 7.84356 82.457 7.89973 82.2791 7.83138C81.1415 7.3932 79.963 7.34956 78.7638 7.48152C76.2565 7.75728 74.5999 9.09889 73.7926 11.438C73.1071 13.4242 73.0736 15.4757 73.5067 17.5086C74.0386 20.0057 75.5649 21.2959 78.0796 21.4045C79.6216 21.4715 81.0133 20.9852 82.1755 19.9394C82.2591 19.8639 82.3305 19.7225 82.475 19.7868C82.5937 19.8392 82.5575 19.9722 82.5677 20.0754C82.5985 20.3968 82.6956 20.7041 82.7677 21.017C82.8272 21.2742 82.969 21.3412 83.2042 21.2884C83.6058 21.1981 84.0155 21.2075 84.4192 21.2322C84.7955 21.2553 84.9119 21.1297 84.901 20.7558C84.8049 17.4426 84.8713 14.128 84.8148 9.2295C84.8148 7.58032 84.8148 4.34658 84.8148 1.11285C84.8148 0.951788 84.8178 0.79073 84.8114 0.629667C84.8066 0.500751 84.7363 0.423267 84.6249 0.423267C84.6077 0.423267 84.5891 0.424957 84.5701 0.429018ZM78.7435 19.5574C77.183 19.4768 76.3828 18.6803 75.9649 17.3231C75.4238 15.5647 75.5199 13.7724 75.9547 12C76.3608 10.3431 77.8408 9.19397 79.6097 9.17096C80.4766 9.1598 81.3361 9.24506 82.159 9.57125C82.4205 9.67478 82.5068 9.80235 82.5044 10.0707C82.4929 11.3317 82.4993 12.5928 82.4993 13.8542H82.4933C82.4933 15.0886 82.4845 16.3226 82.499 17.5569C82.5027 17.9 82.3853 18.1423 82.1065 18.3403C81.152 19.0173 80.1477 19.5628 78.9482 19.5628C78.8806 19.5628 78.8125 19.5611 78.7435 19.5574ZM92.1373 7.49843C90.6055 7.70551 89.2402 8.33757 87.9582 9.16622C87.7358 9.31003 87.7318 9.46568 87.884 9.66836C88.0867 9.93634 88.2911 10.207 88.4576 10.497C88.6356 10.8063 88.78 10.7592 89.0534 10.5833C90.3683 9.73806 91.7756 9.15371 93.3885 9.22645C94.3333 9.26875 94.9914 9.84363 95.1139 10.7758C95.2401 11.7364 95.1517 12.7052 95.1869 13.6695C95.1998 14.0244 95.1037 14.1649 94.7142 14.1588C92.8989 14.1303 91.1333 14.4589 89.4036 14.9786C88.4911 15.2527 87.721 15.7542 87.3051 16.6312C86.5191 18.2892 87.3708 20.8475 89.8009 21.375C91.67 21.7811 93.3029 21.1998 94.6882 19.9228C95.0925 19.5502 95.1003 19.5262 95.3138 20.0514C95.6055 20.767 96.108 21.1615 96.8869 21.262C97.7456 21.3723 98.5872 21.2512 99.4337 21.1612C99.6442 21.1392 99.7038 21.0194 99.7024 20.834C99.7 20.4987 99.6706 20.1593 99.7112 19.8287C99.7626 19.4102 99.5691 19.3584 99.228 19.422C98.8937 19.4849 98.5543 19.4978 98.216 19.4467C97.6658 19.3641 97.5118 19.219 97.5047 18.6576C97.4885 17.3705 97.4996 16.0827 97.4996 14.7952C97.4895 14.7952 97.4793 14.7952 97.4692 14.7952C97.4692 13.6681 97.4509 12.5407 97.476 11.4143C97.4912 10.7217 97.4188 10.0531 97.1697 9.40409C96.8084 8.46175 96.1459 7.83375 95.1619 7.57456C94.6466 7.43888 94.1255 7.38677 93.6034 7.38677C93.1148 7.38677 92.6252 7.43245 92.1373 7.49843ZM90.7161 19.5705C90.0909 19.4423 89.493 18.8742 89.3823 18.2577C89.2081 17.2846 89.385 16.8142 90.1277 16.4089C90.7645 16.061 91.4778 15.9254 92.187 15.8475C93.0211 15.7565 93.8524 15.6493 94.6807 15.5237C95.0438 15.4686 95.1896 15.5576 95.1467 15.9335C95.121 16.1582 95.1419 16.3886 95.1419 16.616C95.3893 17.5759 94.7772 18.0919 94.1062 18.57C93.2735 19.1635 92.4063 19.6402 91.3922 19.6402C91.174 19.6402 90.9493 19.6183 90.7161 19.5705ZM34.7347 7.89432C34.7533 10.9531 34.737 14.0123 34.7347 17.0714C34.7347 17.3316 34.7279 17.5918 34.5276 17.7847C33.5501 18.7287 32.424 19.2887 31.0124 19.0776C30.538 19.0065 30.2216 18.6759 30.1411 18.2066C30.0842 17.874 30.07 17.5404 30.07 17.2047C30.0683 14.0782 30.0602 10.9521 30.071 7.82597C30.0724 7.48997 29.98 7.37933 29.642 7.40031C29.3398 7.41892 29.0363 7.41486 28.7325 7.41114C28.6019 7.40944 28.4712 7.40775 28.341 7.40775C27.7587 7.40809 27.7576 7.40809 27.7566 7.97316C27.7529 10.8313 27.7488 13.6888 27.7478 16.5469C27.7478 16.8061 27.7468 17.0558 27.5309 17.2504C26.6732 18.0239 25.7576 18.7047 24.6214 19.0295C24.2363 19.1398 23.8387 19.1361 23.453 19.0579C22.8896 18.9446 22.4541 18.3815 22.4288 17.7092C22.3983 16.8917 22.4074 16.0729 22.4037 15.2547C22.3919 12.8131 22.3827 10.3715 22.3709 7.92951C22.3682 7.4091 22.3655 7.40843 21.8265 7.40741C21.6749 7.40741 21.523 7.40911 21.3714 7.4108C21.0486 7.41452 20.7258 7.41824 20.4037 7.40301C20.0961 7.3888 20.0193 7.49505 20.022 7.79247C20.0365 9.45586 20.0291 11.1199 20.0291 12.7837H20.0213C20.0213 14.3266 20.025 15.8695 20.0186 17.4121C20.0172 17.7495 20.045 18.0814 20.0991 18.4127C20.3519 19.9546 21.3927 21.0072 22.8128 21.1446C24.6515 21.3226 26.2668 20.7958 27.6517 19.5952C27.8798 19.3976 27.9759 19.3855 28.1156 19.666C28.6015 20.6405 29.4579 21.1311 30.5038 21.1402C33.2584 21.1642 35.407 20.0179 36.8826 17.6889C37.0251 17.4636 37.0616 17.2206 37.0599 16.9587C37.0508 15.6841 37.0525 14.4098 37.0477 13.1349C37.041 11.3774 37.0257 9.61997 37.0291 7.86251C37.0301 7.52415 36.9367 7.37628 36.5676 7.40098C36.1358 7.42975 35.6997 7.42095 35.2673 7.39557C35.2307 7.3932 35.1962 7.39219 35.1641 7.39219C34.8585 7.39219 34.732 7.49809 34.7347 7.89432ZM67.3055 7.45445C65.8397 7.64461 64.7059 8.45938 63.66 9.41966C63.348 9.70591 63.3223 9.7137 63.2018 9.3283C62.7677 7.9383 62.1123 7.52381 60.6032 7.41249C58.5402 7.26056 56.913 8.15384 55.4777 9.5073C55.3829 9.59662 55.295 9.75396 55.1515 9.69475C55.0077 9.6352 55.0527 9.45722 55.0524 9.32965C55.0513 8.80519 55.0077 8.28784 54.8845 7.77522C54.829 7.54513 54.7191 7.46494 54.4876 7.49167C54.1516 7.53058 53.8136 7.55257 53.4763 7.57896C52.8581 7.62701 52.8286 7.65205 52.828 8.27126C52.8256 10.3376 52.8269 12.4037 52.8269 14.4697C52.8202 14.4697 52.8137 14.4697 52.8073 14.4697C52.8073 15.6641 52.808 16.8579 52.807 18.052C52.806 18.9243 52.8019 19.7966 52.8012 20.6685C52.8009 21.2238 52.8026 21.2245 53.3426 21.2248C53.4766 21.2248 53.6109 21.2221 53.7453 21.2197C54.0454 21.214 54.3459 21.2079 54.6436 21.2322C55.0358 21.2644 55.139 21.1436 55.1356 20.7511C55.1109 17.8662 55.1119 14.9817 55.1089 12.0968C55.1085 11.9012 55.0598 11.6901 55.2263 11.5243C56.2556 10.5001 57.4189 9.65482 58.8593 9.3459C59.9468 9.1131 60.837 9.50966 61.015 10.7017C61.0641 11.032 61.0786 11.37 61.0759 11.7039C61.0505 14.7763 61.1094 17.849 61.0218 20.921C61.0143 21.1856 61.1141 21.2373 61.3496 21.2289C61.7553 21.2143 62.1627 21.2248 62.5694 21.2251C63.3155 21.2251 63.303 21.2251 63.2993 20.495C63.2847 17.6771 63.2783 14.8595 63.2712 12.0416C63.2705 11.7875 63.2526 11.5168 63.462 11.324C64.4331 10.4297 65.4793 9.65076 66.8017 9.34183C67.9305 9.07791 68.9327 9.7164 69.064 10.7704C69.1022 11.0756 69.1218 11.3852 69.1228 11.6928C69.1276 13.2621 69.1232 14.8318 69.1225 16.4014C69.1215 17.877 69.1255 19.3523 69.1164 20.8282C69.1147 21.1301 69.204 21.2519 69.5336 21.2326C70.0472 21.2028 70.5646 21.2069 71.0782 21.2316C71.377 21.2461 71.4603 21.1186 71.4545 20.8604C71.4416 20.2567 71.4257 19.6534 71.4234 19.0498C71.4112 15.9903 71.4237 12.9308 71.3814 9.87205C71.3679 8.86779 70.6878 7.91293 69.7167 7.61415C69.2139 7.45952 68.7039 7.39456 68.191 7.39456C67.8963 7.39456 67.6009 7.41587 67.3055 7.45445ZM39.2945 9.17807C39.1097 9.30732 39.0918 9.4474 39.2122 9.62064C39.4119 9.90792 39.6281 10.185 39.8094 10.4825C39.9698 10.746 40.095 10.7684 40.3732 10.5901C41.6637 9.76242 43.0483 9.18991 44.6257 9.22307C45.7765 9.24709 46.5236 9.98439 46.5405 11.126C46.5503 11.7963 46.5408 12.467 46.5408 13.1376C46.5412 14.1327 46.5419 14.1385 45.5132 14.1672C43.8099 14.2149 42.154 14.5286 40.5423 15.0581C39.7851 15.3072 39.0911 15.7 38.7284 16.4495C38.0936 17.7613 38.3799 19.0268 39.196 20.1221C40.1461 21.398 41.5588 21.6176 43.0665 21.4258C44.3029 21.2678 45.2909 20.6269 46.1971 19.8365C46.4437 19.6216 46.5642 19.5607 46.6613 19.9576C46.8207 20.607 47.2413 21.0252 47.9166 21.1856C48.9043 21.4204 49.8815 21.2786 50.8587 21.1284C51.0607 21.0972 51.0928 20.9355 51.0905 20.7606C51.0864 20.4253 51.0746 20.0893 51.0908 19.755C51.1057 19.4545 50.9829 19.3844 50.7 19.4318C50.2987 19.4992 49.8923 19.5008 49.487 19.4338C49.1516 19.3784 48.9449 19.2082 48.9165 18.859C48.8992 18.6455 48.8678 18.4323 48.8667 18.2191C48.8617 17.0653 48.8644 15.9118 48.8644 14.7587H48.8596C48.8596 13.7392 48.8458 12.7194 48.8647 11.7006C48.8783 10.9555 48.7757 10.2344 48.5517 9.52489C48.2313 8.50912 47.5718 7.79653 46.5222 7.58607C45.8898 7.45952 45.2699 7.39726 44.6639 7.39726C42.7444 7.39726 40.9562 8.01884 39.2945 9.17807ZM42.7167 19.6409C41.3737 19.6321 40.6361 18.8515 40.7122 17.5278C40.7355 17.1205 40.901 16.8159 41.239 16.5869C41.9425 16.1098 42.7586 15.9534 43.571 15.8506C44.3608 15.7504 45.1508 15.6469 45.9399 15.5386C46.4796 15.4645 46.5138 15.4865 46.5111 16.0323C46.5107 16.2062 46.5111 16.3801 46.5111 16.5544C46.7415 17.5069 46.1937 18.0587 45.4912 18.5571C44.6599 19.1466 43.8021 19.6409 42.7383 19.6409C42.7309 19.6409 42.7241 19.6409 42.7167 19.6409Z" fill="url(#paint0_linear_1293_6202)"/>
</g>
<defs>
<linearGradient id="paint0_linear_1293_6202" x1="59.869" y1="21.503" x2="59.869" y2="0.423021" gradientUnits="userSpaceOnUse">
<stop stop-color="#0C555B"/>
<stop offset="1" stop-color="#019083"/>
</linearGradient>
<clipPath id="clip0_1293_6202">
<rect width="101.509" height="21.0631" fill="white" transform="translate(0.412109 0.474121)"/>
</clipPath>
</defs>
</svg>
