<svg width="76" height="42" viewBox="0 0 76 42" fill="none" xmlns="http://www.w3.org/2000/svg">
<g clip-path="url(#clip0_1293_5987)">
<mask id="mask0_1293_5987" style="mask-type:luminance" maskUnits="userSpaceOnUse" x="-13" y="-24" width="98" height="97">
<path d="M-12.2422 -23.771H84.1922V72.6633H-12.2422V-23.771Z" fill="white"/>
</mask>
<g mask="url(#mask0_1293_5987)">
<path d="M20.8068 13.5722C20.8068 11.0526 20.8068 8.53314 20.8068 6.01395C20.8068 5.61632 20.8065 5.61568 21.1784 5.48485C22.4108 5.0509 23.6825 4.78956 24.976 4.61759C26.3521 4.43468 27.733 4.38068 29.1175 4.44658C30.4743 4.51119 31.809 4.70598 33.0694 5.25084C33.9797 5.64429 34.7618 6.19911 35.3044 7.04837C35.6982 7.66459 35.8878 8.34606 35.9518 9.06771C35.9833 9.42162 35.9826 9.7765 35.9823 10.1314C35.9817 13.8608 35.982 17.5899 35.982 21.319C35.982 21.537 35.982 21.5363 35.7573 21.5363C34.584 21.536 33.4107 21.5328 32.2375 21.5396C32.0803 21.5405 32.0465 21.4926 32.0465 21.3451C32.0507 17.551 32.0494 13.757 32.052 9.96262C32.0523 9.46566 32.0366 8.97385 31.827 8.50935C31.4772 7.73499 30.8408 7.29878 30.0674 7.02491C29.1284 6.69285 28.1557 6.64785 27.1743 6.70571C26.3971 6.75136 25.6333 6.88154 24.8863 7.10688C24.7291 7.15445 24.6732 7.22613 24.6732 7.38911C24.6789 11.8582 24.6799 16.3273 24.6828 20.7961C24.6828 20.996 24.6895 21.1959 24.6979 21.3959C24.7021 21.4926 24.6789 21.5408 24.5661 21.5405C23.3475 21.5373 22.1289 21.5376 20.9106 21.5402C20.8016 21.5405 20.792 21.4881 20.792 21.4004C20.7936 18.7909 20.7933 16.1817 20.7933 13.5722C20.7978 13.5722 20.8023 13.5722 20.8068 13.5722Z" fill="black"/>
<path d="M71.8487 34.6763C71.8487 33.4773 71.849 32.2783 71.8484 31.0796C71.8484 30.8768 71.8213 30.8498 71.6272 30.8764C70.8486 30.9835 70.0662 31.0584 69.2896 31.1873C68.368 31.3403 67.4603 31.5383 66.5846 31.8662C65.889 32.1265 65.2493 32.4862 64.7305 33.0227C63.8578 33.9257 63.6611 35.0527 63.8263 36.2273C63.9928 37.4121 64.7424 38.1849 65.8534 38.6153C66.6689 38.9313 67.5181 39.0492 68.3873 39.0595C68.7846 39.0644 69.179 39.0194 69.5748 38.9975C70.2987 38.957 70.9923 38.7898 71.668 38.5343C71.8014 38.4838 71.8525 38.4044 71.8516 38.2569C71.8461 37.0633 71.8484 35.8698 71.8487 34.6763ZM75.7485 34.0102C75.7485 35.9048 75.7469 37.7998 75.7517 39.6944C75.7523 39.8522 75.7035 39.9339 75.5537 39.9933C74.7906 40.2958 74.0149 40.5546 73.2087 40.7201C72.3746 40.8915 71.5343 41.0133 70.686 41.0908C69.5995 41.1904 68.5111 41.1994 67.4233 41.1753C66.2757 41.1499 65.1372 41.0229 64.0291 40.7008C63.0889 40.4276 62.1956 40.0541 61.4479 39.4057C60.5935 38.6648 60.0776 37.7213 59.9156 36.6082C59.7201 35.2639 59.8966 33.9813 60.7099 32.8447C61.2573 32.0796 61.9908 31.5277 62.8099 31.0825C63.6244 30.6395 64.4978 30.3464 65.3866 30.0982C66.4451 29.8025 67.5236 29.6045 68.6111 29.4489C69.4272 29.3319 70.2446 29.2316 71.0659 29.1634C71.2845 29.1454 71.5028 29.1207 71.7211 29.1011C71.8053 29.0934 71.8734 29.068 71.8638 28.968C71.83 28.6154 71.8609 28.2621 71.8471 27.9095C71.7963 26.6089 71.1714 25.6947 69.9798 25.2559C69.3568 25.0264 68.7084 24.9197 68.0456 24.8972C67.8907 24.8917 67.738 24.8631 67.5818 24.8622C66.4133 24.8557 65.2645 25.01 64.1262 25.2611C63.4869 25.4022 62.8613 25.5877 62.2496 25.8214C62.0477 25.8985 62.0358 25.8872 61.9516 25.6915C61.7205 25.156 61.4862 24.6223 61.2534 24.0875C61.23 24.0338 61.2043 23.9801 61.1882 23.9238C61.14 23.7557 61.1724 23.6943 61.3396 23.6345C62.5627 23.1961 63.8163 22.8801 65.0999 22.6696C66.4136 22.4539 67.7361 22.4044 69.0595 22.4638C70.2086 22.5153 71.3389 22.7178 72.4041 23.181C73.4016 23.6143 74.266 24.2228 74.8671 25.1486C75.2692 25.768 75.4839 26.4623 75.6189 27.1814C75.7337 27.7925 75.7536 28.4113 75.751 29.0323C75.744 30.6916 75.7485 32.3509 75.7485 34.0102Z" fill="#0187C1"/>
<path d="M14.4666 29.555C14.4689 28.8639 14.3287 28.1985 14.1066 27.5472C13.6749 26.282 12.8568 25.3884 11.5659 24.9782C10.7761 24.7272 9.96217 24.6745 9.13637 24.7973C7.99652 24.967 7.04246 25.4704 6.29509 26.346C5.7721 26.9584 5.44165 27.6733 5.21985 28.4428C4.96623 29.3229 4.8714 30.2223 4.87044 31.1343C4.87044 31.2349 4.90515 31.2812 5.01605 31.2667C5.57827 31.1931 6.14112 31.1256 6.70366 31.053C7.33498 30.9716 7.96566 30.8855 8.5973 30.8048C9.14891 30.7344 9.70148 30.6714 10.2531 30.6C10.7732 30.5329 11.2917 30.4567 11.8118 30.3888C12.5916 30.2873 13.3724 30.1937 14.1519 30.0889C14.4669 30.0462 14.4657 30.0369 14.4666 29.7154C14.4666 29.662 14.4666 29.6084 14.4666 29.555ZM11.3396 38.5125C12.7009 38.5382 13.9507 38.3672 15.1796 38.0509C15.6618 37.9268 16.1291 37.7484 16.5898 37.5575C16.7245 37.5018 16.7881 37.5076 16.8489 37.6648C17.1166 38.3582 17.3995 39.0458 17.6843 39.7324C17.7386 39.8635 17.7277 39.9201 17.5843 39.9802C16.8518 40.2881 16.0999 40.5328 15.3268 40.7182C14.5393 40.9076 13.7408 41.0336 12.9368 41.1085C12.0452 41.1917 11.1477 41.2023 10.2521 41.1773C9.38324 41.1532 8.52209 41.0477 7.67861 40.8301C6.28867 40.4711 5.00159 39.8973 3.93792 38.9159C3.1478 38.1868 2.52837 37.3222 2.06549 36.3478C1.63667 35.4452 1.39784 34.4886 1.26379 33.5062C1.15289 32.6949 1.11625 31.8755 1.16415 31.0581C1.25512 29.5061 1.58106 28.013 2.3265 26.6289C3.19891 25.0091 4.49177 23.8583 6.19159 23.1579C7.10964 22.7795 8.06627 22.5548 9.05665 22.4848C9.85963 22.4279 10.6626 22.4266 11.4653 22.5134C12.4367 22.6188 13.3792 22.8329 14.2615 23.2575C15.4663 23.8374 16.4715 24.6513 17.1546 25.8185C17.7396 26.8182 18.0794 27.9044 18.2761 29.0407C18.4092 29.8112 18.4539 30.5888 18.4969 31.3673C18.505 31.512 18.4645 31.5686 18.305 31.5859C17.6457 31.6573 16.9887 31.7502 16.3301 31.8312C15.6878 31.9099 15.0446 31.9835 14.402 32.0604C13.4139 32.1783 12.4257 32.295 11.4379 32.4165C10.6099 32.5184 9.78312 32.6303 8.95508 32.7306C8.02031 32.8441 7.08425 32.9476 6.14948 33.0601C5.86789 33.0938 5.58887 33.1482 5.30439 33.152C5.15685 33.1543 5.14335 33.2484 5.15942 33.3606C5.22242 33.8 5.3105 34.233 5.44776 34.6567C5.74478 35.5725 6.1948 36.3925 6.91002 37.0563C7.62139 37.7162 8.47162 38.0894 9.40317 38.3231C10.0715 38.4906 10.7455 38.5327 11.3396 38.5125Z" fill="#0187C1"/>
<path d="M0.717725 10.8806C0.717725 7.39612 0.718689 3.91195 0.714189 0.427458C0.713867 0.279272 0.746012 0.239733 0.899985 0.240055C4.87147 0.244877 8.84296 0.244555 12.8148 0.240698C12.9536 0.240376 13.0002 0.264484 12.998 0.415564C12.9887 1.09543 12.9945 1.77529 12.9935 2.45515C12.9935 2.68981 13.0224 2.65863 12.7817 2.65863C10.4248 2.65799 8.06795 2.65445 5.71109 2.65188C5.46551 2.65156 5.2196 2.65863 4.97401 2.64834C4.84319 2.64288 4.8059 2.6792 4.80654 2.81389C4.81201 4.16365 4.80975 5.5134 4.80975 6.86316C4.80975 7.66293 4.81072 8.46269 4.80815 9.26245C4.80815 9.35728 4.81843 9.40357 4.93641 9.40324C6.85191 9.39778 8.76742 9.39778 10.6832 9.39649C11.1143 9.39617 11.5457 9.39842 11.9768 9.39264C12.0867 9.39135 12.124 9.42125 12.123 9.53568C12.1179 10.2307 12.1182 10.9253 12.1211 11.6203C12.1214 11.7357 12.0986 11.7903 11.9633 11.7868C10.7096 11.7537 9.45596 11.7749 8.20231 11.771C7.13447 11.7675 6.06629 11.7726 4.99812 11.7665C4.8509 11.7656 4.80558 11.7961 4.8059 11.9533C4.81104 15.0778 4.80975 18.2022 4.80975 21.3267C4.80975 21.5363 4.80943 21.5366 4.59278 21.5363C3.3642 21.5353 2.13563 21.5311 0.907379 21.5366C0.75662 21.5373 0.713867 21.5045 0.713867 21.3486C0.718689 17.8592 0.717725 14.3699 0.717725 10.8806Z" fill="black"/>
<path d="M34.5569 40.7327C33.8214 40.7327 33.0856 40.7302 32.3501 40.7353C32.2212 40.7363 32.1457 40.6945 32.0801 40.5823C31.6307 39.8141 31.0769 39.1159 30.5857 38.3753C29.7663 37.1396 28.9447 35.9056 28.1228 34.6715C27.9743 34.4488 27.8177 34.2315 27.6695 34.0084C27.6049 33.9116 27.5606 33.8927 27.4853 34.0039C26.1918 35.9207 24.8948 37.8352 23.6006 39.7517C23.4148 40.0268 23.238 40.3078 23.0629 40.5894C22.9995 40.6906 22.9243 40.7347 22.8009 40.7344C21.4855 40.7308 20.1698 40.7321 18.8545 40.7321C18.7792 40.7321 18.6969 40.7417 18.6516 40.6652C18.6024 40.5817 18.6876 40.5373 18.7243 40.4878C19.8773 38.9429 21.0316 37.399 22.1885 35.8573C23.2718 34.414 24.358 32.973 25.4448 31.5323C25.5065 31.4503 25.5071 31.3844 25.4448 31.304C24.4933 30.0771 23.6129 28.7977 22.688 27.5508C21.7057 26.2265 20.7365 24.8921 19.7616 23.5623C19.6285 23.381 19.4941 23.2007 19.3611 23.0197C19.336 22.9856 19.2977 22.9493 19.3116 22.9065C19.3286 22.8545 19.3842 22.8728 19.4244 22.8728C20.8474 22.8721 22.2705 22.8728 23.6932 22.8712C23.7958 22.8712 23.8652 22.9136 23.9202 22.9956C24.3773 23.6754 24.8356 24.3543 25.2931 25.0339C26.0976 26.2287 26.9016 27.4235 27.7052 28.6183C27.756 28.6939 27.8023 28.7723 27.8502 28.8495C27.9293 28.978 27.9643 28.9809 28.0546 28.8549C28.2546 28.5766 28.4551 28.2985 28.6493 28.0163C29.6111 26.6186 30.5822 25.2271 31.5642 23.8436C31.7532 23.5771 31.9338 23.3051 32.1123 23.0316C32.1865 22.9175 32.2749 22.8683 32.416 22.8689C33.651 22.8741 34.886 22.8715 36.121 22.8728C36.1718 22.8728 36.2409 22.8445 36.2689 22.9017C36.2933 22.9522 36.2281 22.9818 36.2004 23.0178C35.4338 24.0216 34.6764 25.0336 33.8947 26.0259C32.9769 27.1911 32.1132 28.3975 31.1855 29.555C30.7837 30.0565 30.4018 30.5734 30.009 31.0819C29.9441 31.1661 29.9171 31.2314 29.9942 31.3343C30.8785 32.5117 31.7593 33.6921 32.6369 34.8747C33.824 36.4745 35.0075 38.0773 36.1924 39.6784C36.4219 39.9883 36.6524 40.2975 36.8809 40.6083C36.9021 40.637 36.9317 40.6794 36.924 40.7057C36.9083 40.7594 36.851 40.7324 36.8121 40.7327C36.0603 40.734 35.3087 40.7337 34.5569 40.7337V40.7327Z" fill="#0187C1"/>
<path d="M43.7873 30.8782C43.7873 32.6552 43.7969 34.4321 43.7834 36.2088C43.7764 37.159 44.4257 38.214 45.6215 38.485C46.2145 38.619 46.8022 38.6084 47.3891 38.4705C47.518 38.4403 47.5569 38.474 47.5569 38.5952C47.5559 39.2747 47.5556 39.9546 47.5576 40.6342C47.5579 40.7492 47.5071 40.8023 47.3965 40.8363C46.7617 41.0308 46.1149 41.1166 45.4498 41.1224C44.6523 41.1295 43.866 41.0777 43.0949 40.8627C42.2347 40.6226 41.4629 40.2185 40.8576 39.5615C40.2115 38.8598 39.8258 38.0189 39.6937 37.0699C39.6493 36.7523 39.6294 36.4325 39.6294 36.1114C39.6297 32.5468 39.6297 28.9826 39.63 25.4181C39.63 25.1863 39.63 25.1863 39.3892 25.1863C38.6162 25.1863 37.8431 25.1834 37.07 25.1892C36.9292 25.1905 36.8861 25.1507 36.8877 25.0079C36.8955 24.3657 36.8913 23.7234 36.8922 23.0812C36.8926 22.8822 36.9028 22.8726 37.1015 22.8726C37.8855 22.8719 38.6692 22.869 39.4529 22.8751C39.5879 22.8761 39.6345 22.8536 39.6335 22.7035C39.6262 21.4993 39.6319 20.2949 39.6262 19.0907C39.6255 18.9403 39.6586 18.8705 39.8203 18.831C41.0891 18.5202 42.3556 18.2006 43.6205 17.8744C43.7693 17.8361 43.7899 17.8686 43.7895 18.0055C43.786 19.5578 43.7873 21.1097 43.7873 22.662C43.7873 22.9012 43.7908 22.9086 44.0284 22.897C45.1338 22.843 46.2396 22.8889 47.3451 22.8697C47.5071 22.8668 47.5617 22.9166 47.5601 23.078C47.5534 23.7147 47.5534 24.3519 47.5598 24.9886C47.5611 25.1413 47.5151 25.1912 47.3573 25.1902C46.23 25.1838 45.1023 25.1892 43.975 25.1831C43.8281 25.1825 43.7838 25.2211 43.7841 25.3708C43.7889 27.2066 43.7873 29.0424 43.7873 30.8782Z" fill="#0187C1"/>
<path d="M49.9396 32.2073C49.9396 29.4727 49.9396 26.7379 49.9396 24.0033C49.9396 23.7015 49.9229 23.7272 50.2106 23.623C51.0075 23.3344 51.8153 23.0869 52.6465 22.9171C53.4126 22.7606 54.1856 22.6581 54.9629 22.5725C56.3487 22.4202 57.7373 22.4504 59.1263 22.4575C59.4256 22.4591 59.7248 22.5025 60.0244 22.514C60.162 22.5192 60.1794 22.5812 60.1453 22.688C60.0485 22.9879 59.9511 23.2878 59.8521 23.587C59.692 24.0686 59.5265 24.5485 59.3722 25.0316C59.3269 25.1734 59.27 25.229 59.1093 25.1898C58.2295 24.9763 57.3342 24.895 56.431 24.9326C55.6961 24.9635 54.9719 25.0689 54.275 25.3225C54.1345 25.3736 54.0937 25.445 54.094 25.5909C54.0979 30.5573 54.0972 35.5237 54.0972 40.4901C54.0972 40.7337 54.0972 40.7324 53.8545 40.7324C52.6305 40.7318 51.4064 40.7321 50.1823 40.7315C49.9406 40.7315 49.9396 40.7308 49.9396 40.4917C49.9396 37.7301 49.9396 34.9689 49.9396 32.2073Z" fill="#0187C1"/>
<path d="M14.6663 13.1704C14.6663 10.6766 14.6666 8.18252 14.6656 5.68873C14.6656 5.45407 14.6605 5.21909 14.6518 4.98443C14.6479 4.88189 14.6685 4.83368 14.7903 4.83432C16.0086 4.8385 17.2269 4.83882 18.4452 4.83303C18.5918 4.83207 18.5915 4.90246 18.5915 5.00822C18.5876 7.09217 18.5844 9.17611 18.5837 11.2604C18.5825 14.4488 18.5831 17.6376 18.5837 20.8263C18.5837 21.0211 18.585 21.2159 18.5908 21.4107C18.5937 21.5078 18.5564 21.54 18.4581 21.5396C17.2346 21.5371 16.0115 21.5371 14.7884 21.5403C14.6817 21.5406 14.6528 21.5059 14.6528 21.4014C14.6553 18.6579 14.655 15.9143 14.655 13.1704C14.6589 13.1704 14.6624 13.1704 14.6663 13.1704Z" fill="black"/>
<path d="M16.6039 2.66668C15.9976 2.66668 15.3917 2.66443 14.7855 2.66893C14.6861 2.66958 14.6534 2.64065 14.6543 2.54261C14.6607 1.81356 14.6643 1.08452 14.6665 0.355475C14.6665 0.274791 14.6884 0.242004 14.7771 0.242325C16.0044 0.244897 17.232 0.244897 18.4596 0.242325C18.5602 0.242004 18.5879 0.27897 18.5876 0.373476C18.5856 1.09288 18.5859 1.81195 18.5901 2.53103C18.5908 2.63518 18.5596 2.66765 18.4525 2.66668C17.8363 2.66154 17.2201 2.66411 16.6039 2.66411C16.6039 2.66508 16.6039 2.66572 16.6039 2.66668Z" fill="black"/>
</g>
</g>
<defs>
<clipPath id="clip0_1293_5987">
<rect width="74.9777" height="40.7435" fill="white" transform="translate(0.776367 0.337646)"/>
</clipPath>
</defs>
</svg>
