<svg width="131" height="55" viewBox="0 0 131 55" fill="none" xmlns="http://www.w3.org/2000/svg">
<path d="M109.911 19.6511C109.911 18.8654 110.144 18.0968 110.581 17.443C111.018 16.7901 111.638 16.2807 112.364 15.9794C113.09 15.679 113.89 15.6 114.66 15.7534C115.431 15.9068 116.14 16.2852 116.695 16.8413C117.251 17.3964 117.629 18.1049 117.783 18.8762C117.936 19.6466 117.857 20.4457 117.557 21.1721C117.255 21.8977 116.746 22.5183 116.093 22.955C115.439 23.3918 114.671 23.625 113.885 23.625C113.363 23.6268 112.846 23.5245 112.362 23.3254C111.88 23.1263 111.441 22.834 111.072 22.4645C110.702 22.095 110.41 21.6564 110.211 21.1739C110.012 20.6905 109.909 20.173 109.911 19.6511Z" fill="#2254C0"/>
<path d="M21.9386 28.8113C19.2373 28.8337 16.597 28.0131 14.3836 26.4643L15.4751 24.5316C17.3261 25.936 19.5826 26.7019 21.9054 26.7154C23.5475 26.7898 25.152 26.2132 26.3708 25.1101C26.934 24.537 27.3699 23.8527 27.6524 23.1002C27.934 22.3478 28.056 21.5451 28.0084 20.7433V18.7783C27.2865 19.8537 26.3116 20.7362 25.1699 21.3487C24.0283 21.9621 22.7538 22.2859 21.4579 22.294C19.423 22.3083 17.4634 21.5245 15.9997 20.1102C15.2168 19.3981 14.5971 18.5254 14.1845 17.5506C13.7711 16.5757 13.5747 15.5237 13.6087 14.4654V14.4C13.5729 13.3417 13.7648 12.2888 14.172 11.3112C14.5782 10.3337 15.1908 9.45477 15.9665 8.73461C17.4338 7.32477 19.3916 6.54183 21.4256 6.55079C22.7099 6.52927 23.9798 6.82433 25.1224 7.41087C26.265 7.9974 27.2452 8.85747 27.9762 9.91306V6.87814H30.4541V20.6563C30.5169 21.7334 30.3609 22.8123 29.9949 23.8276C29.629 24.8428 29.0613 25.7728 28.325 26.562C27.4667 27.3342 26.4623 27.9261 25.3708 28.301C24.2785 28.6759 23.1224 28.8275 21.9718 28.7459M21.9386 20.077C23.5171 20.0958 25.0453 19.5272 26.2291 18.4833C26.8201 17.9891 27.2919 17.3685 27.612 16.6681C27.9304 15.9667 28.0892 15.2035 28.0739 14.4331V14.3677C28.0945 13.5946 27.9403 12.8269 27.6228 12.122C27.3044 11.4171 26.8327 10.7929 26.2399 10.2951C25.048 9.26195 23.5162 8.70501 21.9386 8.73461C20.4247 8.69514 18.9539 9.24311 17.8338 10.2628C17.2777 10.7812 16.8401 11.4135 16.5504 12.1157C16.2607 12.8188 16.1244 13.5749 16.1522 14.3345V14.4C16.1324 15.1596 16.2742 15.9138 16.5674 16.6143C16.8616 17.3138 17.3001 17.9443 17.8553 18.4618C18.3943 18.9882 19.0337 19.4025 19.7342 19.6806C20.4355 19.9577 21.1853 20.0931 21.9386 20.077Z" fill="#323232"/>
<path d="M37.7573 0.000244141H35.2686V23.5603H37.7573V0.000244141Z" fill="#323232"/>
<path d="M56.3831 21.4307C55.5786 22.2639 54.6109 22.9222 53.5392 23.3634C52.4683 23.8047 51.3186 24.0208 50.1599 23.9966C49.0092 24.0271 47.8639 23.8181 46.7985 23.3823C45.7322 22.9464 44.7689 22.2926 43.9699 21.4639C43.1681 20.6505 42.5376 19.6846 42.1179 18.6227C41.6973 17.5609 41.4955 16.4255 41.5242 15.2838C41.5089 14.143 41.7224 13.0103 42.152 11.9529C42.5806 10.8946 43.2174 9.93411 44.0246 9.12695C44.8272 8.29019 45.794 7.62832 46.8658 7.18528C47.9366 6.74135 49.0881 6.52521 50.2478 6.55032C51.3984 6.52341 52.5419 6.73417 53.6073 7.17004C54.6728 7.6059 55.636 8.25701 56.4378 9.083C57.244 9.88388 57.8799 10.839 58.3077 11.891C58.7355 12.9439 58.9462 14.0721 58.9265 15.2075V15.2838C58.9426 16.4255 58.7265 17.5591 58.2933 18.6146C57.8602 19.6711 57.218 20.629 56.4046 21.4307M50.2478 21.7258C51.0675 21.7455 51.8827 21.5877 52.636 21.2639C53.3894 20.9393 54.0647 20.4568 54.6145 19.8478C55.7786 18.6173 56.41 16.977 56.3723 15.2838C56.3929 14.4345 56.2449 13.5887 55.9373 12.7968C55.6306 12.004 55.1696 11.2803 54.5813 10.6659C54.0297 10.048 53.3508 9.55474 52.5921 9.22112C51.8325 8.88839 51.011 8.72157 50.1823 8.73413C49.3608 8.7135 48.5447 8.87224 47.7913 9.1987C47.0371 9.52425 46.3626 10.0103 45.8147 10.622C44.6712 11.8677 44.0533 13.5062 44.09 15.1968V15.2838C44.0515 16.9896 44.6864 18.6407 45.8586 19.8801C46.412 20.4855 47.0873 20.9662 47.8406 21.2917C48.5931 21.6173 49.4056 21.7796 50.2253 21.7688L50.2478 21.7258Z" fill="#323232"/>
<path d="M71.3184 23.8109C70.0476 23.8289 68.7938 23.5221 67.6737 22.9204C66.5544 22.3186 65.6073 21.4415 64.9213 20.3715V23.5598H62.4424V-0.000242233H64.9213V10.23C65.5804 9.11795 66.5158 8.1951 67.6369 7.55027C68.7571 6.90545 70.0252 6.56106 71.3184 6.55029C72.3624 6.53864 73.3982 6.73863 74.3623 7.13773C75.3273 7.53772 76.2008 8.12874 76.93 8.87581C77.7353 9.70808 78.3622 10.6955 78.7721 11.7789C79.1811 12.8623 79.364 14.0183 79.3102 15.1752C79.3676 16.3411 79.1864 17.5052 78.7775 18.5985C78.3676 19.6908 77.7389 20.689 76.93 21.5294C76.2116 22.289 75.3444 22.8935 74.3829 23.3042C73.4215 23.7159 72.3857 23.9248 71.34 23.9203M70.8709 21.6926C71.653 21.7132 72.4314 21.5688 73.1534 21.2675C73.8762 20.9661 74.5264 20.5159 75.0628 19.9464C75.6385 19.3195 76.0834 18.5841 76.3712 17.7841C76.66 16.9842 76.7874 16.134 76.7443 15.2846V15.2192C76.7811 14.3654 76.6484 13.5134 76.3542 12.7116C76.06 11.9089 75.6098 11.1735 75.0305 10.5466C74.5031 9.96816 73.861 9.50808 73.1435 9.19598C72.4269 8.88388 71.653 8.72603 70.8709 8.73411C70.0781 8.73231 69.2925 8.89374 68.5642 9.20674C67.836 9.52064 67.1786 9.97982 66.6351 10.5574C66.0396 11.1637 65.5724 11.8847 65.263 12.6766C64.9535 13.4685 64.8074 14.3143 64.8334 15.1645C64.8056 16.0192 64.95 16.8712 65.2603 17.6685C65.5697 18.4657 66.0369 19.1922 66.6351 19.8038C67.1786 20.3814 67.836 20.8406 68.5642 21.1545C69.2925 21.4675 70.0781 21.6289 70.8709 21.6271V21.6926Z" fill="#323232"/>
<path d="M87.8473 23.9199C86.2787 23.9477 84.7451 23.4607 83.4806 22.5334C82.8824 22.0993 82.4008 21.5244 82.077 20.8599C81.7533 20.1953 81.5981 19.4617 81.6241 18.7236V18.6581C81.5882 17.8841 81.747 17.1129 82.0869 16.4169C82.4259 15.7201 82.9353 15.121 83.5676 14.6725C85.1057 13.6627 86.9262 13.1685 88.7648 13.2645C90.4993 13.2663 92.2257 13.5049 93.8956 13.9739V13.3954C93.9387 12.7703 93.8445 12.1443 93.6203 11.5596C93.3952 10.9749 93.0463 10.4466 92.5961 10.0108C91.5665 9.17759 90.2616 8.76146 88.9388 8.84307C87.1818 8.88522 85.4536 9.30584 83.8734 10.0762L83.1308 8.03502C85.0312 7.14266 87.1011 6.66912 89.2006 6.6485C90.1782 6.57854 91.1584 6.705 92.0858 7.02248C93.0122 7.33907 93.8651 7.8395 94.5942 8.4933C95.1924 9.148 95.6525 9.91659 95.9449 10.7533C96.2382 11.5901 96.3574 12.478 96.2973 13.3632V23.5594H93.9171V21.0482C93.2149 21.9845 92.2956 22.7352 91.2383 23.2356C90.18 23.736 89.0159 23.971 87.8473 23.9199ZM88.3603 21.9549C89.7854 21.9962 91.1809 21.5451 92.3127 20.6778C92.8302 20.3047 93.2499 19.8124 93.5351 19.242C93.8203 18.6707 93.9629 18.0402 93.9503 17.4025V15.8187C92.3548 15.3488 90.7002 15.1093 89.0374 15.1093C87.772 15.0286 86.5137 15.3541 85.4456 16.0375C85.0402 16.3192 84.7119 16.6976 84.4886 17.1371C84.2662 17.5774 84.1559 18.0662 84.1685 18.5595V18.6249C84.1541 19.0976 84.2572 19.5666 84.4689 19.989C84.6806 20.4123 84.9935 20.7765 85.3801 21.0482C86.2473 21.6697 87.2939 21.9881 88.3603 21.9549Z" fill="#323232"/>
<path d="M103.339 0.000244141H100.851V23.5603H103.339V0.000244141Z" fill="#323232"/>
<path d="M88.4912 52.6675V35.9853H90.9799V40.3529C91.5701 38.979 92.5153 37.788 93.7207 36.9028C94.8911 36.0257 96.3323 35.5862 97.7933 35.658V38.3763H97.596C96.7081 38.353 95.8247 38.518 95.0059 38.8633C94.1871 39.2077 93.4507 39.7225 92.8472 40.3745C91.5198 41.9448 90.8517 43.9672 90.9799 46.0192V52.6675H88.4912Z" fill="#323232"/>
<path d="M8.06263 54.6936L0.824219 37.8805H3.57573L9.18727 51.7242L14.8428 37.8805H17.5171L10.2572 54.6936H8.06263Z" fill="#323232"/>
<path d="M27.7468 54.9554C26.6455 54.9796 25.5522 54.7751 24.5334 54.3563C23.5155 53.9374 22.5944 53.3123 21.8294 52.5204C21.0285 51.698 20.4017 50.7214 19.9864 49.6505C19.5721 48.5788 19.3784 47.4353 19.4169 46.2865V46.221C19.3577 43.9466 20.1792 41.7368 21.7092 40.0534C22.4231 39.2454 23.3056 38.6032 24.2939 38.1718C25.2814 37.7396 26.3513 37.5288 27.4302 37.553C28.5064 37.5091 29.579 37.7136 30.5638 38.1503C31.5485 38.588 32.4184 39.2463 33.1072 40.0749C34.5242 41.8301 35.2713 44.0318 35.2139 46.2865C35.2283 46.5564 35.2283 46.8255 35.2139 47.0945H21.9388C22.0196 48.6739 22.7083 50.1608 23.8599 51.2433C24.9199 52.2675 26.337 52.8397 27.8123 52.837C28.8015 52.8245 29.7772 52.6038 30.6759 52.1904C31.5745 51.776 32.3772 51.1787 33.031 50.4353L34.5807 51.8218C33.7341 52.8164 32.6794 53.6128 31.4902 54.1545C30.3028 54.6962 29.0086 54.9688 27.7028 54.9554M21.9388 45.3044H32.6812C32.6113 43.813 32.0606 42.3834 31.1091 41.2319C30.6454 40.7 30.0678 40.2794 29.4203 39.9996C28.7719 39.7198 28.0697 39.5889 27.3647 39.6167C26.6733 39.6086 25.9881 39.7485 25.3558 40.0274C24.7226 40.3063 24.1567 40.7171 23.6967 41.2319C22.676 42.3574 22.0563 43.7897 21.9388 45.3044Z" fill="#323232"/>
<path d="M38.5869 54.5625V37.8804H41.0757V40.8283C41.6326 39.8095 42.4613 38.9637 43.4693 38.3853C44.4765 37.8077 45.6244 37.5198 46.7858 37.553C47.6504 37.5082 48.5168 37.6472 49.323 37.9611C50.1311 38.2759 50.8629 38.7584 51.4692 39.3763C52.6548 40.7081 53.2709 42.4534 53.1839 44.2345V54.5957H50.6943V44.8129C50.7696 43.4749 50.3373 42.1565 49.4827 41.1233C49.0558 40.665 48.5356 40.3045 47.9571 40.0651C47.3787 39.8265 46.7563 39.7144 46.1312 39.7368C45.4657 39.7189 44.8047 39.8391 44.1886 40.0884C43.5716 40.3386 43.0137 40.7126 42.5501 41.1888C42.072 41.691 41.6999 42.2838 41.4559 42.9332C41.2129 43.5816 41.1008 44.273 41.1304 44.9663V54.5186L38.5869 54.5625Z" fill="#323232"/>
<path d="M63.0977 54.8569C61.8475 54.9251 60.6179 54.5152 59.6583 53.7108C59.2027 53.2417 58.852 52.6803 58.6314 52.0642C58.4108 51.4489 58.3256 50.7924 58.3812 50.1404V40.0752H56.0557V37.8914H58.3812V32.8475H60.8708V37.8806H66.1541V40.0635H60.8708V49.8131C60.8188 50.1925 60.8565 50.5781 60.9793 50.9404C61.1031 51.3028 61.3085 51.631 61.5811 51.9C61.8529 52.1691 62.1838 52.3709 62.547 52.4902C62.9111 52.6095 63.2977 52.6417 63.6761 52.5861C64.5138 52.5808 65.3398 52.3834 66.0886 52.0077V54.1475C65.164 54.6247 64.138 54.8686 63.0977 54.8569Z" fill="#323232"/>
<path d="M75.7072 54.9226C74.8435 54.9674 73.9799 54.8275 73.1745 54.5136C72.37 54.1988 71.6391 53.7172 71.0346 53.0993C69.8481 51.7675 69.2329 50.0231 69.3208 48.2411V37.8808H71.8095V47.6294C71.7315 48.9684 72.1647 50.2877 73.0211 51.3199C73.4579 51.7773 73.9888 52.1334 74.5772 52.3657C75.1655 52.597 75.7969 52.6984 76.4274 52.6625C77.0874 52.6778 77.743 52.5567 78.3538 52.3074C78.9636 52.0571 79.5161 51.6841 79.9762 51.2105C80.4515 50.7074 80.8219 50.1137 81.0667 49.4653C81.3098 48.8169 81.421 48.1254 81.395 47.433V37.8808H83.8407V54.562H81.395V51.6581C80.8282 52.6724 79.9968 53.5127 78.9887 54.0894C77.9816 54.6661 76.8345 54.9584 75.674 54.9333" fill="#323232"/>
<path d="M107.892 54.9555C106.792 54.9797 105.698 54.7753 104.679 54.3564C103.661 53.9376 102.74 53.3125 101.975 52.5206C101.174 51.6982 100.547 50.7215 100.132 49.6507C99.7176 48.579 99.5239 47.4355 99.5624 46.2866V46.2212C99.488 43.9495 100.293 41.7361 101.812 40.0419C102.532 39.2312 103.421 38.5872 104.417 38.1577C105.413 37.7272 106.491 37.5209 107.576 37.5532C108.652 37.5092 109.725 37.7137 110.709 38.1505C111.694 38.5881 112.564 39.2464 113.253 40.0751C114.665 41.832 115.409 44.0338 115.349 46.2866C115.363 46.5566 115.363 46.8256 115.349 47.0947H102.084C102.165 48.674 102.854 50.161 104.005 51.2435C105.065 52.2677 106.482 52.8399 107.958 52.8372C108.951 52.8363 109.934 52.6255 110.84 52.2193C111.746 51.813 112.558 51.2202 113.22 50.4794L114.77 51.8659C113.924 52.8614 112.87 53.6578 111.681 54.1995C110.491 54.7403 109.198 55.0138 107.892 54.9995M102.084 45.3046H112.827C112.757 43.8131 112.206 42.3836 111.255 41.232C110.791 40.7002 110.213 40.2796 109.566 39.9998C108.917 39.72 108.215 39.589 107.51 39.6168C106.819 39.6087 106.134 39.7487 105.501 40.0276C104.868 40.3065 104.302 40.7172 103.842 41.232C102.822 42.3576 102.202 43.7898 102.084 45.3046Z" fill="#323232"/>
<path d="M124.257 54.8897C121.747 54.8484 119.319 53.9857 117.346 52.4332L118.612 50.6539C120.243 52.0018 122.274 52.7704 124.388 52.8368C125.276 52.8745 126.151 52.6171 126.877 52.1059C127.182 51.8888 127.431 51.6001 127.598 51.2646C127.765 50.9301 127.848 50.5588 127.838 50.1839V50.1185C127.84 49.7553 127.737 49.3992 127.544 49.0916C127.351 48.7849 127.075 48.5382 126.746 48.3831C125.761 47.8584 124.717 47.4549 123.634 47.1822C122.957 47.0037 122.291 46.7894 121.636 46.5374C121.058 46.3033 120.497 46.0298 119.956 45.7195C119.379 45.4074 118.898 44.9428 118.569 44.376C118.252 43.7939 118.093 43.1392 118.11 42.4765V42.411C118.092 41.7491 118.227 41.0927 118.505 40.4918C118.784 39.8918 119.198 39.3635 119.715 38.9501C120.877 38.0021 122.343 37.5062 123.842 37.5528C125.984 37.5483 128.076 38.1914 129.847 39.3976L128.754 41.2648C127.281 40.2792 125.549 39.7474 123.776 39.7366C122.941 39.6981 122.116 39.9357 121.429 40.4128C121.152 40.6119 120.927 40.8738 120.773 41.1779C120.619 41.4819 120.54 41.8191 120.545 42.1599V42.2254C120.545 42.5258 120.635 42.8191 120.807 43.0657C120.965 43.3096 121.159 43.5276 121.385 43.7105C121.696 43.9383 122.038 44.1213 122.401 44.2558C122.867 44.4522 123.231 44.5948 123.493 44.6818L124.814 45.0971L126.386 45.61C126.869 45.7957 127.343 46.0065 127.805 46.2432C128.267 46.4656 128.691 46.7607 129.06 47.1167C129.394 47.4575 129.66 47.8575 129.847 48.2952C130.07 48.7929 130.181 49.3328 130.174 49.879V49.9445C130.208 50.644 130.073 51.3418 129.78 51.9776C129.487 52.6144 129.046 53.1713 128.493 53.6018C127.275 54.5336 125.768 55.009 124.235 54.9444" fill="#323232"/>
</svg>
