<svg width="63" height="40" viewBox="0 0 63 40" fill="none" xmlns="http://www.w3.org/2000/svg">
<path fill-rule="evenodd" clip-rule="evenodd" d="M55.6493 21.333H56.8228C57.966 21.4785 59.0593 21.9341 59.9086 22.7254C60.1974 22.3195 60.4945 21.9188 60.8117 21.5365C60.9268 23.3764 61.1321 25.2171 61.1506 27.0641C60.5361 25.7278 60.1792 24.2337 59.151 23.1272C58.1929 21.9373 56.3958 21.4184 55.0003 22.1039C53.2723 23.1241 53.4615 25.9129 54.982 27.0447C56.8361 28.4118 59.2364 28.8601 60.9784 30.4041C62.4756 31.7446 62.681 34.023 62.1921 35.8687C61.5745 37.9915 59.4632 39.3003 57.3568 39.5586H56.0133C54.618 39.3503 53.2928 38.7774 52.2248 37.848C51.9226 38.2935 51.6185 38.7327 51.3032 39.1681C51.2046 37.1787 51.2483 35.1845 51.0614 33.2031L51.3635 33.1459C51.9075 35.1355 52.717 37.2622 54.4959 38.4675C55.8649 39.3632 58.0961 39.4235 59.0705 37.9183C59.9188 36.473 59.8701 34.2833 58.4399 33.2131C56.7008 31.8879 54.3891 31.5473 52.7688 30.0338C50.9107 28.4667 50.4257 25.447 51.8759 23.4547C52.7332 22.2127 54.1857 21.5334 55.6493 21.333ZM0.196289 21.7134C2.10222 21.6502 4.01328 21.7205 5.92122 21.6952C8.67154 25.7645 11.3738 29.8652 14.1359 33.9271C14.1023 31.2055 14.1441 28.485 14.1157 25.7645C14.0527 24.7381 14.014 23.6367 13.4597 22.7387C13.0448 22.0623 12.1913 22.0409 11.5356 21.747C17.4091 21.6035 23.2958 21.7419 29.1754 21.6898C31.6772 21.7205 34.1843 21.6556 36.6863 21.7185C36.1421 22.0692 35.4027 22.1762 35.0518 22.765C34.6764 23.3377 34.8687 24.0537 34.9706 24.676C35.7545 27.9388 36.6658 31.1719 37.4052 34.4449C37.8395 34.0045 37.8395 33.3433 38.0411 32.789C38.8056 30.2841 39.5483 27.7741 40.3315 25.2721C39.957 24.3169 39.709 23.234 38.9289 22.5129C38.4467 22.1426 37.8346 22.0154 37.3037 21.7368C40.0761 21.6585 42.8578 21.6838 45.6321 21.7185C45.0625 22.1395 44.2115 22.0643 43.774 22.6715C43.2787 23.3377 43.5727 24.2257 43.7191 24.9599C44.5523 28.1546 45.3099 31.3673 46.1744 34.5486C47.1373 31.4456 48.0672 28.3292 48.9999 25.2149C49.1839 24.4023 49.5437 23.4994 49.1472 22.6971C48.8148 21.9891 47.9105 22.1193 47.3378 21.7257C49.1167 21.6585 50.9047 21.6769 52.6856 21.7185C52.1109 22.1344 51.2781 22.0692 50.8193 22.6604C50.1651 23.4362 49.8979 24.4422 49.5744 25.384C48.1373 30.0238 46.687 34.6585 45.2579 39.3003C44.911 39.3136 44.5652 39.3236 44.2184 39.335C43.0367 35.0438 41.7978 30.7663 40.675 26.4591C40.5295 26.6389 40.4227 26.8394 40.3529 27.0581C39.2277 30.8335 38.0113 34.5802 36.8743 38.3533C36.7441 38.6708 36.7208 39.0633 36.4676 39.3114C36.1401 39.3236 35.8145 39.3167 35.4912 39.288C34.3011 34.7573 33.0055 30.2525 31.7577 25.7378C31.3303 24.2989 30.8779 22.5046 29.2506 22.0073C29.4303 23.6712 29.633 25.3291 29.8678 26.9858C29.2973 26.4885 29.2452 25.6706 28.857 25.0565C28.1857 23.8868 27.313 22.6319 25.9462 22.2525C25.1579 22.1039 24.3302 22.099 23.5428 22.2574C22.5257 22.5749 22.062 23.6863 21.9837 24.6711C21.8302 26.3971 21.9521 28.131 21.8983 29.86C22.9031 29.8236 23.9833 30.0216 24.9261 29.5812C26.0328 28.9071 26.3481 27.5603 26.7201 26.4102C26.9337 27.5736 26.777 28.7587 26.8137 29.9335C26.7821 31.232 26.8918 32.5338 26.7924 33.8306C26.3732 32.8257 26.1943 31.6173 25.2645 30.9218C24.2984 30.2089 23.0252 30.3491 21.892 30.334C21.9572 32.2917 21.8382 34.2546 21.9655 36.2106C22.0202 37.1634 22.424 38.2903 23.442 38.572C24.9728 38.9129 26.8656 38.8477 27.9641 37.5641C29.0919 36.4058 29.6026 34.8538 30.3123 33.4421C30.2189 35.3591 30.0235 37.2702 29.9096 39.1866C25.3786 39.2048 20.8505 39.2048 16.3238 39.1884C16.985 38.6942 18.0915 38.801 18.367 37.84C18.9295 35.8738 18.7392 33.7807 18.7862 31.7577C18.721 28.9801 18.9742 26.165 18.4922 23.4158C18.3203 22.1224 16.5629 21.4967 15.6098 22.3827C14.8205 23.1922 14.7431 24.4108 14.6753 25.4806C14.6568 30.1335 14.6753 34.7886 14.6668 39.4418C14.2481 39.4418 13.8809 39.282 13.6836 38.8995C10.4126 34.1643 7.15298 29.4175 3.86487 24.6914C3.90158 28.1646 3.86799 31.6409 3.88512 35.1142C3.93807 36.1403 3.97679 37.2439 4.54416 38.1368C4.95601 38.8426 5.84601 38.8263 6.51529 39.1365C4.57776 39.2464 2.62799 39.2331 0.690684 39.1467C1.30812 38.8061 2.18055 38.8947 2.58327 38.2283C3.31752 37.0851 3.344 35.6633 3.33888 34.3483C3.31263 31.6563 3.36758 28.962 3.31263 26.2698C3.21384 25.0066 3.12039 23.541 2.08398 22.6604C1.57334 22.1242 0.782132 22.1224 0.196289 21.7134ZM9.63296 0.898331C9.83321 0.896332 10.237 0.884983 10.4404 0.88298C12.0515 5.69476 13.4896 10.5686 15.2155 15.3417C15.6347 16.3149 15.9164 17.5333 16.9283 18.0642C17.5842 18.4576 18.3714 17.932 18.6206 17.2993C19.0692 16.1896 19.0245 14.9612 19.0712 13.7844C19.0874 11.0526 19.0977 8.31871 19.0661 5.58796C19.0091 4.49171 19.0376 3.34338 18.6257 2.30698C18.2902 1.47194 17.3005 1.38761 16.5674 1.0968C19.4383 0.991783 22.3186 1.0701 25.1928 1.04985C26.8071 1.1037 28.5197 1.52578 29.7047 2.68211C31.2435 4.2058 31.1661 6.99149 29.5672 8.44687C28.715 9.31862 27.4864 9.6052 26.3249 9.79766C27.3144 10.048 28.414 10.2747 29.0881 11.1155C30.8161 13.1387 29.9833 16.2967 31.9675 18.1844C32.7801 17.6168 33.2976 16.7604 33.5947 15.8276C35.3604 10.8674 37.065 5.88478 38.8154 0.919689C39.0128 0.901447 39.4032 0.861618 39.5986 0.84137C41.1038 5.26756 42.4493 9.7456 43.9758 14.1638C44.403 15.2783 44.7335 16.4553 45.3967 17.4579C45.7801 18.0021 46.5682 18.4496 47.1936 18.0175C47.9617 17.5649 48.0867 16.5935 48.1673 15.7889C48.3422 13.5341 48.2505 11.2713 48.2739 9.01135C48.2585 7.19397 48.3288 5.36925 48.1417 3.5601C48.0532 2.88793 47.9415 2.09628 47.3391 1.67731C46.847 1.39874 46.2876 1.27569 45.7587 1.08835C48.1853 0.984886 50.6172 1.09146 53.0438 1.04184C54.7464 1.03339 56.5854 0.986889 58.0895 1.90626C60.0401 3.07483 60.2119 6.24078 58.465 7.66589C57.5201 8.48847 56.2781 8.80598 55.085 9.08166C56.7175 9.33464 58.4799 9.73047 59.6283 11.019C61.2374 12.7215 60.8233 15.6772 59.1107 17.158C57.8974 18.2442 56.2151 18.5851 54.6274 18.5564C49.4436 18.5279 44.2564 18.5962 39.0726 18.5248C39.8803 18.1557 41.1688 17.9839 41.1321 16.8336C41.0306 15.2634 40.3878 13.7947 39.994 12.2872C38.4685 12.2792 36.9428 12.2772 35.4174 12.2894C35.0002 13.7998 34.2243 15.2469 34.1887 16.8407C34.201 17.9919 35.4823 18.1454 36.2949 18.533C33.9822 18.5962 31.6685 18.5179 29.3536 18.5644C28.9001 18.5045 28.2206 18.713 28.0124 18.1577C26.6117 15.9996 27.3744 13.1823 26.0675 10.9976C25.2631 9.712 23.5472 10.0244 22.2607 9.97767C22.3074 12.0941 22.1335 14.2267 22.459 16.3251C22.5629 16.927 22.7326 17.5985 23.2606 17.9705C23.7506 18.2106 24.3048 18.2809 24.8228 18.4364C23.9195 18.6583 22.9816 18.5484 22.0634 18.5515C18.0043 18.5412 13.9423 18.588 9.88327 18.5248C10.6927 18.1659 11.9661 17.9808 11.9458 16.8387C11.8411 15.2683 11.1951 13.8027 10.8075 12.2894C9.28208 12.2772 7.75862 12.2792 6.23294 12.2841C5.80062 13.7913 5.0479 15.2447 4.99628 16.8356C5.00629 17.997 6.29301 18.1423 7.11048 18.533C5.32692 18.5931 3.54069 18.5279 1.75691 18.5666V18.406C2.35877 18.1637 3.09013 18.0856 3.51443 17.5384C4.06356 16.8794 4.31899 16.0392 4.61892 15.25C6.29301 10.4667 7.95398 5.67852 9.63296 0.898331ZM22.2656 3.55699C22.2474 5.51276 22.2821 7.47054 22.2507 9.42542C23.4404 9.40184 24.7038 9.60031 25.8223 9.10302C26.8925 8.55878 27.1426 7.24892 27.2596 6.16379C27.3428 4.97364 27.2708 3.68203 26.6433 2.63561C25.914 1.47906 24.3384 1.3124 23.1251 1.64059C22.3442 1.91649 22.287 2.85923 22.2656 3.55699ZM51.4329 3.03611C51.3332 4.99923 51.4481 6.96791 51.3749 8.9308C52.6869 8.89454 54.1534 9.21983 55.32 8.44887C56.2701 7.86814 56.5567 6.67822 56.6452 5.64292C56.7289 4.49972 56.6808 3.18674 55.8429 2.30698C54.9998 1.44746 53.6766 1.41898 52.5568 1.56538C51.8408 1.64793 51.44 2.37506 51.4329 3.03611ZM6.38646 11.8104C7.80824 11.8155 9.22712 11.8235 10.6489 11.8053C9.93823 9.66238 9.32903 7.48878 8.64929 5.33788C7.80023 7.4603 7.19903 9.67351 6.38646 11.8104ZM35.5789 11.8053C36.9978 11.8235 38.4196 11.8155 39.8382 11.8135C39.1429 9.6675 38.5081 7.50614 37.8573 5.34588C36.9715 7.45229 36.4017 9.67551 35.5789 11.8053ZM51.3913 9.41207C51.4267 11.3578 51.3466 13.3074 51.4329 15.25C51.5153 16.1847 51.6149 17.3644 52.5497 17.8568C54.2674 18.5595 56.7226 17.7389 57.1194 15.7729C57.4569 14.0499 57.5922 12.0109 56.4917 10.5217C55.2152 9.06319 53.109 9.46703 51.3913 9.41207Z" fill="#1D1E1C"/>
</svg>
