<svg width="50" height="50" viewBox="0 0 50 50" fill="none" xmlns="http://www.w3.org/2000/svg">
<path d="M45.8337 34.375V40.625C45.8337 43.5 43.5004 45.8334 40.6254 45.8334H25.7504C23.8962 45.8334 22.9796 43.6042 24.2712 42.2917L36.5004 29.7917C36.8962 29.3959 37.4379 29.1667 37.9796 29.1667H40.6254C43.5004 29.1667 45.8337 31.5 45.8337 34.375Z" fill="#00B551"/>
<path d="M38.2708 23.5209L32.625 29.1667L27.5 34.2709C26.1875 35.5834 23.9375 34.6667 23.9375 32.8125C23.9375 26.125 23.9375 15.125 23.9375 15.125C23.9375 14.5625 24.1667 14.0417 24.5417 13.6459L26.4583 11.7292C28.5 9.68752 31.7917 9.68752 33.8333 11.7292L38.25 16.1459C40.3125 18.1875 40.3125 21.4792 38.2708 23.5209Z" fill="#00B551"/>
<path d="M15.6243 4.16669H9.37435C6.24935 4.16669 4.16602 6.25002 4.16602 9.37502V37.5C4.16602 38.0625 4.22852 38.625 4.33268 39.1667C4.39518 39.4375 4.45768 39.7084 4.54102 39.9792C4.64518 40.2917 4.74935 40.6042 4.87435 40.8959C4.89518 40.9167 4.89518 40.9375 4.89518 40.9375C4.91602 40.9375 4.91602 40.9375 4.89518 40.9584C5.18685 41.5417 5.52018 42.1042 5.91602 42.625C6.14518 42.8959 6.37435 43.1459 6.60352 43.3959C6.83268 43.6459 7.08268 43.8542 7.35352 44.0625L7.37435 44.0834C7.89518 44.4792 8.45768 44.8125 9.04102 45.1042C9.06185 45.0834 9.06185 45.0834 9.06185 45.1042C9.37435 45.25 9.68685 45.3542 10.0202 45.4584C10.291 45.5417 10.5618 45.6042 10.8327 45.6667C11.3743 45.7709 11.9368 45.8334 12.4993 45.8334C13.3535 45.8334 14.2285 45.7084 15.041 45.4375C15.2702 45.3542 15.4994 45.2709 15.7285 45.1667C16.4577 44.875 17.166 44.4584 17.791 43.9167C17.9785 43.7709 18.1868 43.5834 18.3743 43.3959L18.4577 43.3125C19.916 41.8125 20.8327 39.75 20.8327 37.5V9.37502C20.8327 6.25002 18.7493 4.16669 15.6243 4.16669ZM12.4993 40.625C10.7702 40.625 9.37435 39.2292 9.37435 37.5C9.37435 35.7709 10.7702 34.375 12.4993 34.375C14.2285 34.375 15.6243 35.7709 15.6243 37.5C15.6243 39.2292 14.2285 40.625 12.4993 40.625Z" fill="#00B551"/>
</svg>
