<svg width="32" height="32" viewBox="0 0 32 32" fill="none" xmlns="http://www.w3.org/2000/svg">
<path d="M16.0001 2.6665C12.5067 2.6665 9.66675 5.5065 9.66675 8.99984C9.66675 12.4265 12.3467 15.1998 15.8401 15.3198C15.9467 15.3065 16.0534 15.3065 16.1334 15.3198C16.1601 15.3198 16.1734 15.3198 16.2001 15.3198C16.2134 15.3198 16.2134 15.3198 16.2267 15.3198C19.6401 15.1998 22.3201 12.4265 22.3334 8.99984C22.3334 5.5065 19.4934 2.6665 16.0001 2.6665Z" fill="#00B551"/>
<path d="M22.7733 18.8663C19.0533 16.3863 12.9866 16.3863 9.23995 18.8663C7.54661 19.9997 6.61328 21.533 6.61328 23.173C6.61328 24.813 7.54661 26.333 9.22661 27.453C11.0933 28.7063 13.5466 29.333 15.9999 29.333C18.4533 29.333 20.9066 28.7063 22.7733 27.453C24.4533 26.3197 25.3866 24.7997 25.3866 23.1463C25.3733 21.5063 24.4533 19.9863 22.7733 18.8663Z" fill="#00B551"/>
</svg>
