<svg width="32" height="32" viewBox="0 0 32 32" fill="none" xmlns="http://www.w3.org/2000/svg">
<path d="M17.7334 10.8136L19.4934 14.3336C19.7334 14.8136 20.3734 15.2936 20.9067 15.3736L24.0934 15.9069C26.1334 16.2536 26.6134 17.7203 25.1467 19.1869L22.6667 21.6803C22.2534 22.0936 22.0134 22.9069 22.1467 23.4936L22.8534 26.5736C23.4134 29.0003 22.12 29.9469 19.9734 28.6803L16.9867 26.9069C16.44 26.5869 15.56 26.5869 15.0134 26.9069L12.0134 28.6669C9.86671 29.9336 8.57338 28.9869 9.13338 26.5603L9.84005 23.4803C9.97338 22.9069 9.73338 22.0936 9.32005 21.6669L6.85338 19.2003C5.38671 17.7336 5.86671 16.2536 7.90671 15.9203L11.0934 15.3869C11.6267 15.2936 12.2667 14.8269 12.5067 14.3469L14.2667 10.8269C15.2134 8.90693 16.7867 8.90692 17.7334 10.8136Z" fill="#00B551"/>
<path d="M8 12.9998C7.45333 12.9998 7 12.5465 7 11.9998V2.6665C7 2.11984 7.45333 1.6665 8 1.6665C8.54667 1.6665 9 2.11984 9 2.6665V11.9998C9 12.5465 8.54667 12.9998 8 12.9998Z" fill="#00B551"/>
<path d="M24 12.9998C23.4533 12.9998 23 12.5465 23 11.9998V2.6665C23 2.11984 23.4533 1.6665 24 1.6665C24.5467 1.6665 25 2.11984 25 2.6665V11.9998C25 12.5465 24.5467 12.9998 24 12.9998Z" fill="#00B551"/>
<path d="M16 6.33317C15.4533 6.33317 15 5.87984 15 5.33317V2.6665C15 2.11984 15.4533 1.6665 16 1.6665C16.5467 1.6665 17 2.11984 17 2.6665V5.33317C17 5.87984 16.5467 6.33317 16 6.33317Z" fill="#00B551"/>
</svg>
