<svg width="50" height="50" viewBox="0 0 50 50" fill="none" xmlns="http://www.w3.org/2000/svg">
<path d="M39.5833 31.25C34.9792 31.25 31.25 34.9792 31.25 39.5833C31.25 41.1458 31.6875 42.625 32.4583 43.875C33.8958 46.2917 36.5417 47.9167 39.5833 47.9167C42.625 47.9167 45.2708 46.2917 46.7083 43.875C47.4792 42.625 47.9167 41.1458 47.9167 39.5833C47.9167 34.9792 44.1875 31.25 39.5833 31.25ZM43.8958 38.6875L39.4583 42.7917C39.1667 43.0625 38.7708 43.2083 38.3958 43.2083C38 43.2083 37.6042 43.0625 37.2917 42.75L35.2292 40.6875C34.625 40.0833 34.625 39.0833 35.2292 38.4792C35.8333 37.875 36.8333 37.875 37.4375 38.4792L38.4375 39.4792L41.7708 36.3958C42.3958 35.8125 43.3958 35.8542 43.9792 36.4792C44.5625 37.1042 44.5208 38.0833 43.8958 38.6875Z" fill="#00B551"/>
<path d="M45.8327 15.7291V16.6666C45.8327 17.8125 44.8952 18.75 43.7493 18.75H6.24935C5.10352 18.75 4.16602 17.8125 4.16602 16.6666V15.7083C4.16602 10.9375 8.02018 7.08331 12.791 7.08331H37.1868C41.9577 7.08331 45.8327 10.9583 45.8327 15.7291Z" fill="#00B551"/>
<path d="M4.16602 23.9584V34.2917C4.16602 39.0625 8.02018 42.9167 12.791 42.9167H25.8327C27.041 42.9167 28.0827 41.8959 27.9785 40.6875C27.6868 37.5 28.7077 34.0417 31.541 31.2917C32.7077 30.1459 34.1452 29.2709 35.7077 28.7709C38.3118 27.9375 40.8327 28.0417 43.0618 28.7917C44.416 29.25 45.8327 28.2709 45.8327 26.8334V23.9375C45.8327 22.7917 44.8952 21.8542 43.7493 21.8542H6.24935C5.10352 21.875 4.16602 22.8125 4.16602 23.9584ZM16.666 35.9375H12.4993C11.6452 35.9375 10.9368 35.2292 10.9368 34.375C10.9368 33.5209 11.6452 32.8125 12.4993 32.8125H16.666C17.5202 32.8125 18.2285 33.5209 18.2285 34.375C18.2285 35.2292 17.5202 35.9375 16.666 35.9375Z" fill="#00B551"/>
</svg>
