<svg width="50" height="50" viewBox="0 0 50 50" fill="none" xmlns="http://www.w3.org/2000/svg">
<path d="M38.6257 8.58335L27.1673 4.29169C25.9798 3.85419 24.0423 3.85419 22.8548 4.29169L11.3965 8.58335C9.18815 9.41669 7.39648 12 7.39648 14.3542V31.2292C7.39648 32.9167 8.50065 35.1459 9.85482 36.1459L21.3132 44.7084C23.334 46.2292 26.6465 46.2292 28.6673 44.7084L40.1257 36.1459C41.4798 35.125 42.584 32.9167 42.584 31.2292V14.3542C42.6048 12 40.8132 9.41669 38.6257 8.58335ZM32.2507 20.25L23.2923 29.2084C22.9798 29.5209 22.584 29.6667 22.1882 29.6667C21.7923 29.6667 21.3965 29.5209 21.084 29.2084L17.7507 25.8334C17.1465 25.2292 17.1465 24.2292 17.7507 23.625C18.3548 23.0209 19.3548 23.0209 19.959 23.625L22.209 25.875L30.0632 18.0209C30.6673 17.4167 31.6673 17.4167 32.2715 18.0209C32.8757 18.625 32.8757 19.6459 32.2507 20.25Z" fill="#00B551"/>
</svg>
