<svg width="50" height="50" viewBox="0 0 50 50" fill="none" xmlns="http://www.w3.org/2000/svg">
<path d="M24.8757 4.60414L19.8548 16.2916H14.834C14.0007 16.2916 13.1882 16.3541 12.3965 16.5208L14.4798 11.5208L14.5632 11.3333L14.6882 11C14.7507 10.8541 14.7923 10.7291 14.8548 10.625C17.2715 5.02081 19.9798 3.27081 24.8757 4.60414Z" fill="#00B551"/>
<path d="M39.0208 16.8542L38.9792 16.8333C37.7292 16.4792 36.4583 16.2917 35.1667 16.2917H22.125L26.8125 5.39583L26.875 5.25C27.1667 5.35417 27.4792 5.5 27.7917 5.60417L32.3958 7.54167C34.9583 8.60417 36.75 9.70833 37.8542 11.0417C38.0417 11.2917 38.2083 11.5208 38.375 11.7917C38.5625 12.0833 38.7083 12.375 38.7917 12.6875C38.875 12.875 38.9375 13.0417 38.9792 13.2292C39.2917 14.2917 39.3125 15.5 39.0208 16.8542Z" fill="#00B551"/>
<path d="M38.1035 19.8334C37.166 19.5625 36.1868 19.4167 35.166 19.4167H14.8327C13.416 19.4167 12.0827 19.6875 10.8327 20.2292C7.20768 21.7917 4.66602 25.3959 4.66602 29.5834V33.6459C4.66602 34.1459 4.70768 34.625 4.77018 35.125C5.22852 41.75 8.77018 45.2917 15.3952 45.7292C15.8743 45.7917 16.3535 45.8334 16.8743 45.8334H33.1243C40.8327 45.8334 44.8952 42.1667 45.291 34.875C45.3118 34.4792 45.3327 34.0625 45.3327 33.6459V29.5834C45.3327 24.9792 42.2702 21.1042 38.1035 19.8334ZM30.2077 33.7292H26.5618V37.5C26.5618 38.3542 25.8535 39.0625 24.9993 39.0625C24.1452 39.0625 23.4368 38.3542 23.4368 37.5V33.7292H19.791C18.9368 33.7292 18.2285 33.0417 18.2285 32.1667C18.2285 31.3125 18.9368 30.6042 19.791 30.6042H23.4368V27.0834C23.4368 26.2292 24.1452 25.5209 24.9993 25.5209C25.8535 25.5209 26.5618 26.2292 26.5618 27.0834V30.6042H30.2077C31.0618 30.6042 31.7702 31.3125 31.7702 32.1667C31.7702 33.0417 31.0618 33.7292 30.2077 33.7292Z" fill="#00B551"/>
</svg>
