<svg width="93" height="39" viewBox="0 0 93 39" fill="none" xmlns="http://www.w3.org/2000/svg">
<g clip-path="url(#clip0_1242_4011)">
<path fill-rule="evenodd" clip-rule="evenodd" d="M63.3416 4.57078C54.1986 5.78159 53.2937 18.1453 60.1984 21.6964C61.8081 22.5264 64.16 23.1111 66.2937 22.64C68.523 22.1456 68.1797 18.7713 65.7993 18.8462C63.7237 18.9107 62.1205 19.0837 60.4953 16.9319C58.3873 14.1372 59.5594 8.27808 64.5718 8.33746C66.9056 8.36844 68.3191 9.67606 69.0277 11.287C70.0953 13.7074 69.0884 20.3733 69.6732 21.6783C69.9933 22.3908 71.0001 23.1189 72.1542 22.6245C73.1275 22.2088 73.334 21.5014 73.3301 20.2158C73.3262 18.9908 73.3301 17.7606 73.3301 16.5356C73.3301 14.0314 73.516 12.0628 72.6034 9.89937C71.3203 6.8517 68.0596 3.94602 63.3416 4.57078Z" fill="#18BBB8"/>
<path fill-rule="evenodd" clip-rule="evenodd" d="M36.7454 6.27605C36.7454 4.72188 34.9086 3.78731 33.619 4.77867C32.7632 5.43571 28.8119 14.722 28.0878 15.4836C27.4695 14.2844 26.8924 13.1046 26.2974 11.8486L23.5595 6.34704C23.2123 5.61514 23.0457 5.02781 22.4326 4.6625C20.9688 3.78989 19.1371 5.03168 19.5334 6.78077C19.6379 7.23772 24.3275 16.5834 24.9549 17.8355C26.1696 20.283 26.1838 19.4413 25.124 21.6138C24.5431 22.813 23.9067 24.0303 23.3284 25.2566C22.5901 26.8211 23.8616 28.4204 25.4867 28.028C26.7763 27.7156 27.2177 26.044 27.8244 24.8487C30.2603 20.0493 32.6573 14.8421 35.0867 10.1137C35.452 9.40117 36.7454 7.05572 36.7454 6.27605Z" fill="#18BBB8"/>
<path fill-rule="evenodd" clip-rule="evenodd" d="M44.3171 4.57064C40.9274 5.04954 38.56 7.39887 37.5867 10.2374C36.9309 12.1543 37.0329 13.6775 37.0329 15.8332C37.0329 17.1228 36.8018 20.9772 37.2923 21.8098C38.1895 23.333 40.5801 22.978 40.8447 21.1425L40.8628 14.9555C40.8628 12.863 40.9609 11.3282 42.0517 9.97152C44.1699 7.34208 48.4646 7.84809 49.6793 11.5438C50.2111 13.1638 49.9891 18.1671 49.9994 20.479C50.0071 21.5581 50.335 22.1532 51.0256 22.5404C51.8582 23.009 52.8496 22.7031 53.3259 22.2087C53.9132 21.5955 53.85 20.7204 53.85 19.5999C53.85 13.8763 54.6529 8.63937 49.4456 5.53619C48.076 4.72167 46.1991 4.30344 44.3171 4.57064Z" fill="#18BBB8"/>
<path fill-rule="evenodd" clip-rule="evenodd" d="M81.0639 4.48836C78.8811 4.72588 77.4857 5.60752 76.6041 6.8222C75.6347 8.15693 75.2577 10.5282 76.1923 12.2747C77.9608 15.5844 84.0613 15.0048 85.0914 16.9656C85.9536 18.6011 83.9787 19.8197 81.2718 19.3072C78.3803 18.756 77.9608 17.0031 76.2749 17.5452C75.5185 17.7905 74.8808 18.5753 75.1222 19.657C75.5262 21.4448 79.959 22.7331 82.0179 22.8093C86.1808 22.9642 89.7242 20.7852 88.9897 16.297C88.6838 14.4395 87.3568 13.3448 85.8375 12.7046C83.2171 11.6035 78.7675 11.4602 79.564 9.0063C80.1371 7.2456 83.1112 7.81357 84.6163 8.49255C85.3624 8.82817 86.0866 9.50328 87.0973 9.25802C88.4166 8.94047 89.4802 6.82995 86.7088 5.52878C85.0836 4.76718 83.1461 4.26247 81.0639 4.48836Z" fill="#18BBB8"/>
<path fill-rule="evenodd" clip-rule="evenodd" d="M7.00801 0.11877C4.41729 0.476332 2.62947 1.67165 1.59422 3.25939C0.236256 5.33248 0.0206857 7.36555 0.0206857 10.31V18.8127C0.0206857 20.2598 -0.201339 21.7081 0.809389 22.3496C2.01503 23.1151 3.24133 22.5613 3.68151 21.5725C4.021 20.8187 3.84803 14.5517 3.84803 13.2014C3.84803 9.43477 3.12516 4.56701 7.3475 3.9332C8.72999 3.72667 10.1899 4.25462 11.0961 3.38331C12.0216 2.49004 11.695 1.01849 10.8237 0.411791C10.0247 -0.14198 8.03035 -0.0258044 7.00801 0.11877Z" fill="#18BBB8"/>
<path fill-rule="evenodd" clip-rule="evenodd" d="M14.9637 0.197556C14.1117 0.442816 13.5683 0.996587 13.5154 2.06282C13.4676 3.1226 13.5154 4.32179 13.5154 5.39706V18.5494C13.5154 19.3859 13.4031 20.9801 13.7116 21.6333C14.4964 23.3023 17.2833 23.0506 17.3582 20.7464C17.4486 17.984 17.3582 13.7114 17.3582 10.8341V4.25854C17.3582 3.41304 17.4834 1.82918 17.1581 1.1773C16.8483 0.551247 16.0119 -0.100628 14.9637 0.197556Z" fill="#18BBB8"/>
<mask id="mask0_1242_4011" style="mask-type:luminance" maskUnits="userSpaceOnUse" x="37" y="27" width="52" height="12">
<path d="M37.0117 27.0977H88.8932V38.0156H37.0117V27.0977Z" fill="white"/>
</mask>
<g mask="url(#mask0_1242_4011)">
<path fill-rule="evenodd" clip-rule="evenodd" d="M79.9727 28.1948V32.5798C79.9727 33.1891 80.2399 33.7261 80.8931 33.393C81.3332 33.171 81.4016 31.2334 83.7548 30.4564C84.6817 30.1504 86.3043 30.1891 86.9071 30.761C87.5293 31.3535 87.3292 33.069 87.3292 34.121C86.5637 34.2488 78.8419 34.174 77.3639 34.1624C77.8015 32.776 77.6608 32.4649 77.6608 30.8255C77.6608 30.215 77.2348 29.7851 76.6927 30.1466C75.8859 30.6823 77.36 34.1624 75.1811 34.1662L74.1316 34.1482C74.1316 33.544 74.2 30.7842 74.0865 30.4215C73.9238 29.9129 73.1028 29.9013 72.9376 30.4176C72.8421 30.7158 72.8911 31.9227 72.8911 32.3152C72.8911 34.2308 73.3029 35.8637 71.6248 36.8202C70.3701 37.5366 71.6855 38.9088 73.2009 37.1752C73.4075 36.9338 73.5662 36.7156 73.7366 36.3955C73.9238 36.0405 73.978 35.6972 74.1278 35.4029L87.457 35.4067C88.8821 35.4145 88.5929 35.2066 88.5929 32.1422C88.5929 28.5704 84.5952 28.6427 82.7816 29.4908C82.0238 29.8458 81.7669 30.215 81.2287 30.5583C81.1719 29.5592 81.421 28.0773 81.0286 27.3532C80.1883 27.1195 79.9727 27.3377 79.9727 28.1948ZM44.0925 35.4003C48.2851 35.0634 51.671 36.6485 51.6852 32.4055C51.6852 31.7072 51.9201 30.2976 51.2825 30.0872C50.2575 29.7438 50.4421 31.0708 50.446 31.7911C50.446 34.294 50.1065 34.2876 47.579 34.1288C47.7456 33.3362 47.863 33.3001 47.8592 32.3152C47.8592 31.6323 47.9276 30.8526 47.7791 30.2498C46.2714 29.2985 46.6871 31.6555 46.638 32.6689C46.558 34.3289 45.6195 34.2346 44.0925 34.1288C44.0124 33.0238 44.2164 31.1766 43.9982 30.2563C42.5809 29.2881 42.8559 31.4064 42.8559 32.4016C42.8559 33.6318 42.8597 34.8607 42.8559 36.0896C40.4613 36.1838 38.6025 36.4549 38.3121 34.0423C38.1043 32.3074 38.8026 29.4908 37.3801 30.1014C36.9593 30.2873 37.0303 30.8152 37.0342 31.3496C37.0484 34.427 36.785 37.3404 40.988 37.3404C44.7444 37.3365 43.926 37.6463 44.0925 35.4003ZM62.5902 34.0694C62.7374 35.6029 63.4693 36.6666 64.6749 37.1197C65.2597 37.3365 69.0599 37.5327 69.464 37.21C69.8564 36.8925 69.6537 33.0664 69.6537 32.2287C69.6537 31.5239 69.8719 30.2911 69.2458 30.0975C68.2118 29.7774 68.4119 31.2438 68.4119 31.7007L68.4235 35.6597C68.4158 36.2329 68.3603 36.1348 67.7368 36.1231C64.2619 36.0625 63.8127 36.047 63.8127 32.4016C63.8127 31.742 64.0114 30.4138 63.499 30.1427C62.576 29.6496 62.5683 30.8372 62.5722 31.5265C62.5722 32.3152 62.5154 33.3065 62.5902 34.0694ZM58.5977 34.1443C57.108 34.1482 55.3292 34.396 54.6386 33.393C53.3685 31.5458 54.933 27.3596 53.6021 27.2396C52.7114 27.1608 52.9038 28.2361 52.9038 28.9822C52.9038 31.4103 52.399 35.0982 56.0792 35.3693C56.8253 35.4222 57.6812 35.3809 58.435 35.3848C60.1092 35.3925 59.8382 35.6146 59.8382 31.9641C59.8382 31.2076 60.0563 30.1349 59.2947 30.0639C58.1601 29.9503 58.7745 32.1835 58.5977 34.1443ZM70.6412 28.107V34.5057C70.6412 35.0066 70.7277 35.3732 71.2401 35.3964C71.7978 35.4145 71.8817 35.0479 71.8817 34.5057V28.107C71.8817 27.5907 71.7836 27.2551 71.2363 27.2667C70.7122 27.277 70.6412 27.601 70.6412 28.107ZM58.8804 27.308C58.2091 27.7301 58.7151 28.6879 59.4806 28.3665C60.1699 28.0773 59.6987 26.7917 58.8804 27.308ZM65.8367 27.3493C65.4972 28.2994 66.2588 28.6995 66.7493 28.2697C67.1985 27.8773 66.912 26.8704 65.8367 27.3493ZM77.9099 37.4204C78.2262 36.3077 77.2387 36.1683 76.8927 36.6588C76.4848 37.232 77.0012 37.9071 77.9099 37.4204ZM75.0107 37.1365C75.1307 37.8955 76.3532 37.7264 76.2138 36.8964C76.0924 36.1993 74.8752 36.2703 75.0107 37.1365Z" fill="#18BBB8"/>
</g>
<path fill-rule="evenodd" clip-rule="evenodd" d="M6.51748 8.77237C4.04423 9.3029 4.82777 13.0657 7.34362 12.5119C8.23301 12.3196 9.01784 11.3954 8.79581 10.2452C8.61768 9.32614 7.66374 8.52711 6.51748 8.77237Z" fill="#18BBB8"/>
<path d="M91.6444 5.95583C91.6031 5.93905 91.523 5.9313 91.403 5.9313H91.0803V6.40504H91.394C91.4779 6.40504 91.5476 6.39858 91.6057 6.38309C91.6625 6.3689 91.7063 6.34437 91.7373 6.30952C91.767 6.27466 91.7825 6.2269 91.7825 6.16494C91.7825 6.11718 91.7696 6.07458 91.7464 6.03844C91.7218 6.0023 91.6883 5.97519 91.6444 5.95583ZM91.2029 6.65675H91.0803V7.21181C91.0803 7.2841 91.0635 7.33832 91.0312 7.37317C90.999 7.40802 90.9577 7.4248 90.906 7.4248C90.8505 7.4248 90.8066 7.40673 90.7756 7.37059C90.7447 7.33444 90.7305 7.28152 90.7305 7.21181V5.88225C90.7305 5.80738 90.7472 5.75187 90.7808 5.71831C90.8144 5.68475 90.8686 5.66797 90.9447 5.66797H91.514C91.5928 5.66797 91.6586 5.67184 91.7154 5.6783C91.7709 5.68475 91.8212 5.69766 91.8651 5.71831C91.9193 5.74155 91.9684 5.77382 92.0097 5.81642C92.051 5.85901 92.0833 5.90807 92.1039 5.96357C92.1259 6.02037 92.1362 6.07975 92.1362 6.143C92.1362 6.27079 92.1001 6.37406 92.0278 6.45151C91.9555 6.52896 91.8445 6.58317 91.6973 6.61545C91.7593 6.64772 91.8186 6.69677 91.8754 6.76131C91.9322 6.82585 91.9826 6.89427 92.0265 6.96655C92.0704 7.03884 92.1052 7.10467 92.131 7.16405C92.1556 7.22214 92.1672 7.26216 92.1672 7.2841C92.1672 7.30734 92.1607 7.32928 92.1452 7.35252C92.131 7.37446 92.1117 7.39253 92.0859 7.40544C92.0613 7.41835 92.0316 7.4248 91.9994 7.4248C91.9593 7.4248 91.9271 7.41577 91.9 7.3964C91.8729 7.37833 91.8496 7.3551 91.8316 7.3267C91.8122 7.2983 91.7864 7.25699 91.7528 7.20149L91.6121 6.96914C91.5618 6.88265 91.5166 6.81811 91.4779 6.77293C91.4378 6.72904 91.3978 6.69806 91.3565 6.68128C91.3165 6.6645 91.2649 6.65675 91.2029 6.65675Z" fill="#18BBB8"/>
<mask id="mask1_1242_4011" style="mask-type:luminance" maskUnits="userSpaceOnUse" x="88" y="3" width="5" height="7">
<path d="M88.2324 3.63525H93.0008V9.58345H88.2324V3.63525Z" fill="white"/>
</mask>
<g mask="url(#mask1_1242_4011)">
<path d="M91.3131 4.87971C92.1844 4.87971 92.8892 5.5858 92.8892 6.45712C92.8892 7.32844 92.1844 8.03711 91.3131 8.03711C90.4431 8.03711 89.7383 7.32844 89.7383 6.45712C89.7383 5.5858 90.4431 4.87971 91.3131 4.87971Z" stroke="#18BBB8" stroke-width="0.882667"/>
</g>
</g>
<defs>
<clipPath id="clip0_1242_4011">
<rect width="93" height="38.0156" fill="white"/>
</clipPath>
</defs>
</svg>
