<svg width="114" height="29" viewBox="0 0 114 29" fill="none" xmlns="http://www.w3.org/2000/svg">
<g clip-path="url(#clip0_1242_4545)">
<path d="M84.517 1.66733C84.7613 1.6657 84.9441 1.62025 84.9328 1.32966C84.9506 1.06342 84.8519 0.92543 84.5688 0.9303C84.3293 0.935171 84.1562 0.967639 84.1562 1.27284C84.1562 1.53583 84.2339 1.67057 84.517 1.66733Z" fill="black"/>
<path d="M86.5806 3.87864C86.6259 3.38675 86.8654 3.01012 87.3733 2.90622C87.8506 2.8072 88.2356 2.8835 88.1531 3.53124C88.1288 3.71793 88.1498 3.91111 88.1498 4.10105C88.1498 4.24391 88.1498 4.38677 88.1498 4.52801C88.145 5.23906 87.7778 5.46958 87.1242 5.15789C86.5742 4.8949 86.5337 4.39489 86.5806 3.87864ZM86.4334 5.51828C87.0935 5.99394 87.8409 5.86732 88.5737 5.73095C88.8633 5.67738 88.8406 5.44036 88.8406 5.22282C88.839 4.59944 88.8406 3.97767 88.839 3.35428C88.839 2.68382 88.839 2.01335 88.839 1.34288C88.839 1.31853 88.8374 1.29418 88.839 1.27146C88.8633 0.984112 88.7161 0.906189 88.4524 0.902942C88.1709 0.898072 88.1434 1.05554 88.1498 1.26821C88.1531 1.43542 88.1353 1.60425 88.1515 1.76984C88.1903 2.16433 88.1385 2.35102 87.6306 2.30556C86.6664 2.22115 86.0112 2.78122 85.8656 3.70332C85.7556 4.39489 85.8106 5.06698 86.4334 5.51828Z" fill="black"/>
<path d="M94.7226 5.80026C94.8714 5.79539 95.0315 5.77591 95.0461 5.59409C95.0574 5.43499 95.0542 5.23856 94.8131 5.23045C94.3165 5.21421 94.3391 4.83596 94.3262 4.50803C94.3084 4.00477 94.3214 3.50152 94.3214 2.99826H94.3197C94.3197 2.42358 94.3181 1.84889 94.3197 1.27421C94.3214 1.06803 94.3116 0.897575 94.0253 0.902446C93.7665 0.907316 93.6257 0.970629 93.629 1.26284C93.6451 2.50799 93.6257 3.75477 93.6678 4.9983C93.6904 5.63792 94.1547 5.81812 94.7226 5.80026Z" fill="black"/>
<path d="M83.9606 2.84587C84.4799 3.00172 84.2776 3.41407 84.2954 3.73063C84.3213 4.23226 84.3003 4.73714 84.3035 5.24202C84.3051 5.50177 84.2485 5.78586 84.674 5.77774C85.0687 5.77125 84.9846 5.4969 84.9894 5.27449C84.9992 4.89137 84.9927 4.50662 84.9911 4.12349C84.9911 3.64297 84.9894 3.16406 84.9927 2.68353C84.9927 2.50171 84.9717 2.33288 84.7338 2.35236C84.4572 2.37509 84.1434 2.23385 83.9169 2.46437C83.8344 2.54717 83.8166 2.80367 83.9606 2.84587Z" fill="black"/>
<path d="M79.0497 5.77102C79.3975 5.80673 79.4298 5.59569 79.4412 5.3262C79.4751 4.40249 79.5237 3.47714 79.5674 2.55343C79.6143 2.54531 79.6644 2.53882 79.7113 2.53232C79.9686 3.14759 80.2242 3.76449 80.4798 4.38138C80.5623 4.57619 80.6059 4.78561 80.8971 4.7986C81.2191 4.81483 81.2902 4.59242 81.3857 4.37326C81.6461 3.77585 81.9066 3.17681 82.1654 2.5794C82.256 2.59239 82.3466 2.60375 82.4356 2.61674C82.4356 3.495 82.4372 4.37326 82.434 5.25153C82.434 5.53075 82.434 5.784 82.8303 5.77589C83.2412 5.76777 83.1296 5.47231 83.1215 5.26289C83.0762 4.06644 83.0228 2.86999 82.9533 1.67516C82.9387 1.42354 83.1037 1.07126 82.6621 0.980346C82.2237 0.891059 82.0878 1.16704 81.9535 1.50633C81.6591 2.2466 81.3388 2.97714 80.9635 3.87001C80.5623 2.90246 80.2242 2.11673 79.9119 1.31964C79.776 0.968982 79.5188 0.944631 79.2195 0.981969C78.8992 1.02255 78.9736 1.27905 78.9639 1.48198C78.9025 2.74823 78.8394 4.01612 78.7876 5.284C78.7795 5.48043 78.7148 5.73693 79.0497 5.77102Z" fill="black"/>
<path d="M90.9185 3.00467C91.2049 2.83097 91.5187 2.83097 91.8067 2.94623C92.0962 3.06149 91.9539 3.35858 91.9797 3.57936C91.9975 3.74495 91.983 3.91216 91.983 4.07937C91.983 4.19788 92.0024 4.32126 91.9797 4.43489C91.9183 4.73685 92.1949 5.21413 91.5915 5.2466C91.0819 5.2742 90.6419 5.15569 90.4542 4.60373C90.2536 4.01281 90.472 3.27741 90.9185 3.00467ZM90.2148 5.48524C90.8765 6.00148 91.6546 5.8781 92.4117 5.72713C92.7029 5.67031 92.677 5.43167 92.6786 5.219C92.6802 4.57288 92.6786 3.92677 92.6786 3.28228H92.6754C92.6754 2.61343 92.6705 1.94459 92.6786 1.27412C92.6818 0.998145 92.567 0.90074 92.2936 0.902364C92.0218 0.903987 91.9797 1.05334 91.9846 1.26763C91.9862 1.36341 91.9733 1.46082 91.9846 1.55335C92.0509 2.08096 91.983 2.36992 91.2938 2.30336C90.5028 2.22706 89.8815 2.80175 89.7165 3.58423C89.5661 4.29366 89.5952 5.00146 90.2148 5.48524Z" fill="black"/>
<path d="M110.784 3.50358C110.785 3.91105 110.779 4.32015 110.785 4.72763C110.8 5.56043 111.201 5.90947 112.01 5.79908C112.167 5.77797 112.366 5.80557 112.377 5.55719C112.387 5.31692 112.277 5.19842 112.031 5.22926C111.537 5.29095 111.487 4.94192 111.461 4.59289C111.437 4.28281 111.452 3.9695 111.437 3.6578C111.419 3.23247 111.387 2.81363 112.032 2.91591C112.243 2.95 112.337 2.81688 112.325 2.61233C112.316 2.4435 112.225 2.32012 112.057 2.35421C111.469 2.47596 111.395 2.09446 111.402 1.55225C110.533 2.37044 110.536 2.36882 110.771 3.14481C110.805 3.2552 110.784 3.38345 110.784 3.50358Z" fill="black"/>
<path d="M100.842 3.36061C100.842 4.00673 100.842 4.65284 100.84 5.29896C100.84 5.55221 100.85 5.78273 101.204 5.77786C101.872 5.7665 102.539 5.77299 103.209 5.77299C103.398 5.77461 103.527 5.71292 103.537 5.49214C103.547 5.24051 103.419 5.1496 103.191 5.14798C102.809 5.14798 102.427 5.14636 102.046 5.14149C101.83 5.13986 101.643 5.14473 101.578 4.83953C101.382 3.9077 101.591 3.61224 102.529 3.58139C102.6 3.57815 102.672 3.57652 102.743 3.57815C102.964 3.57815 103.112 3.50509 103.105 3.24859C103.099 2.98073 102.926 2.94826 102.719 2.94989C102.55 2.95313 102.382 2.93041 102.217 2.95314C101.724 3.02132 101.57 2.83138 101.559 2.32325C101.546 1.75019 101.727 1.54727 102.285 1.62032C102.566 1.65603 102.856 1.62519 103.142 1.62519C103.327 1.62519 103.464 1.58785 103.474 1.35408C103.485 1.10083 103.361 1.01317 103.133 1.01317C102.56 1.01317 101.987 1.03427 101.416 1.00342C100.986 0.980697 100.808 1.11219 100.832 1.56675C100.865 2.16254 100.84 2.7632 100.842 3.36061Z" fill="black"/>
<path d="M107.631 5.71281C108.194 5.89463 108.762 5.92872 109.302 5.64463C109.666 5.45144 109.863 5.14137 109.855 4.71117C109.842 4.07642 109.388 3.88161 108.899 3.69979C108.645 3.60725 108.255 3.5894 108.32 3.19491C108.391 2.76308 108.784 2.88322 109.181 2.86211C109.296 2.82153 109.653 3.1527 109.706 2.69003C109.761 2.22249 109.329 2.35886 109.092 2.29554C108.788 2.21275 108.47 2.26957 108.174 2.37347C107.804 2.50496 107.587 2.77445 107.555 3.17543C107.522 3.57966 107.694 3.87349 108.058 4.04395C108.297 4.15597 108.545 4.24363 108.784 4.35077C108.993 4.44331 109.169 4.5748 109.122 4.83617C109.079 5.08293 108.885 5.20631 108.66 5.2193C108.403 5.23553 108.139 5.20631 107.88 5.17384C107.717 5.15436 107.595 5.17384 107.544 5.3443C107.5 5.48229 107.455 5.65599 107.631 5.71281Z" fill="black"/>
<path d="M105.56 4.15565C106.011 4.11668 106.045 4.37481 106.058 4.73196C106.074 5.15242 105.909 5.30664 105.539 5.24982C105.131 5.27255 104.812 5.15242 104.806 4.72709C104.801 4.2498 105.178 4.18974 105.56 4.15565ZM104.681 5.69788C105.307 5.94789 105.993 5.94951 106.563 5.66379C106.985 5.45112 106.67 4.87319 106.746 4.46734C106.751 4.44461 106.747 4.42026 106.747 4.39591C106.747 4.2287 106.747 4.06149 106.746 3.89266C106.742 2.51601 106.05 1.98515 104.73 2.34068C104.536 2.39425 104.343 2.42023 104.392 2.69296C104.437 2.95757 104.623 2.95433 104.825 2.91699C105.084 2.87153 105.343 2.83419 105.607 2.904C105.866 2.97218 106.053 3.12965 106.021 3.40401C105.987 3.6735 105.731 3.57609 105.555 3.60206C105.298 3.64103 105.021 3.63778 104.788 3.73518C104.371 3.91214 104.094 4.23682 104.086 4.72384C104.08 5.1719 104.261 5.52905 104.681 5.69788Z" fill="black"/>
<path d="M11.9155 2.37832C13.255 2.40267 14.5945 2.37345 15.9324 2.39131C18.1163 2.42053 19.7696 3.40594 20.9393 5.24201C21.5087 6.13813 21.8953 7.11542 22.2464 8.11381C22.3289 8.34758 22.2254 8.87519 22.7285 8.70149C23.1766 8.54726 23.8641 8.69986 23.8415 7.81511C23.7865 5.6089 23.7832 3.40107 23.8059 1.19486C23.8124 0.603938 23.6101 0.487052 23.0682 0.490299C19.4833 0.511404 15.8968 0.501663 12.3102 0.501663C8.65254 0.501663 4.99483 0.501663 1.33712 0.50004C1.0427 0.50004 0.73209 0.464325 0.775768 0.918878C0.808123 1.26791 0.612377 1.7322 1.23844 1.7663C1.4989 1.78091 1.75612 1.8637 2.01657 1.89292C3.29782 2.03578 4.03389 2.77768 4.3445 3.99686C4.52407 4.69817 4.60172 5.41247 4.64863 6.13163C4.90585 9.96125 4.95439 13.7974 4.86056 17.6335C4.80879 19.7877 4.81203 21.9517 4.51274 24.093C4.16008 26.606 3.10046 27.0995 1.43419 27.2051C0.926218 27.2375 0.745031 27.4161 0.756356 27.9518C0.770915 28.585 1.18344 28.408 1.49728 28.4096C5.96871 28.4161 10.4385 28.4145 14.9099 28.4129C15.2464 28.4129 15.6331 28.5395 15.6282 27.9275C15.625 27.4356 15.4859 27.2343 14.9876 27.2408C14.6317 27.2456 14.2742 27.1742 13.9199 27.1271C12.815 26.981 12.0708 26.3804 11.7359 25.3138C11.592 24.8592 11.482 24.3868 11.4253 23.9144C11.0969 21.2163 11.1212 18.5052 11.118 15.7958C11.1164 15.463 11.2086 15.3282 11.5645 15.3412C12.2569 15.3672 12.9509 15.3266 13.6433 15.3575C15.5312 15.4402 16.4436 16.1334 17.0826 17.9419C17.1861 18.2357 17.3091 18.5328 17.3479 18.8364C17.4304 19.4809 17.8995 19.2926 18.2732 19.3104C18.8103 19.3364 18.655 18.9208 18.655 18.6497C18.6647 15.9614 18.634 13.2746 18.6793 10.5879C18.6906 9.9093 18.4609 9.77618 17.8672 9.82164C17.5291 9.84761 17.4223 9.9856 17.356 10.2811C17.212 10.9142 16.9984 11.5262 16.6733 12.0912C16.209 12.9061 15.549 13.4775 14.5929 13.5701C13.5963 13.6675 12.5917 13.6853 11.5903 13.7535C11.2344 13.7779 11.0791 13.6788 11.0743 13.286C11.0322 9.83138 11.0484 6.38002 11.3008 2.9319C11.3331 2.49358 11.4933 2.37183 11.9155 2.37832Z" fill="black"/>
<mask id="mask0_1242_4545" style="mask-type:luminance" maskUnits="userSpaceOnUse" x="97" y="7" width="17" height="23">
<path d="M97.666 7.896H113.242V29.0003H97.666V7.896Z" fill="white"/>
</mask>
<g mask="url(#mask0_1242_4545)">
<path d="M105.688 28.9466C107.833 28.8329 109.854 28.2972 111.436 26.7079C114.344 23.7874 113.644 19.0876 110.015 17.1931C109.318 16.8295 108.576 16.5519 107.857 16.2256C106.66 15.685 105.44 15.1785 104.426 14.3099C103.523 13.5388 103.26 12.4268 103.669 11.2336C104.041 10.154 104.936 9.52576 106.13 9.48355C107.637 9.4316 108.813 10.0469 109.701 11.2466C110.294 12.0453 110.669 12.9495 110.986 13.8862C111.064 14.1135 111.007 14.5372 111.491 14.3732C111.856 14.2482 112.27 14.2661 112.215 13.633C112.096 12.2742 112.055 10.9057 112.01 9.54037C111.997 9.12153 111.839 8.90724 111.444 8.766C110.332 8.36827 109.19 8.12314 108.021 8.01437C105.628 7.78871 103.276 7.86826 101.16 9.20595C99.204 10.4414 98.2155 12.2336 98.2624 14.5664C98.3077 16.8993 99.4887 18.4902 101.54 19.4724C102.208 19.7922 102.901 20.0584 103.59 20.3279C104.57 20.7126 105.547 21.099 106.424 21.6964C107.487 22.4205 107.92 23.4172 107.65 24.6819C107.378 25.9514 106.604 26.7874 105.327 27.0358C103.499 27.3913 101.988 26.7566 100.783 25.3653C99.9417 24.3945 99.3722 23.2581 98.9241 22.0633C98.7963 21.7224 98.6442 21.6201 98.2899 21.7305C97.989 21.8247 97.7124 21.8182 97.7448 22.2922C97.7982 23.1023 97.7593 23.9205 97.7593 24.7354C97.8095 24.7354 97.8596 24.7354 97.9098 24.7354C97.9098 25.5017 97.9373 26.2696 97.9001 27.0326C97.871 27.5894 98.1071 27.8329 98.6183 27.9904C100.925 28.6998 103.279 29.0748 105.688 28.9466Z" fill="black"/>
</g>
<mask id="mask1_1242_4545" style="mask-type:luminance" maskUnits="userSpaceOnUse" x="55" y="0" width="23" height="30">
<path d="M55.8379 0H77.7874V29.0005H55.8379V0Z" fill="white"/>
</mask>
<g mask="url(#mask1_1242_4545)">
<path d="M69.8012 24.9227C69.4097 25.7003 68.8936 26.3805 68.1834 26.9065C67.3276 27.5428 66.3813 27.5867 65.3831 27.413C64.8994 27.3285 64.956 26.96 64.9463 26.6418C64.8913 24.6775 64.8428 22.7148 64.8007 20.7521C64.7862 20.1531 64.7975 19.5541 64.7975 18.9534C64.7749 18.955 64.7538 18.955 64.7312 18.955C64.7312 16.3917 64.7409 13.8283 64.7215 11.2649C64.7166 10.838 64.8946 10.6903 65.2602 10.5734C67.182 9.96135 68.7545 10.5166 69.8335 12.2374C70.6553 13.5458 70.9999 15.015 71.1487 16.5264C71.4318 19.4404 71.1358 22.27 69.8012 24.9227ZM66.0512 8.80386C65.6355 8.96458 65.2246 9.13991 64.77 9.32335C64.7538 9.13828 64.7312 9.0214 64.7328 8.90451C64.77 6.12199 64.7959 3.33948 64.8622 0.55696C64.8735 0.0699386 64.804 -0.0729211 64.2895 0.0309768C61.782 0.535856 59.2665 1.00989 56.7541 1.49367C56.4678 1.54724 56.2008 1.57159 56.1992 1.99205C56.1992 2.48881 56.5422 2.42388 56.835 2.46122C57.9286 2.59758 58.4188 2.99856 58.7019 4.04728C58.8022 4.4158 58.875 4.79892 58.8928 5.1788C58.951 6.35252 59.006 7.52786 59.0125 8.70159C59.0416 14.9647 59.1257 21.2262 58.9219 27.486C58.9073 27.9227 59.0432 28.0591 59.4428 28.1467C61.905 28.6857 64.3866 29.0705 66.9103 28.9536C70.7459 28.775 73.996 27.4065 75.8984 23.8658C77.665 20.5752 77.8769 17.054 76.6216 13.5475C74.9634 8.91912 70.6375 7.03273 66.0512 8.80386Z" fill="black"/>
</g>
<mask id="mask2_1242_4545" style="mask-type:luminance" maskUnits="userSpaceOnUse" x="78" y="7" width="20" height="23">
<path d="M78.6152 7.48047H97.2516V29.0003H78.6152V7.48047Z" fill="white"/>
</mask>
<g mask="url(#mask2_1242_4545)">
<path d="M90.4455 15.9498C89.5865 15.9352 88.7291 15.945 87.8701 15.945C87.8701 15.9921 87.8701 16.0408 87.8701 16.0878C87.0353 16.0878 86.2006 16.0846 85.3658 16.0911C85.0601 16.0927 84.8724 16.0375 84.9015 15.6511C85.0245 14.0131 85.2979 12.4108 86.1132 10.9611C86.6341 10.0342 87.3071 9.1981 88.5059 9.3296C89.6561 9.45785 90.0556 10.427 90.3711 11.3767C90.8144 12.7079 90.9017 14.0943 90.9066 15.4904C90.9066 15.8248 90.7869 15.9563 90.4455 15.9498ZM91.5407 8.32309C88.5884 7.47891 85.7331 7.84256 83.1528 9.55038C78.7832 12.4417 77.358 19.3541 80.0839 24.1286C82.2921 27.9955 86.9286 29.8316 91.5051 28.64C93.406 28.1449 95.0367 27.1919 96.3228 25.6854C96.5169 25.4581 96.7499 25.2763 96.4587 24.8964C96.1335 24.4743 95.9135 24.6269 95.5851 24.8461C92.492 26.9111 88.3732 26.2244 86.3219 23.2925C85.2429 21.7487 84.8546 19.984 84.7802 18.1252C84.7608 17.6512 84.9679 17.5749 85.3739 17.5781C87.1923 17.5944 89.009 17.5862 90.8273 17.5846C92.6683 17.5846 94.5109 17.57 96.3519 17.596C96.8275 17.6025 96.9715 17.4482 96.9521 16.9807C96.889 15.531 96.656 14.1154 96.1157 12.7663C95.2502 10.6072 93.8153 8.97245 91.5407 8.32309Z" fill="black"/>
</g>
<mask id="mask3_1242_4545" style="mask-type:luminance" maskUnits="userSpaceOnUse" x="20" y="7" width="21" height="23">
<path d="M20.6348 7.48047H40.9277V29.0003H20.6348V7.48047Z" fill="white"/>
</mask>
<g mask="url(#mask3_1242_4545)">
<path d="M33.9368 24.3169C33.7621 25.1449 33.4466 25.9257 32.9322 26.6059C31.9259 27.9387 30.237 28.0475 29.0706 26.8543C28.1275 25.89 27.736 24.653 27.4367 23.3851C27.0258 21.6481 26.9077 19.8785 26.9385 18.6886C26.9595 16.1252 27.0452 14.1625 27.5953 12.2518C27.7829 11.6024 28.0418 10.9855 28.4413 10.4352C29.4977 8.98386 31.4002 8.91081 32.5698 10.2777C33.3059 11.1381 33.7071 12.1674 33.9449 13.2518C34.7538 16.9369 34.7149 20.6302 33.9368 24.3169ZM38.3015 10.9612C35.0385 7.16078 28.1194 6.81662 24.1737 10.294C21.4495 12.6933 20.5759 15.8639 20.7522 19.3802C20.8881 22.1221 21.676 24.6319 23.7353 26.5686C26.754 29.4096 32.4258 29.8235 36.1304 27.4663C39.4646 25.3445 40.6342 22.0961 40.7362 18.5344C40.6714 15.6155 40.1133 13.07 38.3015 10.9612Z" fill="black"/>
</g>
<path d="M96.973 2.87042C97.3499 2.88016 97.688 3.06198 97.6702 3.44023C97.6443 3.9516 97.1736 3.58147 96.9406 3.73407C96.7012 3.60582 96.2579 3.89803 96.2369 3.48569C96.2191 3.10906 96.5508 2.85743 96.973 2.87042ZM98.1766 5.41429C98.12 4.9013 97.7317 5.23572 97.4988 5.24383C97.1331 5.2552 96.7724 5.26819 96.4699 5.03441C96.2757 4.88344 96.1285 4.65454 96.2046 4.40778C96.2757 4.17076 96.5297 4.26979 96.7061 4.2633C97.1364 4.25031 97.5667 4.25356 97.997 4.26005C98.2769 4.26492 98.437 4.18375 98.4581 3.86069C98.5195 2.94509 97.832 2.22268 96.9147 2.26976C95.9457 2.31846 95.3747 3.04412 95.4119 4.17239C95.4491 5.28442 96.0622 5.85099 97.2836 5.84287C97.3127 5.84125 97.4162 5.85748 97.502 5.82664C97.7544 5.73086 98.2316 5.9143 98.1766 5.41429Z" fill="black"/>
<path d="M56.9067 8.16569C54.967 7.52932 53.2296 7.94816 51.6507 9.1722C50.6444 9.94982 49.9682 10.9953 49.3583 12.1788C49.3583 10.88 49.3373 9.66572 49.3697 8.45304C49.3826 8.00173 49.2451 7.92218 48.839 8.00498C46.2636 8.53583 43.6849 9.05532 41.1063 9.56994C40.8231 9.62676 40.6306 9.6852 40.6339 10.0537C40.6371 10.4109 40.7956 10.5115 41.103 10.5277C42.8696 10.6235 43.1009 11.5245 43.2239 12.8671C43.5814 16.7697 43.5539 20.6724 43.2546 24.58C43.1284 26.2391 42.8259 27.1855 41.0464 27.231C41.0237 27.231 40.9995 27.2391 40.9768 27.2423C40.4349 27.3332 40.7018 27.7618 40.6501 28.0475C40.587 28.4031 40.8296 28.4161 41.0917 28.4161C44.8707 28.4128 48.6482 28.4112 52.4256 28.4177C52.72 28.4177 52.8365 28.3446 52.8575 28.0199C52.8899 27.5005 52.7766 27.205 52.1813 27.2277C51.827 27.2407 51.4679 27.1644 51.112 27.1222C50.308 27.0297 49.7919 26.5881 49.5961 25.804C49.4991 25.4111 49.4344 25.0037 49.4036 24.5994C49.1448 21.3672 49.1513 18.1318 49.3066 14.8947C49.3583 13.8005 49.6123 13.4759 50.6574 13.1593C52.1408 12.7112 53.558 12.9564 54.8651 13.7324C55.3796 14.0376 55.5138 13.919 55.6902 13.4158C56.2078 11.9466 56.7482 10.4839 57.337 9.04233C57.5587 8.50174 57.371 8.31829 56.9067 8.16569Z" fill="black"/>
</g>
<defs>
<clipPath id="clip0_1242_4545">
<rect width="112.485" height="29" fill="white" transform="translate(0.757812)"/>
</clipPath>
</defs>
</svg>
