<svg width="80" height="61" viewBox="0 0 80 61" fill="none" xmlns="http://www.w3.org/2000/svg">
<path d="M48.3588 20.0162C48.3588 21.2425 48.3568 22.4687 48.3614 23.695C48.3621 23.8538 48.3356 23.9272 48.1504 23.964C45.0681 24.5746 42.7346 27.0117 42.2536 30.108C41.6467 34.0158 44.2821 37.7366 48.1879 38.486C52.2929 39.274 56.2649 36.4529 56.8819 32.3114C57.4657 28.3929 54.8736 24.7269 50.9711 23.9604C50.8182 23.9301 50.7696 23.8825 50.7696 23.7276C50.7741 21.2464 50.7731 18.7648 50.7712 16.2833C50.7712 16.1496 50.7735 16.0817 50.9555 16.0997C54.7559 16.4734 57.981 18.0415 60.6122 20.7983C62.6085 22.8898 63.8856 25.3706 64.4619 28.2096C64.7111 29.4372 64.8128 30.6765 64.7486 31.9249C64.5842 35.1145 63.5477 37.9946 61.5776 40.5133C59.218 43.53 56.1498 45.4588 52.38 46.1299C47.3706 47.0219 42.9355 45.7291 39.1775 42.2826C36.7834 40.0867 35.3031 37.3498 34.6537 34.1707C34.3817 32.8384 34.3126 31.4882 34.4127 30.1299C34.6596 26.7694 35.8849 23.8094 38.0935 21.2738C40.4279 18.5933 43.3592 16.929 46.8605 16.2813C47.2786 16.204 47.701 16.16 48.1214 16.1016C48.3532 16.0697 48.3624 16.1577 48.3617 16.3374C48.3562 17.5637 48.3588 18.7899 48.3588 20.0162Z" fill="#38B4E5"/>
<path d="M19.3577 31.0361C19.3577 29.305 19.3581 27.5739 19.3577 25.8428C19.3574 24.3136 19.3538 22.7843 19.3587 21.2551C19.359 21.1061 19.3281 21.063 19.1722 21.0692C18.7472 21.0865 18.3216 21.0829 17.8963 21.0865C16.1515 21.1012 14.4064 21.1038 12.6616 21.1335C11.3743 21.1556 10.2639 21.6328 9.33733 22.5286C8.46851 23.3688 7.89223 24.3964 7.50316 25.5235C6.52313 28.3615 6.2632 31.2706 6.7723 34.2322C7.03157 35.7412 7.53153 37.1723 8.39904 38.4524C9.5467 40.145 11.0965 41.0715 13.1929 41.0314C15.1105 40.9949 17.0295 41.0158 18.9481 41.0119C19.3581 41.0112 19.3577 41.0119 19.3577 40.6006C19.3577 37.4127 19.3577 34.2244 19.3577 31.0361ZM41.0211 46.412C39.7413 46.412 38.516 46.412 37.2908 46.4116C37.2187 46.4116 37.1466 46.4084 37.0745 46.4084C29.0165 46.4084 20.9581 46.4351 12.9003 46.397C8.85954 46.3777 5.67551 44.6225 3.36291 41.3168C2.1846 39.6323 1.51472 37.7306 1.13282 35.7227C0.712435 33.5111 0.691562 31.2824 0.861151 29.0464C1.00432 27.1568 1.33763 25.3063 1.99185 23.522C2.604 21.8516 3.47282 20.339 4.74441 19.0775C6.17091 17.6618 7.88897 16.7936 9.84446 16.3742C10.8281 16.1632 11.8244 16.08 12.8286 16.0797C16.7601 16.0794 20.6916 16.0817 24.6235 16.0738C24.8413 16.0735 24.8779 16.1384 24.8779 16.3383C24.8726 24.4682 24.8733 32.5983 24.8743 40.7285C24.8743 41.0565 24.8341 41.0109 25.1639 41.0109C28.3887 41.0122 31.6131 41.0125 34.8379 41.0096C35.0023 41.0093 35.1005 41.0389 35.2084 41.1987C35.8232 42.1096 36.542 42.9367 37.3345 43.6982C38.4114 44.7324 39.6008 45.6149 40.9089 46.3356C40.9327 46.3487 40.9539 46.366 41.0211 46.412Z" fill="#3C3F42"/>
<path d="M58.0811 46.4085C58.1182 46.3149 58.1955 46.3025 58.2533 46.2686C60.4661 44.9634 62.3201 43.2717 63.7678 41.1444C63.8474 41.0273 63.9338 40.9937 64.0692 40.995C65.0573 41.0028 66.0459 41.0237 67.0331 40.9999C68.349 40.9679 69.6255 40.7292 70.8051 40.1125C72.5587 39.1957 73.5127 37.6919 73.9334 35.8053C74.1016 35.0496 74.1675 34.2832 74.1701 33.5096C74.1773 31.5551 74.1799 29.6009 74.2031 27.6467C74.238 24.676 74.1838 21.7056 74.1864 18.7352C74.1871 18.1074 74.2905 17.5093 74.7255 17.0243C75.4789 16.1845 76.4348 15.8783 77.5035 16.1861C78.5595 16.4901 79.201 17.2532 79.4365 18.3383C79.4969 18.6161 79.4779 18.8976 79.4779 19.1784C79.4776 23.6144 79.4809 28.0505 79.475 32.4862C79.474 33.2647 79.4887 34.0435 79.4352 34.8213C79.2549 37.435 78.5481 39.8637 76.9077 41.9568C75.4936 43.7613 73.6441 44.9324 71.4815 45.6378C70.116 46.0833 68.7077 46.2829 67.279 46.3759C66.7888 46.4078 66.2993 46.4078 65.8091 46.4082C63.306 46.4091 60.803 46.4085 58.2999 46.4085H58.0811Z" fill="#3C3F42"/>
<path d="M43.1462 52.3453C44.408 52.3453 45.6701 52.3626 46.9316 52.3394C47.8347 52.3231 48.5577 52.6766 49.1519 53.3185C50.6149 54.8989 50.6006 57.5129 49.1206 59.0711C48.5352 59.6875 47.8265 60.0397 46.9508 60.0179C46.3817 60.0035 45.8117 60.0286 45.2422 60.0293C44.0835 60.0309 43.1778 59.1719 43.1208 58.0141C43.1051 57.6975 43.1025 57.3795 43.1074 57.0625C43.1152 56.5332 43.4665 56.1852 43.9742 56.1904C44.4612 56.1956 44.8023 56.5586 44.8085 57.0745C44.8114 57.2979 44.817 57.521 44.8274 57.7441C44.8437 58.0953 45.0909 58.3497 45.4386 58.3347C45.9783 58.3109 46.5217 58.3745 47.0578 58.2851C47.7254 58.1736 48.1934 57.7946 48.422 57.1619C48.6767 56.4575 48.6728 55.7384 48.3539 55.0551C48.0277 54.3559 47.4263 54.0431 46.6759 54.0444C44.8225 54.0471 42.9691 54.0683 41.116 54.0849C40.5971 54.0895 40.0773 54.1286 39.5597 54.1077C38.4342 54.0621 37.6267 54.802 37.5635 56.0254C37.5377 56.5201 37.5801 57.0106 37.828 57.4529C38.1746 58.0722 38.7163 58.3784 39.4247 58.3807C39.9654 58.3823 40.5065 58.3677 41.0472 58.3709C41.4523 58.3732 41.7898 58.6237 41.8824 58.969C41.9852 59.3519 41.8289 59.7387 41.4914 59.9399C41.3645 60.0153 41.2256 60.0485 41.0801 60.056C40.3238 60.0948 39.5653 60.1239 38.8112 60.0714C37.9326 60.0104 37.2784 59.514 36.7648 58.836C35.5985 57.2963 35.6106 55.1562 36.7961 53.6267C37.4125 52.8309 38.2151 52.391 39.2518 52.4043C40.5499 52.4213 41.8482 52.4086 43.1462 52.4086C43.1462 52.3874 43.1462 52.3665 43.1462 52.3453Z" fill="#3C3F42"/>
<path d="M23.1446 57.2439C22.6469 57.2439 22.1495 57.241 21.6519 57.2445C20.484 57.2524 19.3161 57.2667 18.1482 57.269C17.9731 57.2693 17.9339 57.3287 17.9382 57.4918C17.9555 58.1114 17.9613 58.7311 17.9682 59.351C17.9728 59.7385 17.8195 60.0402 17.4575 60.2042C17.1356 60.3503 16.7481 60.2645 16.4973 60.0177C16.257 59.7809 16.2537 59.4746 16.2504 59.1723C16.2413 58.3433 16.2426 57.5139 16.2361 56.6846C16.2276 55.6178 16.2142 54.5513 16.2061 53.4846C16.2032 53.1213 16.3564 52.8401 16.6888 52.6816C16.9999 52.5336 17.3071 52.5603 17.5853 52.769C17.8289 52.9523 17.9144 53.2113 17.9154 53.509C17.9176 54.1362 17.9287 54.7637 17.9291 55.3908C17.9291 55.5229 17.9522 55.5741 18.1052 55.5725C19.684 55.5568 21.2631 55.5526 22.8422 55.5408C24.3995 55.5291 25.9568 55.5128 27.5141 55.4975C27.6794 55.4962 27.8451 55.4896 28.0108 55.4818C28.3183 55.4668 28.3196 55.4655 28.318 55.1498C28.3151 54.5585 28.3271 53.9666 28.3017 53.3763C28.2824 52.9292 28.6226 52.5052 29.1363 52.4863C29.6111 52.4687 29.9972 52.8506 30.0064 53.3662C30.0201 54.1737 30.0207 54.9812 30.0266 55.7887C30.0354 56.9641 30.0458 58.1391 30.0507 59.3142C30.0524 59.7551 29.7686 60.0835 29.3372 60.1605C28.9383 60.2313 28.5411 59.9935 28.3959 59.6002C28.3473 59.4681 28.3526 59.3311 28.3509 59.1948C28.3431 58.5895 28.3376 57.9842 28.3314 57.3786C28.3304 57.2778 28.3509 57.1885 28.1843 57.1891C26.5044 57.1956 24.8245 57.193 23.1446 57.193C23.1446 57.21 23.1446 57.2269 23.1446 57.2439Z" fill="#3C3F42"/>
<path d="M72.5529 55.065C74.2259 55.065 75.8987 55.063 77.5717 55.0682C77.7204 55.0689 77.7491 55.0187 77.7472 54.883C77.7387 54.2412 77.7384 53.5993 77.7377 52.9572C77.7368 52.4246 78.0772 52.0636 78.5772 52.0623C79.0719 52.0607 79.4261 52.4246 79.433 52.952C79.4437 53.7667 79.4486 54.5817 79.4551 55.3963C79.4646 56.543 79.4728 57.6894 79.4829 58.8361C79.4871 59.353 79.1352 59.7336 78.6434 59.7398C78.147 59.7463 77.7906 59.3875 77.7818 58.8608C77.7713 58.2193 77.7642 57.5778 77.7664 56.936C77.7671 56.7922 77.7237 56.7563 77.5845 56.7576C75.3707 56.7782 73.1569 56.7928 70.9431 56.8111C69.8254 56.8206 68.7081 56.8391 67.5905 56.8424C67.4124 56.8431 67.3599 56.8861 67.3658 57.0678C67.386 57.7161 67.3974 58.3648 67.3951 59.0135C67.3935 59.4932 67.0112 59.8448 66.5256 59.8405C66.0508 59.8366 65.7038 59.487 65.6995 59.0004C65.6839 57.1979 65.6699 55.3954 65.6565 53.5928C65.6549 53.3698 65.6151 53.1477 65.6474 52.9239C65.7175 52.4396 66.0704 52.149 66.5641 52.1722C66.9975 52.1924 67.3384 52.5587 67.3446 53.0234C67.353 53.6581 67.3605 54.2927 67.354 54.9274C67.3521 55.1031 67.3941 55.1566 67.5774 55.156C69.2358 55.1485 70.8945 55.1517 72.5529 55.1517V55.065Z" fill="#3C3F42"/>
<path d="M7.55906 52.6413C9.16689 52.6413 10.7747 52.6423 12.3822 52.6407C12.7788 52.64 13.1751 52.626 13.5716 52.626C14.0974 52.626 14.4669 52.9798 14.4656 53.4736C14.4643 53.9566 14.0784 54.3264 13.569 54.3294C12.4944 54.3349 11.4198 54.3375 10.3455 54.3444C9.55401 54.3493 8.95067 54.6663 8.62779 55.417C8.48658 55.7448 8.44059 56.095 8.44223 56.4518C8.44712 57.4684 8.45299 58.4853 8.45494 59.5021C8.4556 59.8929 8.23774 60.1971 7.89008 60.3103C7.52449 60.4293 7.15792 60.3155 6.92538 60.0119C6.82102 59.8759 6.75971 59.7203 6.76101 59.5517C6.76852 58.4054 6.70981 57.259 6.75743 56.1133C6.77993 55.5762 6.92767 55.0619 7.17227 54.5824C7.25869 54.4129 7.24369 54.3744 7.04768 54.3767C5.19493 54.3965 3.34217 54.4106 1.48909 54.422C1.05566 54.4246 0.706044 54.1007 0.65745 53.6686C0.61114 53.2557 0.884438 52.8464 1.28949 52.7577C1.45582 52.7215 1.63324 52.729 1.80576 52.729C3.72342 52.7271 5.6414 52.7277 7.55906 52.7277C7.55906 52.699 7.55906 52.67 7.55906 52.6413Z" fill="#3C3F42"/>
<path d="M45.3934 12.0705C44.9625 12.0708 44.5304 12.1145 44.1022 12.0127C42.766 11.6951 41.8933 10.4809 41.9931 9.06451C42.0867 7.73911 43.143 6.6482 44.472 6.54905C45.182 6.49622 45.9011 6.44306 46.6075 6.56699C47.9744 6.80702 48.9156 8.05774 48.8331 9.48196C48.7496 10.9287 47.5837 12.045 46.1281 12.0698C45.8832 12.0741 45.6383 12.0705 45.3934 12.0705Z" fill="#3C3F42"/>
<path d="M13.0419 12.0824C12.5459 12.0801 12.0495 12.1147 11.5623 11.9663C10.335 11.5929 9.53243 10.3281 9.63125 9.04969C9.72681 7.81626 10.8376 6.48042 12.4758 6.52543C13.0012 6.54011 13.5282 6.47097 14.0523 6.53848C15.3891 6.71035 16.3421 7.70407 16.4673 9.04578C16.5932 10.3956 15.7511 11.6281 14.46 11.9806C13.9946 12.1078 13.5171 12.0824 13.0419 12.0824Z" fill="#3C3F42"/>
<path d="M76.0378 12.0706C75.5564 12.0791 75.0731 12.1179 74.6005 11.9747C73.3371 11.5928 72.5651 10.4524 72.6375 9.06499C72.7004 7.8596 73.6648 6.75695 74.8995 6.57562C75.6816 6.46082 76.4862 6.43343 77.2689 6.57138C78.5786 6.80261 79.5036 7.98581 79.4824 9.32817C79.4579 10.8737 78.2721 12.055 76.7292 12.0703C76.4986 12.0726 76.2683 12.0706 76.0378 12.0706Z" fill="#3C3F42"/>
<path d="M67.7222 12.0829C67.1756 12.0852 66.6296 12.1142 66.0997 11.9188C64.9142 11.4818 64.1651 10.2288 64.3317 8.93832C64.4987 7.64521 65.5387 6.62376 66.8165 6.54941C67.5621 6.50603 68.3154 6.43298 69.0567 6.59311C70.3981 6.88271 71.3595 8.29682 71.1492 9.65223C70.9228 11.1133 69.8169 12.0659 68.3278 12.0826C68.1259 12.0848 67.9241 12.0829 67.7222 12.0829Z" fill="#3C3F42"/>
<path d="M71.8803 5.90761C71.4704 5.91185 71.0591 5.95001 70.6502 5.88217C69.5162 5.69367 68.5013 4.61417 68.4188 3.37748C68.3252 1.97511 69.2259 0.712976 70.6009 0.422393C70.9636 0.345752 71.3328 0.354884 71.6997 0.362059C72.2022 0.371842 72.7064 0.313139 73.2057 0.440004C74.492 0.766463 75.3576 2.04751 75.2636 3.36835C75.1678 4.71364 73.936 5.9761 72.4635 5.90891C72.2694 5.90011 72.0747 5.90761 71.8803 5.90761Z" fill="#3C3F42"/>
<path d="M57.6785 51.887C58.3819 51.9199 58.9934 52.1808 59.4461 52.776C60.8902 54.6748 62.3389 56.5703 63.7853 58.4674C64.1026 58.8838 64.054 59.4056 63.6738 59.6979C63.2755 60.0038 62.7619 59.9219 62.44 59.5002C61.1016 57.7469 59.7628 55.9933 58.4253 54.2391C58.302 54.0773 58.1598 53.9341 58.0075 53.8017C57.7574 53.5839 57.5258 53.5891 57.276 53.8148C56.9518 54.1076 56.7275 54.4817 56.4698 54.8281C55.2912 56.4121 54.1187 58.001 52.9424 59.5867C52.6326 60.0038 52.1104 60.0954 51.7269 59.8074C51.3365 59.5146 51.2723 58.9944 51.5752 58.5799C52.9659 56.6762 54.3549 54.7716 55.7481 52.87C56.2181 52.2288 56.8602 51.9088 57.6785 51.887Z" fill="#3C3F42"/>
<path d="M21.3956 6.4571C21.9203 6.44927 22.4444 6.41764 22.9558 6.59375C24.1684 7.01185 24.9015 8.21006 24.7724 9.58308C24.6618 10.7591 23.6609 11.8174 22.4663 11.9596C21.709 12.0499 20.9393 12.0741 20.1824 11.9593C18.813 11.7522 17.7778 10.3508 17.9432 8.97288C18.1023 7.64357 19.0054 6.69159 20.3161 6.48384C20.6732 6.42709 21.0359 6.46362 21.3956 6.4571Z" fill="#3C3F42"/>
<path d="M53.6735 12.0038C53.2205 12.0074 52.7675 12.037 52.3197 11.9209C50.344 11.4073 49.6148 8.81061 51.0285 7.33812C51.6006 6.74227 52.2858 6.43799 53.1093 6.45789C53.6135 6.46995 54.1167 6.41875 54.6212 6.45495C56.0657 6.55866 57.1761 7.83547 57.1543 9.28578C57.1324 10.724 55.9059 12.0498 54.3006 12.0044C54.0916 11.9985 53.8825 12.0038 53.6735 12.0038Z" fill="#3C3F42"/>
<path d="M33.9255 56.3294C33.9255 57.3029 33.9262 58.2764 33.9252 59.2499C33.9248 59.7479 33.5994 60.1148 33.1418 60.1363C32.6376 60.1598 32.2515 59.8232 32.2254 59.3073C32.2052 58.9045 32.2202 58.4998 32.2169 58.096C32.2032 56.5025 32.1872 54.909 32.1758 53.3159C32.1729 52.8818 32.4908 52.5143 32.8913 52.4715C33.3694 52.421 33.754 52.6724 33.8573 53.1088C33.8769 53.192 33.8808 53.28 33.8808 53.3661C33.8825 54.354 33.8821 55.3415 33.8821 56.3294C33.8965 56.3294 33.9112 56.3294 33.9255 56.3294Z" fill="#3C3F42"/>
</svg>
