<svg width="77" height="67" viewBox="0 0 77 67" fill="none" xmlns="http://www.w3.org/2000/svg">
<g clip-path="url(#clip0_1242_4385)">
<path d="M33.5321 37.012L26.416 32.9035V24.6871L33.5321 28.7948V37.012Z" fill="#11024C"/>
<path d="M33.5321 12.3616L26.416 16.4701V24.6865L33.5321 20.5788V12.3616Z" fill="#11024C"/>
<path d="M40.6473 0.0364532L33.5312 4.14517V12.3613L40.6473 8.25287V0.0364532Z" fill="#11024C"/>
<path d="M19.2997 12.3616L12.1836 16.4701V24.6865L19.2997 20.5788V12.3616Z" fill="#11024C"/>
<path d="M26.413 24.6865L19.2969 20.5781V12.3616L26.413 16.4701V24.6865Z" fill="#652D90"/>
<path d="M54.8798 24.687L47.7637 20.5785V12.3621L54.8798 16.4706V24.687Z" fill="#0070B8"/>
<path d="M5.06641 37.0119L12.1825 41.1204L19.2983 37.0119L12.1825 32.9034L5.06641 37.0119Z" fill="#90278E"/>
<path d="M19.2988 37.0119L26.4149 41.1204L33.5307 37.0119L26.4149 32.9034L19.2988 37.0119Z" fill="#90278E"/>
<path d="M26.4141 24.6869L33.5301 28.7954L40.646 24.6869L33.5301 20.5785L26.4141 24.6869Z" fill="#44C7F4"/>
<path d="M40.6465 24.6869L47.7626 28.7954L54.8784 24.6869L47.7626 20.5785L40.6465 24.6869Z" fill="#44C7F4"/>
<mask id="mask0_1242_4385" style="mask-type:luminance" maskUnits="userSpaceOnUse" x="0" y="-5" width="77" height="77">
<path d="M0 -5H77V72H0V-5Z" fill="white"/>
</mask>
<g mask="url(#mask0_1242_4385)">
<path d="M33.5321 42.8245C33.5313 44.2002 33.5306 51.3879 33.5306 53.3242L26.366 53.3226C26.3036 53.3226 26.2433 53.345 26.1971 53.3904L24.075 56.9863C24.011 57.1044 23.9892 57.1544 24.0249 57.2422C24.0596 57.3302 24.145 57.3864 24.2408 57.3864H48.7411C49.8515 57.3579 50.8263 56.8305 51.4585 56.0223C52.0894 56.8305 53.0603 57.3579 54.1691 57.3872L71.6961 57.3864C71.825 57.3864 71.9312 57.284 71.9312 57.1575V53.5524C71.9312 53.4908 71.9043 53.4345 71.8619 53.3912C71.8165 53.3496 71.7572 53.3242 71.6961 53.3242H62.3902L62.3909 47.6262C62.3909 47.1213 62.788 46.7124 63.2947 46.697L69.5524 46.6994C69.6156 46.6994 69.6767 46.677 69.7229 46.6316L71.865 43.0026C71.9289 42.8845 71.9515 42.8345 71.9158 42.7459C71.8796 42.6563 71.7934 42.5986 71.6969 42.5986H62.2274C60.093 42.5986 58.2925 44.2903 58.2925 46.2907V53.3242H54.7636V53.3219V35.444C54.7636 35.349 54.7074 35.2636 54.6188 35.2281C54.5308 35.1925 54.4815 35.2151 54.3634 35.279L50.7621 37.4034C50.7175 37.4496 50.6959 37.5099 50.6959 37.5715V53.3219V53.3242H47.1688V46.2522C47.1688 44.2718 45.3821 42.5963 43.2677 42.5963H33.7634C33.5436 42.5963 33.5321 42.8245 33.5321 42.8245ZM43.1073 53.3242H38.5338H38.522C38.0248 53.3242 37.6113 52.921 37.6028 52.4266V52.4135V46.697H42.2121C42.7138 46.7124 43.1073 47.1159 43.1073 47.6169V53.3242Z" fill="#808184"/>
<path d="M56.0039 60.1879C56.0039 60.1278 56.0439 60.0875 56.1043 60.0875H60.4743C60.5351 60.0875 60.5751 60.1278 60.5751 60.1879V61.2605C60.5751 61.3206 60.5351 61.3608 60.4743 61.3608H57.5377C57.4977 61.3608 57.4774 61.3809 57.4774 61.4209V62.7743C57.4774 62.8144 57.4977 62.8344 57.5377 62.8344H59.9838C60.0431 62.8344 60.0831 62.8744 60.0831 62.9347V63.9966C60.0831 64.0574 60.0431 64.0974 59.9838 64.0974H57.5377C57.4977 64.0974 57.4774 64.1174 57.4774 64.1577V65.5704C57.4774 65.6105 57.4977 65.6313 57.5377 65.6313H60.4743C60.5351 65.6313 60.5751 65.6705 60.5751 65.7309V66.8035C60.5751 66.8635 60.5351 66.9036 60.4743 66.9036H56.1043C56.0439 66.9036 56.0039 66.8635 56.0039 66.8035V60.1879Z" fill="#808184"/>
<path d="M63.1327 66.9639C62.0601 66.9639 61.6289 66.4926 61.6289 65.42V60.1879C61.6289 60.127 61.6692 60.087 61.7293 60.087H62.9323C62.9923 60.087 63.0324 60.127 63.0324 60.1879V65.3099C63.0324 65.6405 63.1627 65.7709 63.4535 65.7709H63.664C63.7241 65.7709 63.7644 65.8109 63.7644 65.8712V66.8635C63.7644 66.9238 63.7241 66.9639 63.664 66.9639H63.1327Z" fill="#808184"/>
<path d="M70.63 66.9036C70.5699 66.9036 70.5296 66.8635 70.5296 66.8032V64.0163C70.5296 63.485 70.2691 63.1342 69.7678 63.1342C69.2866 63.1342 69.016 63.485 69.016 64.0163V66.8032C69.016 66.8635 68.976 66.9036 68.9157 66.9036H67.7127C67.6526 66.9036 67.6126 66.8635 67.6126 66.8032V64.0163C67.6126 63.485 67.3618 63.1342 66.8606 63.1342C66.3796 63.1342 66.0988 63.485 66.0988 64.0163V66.8032C66.0988 66.8635 66.0587 66.9036 65.9987 66.9036H64.7964C64.7361 66.9036 64.6953 66.8635 64.6953 66.8032V62.1527C64.6953 62.0923 64.7361 62.0515 64.7964 62.0515H65.9987C66.0587 62.0515 66.0988 62.0923 66.0988 62.1527V62.4927H66.1088C66.3293 62.1919 66.7404 61.9414 67.3618 61.9414C67.9534 61.9414 68.3844 62.1527 68.6652 62.5528H68.6752C69.0361 62.1727 69.5173 61.9414 70.199 61.9414C71.3417 61.9414 71.9331 62.6732 71.9331 63.7458V66.8032C71.9331 66.8635 71.893 66.9036 71.833 66.9036H70.63Z" fill="#808184"/>
</g>
</g>
<defs>
<clipPath id="clip0_1242_4385">
<rect width="77" height="67" fill="white"/>
</clipPath>
</defs>
</svg>
