<svg width="51" height="77" viewBox="0 0 51 77" fill="none" xmlns="http://www.w3.org/2000/svg">
<path d="M34.2485 45.4326C34.2485 36.2481 34.2467 27.0635 34.2542 17.8789C34.2545 17.4386 34.1814 16.9932 34.4074 16.5592C34.9642 15.4899 36.3438 15.1504 37.2991 15.8811C37.4661 16.009 37.6214 16.1544 37.7707 16.3034C41.7483 20.2722 45.7204 24.2462 49.7058 28.2069C50.1777 28.6761 50.3803 29.2127 50.3803 29.8565C50.3791 40.2648 50.3779 50.6731 50.3827 61.0814C50.383 61.7667 50.1446 62.3213 49.6607 62.8059C45.7129 66.7615 41.7732 70.7252 37.8291 74.6844C37.638 74.8767 37.4417 75.069 37.2248 75.2298C36.2024 75.9861 34.8372 75.5563 34.4071 74.3558C34.3159 74.1014 34.2482 73.8553 34.2482 73.5748C34.256 64.1943 34.2548 54.8134 34.2548 45.4326H34.2485Z" fill="#CB2E79"/>
<path d="M32.386 30.3529C32.386 39.566 32.3866 48.7792 32.3838 57.992C32.3838 58.3367 32.404 58.6819 32.2972 59.0226C31.8671 60.3913 30.3469 60.841 29.261 59.9125C29.1006 59.7753 28.9426 59.6341 28.7933 59.4854C26.1415 56.8421 23.4873 54.2011 20.8424 51.5508C19.51 50.2157 18.1966 48.8613 16.8709 47.5196C16.4315 47.0748 16.2211 46.5686 16.2217 45.9233C16.2343 35.5322 16.2316 25.1413 16.228 14.7502C16.2277 14.1118 16.4306 13.5671 16.8775 13.1156C18.174 11.8067 19.4664 10.4939 20.772 9.19436C23.5008 6.47755 26.239 3.77006 28.9688 1.05414C29.4491 0.576511 29.9737 0.28788 30.6885 0.370647C31.6122 0.477489 32.2009 1.05384 32.3384 1.85561C32.389 2.15056 32.3841 2.45724 32.3841 2.75881C32.3863 11.9569 32.386 21.1547 32.386 30.3529Z" fill="#662577"/>
<path d="M30.1589 65.1023C29.8748 65.0995 29.5955 65.0791 29.3331 65.2485C28.8241 65.5772 28.5548 66.3471 28.7146 67.0853C28.8636 67.7739 29.1423 68.0785 29.6349 68.0924C30.3052 68.1107 30.7013 67.7869 30.9297 67.122C31.082 66.6778 30.8984 66.2676 30.8936 65.8417C30.8854 65.1011 30.8803 65.1011 30.1589 65.1023ZM23.6457 74.1047C23.7854 73.3722 22.9484 72.7332 22.1078 72.7435C21.4947 72.7507 20.8007 73.3105 20.8305 74.1243C20.8594 74.9207 21.4544 75.609 22.1773 75.6156C23.0305 75.6231 23.6442 74.992 23.6457 74.1047ZM18.0622 68.0918C19.8969 68.0918 21.6524 68.0902 23.4076 68.0936C23.6325 68.0939 23.6918 67.9741 23.6857 67.7796C23.6734 67.3736 23.668 66.9676 23.6523 66.5619C23.6358 66.1352 23.3848 65.8932 23.0089 65.737C22.0374 65.3337 21.0983 65.4165 20.1933 65.9233C19.2986 66.4238 18.6072 67.1284 18.0622 68.0918ZM17.4338 66.9616C17.9114 66.62 18.1341 66.1803 18.486 65.8589C19.598 64.8428 20.8819 64.2806 22.4027 64.3826C23.265 64.4407 24.0309 64.7853 24.6654 65.3788C25.0317 65.7213 25.0572 66.2047 25.09 66.6646C25.1168 67.0402 25.1045 67.4194 25.0925 67.7965C25.0864 67.9942 25.1238 68.1098 25.3546 68.1077C26.0754 68.1008 26.7965 68.1053 27.5565 68.1053C27.3491 67.4648 27.1715 66.8822 27.3488 66.2309C27.6206 65.2326 28.528 64.33 29.5537 64.2147C30.4066 64.1187 31.2641 64.0724 32.1062 64.3601C32.2807 64.42 32.3656 64.4486 32.3469 64.6361C32.3102 65.0065 32.3499 65.3749 32.2795 65.7535C32.1952 66.2062 32.256 66.6859 32.2554 67.1539C32.2539 68.288 31.6833 68.8977 30.5754 69.0973C28.872 69.4043 27.1592 69.2186 25.4515 69.2622C25.118 69.2706 24.9928 69.3221 24.9949 69.6974C25.0049 71.4785 24.9811 73.2596 24.9633 75.0407C24.9591 75.4618 24.9227 75.8826 24.9179 76.3039C24.9149 76.5444 24.8011 76.6253 24.5802 76.6142C24.4598 76.6082 24.3379 76.6043 24.2181 76.6151C23.8416 76.6494 23.5401 76.604 23.6508 76.092C21.9537 76.8616 20.9298 76.8077 20.246 76.0171C19.3542 74.9854 19.3675 73.4483 20.0076 72.6108C20.4281 72.0609 20.9984 71.7307 21.7364 71.7091C22.4295 71.6889 23.0594 71.8219 23.6881 72.3194C23.6881 71.3271 23.6987 70.43 23.6812 69.5334C23.6764 69.283 23.4549 69.255 23.2439 69.2553C21.0249 69.2592 18.8059 69.2625 16.5866 69.2622C13.9904 69.2619 11.394 69.2556 8.79787 69.2598C8.50954 69.2604 8.47373 69.1617 8.55078 68.9068C8.80058 68.08 8.79335 68.0776 9.649 68.0773C10.2681 68.0773 10.8875 68.0653 11.506 68.0818C11.8864 68.0924 12.0784 68.006 12.0588 67.5575C12.0354 67.0203 12.0209 66.4828 11.9622 65.948C11.9165 65.5317 11.5574 65.0336 10.8872 65.1008C10.5958 65.1299 10.3779 65.0875 10.4089 64.7035C10.4267 64.4808 10.4944 64.3805 10.7298 64.3724C11.9923 64.3288 12.941 64.8091 13.3668 66.0756C13.5188 66.5276 13.4908 67.0513 13.4869 67.5419C13.4833 67.9717 13.6193 68.1525 14.0651 68.0975C14.5099 68.0421 14.9638 68.1525 15.4095 68.0394C15.8227 67.9346 15.9813 67.6593 15.9846 67.2533C15.9894 66.6802 16.0274 66.1069 16.0117 65.5344C16.0009 65.142 16.1423 64.9659 16.5378 64.9148C17.426 64.8001 17.4254 64.7856 17.4332 65.6955C17.4365 66.087 17.4338 66.4789 17.4338 66.9616Z" fill="#575757"/>
<path d="M1.13397 72.4241C1.27813 72.4446 1.34253 72.3239 1.4253 72.2487C2.2969 71.4568 3.36713 71.5068 4.1677 72.3859C4.38409 72.6237 4.44519 72.3474 4.53819 72.2679C5.2903 71.6278 6.08907 71.5381 6.88392 71.9937C7.21708 72.1849 7.379 72.503 7.41 72.8265C7.51685 73.9497 7.52527 75.0789 7.47862 76.2079C7.46719 76.4847 7.35041 76.5774 7.08707 76.5654C6.15137 76.5224 6.22179 76.7851 6.20674 75.7206C6.19621 74.9661 6.21698 74.2107 6.18206 73.4573C6.15528 72.887 5.55094 72.6035 5.08294 72.9439C4.6366 73.2683 4.33233 73.6999 4.34106 74.2961C4.35069 74.945 4.33233 75.5945 4.34858 76.2434C4.3549 76.4992 4.27545 76.5741 4.01872 76.5796C3.08874 76.6 3.08904 76.6099 3.08904 75.6721C3.08904 75.0534 3.09115 74.4343 3.08844 73.8152C3.08543 73.1362 2.984 72.9644 2.52894 72.8485C2.1738 72.7582 1.65102 73.0507 1.43704 73.4688C1.32207 73.6939 1.25435 73.9295 1.25857 74.1911C1.2694 74.855 1.25164 75.5196 1.26699 76.1835C1.27361 76.4562 1.22847 76.5826 0.906435 76.582C0.00775171 76.5802 0.00775171 76.597 0.00775171 75.6866C0.00775171 74.5544 0.0200913 73.4218 0.00022761 72.2899C-0.00549074 71.9663 0.0956338 71.8481 0.40623 71.8992C0.420978 71.9016 0.436628 71.8995 0.451676 71.8995C1.0518 71.8962 1.0518 71.8962 1.13397 72.4241Z" fill="#575757"/>
<path d="M12.6049 74.2533C12.6115 73.3678 12.1809 72.8005 11.4971 72.7936C10.5623 72.784 9.86131 73.3814 9.87184 74.1789C9.88178 74.9193 10.5951 75.6206 11.3478 75.6139C12.0563 75.6076 12.6663 75.1026 12.6049 74.2533ZM12.6061 72.3722C12.7485 72.2091 12.5857 71.9437 12.8093 71.9178C13.1337 71.8805 13.472 71.8455 13.7907 71.947C13.8912 71.9792 13.8425 72.1387 13.8428 72.2401C13.8452 73.5683 13.8392 74.8967 13.8485 76.2252C13.8506 76.5147 13.7576 76.6454 13.4557 76.6168C13.2613 76.5984 13.0639 76.6107 12.8677 76.6137C12.7545 76.6156 12.6176 76.5948 12.6121 76.4798C12.5893 75.9796 12.393 76.1915 12.152 76.3326C11.064 76.9698 9.57148 76.6866 8.99393 75.6747C8.26198 74.392 8.50335 72.9492 9.71715 72.0448C10.4151 71.5244 11.7776 71.5073 12.4535 72.2564C12.4908 72.2976 12.5435 72.3253 12.6061 72.3722Z" fill="#575757"/>
<path d="M18.6619 75.0596C18.6577 75.9228 18.1391 76.4919 17.2775 76.6319C16.5205 76.755 15.8343 76.6436 15.2411 76.1347C15.1099 76.0218 14.9531 75.9243 15.149 75.7004C15.3185 75.5069 15.4178 75.245 15.7449 75.3793C16.0173 75.4912 16.2858 75.6119 16.5536 75.7344C16.9025 75.8936 17.21 75.7747 17.3572 75.4768C17.5327 75.1219 17.2416 74.9323 16.9482 74.8068C16.5714 74.6455 16.1868 74.5125 15.828 74.2985C15.2887 73.9768 15.128 73.2355 15.2496 72.8207C15.4328 72.1956 15.9135 71.8339 16.5582 71.8059C17.1279 71.7809 17.694 71.7252 18.2174 72.0391C18.4705 72.1911 18.5867 72.2838 18.5277 72.3545C18.3465 72.5721 18.3218 72.9917 17.8806 72.8939C17.6067 72.8331 17.3292 72.7807 17.0635 72.6937C16.7887 72.6037 16.6162 72.7374 16.5151 72.9429C16.3989 73.1798 16.5615 73.3432 16.7652 73.4383C17.1113 73.5999 17.461 73.7564 17.818 73.8922C18.4148 74.1194 18.6649 74.452 18.6619 75.0596Z" fill="#575757"/>
<path d="M7.47465 66.8389C7.41505 67.5784 7.47705 68.3865 7.35486 69.2003C7.17609 70.3909 6.42126 71.0052 5.41995 71.4419C5.2183 71.5298 4.9983 71.5773 4.80207 71.6748C4.56732 71.7913 4.45174 71.6411 4.36988 71.4876C4.29916 71.3546 4.32715 71.2324 4.50592 71.1307C4.78792 70.9706 5.01365 70.709 5.29926 70.5589C5.75613 70.319 5.94303 69.9283 5.97343 69.463C6.07335 67.92 6.08358 66.3763 5.75282 64.8556C5.71038 64.6596 5.76907 64.6855 5.89126 64.6374C6.28402 64.4818 6.70387 64.4661 7.10987 64.3876C7.42228 64.3268 7.47495 64.5729 7.47495 64.8227C7.47434 65.4719 7.47465 66.1208 7.47465 66.8389Z" fill="#575757"/>
<path d="M27.286 72.7128C27.7624 72.2707 28.1636 71.9228 28.6981 71.7687C28.9868 71.6856 29.1327 71.7076 29.0849 72.0483C29.0786 72.0928 29.0765 72.1404 29.0852 72.1837C29.1881 72.6981 28.982 72.928 28.4616 73.0424C27.7071 73.2079 27.4446 73.7653 27.3721 74.6703C27.3306 75.1865 27.3805 75.7107 27.4058 76.2308C27.4181 76.4872 27.3215 76.5616 27.0687 76.5691C26.1836 76.595 26.1839 76.6049 26.1839 75.7083C26.1839 74.577 26.1977 73.4451 26.1752 72.314C26.1685 71.977 26.2546 71.8379 26.5962 71.8978C26.6693 71.9104 26.7482 71.9095 26.8216 71.8978C27.1683 71.8418 27.3309 71.973 27.2875 72.3339C27.2773 72.4194 27.286 72.507 27.286 72.7128Z" fill="#575757"/>
</svg>
