<svg width="93" height="65" viewBox="0 0 93 65" fill="none" xmlns="http://www.w3.org/2000/svg">
<g clip-path="url(#clip0_1242_4193)">
<mask id="mask0_1242_4193" style="mask-type:luminance" maskUnits="userSpaceOnUse" x="-5" y="-18" width="104" height="104">
<path d="M-4.37891 -17.7756H98.6682V85.2715H-4.37891V-17.7756Z" fill="white"/>
</mask>
<g mask="url(#mask0_1242_4193)">
<path d="M48.3092 45.7367C47.7362 45.3674 47.0623 45.1857 46.3812 45.217H43.3444C43.0737 45.2427 42.8048 45.1545 42.6021 44.9734C42.4372 44.779 42.3541 44.529 42.3699 44.2748V43.8932C42.3455 43.6514 42.4159 43.4095 42.5664 43.2189C42.7374 43.0757 42.958 43.0056 43.1802 43.0238H48.6407V41.0587H43.5086C43.072 41.0546 42.6361 41.0978 42.2088 41.1885C41.8426 41.2682 41.5033 41.4417 41.2237 41.6921C40.9509 41.947 40.75 42.2691 40.6408 42.626C40.5113 43.0719 40.4508 43.5346 40.4618 43.9986V44.429C40.3831 45.1833 40.6765 45.9287 41.2481 46.4268C41.8605 46.8166 42.5798 47.0042 43.3045 46.9629H46.3008C46.5368 46.9461 46.7707 47.0182 46.9562 47.1659C47.1073 47.3147 47.1839 47.5232 47.165 47.7344V48.4898C47.165 49.0582 46.9156 49.2939 46.3008 49.2939H40.6796V51.2511H46.3609C47.1403 51.3239 47.9107 51.0367 48.4521 50.4713C48.9127 49.8246 49.1339 49.038 49.0783 48.2459V47.6286C49.1494 46.91 48.8615 46.2021 48.3092 45.7367Z" fill="#76777B"/>
<path d="M67.9282 41.0671H63.7139V43.1057H67.9282C68.7031 43.1057 69.049 43.5117 69.049 44.4295V44.8599H65.6996C64.0533 44.8599 63.1818 45.7045 63.1818 47.2884V48.6933C63.1354 49.383 63.3577 50.0641 63.8015 50.5938C64.3136 51.0685 65.0009 51.3072 65.6972 51.2519H70.9526V44.3728C70.955 42.204 69.9091 41.0671 67.9282 41.0671ZM69.049 46.6873V49.3188H65.8092C65.2592 49.3188 65.036 49.0831 65.036 48.5064V47.5319C65.036 46.9308 65.2592 46.6873 65.8092 46.6873H69.049Z" fill="#76777B"/>
<path d="M73.3998 42.6748H74.7384L75.2378 38.963H72.9004L73.3998 42.6748Z" fill="#76777B"/>
<path d="M81.765 41.0182H77.5507V43.065H81.765C82.5406 43.065 82.8858 43.471 82.8858 44.3806V44.8192H79.5357C77.8907 44.8192 77.0179 45.656 77.0179 47.2477V48.6526C76.9709 49.3399 77.1931 50.0187 77.6376 50.5452C78.1483 51.022 78.8353 51.2635 79.5323 51.2113H84.7894V44.3239C84.7935 42.1634 83.7465 41.0182 81.7656 41.0182H81.765ZM82.8858 46.6384V49.2778H79.6453C79.096 49.2778 78.8721 49.0425 78.8721 48.4657V47.4913C78.8721 46.8902 79.096 46.6384 79.6453 46.6384H82.8858Z" fill="#76777B"/>
<path d="M92.9455 42.8861V41.067H90.5902V37.8426H88.6289V47.8894C88.6289 50.6668 90.2062 51.2515 91.5276 51.2515H92.9081V49.3348H91.6575C91.1611 49.3348 90.5926 49.1806 90.5926 47.9461V42.8861" fill="#76777B"/>
<path d="M22.7036 41.0343H20.315C18.5794 41.0584 17.1903 42.4822 17.2092 44.2182V48.0677C17.1903 49.8033 18.5794 51.2274 20.315 51.2515H22.7036C24.4393 51.2267 25.828 49.8033 25.8095 48.0677V44.2182C25.828 42.4825 24.4393 41.0591 22.7036 41.0343ZM23.9007 44.2182V48.0677C23.9052 48.7354 23.3714 49.2826 22.7036 49.2939H20.315C19.6473 49.2826 19.1135 48.7354 19.118 48.0677V44.2182C19.1135 43.5501 19.6473 43.0032 20.315 42.9916H22.7036C23.3714 43.0032 23.9052 43.5501 23.9007 44.2182Z" fill="#76777B"/>
<path d="M36.9462 45.2493C36.9325 42.3661 35.0069 41.0505 33.2217 41.0505H29.0391V51.235H30.9475V43.0081H33.2176C34.2113 43.0733 34.9945 43.8805 35.0295 44.876V50.8616L35.0498 51.2354H36.9431V45.2658" fill="#76777B"/>
<path d="M14.6296 45.2658V45.2497C14.6175 42.667 13.0711 41.3511 11.4622 41.0993L11.4327 41.0505H9.40233L9.425 41.0749C8.512 41.1859 7.67148 41.6279 7.06247 42.3177C6.36278 41.5187 5.3543 41.0574 4.29222 41.0505H0.125V51.2354H2.03343V43.0081H4.29154C5.28903 43.0235 6.09314 43.8297 6.10654 44.8272V50.943V51.2354H8.016V50.943V44.8272C8.01429 43.8242 8.82595 43.0098 9.82895 43.0081H9.83032H10.9058C11.8992 43.0737 12.6813 43.8809 12.7153 44.876V50.862L12.7356 51.2354H14.6289" fill="#76777B"/>
<path d="M60.3887 45.2655V45.2493C60.3756 42.3661 58.45 41.0505 56.6632 41.0505H54.3958V37.8423H52.4863V51.235H54.3972V43.0077H56.6649C57.6589 43.073 58.4421 43.8802 58.4775 44.876V50.8616L58.4971 51.2354H60.3887" fill="#76777B"/>
<path d="M76.2206 16.5801C76.2206 15.167 73.2635 13.7861 73.2635 13.7861C73.2635 13.7861 70.2518 16.6776 70.3541 16.7669L73.6891 19.5605C73.6891 19.5605 76.2206 17.9932 76.2206 16.5801Z" fill="#007298"/>
<path d="M59.0495 16.7666L62.3793 19.5605C62.3793 19.5605 64.9118 17.9929 64.9118 16.5797C64.9118 15.1666 61.9554 13.7861 61.9554 13.7861C61.9554 13.7861 58.9464 16.6773 59.0495 16.7666Z" fill="#007298"/>
<path d="M57.415 16.5796C57.415 15.1665 54.4578 13.7856 54.4578 13.7856C54.4578 13.7856 51.4454 16.6771 51.5495 16.7665L54.8834 19.5601C54.8834 19.5601 57.415 17.9927 57.415 16.5796Z" fill="#007298"/>
<path d="M60.3719 10.8945C60.3719 9.48142 57.4165 8.10058 57.4165 8.10058C57.4165 8.10058 54.4048 10.9921 54.5064 11.0731L57.8403 13.875C57.8403 13.875 60.3719 12.2994 60.3719 10.8945Z" fill="#007298"/>
<path d="M92.9411 22.1924C92.9095 21.3804 92.4132 18.3996 88.3929 18.3996H86.0084L79.9984 24.7102V30.1435C79.9994 30.4197 80.0303 30.6945 80.0908 30.9638C78.3307 30.972 76.2574 30.972 75.2355 29.234C74.8522 28.5157 74.665 27.7089 74.6932 26.8952V21.7947L71.5386 25.0273V30.1439C71.5399 30.4183 71.5599 30.6924 71.5987 30.9641C69.8428 30.9724 67.7815 30.9724 66.7647 29.2343C66.3807 28.5161 66.1932 27.7092 66.2206 26.8955V19.1879L63.066 22.4202V30.1439C63.0678 30.4183 63.0877 30.6924 63.1261 30.9645C62.3014 30.8553 61.5251 30.5114 60.8904 29.9735C59.9678 29.2237 59.4288 28.1005 59.4209 26.9116V20.804L56.2666 24.0366V30.1439C56.269 30.4197 56.3003 30.6948 56.359 30.9645C55.5213 30.8669 54.7316 30.5217 54.0906 29.9735C53.1684 29.2237 52.6298 28.1005 52.6232 26.9116V19.1879L49.4686 22.4202V30.1439C49.471 30.4197 49.5019 30.6948 49.5603 30.9645C47.7979 30.9724 45.7187 30.9806 44.6948 29.2347C44.3111 28.5161 44.1236 27.7096 44.1514 26.8955V7.26537L40.9961 10.498V30.339L41.0043 30.3228C40.9535 31.569 41.5247 32.7589 42.5287 33.4984C43.3988 33.9927 44.3874 34.2397 45.3876 34.2129C45.805 34.2211 46.2216 34.1967 46.6383 34.1967C46.7935 34.1967 47.1109 33.8639 47.1782 33.8069C47.577 33.4496 47.9573 33.0759 48.3269 32.6943C48.6965 32.3123 49.0698 31.9307 49.4102 31.5165C49.4339 31.4921 49.5305 31.354 49.6222 31.2159C49.8472 31.9977 50.3057 32.6919 50.9364 33.2058C51.6354 33.8089 52.515 34.1631 53.437 34.2129C53.5898 34.2129 53.9137 33.88 53.978 33.823C54.3757 33.4658 54.7567 33.0921 55.1256 32.7101C55.4941 32.3285 55.8679 31.9469 56.2089 31.5326C56.2309 31.5082 56.3316 31.3622 56.424 31.2321C56.6503 32.008 57.1075 32.696 57.7351 33.2054C58.4341 33.8086 59.3137 34.1631 60.2357 34.2125C60.3882 34.2125 60.7118 33.8797 60.7774 33.8227C61.1744 33.4654 61.5547 33.0921 61.925 32.7101C62.2952 32.3281 62.6666 31.9465 63.0083 31.5323C63.0272 31.5079 63.1042 31.4024 63.1838 31.2887C63.3374 32.1863 63.8482 32.9832 64.5994 33.4977C65.4691 33.992 66.4577 34.2393 67.4576 34.2125C67.8749 34.2204 68.2916 34.196 68.7082 34.196C68.8635 34.196 69.1819 33.8632 69.2475 33.8062C69.6456 33.449 70.0265 33.0756 70.3958 32.6936C70.7654 32.3117 71.1384 31.93 71.4795 31.5161C71.4998 31.4917 71.5743 31.3859 71.6533 31.2723V31.2884C71.8068 32.1859 72.3173 32.9828 73.0681 33.4977C73.9382 33.9917 74.9268 34.239 75.927 34.2122C76.3443 34.2204 76.7617 34.196 77.1783 34.196C77.3319 34.196 77.6503 33.8632 77.7176 33.8062C78.1164 33.449 78.4966 33.0752 78.8652 32.6933C79.2341 32.3117 79.6085 31.93 79.9496 31.5158C79.9716 31.4914 80.0626 31.3616 80.1502 31.2314C80.8111 33.4569 83.5068 34.2122 85.6674 34.2122H86.4048L92.9476 27.6251C92.9476 27.6251 92.9442 22.2738 92.9411 22.1924ZM85.9823 30.6389C83.005 30.6389 83.1602 28.097 83.1479 26.911V21.5669H87.696C89.2733 21.5669 89.7851 23.9628 89.7851 26.7564C89.7851 26.8217 89.7851 29.8997 89.7899 30.6389H85.9823Z" fill="#007298"/>
<path d="M20.0985 18.9512L23.5372 21.8344C23.5372 21.8344 26.1961 20.1857 26.1961 18.6994C26.1961 17.2131 23.092 15.7674 23.092 15.7674C23.092 15.7674 20.5598 18.2037 20.1105 18.7722C20.0686 17.3021 17.0098 15.8728 17.0098 15.8728C17.0098 15.8728 13.8473 18.9103 13.9559 18.9996L17.4557 21.9316C17.4557 21.9316 19.9384 20.3969 20.0985 18.9512Z" fill="#007298"/>
<path d="M44.7464 4.81952L48.5756 1.09162V-0.09411L46.0767 2.28559L40.6935 0.48261L40.4256 0.392959L36.6895 4.08857V5.25781L38.9987 2.94303L44.4963 4.73811" fill="#007298"/>
<path d="M36.8273 22.663C36.604 22.257 36.0874 21.5017 36.0874 21.5017L32.6285 24.8559C32.6285 24.8559 34.1244 27.3819 34.1487 28.9492C34.1584 29.5991 34.1487 28.9248 34.1487 29.5747V30.8336H6.87287C4.43615 30.8336 3.44792 30.1511 3.4438 26.8134L5.11591 25.0994V23.1745L0.125 28.2994C0.125 28.3237 0.125 30.135 0.130152 30.192C0.127748 31.0566 0.376777 31.9029 0.847016 32.6284C1.27123 33.2082 1.86443 33.6423 2.54558 33.8711C3.67497 34.1912 4.8528 34.3067 6.02307 34.2122H32.5309L37.6152 29.6397V28.186C37.6135 26.3016 37.7815 24.3688 36.8273 22.663Z" fill="#007298"/>
<path d="M1.68109 62.435C1.64125 62.4267 1.50248 62.3944 1.26375 62.3295C1.0975 62.2945 0.934346 62.2457 0.77634 62.1832C0.705581 62.1585 0.643409 62.1131 0.597725 62.0534C0.565437 61.9908 0.54998 61.9208 0.553071 61.8504V61.7772C0.555132 61.6649 0.609404 61.5598 0.700085 61.4928C0.830955 61.4021 0.989304 61.3592 1.14834 61.3712C1.32524 61.3571 1.50179 61.4028 1.64949 61.501C1.76113 61.5917 1.82158 61.7312 1.81196 61.8747V61.9153H2.23892V61.8747C2.24098 61.7583 2.22106 61.6425 2.17984 61.5337C2.14377 61.4368 2.08847 61.3485 2.01737 61.2736C1.94661 61.2049 1.86417 61.15 1.77384 61.1112C1.67938 61.0699 1.58045 61.0397 1.47878 61.0219C1.3723 60.9985 1.26307 60.9875 1.15384 60.9892C0.894157 60.9803 0.637913 61.0541 0.422889 61.2005C0.23706 61.3296 0.12783 61.5426 0.131609 61.7689V61.8095C0.124395 61.984 0.169393 62.1564 0.260761 62.3051C0.371021 62.4576 0.533836 62.5648 0.717947 62.6057C0.75367 62.6139 0.867365 62.6462 1.13529 62.7111C1.29913 62.75 1.46023 62.7987 1.61789 62.8575C1.69037 62.8825 1.75254 62.9313 1.79479 62.9952C1.82708 63.0581 1.84253 63.1281 1.83944 63.1982V63.2958C1.83704 63.406 1.78242 63.5087 1.69243 63.5723C1.56293 63.6657 1.40458 63.7117 1.24486 63.7021C1.06728 63.7138 0.890379 63.6654 0.743708 63.564C0.6307 63.4747 0.569559 63.3342 0.581581 63.1903V63.0605H0.14947V63.1903C0.147066 63.3071 0.167675 63.4229 0.210268 63.5314C0.244617 63.6289 0.299919 63.7179 0.372739 63.7914C0.443498 63.8598 0.526279 63.9147 0.616274 63.9539C0.711764 63.9958 0.811033 64.0284 0.912706 64.0514C1.02022 64.0679 1.12876 64.0758 1.23765 64.0758C1.49904 64.0854 1.757 64.0116 1.9734 63.8646C2.16129 63.7371 2.27121 63.5228 2.26571 63.2961V63.2312C2.27258 63.0567 2.22759 62.8839 2.13587 62.7355C2.02355 62.5858 1.8628 62.4796 1.68109 62.435Z" fill="#76777B"/>
<path d="M7.43871 61.7448C7.34254 61.764 7.25048 61.7997 7.16667 61.8502C7.07942 61.8976 7.00179 61.9612 6.93756 62.0371C6.86852 62.1267 6.81665 62.2288 6.78505 62.3376C6.74521 62.4692 6.72631 62.6063 6.72872 62.7437V62.9954C6.727 63.1328 6.74589 63.2699 6.78505 63.4018C6.81494 63.5086 6.8668 63.6082 6.93756 63.6941C7.00317 63.7703 7.08011 63.836 7.16598 63.8892C7.25186 63.9359 7.34357 63.9713 7.43871 63.9946C7.5373 64.0115 7.63691 64.0194 7.73686 64.019H8.68524V61.7122H7.73686C7.63656 61.7104 7.53626 61.7211 7.43871 61.7448ZM7.13266 62.8333C7.11412 62.63 7.16564 62.4266 7.27796 62.2566C7.39715 62.1333 7.56581 62.0708 7.73686 62.0859H8.28267V63.6453H7.73686C7.56752 63.6594 7.40059 63.6003 7.27796 63.4828C7.16461 63.3101 7.11343 63.104 7.13266 62.8982V62.8333Z" fill="#76777B"/>
<path d="M9.43359 64.0186H9.8396V60.8512H9.43359V64.0186Z" fill="#76777B"/>
<path d="M10.5801 64.0186H10.9861V60.8512H10.5801V64.0186Z" fill="#76777B"/>
<path d="M12.6747 62.1424C12.5858 62.062 12.5377 61.9456 12.5439 61.8257V61.7525C12.5408 61.643 12.593 61.5389 12.683 61.4764C12.8056 61.3939 12.9519 61.3541 13.0996 61.3627C13.247 61.3555 13.393 61.3922 13.5194 61.4681C13.6094 61.5344 13.6609 61.6409 13.6568 61.7525V61.9233H14.0628V61.7525C14.0628 61.6979 14.0569 61.6437 14.0456 61.5901C14.0288 61.5214 14.0016 61.4554 13.9645 61.3953C13.9247 61.317 13.8694 61.2483 13.8021 61.1923C13.7186 61.1264 13.6221 61.079 13.5187 61.0542C13.246 60.9673 12.953 60.9673 12.6806 61.0542C12.5775 61.0845 12.4814 61.1343 12.3969 61.2002C12.3295 61.2565 12.2746 61.3256 12.2344 61.4036C12.1973 61.4637 12.1698 61.5296 12.1533 61.5983C12.1423 61.6492 12.1368 61.7007 12.1361 61.7525V61.8419C12.1361 61.8886 12.1406 61.9346 12.1492 61.9799C12.1612 62.038 12.1774 62.0947 12.1973 62.1506C12.2237 62.218 12.2605 62.2808 12.3062 62.3372C12.3416 62.3801 12.3824 62.4186 12.4278 62.4509C12.2309 62.5965 12.121 62.8318 12.1361 63.0764V63.2144C12.1361 63.291 12.1461 63.3676 12.1664 63.4418C12.1887 63.5198 12.2237 63.594 12.2694 63.661C12.3182 63.7345 12.3811 63.798 12.4539 63.8478C12.5387 63.9076 12.6342 63.9519 12.7348 63.9777C12.8595 64.0052 12.9866 64.0189 13.1141 64.0185H14.0556V62.6295H14.3891V62.2561H13.0945C12.9458 62.2661 12.7974 62.2262 12.6741 62.1424H12.6747ZM13.1189 63.6452C12.9657 63.6555 12.8135 63.6122 12.6885 63.5232C12.593 63.4429 12.5397 63.3233 12.5439 63.1986V63.0767C12.5391 62.9579 12.5854 62.8428 12.6706 62.76C12.7606 62.67 12.8846 62.6226 13.0117 62.6302H13.6568V63.6455L13.1189 63.6452Z" fill="#76777B"/>
<path d="M17.0115 63.4016L16.1644 61.0707L16.1538 61.0463H15.5293V64.0186H15.9621V61.6876L16.7995 63.9942L16.8091 64.0186H17.2048L18.0632 61.6715V64.0186H18.4953V61.0463H17.8626" fill="#76777B"/>
<path d="M20.95 61.9885C20.8844 61.914 20.8068 61.8508 20.7202 61.8017C20.6354 61.7515 20.5423 61.7158 20.4458 61.6962C20.2493 61.6557 20.0466 61.6557 19.8505 61.6962C19.7529 61.7124 19.6599 61.7481 19.5767 61.8017C19.4898 61.8498 19.4125 61.913 19.3483 61.9885C19.2793 62.0785 19.2277 62.1802 19.1958 62.2891C19.1563 62.4179 19.1371 62.5522 19.1388 62.6872V63.0444C19.1371 63.1818 19.1563 63.3189 19.1958 63.4504C19.2277 63.5569 19.2793 63.6562 19.3483 63.7431C19.4094 63.8235 19.4867 63.8901 19.5757 63.9378C19.6612 63.9873 19.7536 64.023 19.8505 64.0433C19.9477 64.067 20.0477 64.078 20.1476 64.0759C20.2572 64.0746 20.3661 64.0612 20.4726 64.0354C20.5756 64.011 20.6742 63.9694 20.7642 63.9135C20.86 63.8468 20.9414 63.7613 21.0029 63.6617C21.0716 63.5504 21.1169 63.426 21.1358 63.2962L21.1448 63.2474H20.7274L20.7195 63.2801C20.6962 63.4058 20.6275 63.5184 20.5261 63.5968C20.4142 63.6737 20.2792 63.7111 20.1435 63.7022C19.9748 63.7159 19.8086 63.6569 19.6863 63.5397C19.5815 63.3876 19.53 63.2045 19.54 63.02H21.1564V62.6872C21.1585 62.5522 21.1393 62.4179 21.0994 62.2891C21.0685 62.1799 21.0166 62.0778 20.9469 61.9885H20.95ZM20.7552 62.6463H19.5448C19.5462 62.4784 19.6032 62.3155 19.7073 62.1833C19.8288 62.0768 19.9882 62.0243 20.1493 62.0373C20.3115 62.0243 20.4722 62.0768 20.5952 62.1833C20.6986 62.3155 20.7549 62.4784 20.7552 62.6463Z" fill="#76777B"/>
<path d="M23.2947 61.7125H22.7423C22.6427 61.7104 22.5431 61.7214 22.4459 61.7451C22.3483 61.7616 22.2549 61.7973 22.1714 61.8505C22.0825 61.8986 22.0049 61.9649 21.9434 62.0453C21.8743 62.1322 21.8228 62.2315 21.7912 62.338C21.752 62.4695 21.7328 62.6066 21.7345 62.744V62.9957C21.7325 63.1331 21.7514 63.2702 21.7912 63.4018C21.8214 63.5086 21.8733 63.6082 21.9434 63.6944C22.0097 63.7703 22.0866 63.8359 22.1721 63.8892C22.2583 63.9359 22.3501 63.9713 22.4452 63.9946C22.5434 64.0114 22.6427 64.0197 22.7423 64.019H23.6917V60.8517H23.2947M22.1388 62.8333C22.1206 62.6303 22.1718 62.4266 22.2845 62.2566C22.4036 62.1336 22.572 62.0711 22.7423 62.0862H23.2947V63.6453H22.7423C22.5733 63.6594 22.4067 63.6003 22.2845 63.4828C22.1711 63.3104 22.1196 63.1039 22.1388 62.8982V62.8333Z" fill="#76777B"/>
<path d="M24.4375 64.0186H24.8435V61.712H24.4375V64.0186Z" fill="#76777B"/>
<path d="M27.1438 62.9546C27.1616 63.1587 27.1152 63.363 27.0115 63.5393C26.8927 63.6588 26.7264 63.7186 26.5591 63.7017C26.3922 63.7189 26.2266 63.6591 26.1092 63.5393C26.0065 63.3624 25.9608 63.1583 25.9783 62.9546V61.7119H25.5723V63.0439C25.5716 63.181 25.5891 63.3174 25.6242 63.4499C25.652 63.5557 25.7001 63.655 25.7657 63.7423C25.8241 63.8223 25.8986 63.8886 25.9848 63.9374C26.0676 63.9882 26.1586 64.0239 26.2538 64.0428C26.3524 64.0665 26.454 64.0775 26.5557 64.0754C26.6574 64.0775 26.759 64.0665 26.858 64.0428C26.9531 64.0236 27.0445 63.9878 27.1276 63.9374C27.2135 63.8886 27.288 63.8223 27.3461 63.7423C27.4113 63.655 27.4594 63.5557 27.4872 63.4499C27.523 63.3174 27.5405 63.181 27.5391 63.0439V61.7119H27.1403" fill="#76777B"/>
<path d="M33.1797 64.0186H34.894V63.6448H33.6125V62.703H34.8219V62.3293H33.6125V61.4197H34.894V61.046H33.1797" fill="#76777B"/>
<path d="M41.4549 61.9883C41.3219 61.8399 41.1454 61.7372 40.9506 61.696C40.7542 61.6551 40.5515 61.6551 40.355 61.696C40.2578 61.7118 40.1647 61.7479 40.0816 61.8015C39.9947 61.8492 39.9174 61.9124 39.8532 61.988C39.7841 62.078 39.7323 62.18 39.7007 62.2889C39.6615 62.4177 39.6426 62.552 39.6447 62.6866V63.0439C39.6426 63.1813 39.6615 63.3183 39.7007 63.4502C39.7323 63.5564 39.7841 63.6556 39.8532 63.7425C39.9143 63.8229 39.9916 63.8895 40.0806 63.9376C40.1661 63.9871 40.2585 64.0228 40.355 64.0431C40.4526 64.0664 40.5525 64.0778 40.6525 64.0754C40.7621 64.0743 40.8709 64.0606 40.9774 64.0348C41.0805 64.0104 41.1791 63.9692 41.2687 63.9132C41.3649 63.8466 41.4459 63.7611 41.5067 63.6611C41.5772 63.5505 41.6228 63.4258 41.6407 63.2956L41.6489 63.2469H41.2323L41.2241 63.2795C41.201 63.4052 41.132 63.5182 41.031 63.5962C40.919 63.6735 40.784 63.7106 40.6484 63.7016C40.4797 63.7157 40.3131 63.6563 40.1912 63.5392C40.0861 63.387 40.0349 63.2043 40.0448 63.0195H41.661V62.6866C41.6634 62.552 41.6441 62.4177 41.6043 62.2889C41.5748 62.1796 41.5239 62.0776 41.4549 61.9883ZM41.2601 62.6461H40.0497C40.051 62.4781 40.1081 62.3153 40.2121 62.1831C40.3337 62.0766 40.4931 62.024 40.6542 62.0371C40.8163 62.024 40.9771 62.0766 41.1001 62.1831C41.2034 62.3153 41.2598 62.4781 41.2601 62.6461Z" fill="#76777B"/>
<path d="M45.6906 62.0372C45.6253 61.9619 45.5477 61.8991 45.4608 61.8503C45.3756 61.8001 45.2825 61.7644 45.1853 61.7448C45.0877 61.7211 44.9878 61.7105 44.8875 61.7122H43.9395V64.8799H44.3455V64.0188H44.8906C44.9905 64.0194 45.0901 64.0112 45.1887 63.9944C45.2842 63.971 45.3766 63.9356 45.4632 63.8889C45.549 63.8353 45.6267 63.7697 45.6937 63.6942C45.763 63.6073 45.8149 63.508 45.8465 63.4015C45.8853 63.2696 45.9046 63.1329 45.9032 62.9955V62.7437C45.9056 62.6063 45.8867 62.4693 45.8465 62.3377C45.8132 62.2281 45.7596 62.1265 45.6882 62.0372H45.6906ZM45.4972 62.833V62.8979C45.5171 63.1016 45.4652 63.3057 45.3502 63.4747C45.2293 63.598 45.0592 63.6608 44.8875 63.6454H44.3424V62.0859H44.8875C45.0592 62.0712 45.2289 62.1337 45.3502 62.2563C45.4639 62.4263 45.5157 62.6297 45.4972 62.833Z" fill="#76777B"/>
<path d="M48.1758 64.0186H48.5818V61.712H48.1758V64.0186Z" fill="#76777B"/>
<path d="M50.6143 62.7519C50.5648 62.7357 50.4357 62.7031 50.2495 62.6626C50.0637 62.6217 49.9191 62.5812 49.8435 62.5571C49.7799 62.5447 49.7215 62.5138 49.6762 62.4675C49.648 62.4242 49.6353 62.3727 49.6405 62.3215V62.305C49.6429 62.2256 49.6886 62.1539 49.76 62.1185C49.8806 62.0553 50.0163 62.0271 50.1523 62.0371C50.6775 62.0371 50.6775 62.2727 50.6775 62.3538V62.3943H51.0838V62.3538C51.0852 62.2408 51.0591 62.1295 51.0083 62.0288C50.9567 61.9395 50.8843 61.8643 50.797 61.8097C50.7067 61.7575 50.6081 61.7217 50.5054 61.7042C50.391 61.6733 50.2728 61.6596 50.1547 61.6634C49.927 61.6558 49.702 61.7121 49.5048 61.8258C49.341 61.9186 49.2396 62.0924 49.2393 62.2806V62.305C49.2314 62.4438 49.2702 62.5812 49.3499 62.6949C49.443 62.8044 49.5687 62.8814 49.7088 62.9143C49.7501 62.9222 49.8713 62.9549 50.0678 63.0037C50.2048 63.0346 50.3405 63.0723 50.4738 63.1173C50.538 63.1301 50.5971 63.1613 50.6445 63.2067C50.6747 63.2462 50.6885 63.2953 50.6833 63.3447V63.3935C50.6833 63.4667 50.6833 63.702 50.1959 63.702C49.6755 63.702 49.6755 63.4584 49.6755 63.3774V63.1988H49.2692V63.3774C49.2675 63.49 49.2936 63.6017 49.3447 63.702C49.3963 63.7913 49.4687 63.8665 49.556 63.9215C49.647 63.9726 49.7449 64.0111 49.8469 64.0348C49.9606 64.0616 50.0774 64.0753 50.1945 64.0757C50.3051 64.0733 50.4154 64.0626 50.5243 64.0431C50.6229 64.0187 50.718 63.9805 50.8059 63.9294C50.8925 63.8792 50.9636 63.806 51.0114 63.7185C51.0622 63.6175 51.088 63.5062 51.0862 63.3935V63.3609C51.0924 63.2225 51.0536 63.0857 50.9756 62.971C50.8819 62.8611 50.7551 62.7842 50.6143 62.7519Z" fill="#76777B"/>
<path d="M53.4656 61.9885C53.4004 61.9137 53.3227 61.8505 53.2358 61.8017C53.1524 61.7484 53.0589 61.7124 52.9614 61.6962C52.7646 61.6557 52.5619 61.6557 52.3651 61.6962C52.2689 61.7158 52.1765 61.7515 52.0924 61.8017C52.0058 61.8501 51.9285 61.9133 51.8639 61.9885C51.7945 62.0782 51.743 62.1802 51.7114 62.2891C51.6719 62.4179 51.6527 62.5522 51.6544 62.6872V63.0444C51.6534 63.1818 51.6726 63.3185 51.7114 63.4504C51.743 63.5569 51.7945 63.6562 51.8639 63.7431C51.9254 63.8231 52.0034 63.8898 52.0924 63.9378C52.1769 63.988 52.2689 64.0234 52.3651 64.0433C52.4626 64.067 52.5629 64.078 52.6632 64.0759C52.7728 64.0746 52.8817 64.0612 52.9882 64.0354C53.0912 64.011 53.1898 63.9694 53.2798 63.9135C53.3773 63.8489 53.4588 63.7627 53.5175 63.6617C53.5858 63.5528 53.6319 63.4312 53.6525 63.3044L53.6604 63.2474H53.2437L53.2358 63.2801C53.2121 63.4058 53.1431 63.5184 53.0418 63.5968C52.9298 63.6737 52.7948 63.7111 52.6591 63.7022C52.4908 63.7159 52.3246 63.6569 52.2026 63.5397C52.0972 63.3876 52.0453 63.2048 52.0556 63.02H53.6721V62.6872C53.6741 62.5522 53.6549 62.4179 53.615 62.2891C53.5858 62.1799 53.535 62.0778 53.4656 61.9885ZM53.2709 62.6463H52.0614C52.0621 62.4784 52.1195 62.3152 52.2239 62.1833C52.3452 62.0768 52.5045 62.0243 52.6656 62.0373C52.8278 62.0243 52.9885 62.0768 53.1115 62.1833C53.2156 62.3152 53.2716 62.4784 53.2709 62.6463Z" fill="#76777B"/>
<path d="M55.6312 62.7514C55.5801 62.7352 55.4468 62.7026 55.2664 62.6621C55.0861 62.6212 54.936 62.5807 54.8604 62.5566C54.7533 62.5157 54.7086 62.4914 54.6914 62.467C54.6636 62.4237 54.6513 62.3722 54.6557 62.321V62.3045C54.6585 62.2248 54.7048 62.1527 54.777 62.118C54.8972 62.0551 55.0329 62.027 55.1682 62.0366C55.6944 62.0366 55.6944 62.2722 55.6944 62.3533V62.3938H56.1008V62.3533C56.1022 62.2403 56.0761 62.1286 56.0242 62.0283C55.974 61.9387 55.9016 61.8631 55.814 61.8092C55.7223 61.7604 55.624 61.725 55.5223 61.7037C55.408 61.6728 55.2898 61.6591 55.1716 61.6629C54.9439 61.6553 54.7189 61.7116 54.5218 61.8253C54.3583 61.9184 54.2573 62.0922 54.2569 62.2801V62.3045C54.2487 62.4436 54.2882 62.581 54.3682 62.6944C54.4613 62.8043 54.587 62.8812 54.7272 62.9139C54.7704 62.9218 54.8896 62.9544 55.0854 63.0032C55.2228 63.0334 55.3585 63.0715 55.4914 63.1169C55.556 63.1303 55.6151 63.1612 55.6628 63.2062C55.6924 63.246 55.7061 63.2951 55.701 63.3442V63.393C55.701 63.4662 55.701 63.7015 55.2139 63.7015C54.6949 63.7015 54.6949 63.4579 54.6949 63.3769V63.1983H54.2885V63.3769C54.2868 63.4895 54.3129 63.6012 54.3641 63.7015C54.416 63.7911 54.4888 63.866 54.576 63.921C54.6671 63.9721 54.7646 64.0103 54.8663 64.0343C54.98 64.0611 55.0961 64.0749 55.2129 64.0752C55.3242 64.0728 55.4348 64.0621 55.5443 64.0426C55.6426 64.0185 55.7367 63.98 55.8236 63.9289C55.9108 63.8794 55.9826 63.8062 56.03 63.718C56.0812 63.6173 56.1073 63.5057 56.1056 63.393V63.3604C56.1135 63.222 56.0747 63.0846 55.995 62.9705C55.9005 62.8603 55.7728 62.7837 55.6312 62.7514Z" fill="#76777B"/>
<path d="M58.2906 61.5413C58.427 61.4176 58.6083 61.3558 58.7917 61.3709C58.9621 61.3586 59.1311 61.4108 59.2651 61.5169C59.386 61.6509 59.4537 61.824 59.4554 62.0043V62.0449H59.8899V61.9961C59.8895 61.8611 59.8676 61.7264 59.8246 61.5983C59.7875 61.4936 59.7305 61.397 59.6567 61.3139C59.5904 61.2342 59.5072 61.1703 59.4131 61.1271C59.3204 61.0772 59.2208 61.0415 59.1174 61.0216C58.9027 60.9814 58.6822 60.9814 58.4675 61.0216C58.3634 61.0412 58.2628 61.0766 58.1697 61.1271C58.0759 61.1748 57.9928 61.2407 57.9258 61.3222C57.8516 61.407 57.7963 61.5066 57.7633 61.6145C57.7218 61.7457 57.7015 61.8827 57.7032 62.0205V63.0437C57.7019 63.1815 57.7221 63.3189 57.7633 63.4501C57.7984 63.5593 57.8533 63.6613 57.9258 63.7506C57.9955 63.8269 58.078 63.8901 58.1697 63.9375C58.2628 63.988 58.3638 64.0237 58.4685 64.0429C58.575 64.0663 58.6842 64.0773 58.7935 64.0752C59.0068 64.0818 59.2197 64.0543 59.4245 63.9942C59.5955 63.9423 59.7515 63.8502 59.8799 63.7259L59.8937 63.7098V62.4265H58.9322V62.7999H59.4616V63.5473C59.3863 63.5964 59.3042 63.6349 59.218 63.6606C59.0792 63.6909 58.9377 63.7046 58.7959 63.7015C58.6111 63.7135 58.4297 63.649 58.2947 63.5229C58.1711 63.3539 58.1134 63.1461 58.1322 62.9379V62.1338C58.1127 61.924 58.1687 61.7137 58.2906 61.5413Z" fill="#76777B"/>
<path d="M62.3095 61.9885C62.2459 61.9119 62.1676 61.8484 62.0797 61.8017C61.9959 61.7481 61.9024 61.7124 61.8042 61.6962C61.6081 61.6529 61.4051 61.6529 61.2089 61.6962C61.1127 61.7158 61.0203 61.7515 60.9362 61.8017C60.8493 61.8501 60.772 61.9133 60.7071 61.9885C60.6384 62.0785 60.5869 62.1802 60.556 62.2891C60.5154 62.4179 60.4958 62.5522 60.4982 62.6872V63.0444C60.4958 63.1822 60.5154 63.3189 60.556 63.4504C60.5869 63.5569 60.6384 63.6562 60.7071 63.7431C60.7686 63.8231 60.8462 63.8898 60.9352 63.9378C61.02 63.9877 61.1127 64.0234 61.2089 64.0433C61.3061 64.067 61.4061 64.078 61.5064 64.0759C61.6173 64.0752 61.7279 64.0615 61.8361 64.0354C61.9392 64.0103 62.0378 63.9691 62.1284 63.9135C62.2239 63.8468 62.3047 63.7609 62.3655 63.6617C62.4355 63.5507 62.4812 63.426 62.4994 63.2962L62.5077 63.2474H62.0941L62.0869 63.2801C62.0625 63.4058 61.9931 63.5184 61.8921 63.5968C61.7798 63.6737 61.6448 63.7111 61.5088 63.7022C61.3388 63.7163 61.1718 63.6538 61.053 63.5315C60.9468 63.3828 60.8946 63.2024 60.9053 63.02H62.5221V62.6872C62.5241 62.5522 62.5049 62.4179 62.4654 62.2891C62.4328 62.1802 62.3799 62.0778 62.3095 61.9885ZM62.1147 62.6463H60.9053C60.906 62.4784 60.9633 62.3152 61.0678 62.1833C61.189 62.0772 61.348 62.0243 61.5088 62.0373C61.6713 62.0243 61.832 62.0768 61.9553 62.1833C62.0591 62.3155 62.1151 62.4787 62.1147 62.6463Z" fill="#76777B"/>
<path d="M64.8716 61.9396C64.7799 61.854 64.6683 61.7925 64.5467 61.7609C64.3835 61.7252 64.2166 61.7087 64.0496 61.7122H63.1816V64.0187H63.5876V62.0859H64.0902C64.1942 62.0824 64.298 62.0931 64.399 62.1185C64.4677 62.1305 64.5305 62.1649 64.5776 62.2161C64.6205 62.2587 64.6514 62.3119 64.6679 62.3703C64.6875 62.45 64.6964 62.5317 64.6947 62.6138V64.019H65.1007V62.6626C65.1038 62.5204 65.087 62.3782 65.0513 62.2405C65.02 62.1254 64.9578 62.0213 64.8716 61.9396Z" fill="#76777B"/>
<path d="M67.5359 61.9885C67.4721 61.9119 67.3937 61.8484 67.3055 61.8017C67.2203 61.7515 67.1275 61.7158 67.0307 61.6962C66.8345 61.6557 66.6322 61.6557 66.4364 61.6962C66.3385 61.7124 66.2451 61.7481 66.1616 61.8017C66.0751 61.8498 65.9978 61.9133 65.9336 61.9885C65.8645 62.0785 65.813 62.1802 65.7817 62.2891C65.7422 62.4179 65.723 62.5522 65.7247 62.6872V63.0444C65.723 63.1818 65.7422 63.3189 65.7817 63.4504C65.813 63.5569 65.8645 63.6562 65.9336 63.7431C65.9944 63.8235 66.072 63.8901 66.1609 63.9378C66.2461 63.9873 66.3389 64.023 66.4354 64.0433C66.5326 64.067 66.6326 64.078 66.7329 64.0759C66.8438 64.0752 66.9544 64.0615 67.0626 64.0354C67.1657 64.0103 67.2646 63.9694 67.3549 63.9135C67.4501 63.8468 67.5308 63.7609 67.5912 63.6617C67.6613 63.5507 67.7073 63.4264 67.7259 63.2962L67.7341 63.2474H67.3175L67.3085 63.2801C67.2855 63.4058 67.2172 63.5184 67.1162 63.5968C67.0035 63.6737 66.8685 63.7108 66.7329 63.7022C66.5642 63.7159 66.398 63.6569 66.2764 63.5397C66.1709 63.3876 66.1194 63.2048 66.1293 63.02H67.7462V62.6872C67.7482 62.5522 67.7286 62.4179 67.6888 62.2891C67.6572 62.1802 67.605 62.0778 67.5353 61.9885H67.5359ZM67.3412 62.6463H66.1318C66.1328 62.4784 66.1901 62.3155 66.2942 62.1833C66.4155 62.0768 66.5749 62.0243 66.736 62.0373C66.8984 62.0243 67.0592 62.0768 67.1825 62.1833C67.2859 62.3155 67.3419 62.4787 67.3412 62.6463Z" fill="#76777B"/>
<path d="M68.4082 64.0186H68.8142V62.0857H69.4583V61.712H68.4113" fill="#76777B"/>
<path d="M70.502 61.7448C70.4047 61.7606 70.3117 61.7966 70.2292 61.8502C70.142 61.898 70.0647 61.9612 70.0008 62.0371C69.9314 62.1267 69.8796 62.2288 69.8483 62.3376C69.8078 62.4692 69.7885 62.6063 69.7913 62.7437V62.9954C69.7892 63.1328 69.8084 63.2699 69.8483 63.4018C69.8778 63.5089 69.9297 63.6086 70.0008 63.6941C70.0664 63.7703 70.1434 63.836 70.2292 63.8892C70.3151 63.9356 70.4068 63.9713 70.502 63.9946C70.6005 64.0115 70.7001 64.0194 70.8001 64.019H71.7478V61.7122H70.8001C70.6998 61.7104 70.5995 61.7211 70.502 61.7448ZM70.1959 62.8333C70.177 62.63 70.2282 62.4266 70.3412 62.2566C70.4604 62.1333 70.629 62.0708 70.8001 62.0859H71.3449V63.6453H70.8001C70.6308 63.6594 70.4638 63.6003 70.3412 63.4828C70.2275 63.3101 70.176 63.104 70.1959 62.8982V62.8333Z" fill="#76777B"/>
<path d="M72.4961 64.0186H72.9021V60.8512H72.4961V64.0186Z" fill="#76777B"/>
<path d="M75.592 61.046H75.0664L74.126 63.9619L74.1074 64.0186H74.5598L74.7587 63.4013H75.8956L76.0949 64.0186H76.5455L75.6016 61.0707M75.774 63.0197H74.8806L75.3254 61.6389L75.774 63.0197Z" fill="#76777B"/>
<path d="M78.5688 62.9546C78.5874 63.1586 78.541 63.3633 78.4366 63.5392C78.3178 63.6587 78.1515 63.7185 77.9842 63.7016C77.8173 63.7192 77.6514 63.6594 77.5343 63.5392C77.4316 63.3623 77.3862 63.1582 77.4041 62.9546V61.7118H76.9981V63.0439C76.9974 63.1809 77.0149 63.3173 77.0499 63.4499C77.0778 63.5557 77.1262 63.6549 77.1921 63.7422C77.2502 63.8226 77.3247 63.8889 77.4106 63.9373C77.4937 63.9878 77.5851 64.0232 77.6802 64.0427C77.8791 64.086 78.0849 64.086 78.2838 64.0427C78.3789 64.0238 78.4699 63.9881 78.5527 63.9373C78.6389 63.8892 78.7138 63.8229 78.7712 63.7422C78.8371 63.6549 78.8855 63.5557 78.9141 63.4499C78.9494 63.3173 78.9666 63.1809 78.9652 63.0439V61.7118H78.5664" fill="#76777B"/>
<path d="M82.9786 61.9394C82.8865 61.8539 82.7752 61.7927 82.6536 61.7608C82.4912 61.7251 82.3249 61.7089 82.1583 61.712H81.6912V60.8509H81.2852V64.0186H81.6912V62.0854H82.194C82.2981 62.082 82.4022 62.0929 82.5035 62.118C82.5719 62.13 82.6344 62.1644 82.6814 62.2156C82.7247 62.2578 82.7556 62.3111 82.7708 62.3698C82.791 62.4495 82.8003 62.5316 82.7982 62.6137V64.0186H83.2042V62.6625C83.2084 62.5199 83.1922 62.378 83.1572 62.24C83.1259 62.1256 83.0641 62.0218 82.9786 61.9394Z" fill="#76777B"/>
<path d="M85.6395 61.9885C85.5738 61.9137 85.4962 61.8508 85.4097 61.8017C85.3262 61.7481 85.2328 61.7124 85.1352 61.6962C84.9387 61.6557 84.7361 61.6557 84.5396 61.6962C84.4424 61.7124 84.349 61.7481 84.2662 61.8017C84.1796 61.8498 84.1023 61.9133 84.0378 61.9885C83.9708 62.0765 83.9189 62.1754 83.8852 62.2808C83.8464 62.4127 83.8272 62.5498 83.8282 62.6872V63.0444C83.8265 63.1818 83.8457 63.3189 83.8852 63.4504C83.9175 63.5566 83.9691 63.6558 84.0378 63.7431C84.0989 63.8238 84.1769 63.8904 84.2662 63.9378C84.351 63.9877 84.4434 64.023 84.5396 64.0433C84.6372 64.067 84.7371 64.078 84.8371 64.0759C84.9374 64.078 85.0377 64.067 85.1352 64.0433C85.2317 64.023 85.3245 63.9877 85.4097 63.9378C85.4993 63.8898 85.5776 63.8231 85.6401 63.7431C85.7099 63.6565 85.7617 63.5569 85.793 63.4504C85.8322 63.3189 85.8514 63.1818 85.8497 63.0444V62.6872C85.8514 62.5498 85.8322 62.4127 85.793 62.2808C85.7597 62.1751 85.7078 62.0761 85.6395 61.9885ZM85.4461 62.7762V62.9551C85.4643 63.1585 85.4121 63.3618 85.2984 63.5315C85.1778 63.6548 85.0081 63.7173 84.836 63.7022C84.6657 63.7173 84.4973 63.6545 84.3782 63.5315C84.2655 63.3615 84.214 63.1581 84.2318 62.9551V62.7762C84.2126 62.5756 84.2641 62.3743 84.3782 62.2077C84.4973 62.0851 84.6657 62.0222 84.836 62.0373C85.0085 62.0222 85.1785 62.0844 85.3001 62.2077C85.4141 62.3743 85.466 62.5756 85.4461 62.7762Z" fill="#76777B"/>
<path d="M88.125 64.0186H88.531V61.712H88.125V64.0186Z" fill="#76777B"/>
<path d="M89.9077 61.0465H89.5017V61.7125H89.1387V62.0862H89.509V64.019H89.915V62.0862H90.3V61.7125H89.915" fill="#76777B"/>
<path d="M92.5116 61.7126L91.8099 63.5643L91.1205 61.7369L91.1106 61.7126H90.6836L91.5152 63.9054C91.5375 63.9648 91.5808 64.0136 91.6368 64.0435L91.317 64.8799H91.7443L92.9486 61.7126" fill="#76777B"/>
<path d="M86.5137 64.0186H86.9197V62.0857H87.5637V61.712H86.5168" fill="#76777B"/>
<path d="M46.5625 64.0186H46.9685V62.0857H47.6119V61.712H46.5649" fill="#76777B"/>
<path d="M42.3281 64.0186H42.7341V62.0857H43.3782V61.712H42.3312" fill="#76777B"/>
<path d="M80.2919 61.046H79.8859V61.712H79.5156V62.0857H79.8859V64.0186H80.2919V62.0857H80.6759V61.712H80.2919" fill="#76777B"/>
<path d="M38.8779 61.0465H38.4718V61.7125H38.1016V62.0862H38.4718V64.019H38.8779V62.0862H39.2612V61.7125H38.8779" fill="#76777B"/>
<path d="M37.2657 61.9396C37.174 61.854 37.0623 61.7925 36.9408 61.7609C36.7776 61.7252 36.6107 61.7087 36.4437 61.7122H35.5781V64.0187H35.9841V62.0859H36.4877C36.5914 62.0824 36.6955 62.0931 36.7961 62.1185C36.8648 62.1309 36.9274 62.1652 36.9751 62.2161C37.0177 62.2587 37.0486 62.3119 37.0651 62.3703C37.084 62.45 37.0926 62.5317 37.0912 62.6138V64.019H37.4972V62.6626C37.5006 62.5204 37.4842 62.3782 37.4484 62.2405C37.4161 62.1254 37.3529 62.0213 37.2657 61.9396Z" fill="#76777B"/>
<path d="M48.5852 61.1357C48.5663 61.1034 48.5378 61.078 48.5041 61.0625C48.4224 61.0299 48.3313 61.0299 48.2496 61.0625C48.2173 61.0801 48.1895 61.1051 48.1685 61.1357C48.1562 61.1591 48.1466 61.1834 48.14 61.2089C48.1352 61.2302 48.1328 61.2521 48.1328 61.2738C48.1332 61.2958 48.1359 61.3174 48.1411 61.3391C48.1486 61.361 48.1575 61.383 48.1678 61.404C48.1843 61.438 48.2132 61.4644 48.2489 61.4771C48.2884 61.4971 48.3317 61.5084 48.3757 61.5098C48.42 61.508 48.4636 61.4971 48.5031 61.4771C48.5388 61.4644 48.5677 61.438 48.5845 61.404C48.5976 61.3813 48.6072 61.3566 48.6127 61.3308C48.6178 61.3123 48.6202 61.293 48.6202 61.2738C48.6202 61.2521 48.6175 61.2302 48.6127 61.2089C48.6075 61.1831 48.5982 61.1584 48.5852 61.1357Z" fill="#76777B"/>
<path d="M24.8463 61.1357C24.8267 61.1041 24.7985 61.0787 24.7652 61.0625C24.6831 61.0299 24.5921 61.0299 24.51 61.0625C24.4767 61.079 24.4485 61.1044 24.4289 61.1357C24.4179 61.1594 24.409 61.1838 24.4021 61.2089C24.3966 61.2302 24.3942 61.2521 24.3946 61.2738C24.3949 61.2958 24.397 61.3174 24.4011 61.3391C24.4076 61.3617 24.4172 61.3837 24.4296 61.404C24.4468 61.4376 24.4756 61.4634 24.5107 61.4771C24.5505 61.4971 24.5941 61.508 24.6384 61.5098C24.6824 61.5087 24.7257 61.4974 24.7652 61.4771C24.7999 61.4627 24.8284 61.4369 24.8463 61.404C24.8579 61.3834 24.8672 61.3617 24.8737 61.3391C24.8789 61.3174 24.8813 61.2958 24.8813 61.2738C24.8813 61.2257 24.8693 61.1783 24.8463 61.136V61.1357Z" fill="#76777B"/>
<path d="M88.5342 61.1357C88.5149 61.1041 88.4864 61.0783 88.4531 61.0625C88.3707 61.0299 88.2793 61.0299 88.1972 61.0625C88.1649 61.0807 88.1374 61.1058 88.1158 61.1357C88.1034 61.1587 88.0938 61.1834 88.0873 61.2089C88.0825 61.2302 88.0801 61.2521 88.0801 61.2738C88.0804 61.2958 88.0832 61.3174 88.0873 61.3391C88.0952 61.361 88.1045 61.383 88.1151 61.404C88.1319 61.4376 88.1611 61.4637 88.1962 61.4771C88.2357 61.4971 88.279 61.5084 88.3229 61.5098C88.3672 61.508 88.4109 61.4971 88.4504 61.4771C88.4857 61.4637 88.5149 61.4376 88.5318 61.404C88.5448 61.3813 88.5548 61.3562 88.561 61.3308C88.5658 61.3123 88.5682 61.293 88.5682 61.2738C88.5682 61.2521 88.5658 61.2302 88.561 61.2089C88.5551 61.1834 88.5462 61.1591 88.5342 61.1357Z" fill="#76777B"/>
<path d="M31.212 61.9478C31.1285 61.8595 31.021 61.797 30.9025 61.7692C30.749 61.7266 30.5899 61.7074 30.4306 61.7122H28.2734V64.019H28.6757V62.0859H29.6137V64.019H30.0156V62.0859H30.4151C30.5195 62.0828 30.6236 62.0934 30.7246 62.1185C30.7929 62.1309 30.8551 62.1652 30.9018 62.2161C30.9441 62.259 30.9743 62.3119 30.9894 62.3703C31.0087 62.45 31.0176 62.5321 31.0155 62.6142V64.019H31.4215V62.6629C31.4246 62.5207 31.4092 62.3785 31.3752 62.2405C31.346 62.1309 31.29 62.0302 31.212 61.9478Z" fill="#76777B"/>
<path d="M5.89065 61.9478C5.80719 61.8595 5.69967 61.7973 5.58117 61.7692C5.42763 61.7266 5.26859 61.7074 5.10921 61.7122H2.95312V64.019H3.35913V62.0859H4.29652V64.019H4.6984V62.0859H5.09788C5.20196 62.0824 5.30638 62.0934 5.40736 62.1185C5.47572 62.1305 5.53789 62.1649 5.5846 62.2161C5.62754 62.2583 5.65777 62.3119 5.67219 62.3703C5.69177 62.45 5.7007 62.5321 5.69899 62.6142V64.019H6.10499V62.6629C6.1074 62.5207 6.09228 62.3789 6.05965 62.2405C6.02839 62.1305 5.97034 62.0295 5.89065 61.9478Z" fill="#76777B"/>
<path d="M92.5254 58.9834H92.9451V54.89H92.5254V58.9834Z" fill="#76777B"/>
<path d="M91.2128 54.8898V58.5607H90.2325V57.6512C90.237 57.4327 90.2143 57.2142 90.1652 57.0013C90.1305 56.8491 90.0556 56.709 89.9484 56.5953C89.8478 56.4902 89.7207 56.4142 89.5802 56.3761C89.4026 56.3301 89.2196 56.3081 89.0361 56.3109H88.3467V56.7334H89.0622C89.1749 56.732 89.2876 56.7457 89.3968 56.7739C89.484 56.7996 89.563 56.847 89.6266 56.912C89.6998 56.982 89.7496 57.0727 89.7695 57.172C89.8014 57.3132 89.8159 57.4578 89.8128 57.6024V58.5607H89.3975V57.9596C89.3992 57.8387 89.3824 57.7185 89.348 57.6024C89.3216 57.5103 89.2769 57.4248 89.2165 57.3506C89.1622 57.284 89.0952 57.2287 89.0193 57.1881C88.9451 57.1473 88.8654 57.117 88.783 57.0988C88.6978 57.0755 88.6102 57.0641 88.5223 57.0662C88.4343 57.0641 88.3467 57.0751 88.2622 57.0988C88.1795 57.1167 88.0998 57.1469 88.0259 57.1881C87.9507 57.2287 87.8841 57.284 87.8301 57.3506C87.7704 57.4251 87.7261 57.5107 87.6993 57.6024C87.6656 57.7185 87.6491 57.839 87.6505 57.9596V57.984C87.6495 58.1396 87.666 58.2949 87.6993 58.447C87.7147 58.4876 87.7401 58.5202 87.7594 58.5607H86.4909V56.4167H86.0711V58.5607H84.5361V56.4167H84.116V58.5607H82.6802V57.3101C82.6819 57.1888 82.6651 57.0683 82.6297 56.9525C82.6039 56.8608 82.5596 56.7753 82.4999 56.7007C82.3865 56.5716 82.2337 56.4829 82.0653 56.4489C81.9802 56.4252 81.8922 56.4146 81.8039 56.4163H81.4374C81.355 56.4146 81.2729 56.4252 81.1939 56.4489C81.1104 56.4634 81.0304 56.4936 80.9583 56.5382C80.883 56.5791 80.8164 56.6344 80.7625 56.7007C80.7027 56.7753 80.6584 56.8608 80.6326 56.9525C80.5973 57.0683 80.5804 57.1888 80.5822 57.3101V58.0895C80.5804 58.2104 80.5973 58.3309 80.6326 58.447C80.6584 58.5387 80.7027 58.6243 80.7625 58.6988C80.8161 58.7678 80.8827 58.8256 80.9583 58.8692C81.0321 58.9104 81.1115 58.9403 81.1939 58.9585C81.2798 58.9753 81.367 58.9836 81.4546 58.9829H91.6312V54.8895M82.2594 58.5607H81.4577C81.3313 58.5717 81.2063 58.5274 81.1152 58.4391C81.0328 58.3144 80.995 58.1657 81.007 58.0166V57.3832C80.9933 57.2366 81.0318 57.0902 81.1152 56.969C81.1984 56.879 81.3176 56.8312 81.4398 56.8391H81.8005C81.9317 56.8254 82.0616 56.8732 82.1522 56.969C82.2371 57.0896 82.2759 57.2366 82.2618 57.3832L82.2594 58.5607ZM88.9777 58.5607H88.5223C88.3952 58.5683 88.2708 58.5212 88.1808 58.4309C88.1159 58.3502 88.0781 58.2505 88.073 58.1468V57.9761C88.0685 57.8483 88.1063 57.7229 88.1802 57.6189C88.2695 57.5278 88.3942 57.4804 88.5212 57.489C88.6501 57.4801 88.7761 57.5275 88.8671 57.6189C88.952 57.7425 88.9908 57.8919 88.9771 58.041L88.9777 58.5607Z" fill="#76777B"/>
<path d="M84.735 56.0107H84.7828V55.7184H84.4386C84.373 55.6844 84.3366 55.6123 84.3486 55.5395C84.3696 55.4419 84.4826 55.3852 84.654 55.3852H84.822V55.0929H84.6131C84.2452 55.0929 84.0553 55.231 84.0446 55.5233C84.047 55.5896 84.0597 55.6556 84.0821 55.7184H83.8262V56.0107H84.3225" fill="#76777B"/>
<path d="M86.5477 59.9091C86.6415 59.9418 86.7432 59.9418 86.8369 59.9091C86.8689 59.8909 86.8967 59.8662 86.918 59.836C86.973 59.7405 86.973 59.623 86.918 59.5275C86.8967 59.4973 86.8689 59.4725 86.8369 59.4543C86.7432 59.4217 86.6415 59.4217 86.5477 59.4543C86.5154 59.4722 86.4876 59.4973 86.4667 59.5275C86.4529 59.5533 86.4419 59.5804 86.434 59.6086C86.423 59.657 86.423 59.7068 86.434 59.7549C86.4419 59.7831 86.4529 59.8102 86.4667 59.8363C86.4876 59.8662 86.5154 59.8913 86.5477 59.9091Z" fill="#76777B"/>
<path d="M86.0156 59.9091C86.0475 59.8905 86.075 59.8658 86.0967 59.8359C86.1101 59.8098 86.1207 59.7827 86.1286 59.7545C86.1393 59.7064 86.1393 59.6566 86.1286 59.6085C86.1207 59.5803 86.1101 59.5532 86.0967 59.5271C86.075 59.4976 86.0475 59.4725 86.0156 59.4539C85.9696 59.4364 85.9204 59.4282 85.871 59.4295C85.8219 59.4282 85.7731 59.4364 85.7274 59.4539C85.6951 59.4721 85.6676 59.4972 85.646 59.5271C85.6323 59.5532 85.6216 59.5803 85.6137 59.6085C85.6027 59.6566 85.6027 59.7064 85.6137 59.7545C85.6216 59.7827 85.6323 59.8098 85.646 59.8359C85.6676 59.8658 85.6951 59.8909 85.7274 59.9091C85.7731 59.9266 85.8219 59.9348 85.871 59.9334C85.9204 59.9348 85.9696 59.9266 86.0156 59.9091Z" fill="#76777B"/>
<path d="M81.8173 55.8649C81.8345 55.8986 81.8633 55.9243 81.8984 55.9381C81.944 55.9583 81.9932 55.9697 82.043 55.9707C82.0928 55.9697 82.1415 55.9587 82.1869 55.9381C82.2219 55.9247 82.2511 55.8986 82.268 55.8649C82.281 55.8388 82.2913 55.8117 82.2989 55.7835C82.305 55.7625 82.3078 55.7406 82.3071 55.7186C82.3071 55.6938 82.3044 55.6695 82.2989 55.6454C82.2913 55.6176 82.281 55.5901 82.268 55.564C82.2511 55.5303 82.2219 55.5046 82.1869 55.4908C82.1409 55.4733 82.0921 55.4651 82.043 55.4665C81.9938 55.4651 81.9447 55.4733 81.8984 55.4908C81.8633 55.5046 81.8345 55.5307 81.8173 55.564C81.8039 55.5901 81.7932 55.6173 81.7857 55.6454C81.7802 55.6695 81.7774 55.6938 81.7774 55.7186C81.7768 55.7406 81.7795 55.7625 81.7857 55.7835C81.7932 55.8117 81.8039 55.8388 81.8173 55.8649Z" fill="#76777B"/>
<path d="M80.995 55.8644C81.0119 55.8981 81.0411 55.9242 81.0761 55.9376C81.1214 55.9582 81.1702 55.9692 81.22 55.9702C81.2698 55.9692 81.3189 55.9578 81.3646 55.9376C81.4 55.9242 81.4289 55.8981 81.4457 55.8644C81.4594 55.8387 81.4701 55.8115 81.4776 55.783C81.4835 55.7621 81.4862 55.7401 81.4855 55.7181C81.4855 55.6934 81.4828 55.669 81.4776 55.6449C81.4701 55.6168 81.4594 55.5893 81.4457 55.5635C81.4289 55.5299 81.4 55.5038 81.3646 55.4904C81.3186 55.4728 81.2695 55.4646 81.22 55.466C81.1709 55.4646 81.1221 55.4728 81.0761 55.4904C81.0411 55.5038 81.0119 55.5299 80.995 55.5635C80.9816 55.5896 80.971 55.6168 80.9634 55.6449C80.9579 55.669 80.9552 55.6934 80.9552 55.7181C80.9545 55.7401 80.9572 55.7621 80.9634 55.783C80.971 55.8112 80.9816 55.8383 80.995 55.8644Z" fill="#76777B"/>
<path d="M63.0994 54.8902V58.561H61.9972V54.8902H61.5774V58.561H60.7132V57.3104C60.7156 57.1895 60.6988 57.0686 60.6631 56.9532C60.6373 56.8611 60.593 56.7756 60.5329 56.7014C60.4199 56.5715 60.267 56.4829 60.0984 56.4496C60.0139 56.4259 59.9263 56.4149 59.8387 56.417H59.477C59.3949 56.4149 59.3124 56.4259 59.2334 56.4496C59.0655 56.4826 58.9137 56.5715 58.8024 56.7014C58.7423 56.7756 58.6979 56.8614 58.6715 56.9532C58.6406 57.0614 58.6255 57.1733 58.6268 57.286V57.3104V57.5704C58.644 57.8356 58.5788 58.099 58.44 58.3257C58.272 58.4982 58.0347 58.5851 57.7952 58.561H57.302V56.4173H56.8823V58.561H55.0995V56.4173H54.6798V58.561H54.2889C54.0495 58.5851 53.8118 58.4982 53.6442 58.3257C53.4968 58.0819 53.4309 57.7975 53.4556 57.5134V56.6444H53.0407V57.5134C53.0654 57.7975 52.9991 58.0819 52.8514 58.3257C52.6834 58.4982 52.4457 58.5851 52.2056 58.561H51.8144V56.6444H51.3936V58.561H49.4735V54.8902H49.0527V58.9835H52.2056C52.3365 58.9832 52.4667 58.9694 52.5948 58.943C52.714 58.9159 52.8287 58.8722 52.9359 58.8132C53.0417 58.7496 53.1348 58.6672 53.2103 58.5693C53.2248 58.549 53.2375 58.527 53.2478 58.5044C53.2574 58.5274 53.2701 58.5494 53.2852 58.5693C53.3604 58.6668 53.4532 58.7496 53.559 58.8132C53.6658 58.8722 53.7809 58.9159 53.9001 58.943C54.0138 58.9664 54.1299 58.9773 54.246 58.9753V58.9835H57.7894C57.9199 58.9832 58.0501 58.9694 58.1776 58.943C58.2971 58.9159 58.4122 58.8722 58.5197 58.8132C58.6073 58.7555 58.6852 58.684 58.7502 58.6019C58.7639 58.6359 58.7807 58.6686 58.8006 58.6995C58.8542 58.7682 58.9202 58.8259 58.9954 58.8698C59.0696 58.9111 59.1493 58.9413 59.2317 58.9595C59.3176 58.976 59.4052 58.9842 59.4924 58.9839H63.5209V54.8905M60.2935 58.561H59.4952C59.3688 58.572 59.2441 58.5277 59.1531 58.4394C59.0703 58.3151 59.0318 58.1664 59.0442 58.017V57.3836C59.0304 57.2369 59.0689 57.0902 59.1531 56.9693C59.2362 56.8793 59.3557 56.8316 59.478 56.8395H59.8452C59.974 56.8271 60.1014 56.8752 60.1901 56.9693C60.2749 57.0899 60.3137 57.2369 60.3 57.3836L60.2935 58.561Z" fill="#76777B"/>
<path d="M48.502 54.2892L48.908 53.9808C49.0186 54.1037 49.1755 54.1745 49.3411 54.1755C49.5228 54.1697 49.6963 54.0975 49.8282 53.9725V54.3136C49.6877 54.4297 49.5094 54.4905 49.327 54.484C49.1749 54.4929 49.0251 54.4403 48.9121 54.338L48.674 54.5166" fill="#76777B"/>
<path d="M47.8182 58.5612H44.9934C44.7536 58.5849 44.5162 58.498 44.3479 58.3256C44.2006 58.0817 44.1343 57.7973 44.1587 57.5136V57.0341H43.7444V57.6678C43.7413 57.8434 43.7637 58.0182 43.8111 58.1875C43.8458 58.3249 43.9062 58.4544 43.9897 58.5691C44.0646 58.667 44.1576 58.7495 44.2634 58.813C44.3703 58.8721 44.4853 58.9157 44.6045 58.9429C44.7175 58.9662 44.8333 58.9772 44.9487 58.9752V58.9834H48.238V56.4168H47.8182" fill="#76777B"/>
<path d="M53.4618 55.5638C53.4484 55.5899 53.4378 55.6171 53.4302 55.6453C53.424 55.6693 53.4213 55.6937 53.422 55.7184C53.4213 55.7404 53.424 55.762 53.4302 55.7833C53.4378 55.8115 53.4484 55.8386 53.4618 55.8647C53.4783 55.8984 53.5075 55.9249 53.5429 55.9379C53.5869 55.9619 53.6367 55.9733 53.6868 55.9702C53.737 55.9733 53.7871 55.9623 53.8314 55.9379C53.8668 55.9245 53.8957 55.8984 53.9125 55.8647C53.9259 55.8386 53.9365 55.8115 53.9444 55.7833C53.9503 55.762 53.953 55.7404 53.9523 55.7184C53.953 55.6937 53.9503 55.6693 53.9444 55.6453C53.9365 55.6171 53.9259 55.5899 53.9125 55.5638C53.8957 55.5302 53.8668 55.5041 53.8314 55.4907C53.7854 55.4732 53.7363 55.4649 53.6868 55.4663C53.6377 55.4649 53.5889 55.4732 53.5429 55.4907C53.5075 55.5037 53.4783 55.5298 53.4618 55.5638Z" fill="#76777B"/>
<path d="M56.8583 55.8646C56.8755 55.8983 56.9043 55.924 56.9394 55.9378C57.0311 55.981 57.1372 55.981 57.2286 55.9378C57.264 55.9244 57.2928 55.8983 57.31 55.8646C57.323 55.8385 57.3334 55.8114 57.3409 55.7832C57.3468 55.7622 57.3495 55.7402 57.3488 55.7183C57.3488 55.6935 57.3461 55.6691 57.3409 55.6451C57.3334 55.6169 57.323 55.5898 57.31 55.5637C57.2928 55.5304 57.264 55.5043 57.2286 55.4905C57.1352 55.4582 57.0331 55.4582 56.9394 55.4905C56.9043 55.5043 56.8755 55.5304 56.8583 55.5637C56.8449 55.5898 56.8343 55.6169 56.8267 55.6451C56.8212 55.6691 56.8185 55.6935 56.8185 55.7183C56.8178 55.7402 56.8205 55.7622 56.8267 55.7832C56.8343 55.8114 56.8449 55.8385 56.8583 55.8646Z" fill="#76777B"/>
<path d="M53.1133 55.2232C53.1349 55.253 53.1628 55.2778 53.1944 55.2963C53.2881 55.329 53.3901 55.329 53.4836 55.2963C53.5155 55.2778 53.543 55.253 53.565 55.2232C53.5784 55.1974 53.5887 55.1699 53.5959 55.1418C53.6065 55.0937 53.6065 55.0439 53.5959 54.9958C53.5887 54.9676 53.5784 54.9401 53.565 54.9144C53.5454 54.8828 53.5172 54.8573 53.4836 54.8412C53.3898 54.8089 53.2881 54.8089 53.1944 54.8412C53.161 54.8573 53.1329 54.8828 53.1133 54.9144C53.0999 54.9405 53.0892 54.9676 53.0817 54.9958C53.0717 55.0439 53.0717 55.0937 53.0817 55.1418C53.0892 55.1699 53.0999 55.1971 53.1133 55.2232Z" fill="#76777B"/>
<path d="M52.6415 55.8649C52.6583 55.8986 52.6875 55.9247 52.7226 55.9381C52.7686 55.9583 52.8181 55.9697 52.8682 55.9707C52.9177 55.9697 52.9668 55.9587 53.0118 55.9381C53.0475 55.925 53.0767 55.8989 53.0932 55.8649C53.1066 55.8388 53.1172 55.8117 53.1248 55.7835C53.1306 55.7625 53.1334 55.7406 53.133 55.7186C53.133 55.6938 53.1303 55.6695 53.1248 55.6454C53.1172 55.6173 53.1066 55.5901 53.0932 55.564C53.0767 55.53 53.0475 55.5039 53.0118 55.4908C52.9661 55.4733 52.9173 55.4651 52.8682 55.4665C52.8184 55.4651 52.7693 55.4733 52.7226 55.4908C52.6875 55.5046 52.6583 55.5303 52.6415 55.564C52.6281 55.5901 52.6175 55.6173 52.6099 55.6454C52.6044 55.6695 52.6017 55.6938 52.6017 55.7186C52.601 55.7406 52.6037 55.7625 52.6099 55.7835C52.6175 55.8117 52.6281 55.8388 52.6415 55.8649Z" fill="#76777B"/>
<path d="M46.1766 55.8646C46.1934 55.8983 46.2226 55.9244 46.2577 55.9378C46.3497 55.981 46.4558 55.981 46.5479 55.9378C46.5829 55.9244 46.6121 55.8983 46.629 55.8646C46.6427 55.8388 46.6534 55.8117 46.6606 55.7832C46.6664 55.7622 46.6692 55.7402 46.6688 55.7183C46.6685 55.6935 46.6657 55.6691 46.6606 55.6451C46.6534 55.6166 46.6427 55.5895 46.629 55.5637C46.6121 55.53 46.5829 55.5043 46.5479 55.4905C46.4538 55.4582 46.3518 55.4582 46.2577 55.4905C46.2226 55.5043 46.1934 55.53 46.1766 55.5637C46.1629 55.5895 46.1522 55.6166 46.145 55.6451C46.1398 55.6691 46.1371 55.6935 46.1367 55.7183C46.1364 55.7402 46.1392 55.7622 46.145 55.7832C46.1522 55.8117 46.1629 55.8388 46.1766 55.8646Z" fill="#76777B"/>
<path d="M45.3543 55.8646C45.3712 55.8983 45.4004 55.9244 45.4354 55.9378C45.5274 55.981 45.6336 55.981 45.7256 55.9378C45.7607 55.9244 45.7899 55.8983 45.8067 55.8646C45.8208 55.8392 45.8314 55.8117 45.8383 55.7832C45.8441 55.7622 45.8469 55.7402 45.8465 55.7183C45.8462 55.6935 45.8435 55.6691 45.8383 55.6451C45.8314 55.6166 45.8208 55.5895 45.8067 55.5637C45.7899 55.53 45.7607 55.5043 45.7256 55.4905C45.6315 55.4582 45.5295 55.4582 45.4354 55.4905C45.4004 55.5043 45.3712 55.53 45.3543 55.5637C45.3406 55.5895 45.3299 55.6169 45.3227 55.6451C45.3176 55.6691 45.3148 55.6935 45.3145 55.7183C45.3141 55.7402 45.3169 55.7622 45.3227 55.7832C45.3299 55.8117 45.3406 55.8388 45.3543 55.8646Z" fill="#76777B"/>
<path d="M41.3984 58.9834H41.8182V54.89H41.3984V58.9834Z" fill="#76777B"/>
<path d="M40.0888 54.8897V58.5606H39.1109V57.4724C39.0883 57.0688 38.842 56.7112 38.4727 56.5467C37.8795 56.3107 37.2056 56.4131 36.7092 56.8146V56.4169H36.2895V58.5606H35.3281C35.0893 58.565 34.8513 58.5376 34.6198 58.4795C34.999 58.1944 35.2625 57.7822 35.3621 57.3182C35.4105 56.8847 35.0986 56.4941 34.6655 56.4457C34.6414 56.443 34.617 56.4412 34.593 56.4409C34.165 56.4007 33.7336 56.4419 33.3211 56.5625L33.2156 56.5951L33.1806 56.7006C33.0219 57.21 33.1211 57.7644 33.4461 58.1869C33.5354 58.3198 33.645 58.4376 33.771 58.5362C33.7181 58.5516 33.6635 58.5599 33.6086 58.5606H31.9241V56.4165H31.5043V58.5606H29.9236V56.4327H29.5039V58.5362C29.5063 58.6859 29.4932 58.8357 29.4647 58.9827C29.4444 59.0837 29.4008 59.1782 29.3373 59.2592C29.2844 59.3266 29.215 59.3798 29.136 59.4135C29.0453 59.4506 28.9495 59.4722 28.8516 59.4784V59.9414C28.9632 59.9345 29.0741 59.9184 29.183 59.8926C29.284 59.8603 29.3812 59.8167 29.4729 59.7628C29.5677 59.7013 29.6488 59.6213 29.711 59.5272C29.7817 59.4145 29.8343 59.2912 29.8659 59.1617C29.8789 59.1047 29.8879 59.0401 29.8968 58.9831H33.6086C33.8243 58.9738 34.0338 58.9068 34.2145 58.7883C34.5683 58.9257 34.9458 58.992 35.3253 58.9831H40.5038V54.8897M34.1891 58.3088C34.0321 58.2161 33.8957 58.0917 33.7889 57.9433C33.5632 57.6603 33.476 57.2907 33.5515 56.9366C33.871 56.8548 34.2018 56.827 34.5305 56.8551C34.9228 56.9201 34.9585 57.1152 34.9454 57.2855C34.8383 57.7132 34.5666 58.0811 34.1894 58.3088H34.1891ZM38.6936 58.5606H36.711V57.3261C37.128 56.9173 37.7332 56.7652 38.2941 56.9283C38.5174 57.0221 38.6709 57.2309 38.6936 57.4724V58.5606Z" fill="#76777B"/>
<path d="M33.912 55.8644C33.9291 55.8981 33.958 55.9238 33.993 55.9376C34.0387 55.9578 34.0878 55.9692 34.1376 55.9702C34.1878 55.9688 34.2372 55.9578 34.2833 55.9376C34.3183 55.9242 34.3475 55.8981 34.3643 55.8644C34.3781 55.8387 34.3887 55.8115 34.3959 55.783C34.4014 55.7621 34.4038 55.7397 34.4035 55.7181C34.4045 55.6642 34.3911 55.6106 34.3643 55.5639C34.3475 55.5302 34.3183 55.5041 34.2833 55.4907C34.2366 55.4732 34.1874 55.4649 34.1376 55.4663C34.0885 55.4649 34.0394 55.4732 33.993 55.4907C33.958 55.5044 33.9291 55.5302 33.912 55.5639C33.8986 55.5896 33.8879 55.6171 33.8811 55.6453C33.8756 55.669 33.8728 55.6937 33.8732 55.7184C33.8725 55.7404 33.8752 55.7621 33.8811 55.7834C33.8879 55.8115 33.8982 55.839 33.912 55.8644Z" fill="#76777B"/>
<path d="M27.7196 55.8644C27.7367 55.8981 27.7656 55.9242 27.8006 55.9376C27.846 55.9578 27.8947 55.9692 27.9445 55.9702C27.9944 55.9692 28.0435 55.9578 28.0892 55.9376C28.1242 55.9238 28.153 55.8981 28.1702 55.8644C28.184 55.8387 28.1946 55.8115 28.2022 55.783C28.2077 55.7621 28.2101 55.7401 28.2094 55.7181C28.2097 55.6934 28.2073 55.669 28.2022 55.6449C28.1946 55.6168 28.184 55.5893 28.1702 55.5635C28.153 55.5302 28.1242 55.5041 28.0892 55.4904C28.0431 55.4728 27.994 55.4646 27.9445 55.466C27.8954 55.4646 27.8467 55.4728 27.8006 55.4904C27.7656 55.5041 27.7367 55.5299 27.7196 55.5635C27.7065 55.5896 27.6959 55.6171 27.688 55.6449C27.6828 55.669 27.6801 55.6934 27.6797 55.7181C27.6794 55.7401 27.6821 55.7621 27.688 55.783C27.6959 55.8112 27.7065 55.8383 27.7196 55.8644Z" fill="#76777B"/>
<path d="M26.8986 55.8644C26.9162 55.8977 26.945 55.9238 26.9797 55.9376C27.0257 55.9578 27.0752 55.9692 27.1254 55.9702C27.1748 55.9692 27.2239 55.9578 27.2689 55.9376C27.3043 55.9245 27.3335 55.8984 27.3503 55.8644C27.3634 55.8383 27.3737 55.8112 27.3813 55.783C27.3871 55.7621 27.3898 55.7401 27.3892 55.7181C27.3892 55.6934 27.3864 55.669 27.3813 55.6449C27.3737 55.6168 27.3634 55.5896 27.3503 55.5635C27.3335 55.5299 27.3043 55.5034 27.2689 55.4904C27.2232 55.4728 27.1745 55.4646 27.1254 55.466C27.0755 55.4646 27.0264 55.4728 26.9797 55.4904C26.945 55.5044 26.9162 55.5302 26.8986 55.5635C26.8853 55.5896 26.8746 55.6168 26.867 55.6449C26.8619 55.669 26.8591 55.6934 26.8595 55.7181C26.8588 55.7401 26.8612 55.7621 26.867 55.783C26.8746 55.8112 26.8853 55.8383 26.8986 55.8644Z" fill="#76777B"/>
<path d="M31.9836 59.9091C32.0774 59.9418 32.1791 59.9418 32.2728 59.9091C32.3048 59.8909 32.3326 59.8658 32.3539 59.836C32.3673 59.8099 32.3779 59.7827 32.3855 59.7545C32.3965 59.7065 32.3965 59.6567 32.3855 59.6086C32.3779 59.5804 32.3673 59.5533 32.3539 59.5272C32.3326 59.4973 32.3048 59.4722 32.2728 59.454C32.1791 59.4217 32.0774 59.4217 31.9836 59.454C31.9517 59.4725 31.9238 59.4973 31.9025 59.5272C31.8476 59.6226 31.8476 59.7401 31.9025 59.8356C31.9238 59.8658 31.9517 59.8906 31.9836 59.9091Z" fill="#76777B"/>
<path d="M31.5313 59.5271C31.5096 59.4972 31.4822 59.4725 31.4502 59.4539C31.4038 59.4364 31.3547 59.4282 31.3056 59.4295C31.2558 59.4282 31.2067 59.4364 31.16 59.4539C31.128 59.4725 31.1005 59.4972 31.0789 59.5271C31.0652 59.5529 31.0545 59.58 31.0473 59.6085C31.0363 59.6566 31.0363 59.7064 31.0473 59.7545C31.0545 59.783 31.0652 59.8101 31.0789 59.8359C31.1005 59.8658 31.128 59.8909 31.16 59.9091C31.2067 59.9266 31.2558 59.9348 31.3056 59.9334C31.3547 59.9348 31.4038 59.9266 31.4502 59.9091C31.4822 59.8909 31.5096 59.8658 31.5313 59.8359C31.5454 59.8101 31.556 59.783 31.5639 59.7545C31.5735 59.7064 31.5735 59.6566 31.5639 59.6085C31.556 59.58 31.5454 59.5529 31.5313 59.5271Z" fill="#76777B"/>
<path d="M26.8643 58.8697C26.9378 58.9105 27.0168 58.9408 27.0989 58.959C27.1851 58.9758 27.2727 58.984 27.3606 58.9834H28.5828V57.3102C28.5852 57.1893 28.5683 57.0687 28.5333 56.953C28.5069 56.8609 28.4622 56.7754 28.4017 56.7012C28.3475 56.6349 28.2805 56.5796 28.2053 56.5387C28.1311 56.4951 28.0514 56.4621 27.9679 56.4412C27.882 56.4247 27.7948 56.4165 27.7072 56.4168H27.3411C27.2593 56.4165 27.1775 56.4244 27.0975 56.4412C27.0147 56.4625 26.9357 56.4951 26.8626 56.5387C26.7873 56.5796 26.7204 56.6349 26.6661 56.7012C26.6067 56.7757 26.5624 56.8613 26.5363 56.953C26.5016 57.0687 26.4847 57.1893 26.4864 57.3102V58.0899C26.4847 58.2108 26.5016 58.3314 26.5363 58.4472C26.5624 58.5392 26.6063 58.6244 26.6661 58.6993C26.7207 58.768 26.788 58.826 26.8643 58.8697ZM26.9096 57.3834C26.8959 57.2367 26.9344 57.0897 27.0185 56.9691C27.1016 56.8791 27.2212 56.8314 27.3435 56.8393H27.7106C27.8395 56.8266 27.9669 56.8747 28.0559 56.9691C28.1407 57.0897 28.1795 57.2367 28.1654 57.3834V58.5609H27.363C27.2366 58.5719 27.1119 58.5275 27.0209 58.4393C26.9381 58.3146 26.9 58.1659 26.912 58.0168L26.9096 57.3834Z" fill="#76777B"/>
<path d="M78.3145 58.9834H78.7342V54.89H78.3145V58.9834Z" fill="#76777B"/>
<path d="M67.1414 55.8646C67.1583 55.8983 67.1875 55.9244 67.2225 55.9378C67.3142 55.981 67.4204 55.981 67.5117 55.9378C67.5471 55.9247 67.5763 55.8986 67.5931 55.8646C67.6069 55.8388 67.6179 55.8117 67.6254 55.7832C67.6316 55.7622 67.6343 55.7402 67.6337 55.7183C67.6337 55.6935 67.6309 55.6691 67.6254 55.6451C67.6179 55.6166 67.6069 55.5895 67.5931 55.5637C67.5763 55.53 67.5471 55.5036 67.5117 55.4905C67.4183 55.4582 67.3163 55.4582 67.2225 55.4905C67.1875 55.5043 67.1583 55.53 67.1414 55.5637C67.1277 55.5898 67.1171 55.6169 67.1088 55.6451C67.104 55.6691 67.1016 55.6935 67.1016 55.7183C67.1013 55.7399 67.1037 55.7622 67.1088 55.7832C67.1167 55.8114 67.1277 55.8388 67.1414 55.8646Z" fill="#76777B"/>
<path d="M66.3172 55.8644C66.3344 55.8981 66.3632 55.9242 66.3983 55.9376C66.444 55.9578 66.4931 55.9692 66.5429 55.9702C66.5927 55.9692 66.6415 55.9582 66.6868 55.9376C66.7222 55.9245 66.7514 55.8984 66.7679 55.8644C66.7813 55.8383 66.7919 55.8112 66.7998 55.783C66.8053 55.7621 66.8081 55.7401 66.8077 55.7181C66.8074 55.6934 66.8046 55.669 66.7998 55.6449C66.7919 55.6168 66.7813 55.5896 66.7679 55.5635C66.7514 55.5299 66.7222 55.5034 66.6868 55.4904C66.6408 55.4728 66.592 55.4646 66.5429 55.466C66.4938 55.4646 66.4447 55.4728 66.3983 55.4904C66.3632 55.5041 66.3344 55.5302 66.3172 55.5635C66.3035 55.5896 66.2928 55.6168 66.2846 55.6449C66.2798 55.669 66.2774 55.6934 66.2774 55.7181C66.277 55.7397 66.2794 55.7621 66.2846 55.783C66.2925 55.8112 66.3035 55.8387 66.3172 55.8644Z" fill="#76777B"/>
<path d="M77.0028 54.8903V58.5612H76.063C75.8336 58.5622 75.6044 58.5406 75.3791 58.4963C75.757 58.1896 76.0115 57.7571 76.0974 57.2779C76.1135 57.067 76.0719 56.5552 75.3279 56.4415C74.9003 56.4062 74.4696 56.4474 74.0563 56.5631L73.9505 56.5958L73.9158 56.7012C73.7599 57.2137 73.8444 57.7691 74.1456 58.2119C74.2384 58.3369 74.348 58.4489 74.4706 58.5451C74.4301 58.554 74.3885 58.5595 74.3469 58.5612H72.8143V54.89H72.3945V58.9834H74.3511C74.562 58.9751 74.7674 58.9136 74.948 58.8047C75.2895 58.9243 75.6488 58.9851 76.0105 58.9834H77.4236V54.89M74.9164 58.3338C74.7461 58.2449 74.5991 58.1167 74.4874 57.9604C74.2889 57.6616 74.2171 57.2968 74.2879 56.9451C74.6063 56.8596 74.9381 56.8321 75.2665 56.8637C75.7058 56.9289 75.6886 57.1481 75.6821 57.2456C75.5728 57.6918 75.2994 58.0803 74.9164 58.3338Z" fill="#76777B"/>
<path d="M71.586 58.9835V57.3104C71.5877 57.1895 71.5712 57.0689 71.5365 56.9532C71.5104 56.8614 71.4658 56.7756 71.4056 56.7014C71.3507 56.6351 71.2837 56.5801 71.2085 56.5389C71.1343 56.4956 71.0543 56.4627 70.9711 56.4414C70.8853 56.4245 70.798 56.4163 70.7104 56.417H70.3443C70.2622 56.4163 70.1808 56.4245 70.1004 56.4414C70.0176 56.4623 69.9383 56.4953 69.8651 56.5389C69.7899 56.5798 69.7232 56.6347 69.6693 56.7014C69.6095 56.7759 69.5656 56.8614 69.5395 56.9532C69.5082 57.0614 69.4928 57.1733 69.4931 57.286H69.4883V57.5134C69.513 57.7975 69.4464 58.0822 69.298 58.3257C69.1304 58.4985 68.893 58.5854 68.6533 58.561H68.0034V57.3104C68.0054 57.1895 67.989 57.0693 67.9546 56.9532C67.9282 56.8614 67.8832 56.7756 67.823 56.7014C67.7684 56.6351 67.7018 56.5801 67.6266 56.5389C67.5524 56.4953 67.4723 56.4623 67.3885 56.4414C67.303 56.4245 67.2161 56.4163 67.1289 56.417H66.7617C66.6799 56.4163 66.5982 56.4245 66.5181 56.4414C66.435 56.4623 66.3553 56.4949 66.2818 56.5389C66.2066 56.5798 66.1403 56.6351 66.086 56.7014C66.0262 56.7759 65.9823 56.8614 65.9558 56.9532C65.9215 57.0689 65.9047 57.1895 65.9064 57.3104V58.0901C65.9047 58.211 65.9215 58.3316 65.9558 58.4473C65.9823 58.5391 66.0262 58.6246 66.086 58.6991C66.1399 58.7678 66.2062 58.8255 66.2818 58.8698C66.3557 58.9111 66.4353 58.9409 66.5181 58.9591C66.6037 58.9756 66.6906 58.9842 66.7778 58.9835H68.6515C68.7824 58.9832 68.9126 58.9694 69.0407 58.943C69.1599 58.9159 69.2746 58.8722 69.3818 58.8132C69.4708 58.7558 69.5501 58.6844 69.6164 58.6019C69.6305 58.6359 69.6477 58.6686 69.6676 58.6995C69.7212 58.7682 69.7878 58.8262 69.8634 58.8698C69.9372 58.9111 70.0166 58.9409 70.099 58.9595C70.1849 58.976 70.2721 58.9842 70.3597 58.9839M66.4402 58.4394C66.357 58.3148 66.3189 58.166 66.332 58.017V57.3836C66.3175 57.2369 66.356 57.0902 66.4402 56.9693C66.5233 56.8793 66.6425 56.8316 66.7648 56.8395H67.133C67.2614 56.8271 67.3885 56.8752 67.4772 56.9693C67.562 57.0899 67.6008 57.2369 67.5867 57.3836V58.561H66.7843C66.6572 58.5731 66.5315 58.5288 66.4402 58.4394ZM70.0217 58.4394C69.9389 58.3148 69.9005 58.1664 69.9128 58.017V57.3836C69.8991 57.2369 69.9376 57.0902 70.0217 56.9693C70.1049 56.8793 70.2244 56.8316 70.3467 56.8395H70.7128C70.842 56.8268 70.9694 56.8748 71.058 56.9693C71.1429 57.0899 71.1817 57.2369 71.1676 57.3836V58.561H70.3662C70.2392 58.5727 70.1131 58.5284 70.0217 58.4394Z" fill="#76777B"/>
<path d="M21.2422 58.9834H21.6619V54.89H21.2422V58.9834Z" fill="#76777B"/>
<path d="M10.7142 58.5609H10.3226C10.0832 58.5846 9.84584 58.4977 9.67787 58.3253C9.53051 58.0814 9.46456 57.797 9.48929 57.5132V56.6442H9.07436V57.5132C9.09909 57.797 9.03279 58.0817 8.88509 58.3253C8.7161 58.4991 8.47668 58.586 8.23555 58.5609H7.84398V56.6442H7.42389V58.5609H6.27491V57.4645C6.2519 57.0629 6.00561 56.7081 5.63739 56.5467C5.0459 56.3066 4.37094 56.4062 3.87391 56.8067V54.89H3.45417V58.5609H2.32443V57.3102C2.32615 57.189 2.30932 57.0688 2.27394 56.9527C2.24783 56.861 2.20352 56.7754 2.14341 56.7009C2.0304 56.5714 1.87755 56.4828 1.7089 56.4491C1.62405 56.4258 1.53612 56.4148 1.44819 56.4165H1.08168C0.999244 56.4144 0.917149 56.4254 0.838147 56.4491C0.754335 56.4635 0.673958 56.4941 0.601825 56.5384C0.526944 56.5793 0.460651 56.6346 0.406723 56.7009C0.346612 56.7751 0.301958 56.861 0.276197 56.9527C0.241161 57.0688 0.224673 57.189 0.226734 57.3102V58.0896C0.224673 58.2109 0.241161 58.3314 0.276197 58.4472C0.301958 58.5389 0.346612 58.6248 0.406723 58.699C0.460308 58.768 0.526257 58.8257 0.601825 58.8693C0.676019 58.9106 0.755365 58.9405 0.838147 58.959C0.924019 58.9758 1.01127 58.9837 1.09886 58.9834H8.23693C8.3678 58.9827 8.49798 58.9693 8.6261 58.9425C8.74529 58.9157 8.86002 58.8718 8.96719 58.8127C9.07333 58.7498 9.16641 58.667 9.24164 58.5691C9.22996 58.5485 9.23717 58.5221 9.25778 58.5104C9.27839 58.4984 9.3045 58.5056 9.31652 58.5262C9.32407 58.5396 9.32407 58.5557 9.31652 58.5691C9.39209 58.6667 9.48517 58.7491 9.59097 58.8127C9.69779 58.8718 9.81217 58.9157 9.93137 58.9425C10.0447 58.9662 10.1605 58.9772 10.2766 58.9751V58.9834H11.1315V56.4168H10.7118M1.90365 58.5609H1.09886C0.972452 58.5719 0.847421 58.5272 0.756053 58.4393C0.673615 58.3146 0.635487 58.1659 0.648197 58.0168V57.3834C0.634113 57.2367 0.672241 57.0901 0.756053 56.9692C0.839178 56.8792 0.958712 56.8314 1.08099 56.8393H1.44819C1.57699 56.8266 1.70443 56.8747 1.79339 56.9692C1.87824 57.0897 1.91705 57.2364 1.90297 57.3834L1.90365 58.5609ZM5.85997 58.5609H3.87804V57.3264C4.2916 56.9118 4.8982 56.7562 5.46015 56.9204C5.68239 57.0155 5.83559 57.2237 5.85997 57.4645V58.5609Z" fill="#76777B"/>
<path d="M1.46182 55.8646C1.479 55.8983 1.50785 55.924 1.54289 55.9378C1.63426 55.981 1.74005 55.981 1.83142 55.9378C1.8668 55.9247 1.89599 55.8986 1.91248 55.8646C1.92657 55.8388 1.93687 55.8117 1.94408 55.7832C1.95027 55.7622 1.95301 55.7402 1.95233 55.7183C1.95233 55.6935 1.94958 55.6691 1.94408 55.6451C1.93687 55.6166 1.92622 55.5895 1.91248 55.5637C1.89599 55.53 1.8668 55.5036 1.83142 55.4905C1.73799 55.4582 1.63632 55.4582 1.54289 55.4905C1.50785 55.5043 1.479 55.5304 1.46182 55.5637C1.44843 55.5898 1.43778 55.6169 1.43022 55.6451C1.42473 55.6691 1.42198 55.6935 1.42198 55.7183C1.42129 55.7402 1.42404 55.7622 1.43022 55.7832C1.43778 55.8114 1.44843 55.8385 1.46182 55.8646Z" fill="#76777B"/>
<path d="M0.64151 55.8646C0.658685 55.8983 0.687538 55.924 0.722574 55.9378C0.813943 55.981 0.919738 55.981 1.01111 55.9378C1.04649 55.9247 1.07568 55.8986 1.09217 55.8646C1.10625 55.8392 1.1169 55.8117 1.12411 55.7832C1.12995 55.7622 1.1327 55.7402 1.13201 55.7183C1.13201 55.6935 1.12927 55.6691 1.12411 55.6451C1.1169 55.6166 1.10625 55.5895 1.09217 55.5637C1.07568 55.53 1.04649 55.5036 1.01111 55.4905C0.917677 55.4582 0.816003 55.4582 0.722574 55.4905C0.687538 55.5043 0.658685 55.5304 0.64151 55.5637C0.628114 55.5898 0.617466 55.6169 0.609909 55.6451C0.604413 55.6691 0.601666 55.6935 0.601666 55.7183C0.600979 55.7402 0.603726 55.7622 0.609909 55.7832C0.617466 55.8114 0.628114 55.8385 0.64151 55.8646Z" fill="#76777B"/>
<path d="M15.4761 55.8644C15.4929 55.8981 15.5221 55.9242 15.5572 55.9376C15.6032 55.9578 15.6527 55.9692 15.7028 55.9702C15.7523 55.9692 15.8014 55.9578 15.8464 55.9376C15.8821 55.9245 15.9113 55.8984 15.9278 55.8644C15.9415 55.8387 15.9525 55.8115 15.9601 55.783C15.9659 55.7621 15.9687 55.7401 15.9683 55.7181C15.969 55.6638 15.9549 55.6106 15.9278 55.5639C15.9113 55.5299 15.8821 55.5034 15.8464 55.4907C15.8007 55.4732 15.7519 55.4649 15.7028 55.4663C15.653 55.4649 15.6039 55.4732 15.5572 55.4907C15.5221 55.5041 15.4929 55.5302 15.4761 55.5639C15.4624 55.5896 15.4517 55.6171 15.4435 55.6453C15.4387 55.669 15.4359 55.6937 15.4356 55.7184C15.4352 55.7404 15.438 55.7621 15.4435 55.7834C15.4517 55.8115 15.4624 55.8387 15.4761 55.8644Z" fill="#76777B"/>
<path d="M14.6538 55.8646C14.6707 55.8983 14.6999 55.9244 14.7349 55.9378C14.8266 55.981 14.9328 55.981 15.0241 55.9378C15.0595 55.9244 15.0887 55.8983 15.1055 55.8646C15.1189 55.8385 15.1296 55.8114 15.1371 55.7832C15.1426 55.7622 15.1454 55.7402 15.1454 55.7183C15.145 55.6935 15.1423 55.6691 15.1371 55.6451C15.1296 55.6169 15.1189 55.5898 15.1055 55.5637C15.0887 55.53 15.0595 55.5039 15.0241 55.4905C14.9307 55.4582 14.8287 55.4582 14.7349 55.4905C14.6999 55.5043 14.6707 55.53 14.6538 55.5637C14.6401 55.5898 14.6295 55.6169 14.6212 55.6451C14.6164 55.6691 14.6137 55.6935 14.6133 55.7183C14.613 55.7402 14.6157 55.7622 14.6212 55.7832C14.6295 55.8114 14.6401 55.8385 14.6538 55.8646Z" fill="#76777B"/>
<path d="M24.5633 58.9835V57.3103C24.5654 57.1894 24.5489 57.0692 24.5145 56.9531C24.4877 56.8614 24.4431 56.7755 24.383 56.7013C24.328 56.635 24.261 56.5801 24.1858 56.5389C24.1116 56.4952 24.0319 56.4623 23.9484 56.4413C23.8629 56.4245 23.7757 56.4162 23.6884 56.4169H23.3216C23.2395 56.4162 23.1581 56.4245 23.0777 56.4413C22.9949 56.4626 22.9152 56.4952 22.8414 56.5389C22.7665 56.5794 22.7002 56.6347 22.6466 56.7013C22.5872 56.7759 22.5425 56.8614 22.5157 56.9531C22.4814 57.0692 22.4649 57.1894 22.467 57.3103V58.0901C22.4649 58.211 22.4814 58.3312 22.5157 58.4473C22.5425 58.539 22.5868 58.6245 22.6466 58.6991C22.6999 58.7681 22.7661 58.8262 22.8414 58.8698C22.9156 58.9107 22.9953 58.9406 23.0777 58.9591C23.1636 58.9756 23.2505 58.9838 23.3377 58.9835H24.124C24.124 59.5846 23.7829 59.6334 23.4889 59.6334H23.0389V60.1043H23.4889C24.0233 60.1661 24.507 59.7828 24.5688 59.2483C24.5791 59.16 24.577 59.0711 24.5633 58.9835ZM24.1435 57.6191V58.561H23.3408C23.2151 58.572 23.0904 58.5277 22.9997 58.4394C22.9166 58.3151 22.8781 58.1663 22.8912 58.0169V57.3835C22.8768 57.2368 22.9152 57.0902 22.9997 56.9693C23.0828 56.8793 23.2024 56.8315 23.3247 56.8394H23.6919C23.8207 56.8267 23.9478 56.8748 24.036 56.9693C24.1216 57.0898 24.1607 57.2365 24.1466 57.3835L24.1435 57.6191Z" fill="#76777B"/>
<path d="M19.9271 54.8899V58.5608H18.9183V57.3101C18.9207 57.1892 18.9038 57.0687 18.8688 56.9529C18.8427 56.8612 18.7984 56.7757 18.739 56.7011C18.626 56.5713 18.4731 56.4827 18.3044 56.4494C18.2193 56.4257 18.131 56.4147 18.0427 56.4167H17.6765C17.5941 56.4147 17.512 56.4257 17.433 56.4494C17.265 56.483 17.1132 56.5716 17.0016 56.7011C16.9418 56.7753 16.8975 56.8612 16.8717 56.9529C16.8401 57.0611 16.8247 57.1731 16.8254 57.2858V57.3101V57.5702C16.8429 57.8353 16.7776 58.0988 16.6385 58.3255C16.4709 58.4979 16.2332 58.5848 15.9938 58.5608H15.5009V56.4171H15.0808V58.5608H13.9844V57.3101C13.9868 57.1892 13.9703 57.0687 13.9356 56.9529C13.9091 56.8609 13.8645 56.7753 13.804 56.7011C13.6917 56.5713 13.5395 56.483 13.3712 56.4494C13.2861 56.4257 13.1981 56.415 13.1098 56.4167H12.7499C12.6661 56.4143 12.5826 56.4253 12.5022 56.4494C12.3342 56.4827 12.1821 56.5713 12.0701 56.7011C12.0107 56.7757 11.9664 56.8612 11.9403 56.9529C11.9056 57.0687 11.8887 57.1892 11.8908 57.3101V58.0899C11.8887 58.2108 11.9056 58.3313 11.9403 58.4471C11.9664 58.5388 12.0107 58.6243 12.0701 58.6989C12.124 58.7676 12.1903 58.8256 12.2659 58.8696C12.3401 58.9105 12.4194 58.9407 12.5022 58.9589C12.5877 58.9757 12.675 58.984 12.7622 58.9833H13.5492C13.5492 59.5844 13.2064 59.6332 12.9123 59.6332H12.463V60.1041H12.9123C13.4471 60.1646 13.9298 59.7798 13.9902 59.2454C14.0002 59.1581 13.9981 59.0702 13.9844 58.9836H15.9938C16.1243 58.9829 16.2548 58.9695 16.3826 58.9428C16.5018 58.916 16.6165 58.8723 16.723 58.8129C16.8116 58.7559 16.89 58.6845 16.9552 58.6017C16.969 58.6357 16.9854 58.6683 17.005 58.6992C17.0586 58.7683 17.1249 58.826 17.2005 58.8699C17.2743 58.9108 17.3537 58.941 17.4361 58.9592C17.522 58.9761 17.6092 58.984 17.6968 58.9836H20.3479V54.8903M13.5646 57.6189V58.5608H12.7622C12.6358 58.5721 12.5111 58.5275 12.4201 58.4392C12.3377 58.3149 12.2995 58.1658 12.3123 58.0167V57.3833C12.2982 57.2366 12.3363 57.09 12.4201 56.9691C12.5032 56.8791 12.6228 56.8313 12.7451 56.8392H13.1122C13.2411 56.8269 13.3685 56.8749 13.4575 56.9691C13.542 57.0896 13.5811 57.2366 13.567 57.3833L13.5646 57.6189ZM18.4992 58.5608H17.6968C17.5704 58.5718 17.4454 58.5271 17.354 58.4392C17.2719 58.3145 17.2338 58.1658 17.2462 58.0167V57.3833C17.2324 57.2366 17.2705 57.0903 17.354 56.9691C17.4371 56.8791 17.5567 56.8313 17.6789 56.8392H18.0461C18.1749 56.8265 18.3027 56.8746 18.3913 56.9691C18.4765 57.0896 18.5157 57.2363 18.5016 57.3833L18.4992 58.5608Z" fill="#76777B"/>
</g>
</g>
<defs>
<clipPath id="clip0_1242_4193">
<rect width="93" height="64.9197" fill="white"/>
</clipPath>
</defs>
</svg>
