<svg width="140" height="36" viewBox="0 0 140 36" fill="none" xmlns="http://www.w3.org/2000/svg">
<g clip-path="url(#clip0_1293_5211)">
<mask id="mask0_1293_5211" style="mask-type:luminance" maskUnits="userSpaceOnUse" x="-9" y="-66" width="158" height="168">
<path d="M-8.33398 -65.4765H148.749V101.19H-8.33398V-65.4765Z" fill="white"/>
</mask>
<g mask="url(#mask0_1293_5211)">
<path d="M0.881836 13.1875C2.69824 13.1814 4.51465 13.1758 6.33106 13.1697C6.44259 13.1691 6.54626 13.1803 6.6358 13.2686C7.78879 14.4103 8.94388 15.5491 10.0979 16.6903C10.1032 16.6958 10.0974 16.7141 10.0942 16.7736H8.50875C7.29764 16.7736 6.08653 16.7647 4.87542 16.7797C4.60419 16.783 4.41726 16.6903 4.22352 16.4958C3.20772 15.4753 2.17882 14.4691 1.1515 13.4619C1.07348 13.3858 0.972421 13.3369 0.881836 13.2747V13.1875Z" fill="#8C7131"/>
<path d="M62.7965 16.7734C59.0945 16.7734 55.3931 16.7712 51.6912 16.779C51.4865 16.7795 51.143 16.639 51.1367 17.0228C51.1299 17.4467 51.4954 17.2917 51.7074 17.2923C59.0835 17.2995 66.4591 17.2984 73.8352 17.2978C73.9588 17.2978 74.084 17.304 74.206 17.2873C74.3787 17.2634 74.4175 17.1295 74.4117 16.9673C74.406 16.8123 74.3149 16.774 74.1908 16.7745C74.0803 16.7751 73.9703 16.7734 73.8604 16.7734C70.1726 16.7734 66.4843 16.7734 62.7965 16.7734ZM52.0185 25.5195C55.7078 25.5195 59.3972 25.5195 63.0871 25.519C63.2106 25.519 63.3363 25.5284 63.4578 25.5101C63.6028 25.4878 63.7332 25.4034 63.7233 25.2328C63.7133 25.0684 63.6018 24.9817 63.4358 24.994C63.3536 25.0001 63.2703 24.9945 63.1876 24.9945C55.7675 24.9945 48.3469 24.9945 40.9263 24.9945C40.8299 24.9945 40.7336 24.9928 40.6372 24.9973C40.4744 25.004 40.3781 25.0878 40.3828 25.269C40.387 25.4273 40.4765 25.5056 40.6194 25.5145C40.7289 25.5217 40.8394 25.519 40.9493 25.519C44.6392 25.5195 48.3286 25.5195 52.0185 25.5195ZM58.4154 21.234C54.7261 21.234 51.0367 21.234 47.3473 21.234C47.2232 21.234 47.0991 21.2323 46.9756 21.239C46.8525 21.2451 46.7541 21.3084 46.7536 21.4462C46.7536 21.5812 46.8043 21.7128 46.9468 21.744C47.0531 21.7673 47.1662 21.7584 47.2761 21.7584C54.7098 21.759 62.1441 21.759 69.5778 21.7584C69.6741 21.7584 69.771 21.7612 69.8668 21.754C70.0192 21.7428 70.0899 21.6295 70.0867 21.4901C70.083 21.3517 70.0087 21.2417 69.8553 21.2367C69.7453 21.2328 69.6354 21.234 69.5254 21.234C65.8219 21.234 62.1189 21.234 58.4154 21.234ZM66.235 13.0128C69.9239 13.0128 73.6132 13.0128 77.3026 13.0123C77.4398 13.0123 77.5817 13.0251 77.7126 12.9923C77.8508 12.9578 77.9671 12.8545 77.9498 12.6817C77.9335 12.5156 77.8042 12.4945 77.6723 12.4873C77.4413 12.4756 77.211 12.4456 76.98 12.4456C71.3345 12.4434 65.6889 12.439 60.0433 12.4484C58.3369 12.4512 56.6304 12.3912 54.9245 12.4867C54.7674 12.4956 54.5915 12.4967 54.6056 12.7228C54.6161 12.9012 54.7512 12.9956 54.9198 13.009C55.0292 13.0178 55.1402 13.0128 55.2502 13.0128C58.9118 13.0128 62.5734 13.0128 66.235 13.0128ZM87.2098 6.03118C82.2999 15.8512 75.1312 22.949 65.4182 26.9734C55.0229 31.2806 44.6073 31.0078 34.2722 26.6673C34.2665 26.6267 34.2602 26.5856 34.2539 26.5451C34.799 26.2662 35.343 25.9845 35.8891 25.709C38.5213 24.3801 41.0137 22.799 43.3983 21.0278C46.0943 19.0251 48.6056 16.7862 50.8875 14.2706C53.1364 11.7917 55.2319 9.17562 57.0038 6.28507C57.1258 6.08562 57.254 6.02618 57.4682 6.02674C67.2707 6.03173 77.0732 6.03118 86.8758 6.03118H87.2098Z" fill="#295F3E"/>
<path d="M10.9947 22.9129C10.3349 22.9129 9.6757 22.9101 9.01595 22.9151C8.87196 22.9163 8.67037 22.8429 8.60754 23.0218C8.54156 23.2096 8.70807 23.3285 8.84369 23.434C9.82912 24.1974 10.8146 24.9613 11.7979 25.7274C11.9581 25.8529 12.1293 25.9196 12.3304 25.919C13.6635 25.9163 14.9966 25.9163 16.3298 25.9196C16.4889 25.9196 16.6706 25.9046 16.7172 25.744C16.7575 25.6046 16.6015 25.5013 16.49 25.414C15.7946 24.8701 15.0621 24.3707 14.4149 23.769C13.652 23.059 12.8153 22.7674 11.8183 22.9074C11.5481 22.9451 11.2696 22.9129 10.9947 22.9129ZM67.4886 27.019C66.1995 27.8524 64.8423 28.5485 63.482 29.2363C59.7471 31.1263 55.8765 32.6229 51.8573 33.6829C46.7259 35.0363 41.516 35.5829 36.2374 35.2885C30.5725 34.9729 25.094 33.6974 19.7976 31.544C13.4771 28.9751 7.72159 25.3963 2.56088 20.7535C2.19854 20.4274 1.85767 20.0751 1.49219 19.7207C1.65294 19.6168 1.79117 19.6613 1.9205 19.6613C5.43079 19.6585 8.9416 19.6629 12.4519 19.6518C12.7634 19.6507 12.9985 19.7429 13.2295 19.9529C13.729 20.4085 14.2521 20.8346 14.7526 21.2885C14.9542 21.4707 15.1631 21.5385 15.4265 21.5379C18.3451 21.5301 21.2632 21.5357 24.1818 21.5279C24.4442 21.5268 24.6552 21.5963 24.862 21.764C28.0325 24.3329 31.4909 26.3624 35.2164 27.8724C39.1393 29.4624 43.2004 30.404 47.3972 30.7001C52.129 31.034 56.7808 30.5546 61.3582 29.2496C63.4406 28.6557 65.4591 27.8696 67.4352 26.959C67.4515 26.9801 67.4693 27.0001 67.4886 27.019Z" fill="#8C7131"/>
<path d="M116.512 11.2632H116.86C117.952 11.2632 118.03 11.1621 117.857 9.99763C117.771 9.41874 117.516 8.98041 116.953 8.83096C116.275 8.65096 115.592 8.64041 114.929 8.91207C114.377 9.13874 114.123 9.55429 114.161 10.111C114.198 10.6548 114.525 11.0198 115.095 11.176C115.583 11.3098 116.079 11.2443 116.512 11.2632ZM92.2497 11.6215C92.2497 10.4671 92.2507 9.43652 92.2481 8.40652C92.2481 8.29763 92.2733 8.21207 92.3487 8.13541C94.2567 6.19652 97.2313 5.99596 99.0189 7.57263C100.039 8.47263 100.536 9.65429 100.557 11.0521C100.573 12.1593 100.578 13.2671 100.551 14.3743C100.541 14.796 100.619 14.9454 101.061 14.9365C103.041 14.8987 105.022 14.8987 107.002 14.8998C110.043 14.9015 113.083 14.9137 116.123 14.926C116.416 14.9271 116.701 14.8898 116.975 14.7854C117.439 14.6087 117.711 14.261 117.789 13.7121C116.871 13.7121 115.977 13.7237 115.083 13.7087C114.052 13.6915 113.049 13.5221 112.211 12.8265C111.158 11.9537 110.921 10.726 111.058 9.41596C111.252 7.56652 112.255 6.48318 114.181 6.04929C115.693 5.70874 117.214 5.75263 118.697 6.27096C120.271 6.82096 121.093 8.02485 121.079 9.77707C121.066 11.2326 121.161 12.6915 121.023 14.1437C120.837 16.1137 119.484 17.5915 117.62 17.9121C117.115 17.9987 116.61 18.0315 116.101 18.0348C114.216 18.0482 112.331 18.0676 110.445 18.0676C108.396 18.0671 106.348 18.0398 104.299 18.0371C99.8127 18.0321 95.3264 18.036 90.8401 18.0343C90.7056 18.0343 90.4998 18.061 90.4516 17.986C90.3553 17.836 90.5343 17.7087 90.6108 17.5815C91.0831 16.7982 91.5716 16.0248 92.0324 15.2337C92.1743 14.9898 92.3335 14.9148 92.5974 14.9171C94.0425 14.931 95.4882 14.9082 96.9334 14.9343C97.312 14.9415 97.3931 14.8187 97.3806 14.4443C97.3533 13.6437 97.3491 12.8404 97.3769 12.0404C97.4512 9.88818 95.7993 9.17652 94.2143 9.94041C93.4582 10.3043 92.8838 10.9015 92.2497 11.6215Z" fill="#295F3E"/>
<path d="M126.668 8.14734C126.668 10.0129 126.668 11.8779 126.669 13.7435C126.669 14.7262 126.855 14.9235 127.773 14.924C129.987 14.924 132.201 14.9246 134.415 14.9235C135.692 14.9235 136.191 14.4129 136.201 13.049C136.214 11.3151 136.211 9.58068 136.198 7.84679C136.195 7.54346 136.256 7.3879 136.559 7.29457C137.413 7.03068 138.257 6.72623 139.101 6.42512C139.306 6.35234 139.397 6.35568 139.396 6.6279C139.381 9.09012 139.429 11.554 139.351 14.014C139.287 16.0229 137.874 17.5835 135.989 17.9046C134.844 18.099 133.687 18.0462 132.534 18.0468C131.612 18.0473 130.69 18.0773 129.769 18.0501C128.506 18.0129 127.234 18.154 125.982 17.9323C124.546 17.6785 123.673 16.674 123.485 15.1546C123.448 14.8523 123.427 14.5462 123.426 14.2418C123.422 10.6568 123.429 7.07179 123.415 3.48679C123.413 3.14068 123.495 2.96957 123.817 2.87012C124.646 2.61401 125.469 2.33734 126.284 2.0379C126.6 1.92179 126.677 1.97679 126.675 2.33235C126.661 4.27068 126.668 6.20901 126.668 8.14734Z" fill="#2A5F3F"/>
<path d="M50.6779 5.94289C46.0633 14.4001 38.0562 16.7262 30.9268 13.5773C31.7661 13.1568 32.5667 12.734 33.3317 12.239C35.7246 10.6907 37.6798 8.66011 39.2799 6.23511C39.3941 6.06234 39.4909 5.93567 39.7287 5.93622C43.3636 5.94567 46.999 5.94289 50.6779 5.94289Z" fill="#2A5F3F"/>
<path d="M97.7858 29.3559C97.7858 27.0943 97.792 24.9415 97.7795 22.7887C97.7774 22.4637 97.8334 22.3331 98.1759 22.3481C98.8764 22.3798 99.5797 22.367 100.281 22.3526C100.517 22.3481 100.614 22.3898 100.613 22.6787C100.604 26.6565 100.604 30.6343 100.612 34.6115C100.613 34.8754 100.553 34.9659 100.292 34.9559C99.7289 34.9348 99.1634 34.9326 98.6 34.9565C98.3151 34.9687 98.1622 34.8681 98.0214 34.6037C96.9914 32.6648 95.8631 30.7915 94.609 29.0048C94.1708 28.3804 93.7314 27.7548 93.157 27.0915V27.6537C93.157 29.9409 93.1508 32.2287 93.1639 34.5159C93.1659 34.8537 93.0916 34.972 92.7549 34.9581C92.0543 34.9298 91.3511 34.9409 90.6495 34.9548C90.4186 34.9593 90.3447 34.8881 90.3453 34.6376C90.3521 30.6454 90.3521 26.6531 90.3447 22.6609C90.3442 22.4004 90.4322 22.3454 90.6537 22.3531C91.0799 22.3687 91.5119 22.3998 91.9328 22.3476C92.4853 22.2787 92.8418 22.5148 93.1958 22.9431C94.7808 24.8626 96.1945 26.917 97.5507 29.0187C97.6041 29.102 97.6638 29.1815 97.7858 29.3559Z" fill="#2A5F3F"/>
<path d="M131.661 28.1115C131.661 25.9848 131.668 23.8582 131.653 21.7315C131.651 21.4054 131.735 21.2743 132.043 21.2321C132.709 21.1409 133.373 21.0232 134.034 20.8954C134.308 20.8421 134.413 20.8798 134.407 21.2193C134.386 22.4132 134.414 23.6082 134.39 24.8021C134.382 25.2032 134.455 25.3043 134.851 25.2204C135.929 24.9926 136.985 25.0782 137.964 25.6632C138.744 26.1293 139.161 26.8798 139.357 27.7787C139.474 28.3176 139.527 28.8665 139.524 29.4232C139.516 31.1126 139.506 32.8032 139.533 34.4921C139.539 34.8987 139.419 34.9737 139.072 34.9582C138.427 34.9287 137.778 34.9359 137.132 34.9565C136.861 34.9648 136.787 34.8798 136.789 34.5926C136.802 32.9759 136.791 31.3587 136.798 29.7421C136.799 29.3754 136.765 29.0143 136.702 28.6576C136.581 27.9765 136.221 27.6548 135.568 27.6193C135.499 27.6154 135.43 27.6176 135.361 27.6182C134.425 27.6243 134.399 27.6509 134.399 28.6159C134.399 30.5537 134.381 32.4915 134.412 34.4282C134.419 34.8937 134.282 34.9832 133.886 34.9587C133.31 34.9237 132.729 34.9232 132.153 34.9593C131.767 34.9832 131.644 34.8871 131.65 34.4482C131.674 32.3359 131.661 30.2237 131.661 28.1115Z" fill="#295F3E"/>
<path d="M107.547 31.899C107.547 31.6668 107.545 31.4345 107.547 31.2018C107.549 31.0756 107.534 30.9695 107.384 30.9551C106.811 30.8984 106.236 30.8279 105.676 31.0295C105.197 31.2023 105.03 31.4718 105.055 31.9684C105.078 32.4206 105.288 32.6551 105.771 32.7806C106.067 32.8573 106.368 32.8734 106.67 32.864C107.547 32.8356 107.547 32.8345 107.547 31.899ZM110.191 31.2729C110.191 32.434 110.192 33.3951 110.19 34.3568C110.19 34.5062 110.235 34.6562 110 34.7062C108.199 35.0895 106.392 35.3579 104.565 34.9562C103.582 34.7401 102.795 34.1884 102.493 33.1234C102.175 32.004 102.198 30.8979 103.009 29.9773C103.633 29.2695 104.468 29.0318 105.342 28.9312C106 28.8556 106.662 28.8568 107.316 28.9584C107.564 28.9968 107.557 28.8862 107.545 28.714C107.504 28.144 107.165 27.7229 106.599 27.6062C105.661 27.4129 104.737 27.5595 103.831 27.8284C103.57 27.9062 103.469 27.8868 103.431 27.5873C103.359 27.0118 103.256 26.4406 103.179 25.8662C103.16 25.7273 103.083 25.5534 103.325 25.4918C104.86 25.0984 106.406 24.8584 107.964 25.3101C109.256 25.6845 109.94 26.6318 110.114 28.0262C110.257 29.174 110.15 30.3245 110.191 31.2729Z" fill="#2A5F3F"/>
<path d="M112.244 29.488C112.244 27.9286 112.244 26.3686 112.244 24.8091C112.245 23.993 112.406 23.2219 112.821 22.523C113.444 21.4752 114.394 21.0175 115.51 20.9019C116.335 20.8164 117.157 20.8502 117.952 21.1614C118.169 21.2464 118.295 21.318 118.215 21.6208C118.066 22.1925 117.971 22.7808 117.853 23.3619C117.816 23.5414 117.766 23.6186 117.55 23.5386C117.026 23.3447 116.482 23.2658 115.929 23.4136C115.242 23.5969 114.755 24.5175 114.971 25.2036C115.031 25.3952 115.168 25.3275 115.276 25.328C116.102 25.3341 116.928 25.3408 117.755 25.3258C117.999 25.3214 118.097 25.3769 118.087 25.6602C118.067 26.2569 118.066 26.8558 118.087 27.4525C118.097 27.7369 117.998 27.7886 117.755 27.7841C116.957 27.7691 116.157 27.7991 115.36 27.7691C115.017 27.7564 114.961 27.8847 114.962 28.2097C114.975 30.3086 114.96 32.408 114.977 34.5069C114.981 34.8819 114.872 34.9725 114.536 34.958C113.904 34.9308 113.269 34.9275 112.637 34.9591C112.293 34.9769 112.235 34.8436 112.237 34.5169C112.252 32.8408 112.244 31.1641 112.244 29.488Z" fill="#2A603F"/>
<path d="M129.814 32.3473C129.933 33.0351 130.046 33.7057 130.167 34.3746C130.196 34.5351 130.196 34.6529 130.021 34.7201C128.648 35.2518 127.256 35.3857 125.875 34.8118C124.741 34.3401 124.284 33.3246 124.151 32.1062C124.095 31.5996 124.082 31.0918 124.083 30.5818C124.088 28.2079 124.091 25.8335 124.078 23.4596C124.076 23.129 124.131 22.9723 124.48 22.929C125.174 22.8435 125.863 22.7023 126.551 22.5718C126.748 22.5351 126.818 22.5768 126.814 22.8029C126.803 23.5312 126.82 24.2596 126.805 24.9873C126.799 25.2535 126.874 25.3412 127.131 25.3362C127.928 25.3207 128.727 25.3412 129.524 25.3246C129.78 25.3196 129.855 25.4001 129.847 25.669C129.828 26.2657 129.831 26.8635 129.845 27.4601C129.852 27.7107 129.77 27.7862 129.538 27.7823C128.74 27.7701 127.941 27.7907 127.144 27.7707C126.864 27.7635 126.8 27.8623 126.804 28.1407C126.819 29.0873 126.798 30.0346 126.813 30.9807C126.834 32.3996 127.355 32.8473 128.686 32.6373C129.066 32.5773 129.431 32.4607 129.814 32.3473Z" fill="#2A603F"/>
<path d="M10.5244 14.849H12.9309C14.5122 14.849 16.0935 14.849 17.6748 14.849C17.8387 14.8484 17.9859 14.8418 18.1168 15.0046C19.4494 16.6696 20.882 18.2329 22.4376 19.6723C22.3407 19.8284 22.2046 19.7607 22.0962 19.7612C20.006 19.7662 17.9157 19.7634 15.8255 19.7673C15.627 19.7673 15.4532 19.7434 15.2971 19.589C13.7431 18.0529 12.1837 16.5223 10.627 14.9896C10.6071 14.9701 10.593 14.944 10.5244 14.849Z" fill="#8C7131"/>
<path d="M122.017 30.1493C122.017 31.6048 122.009 33.0604 122.024 34.5154C122.027 34.8382 121.973 34.9765 121.627 34.9593C120.969 34.927 120.307 34.9393 119.647 34.9554C119.391 34.9615 119.285 34.9054 119.286 34.6004C119.297 31.617 119.295 28.6332 119.288 25.6498C119.287 25.4065 119.347 25.3209 119.586 25.3259C120.287 25.3415 120.989 25.3465 121.69 25.3237C121.974 25.3148 122.025 25.4248 122.023 25.6959C122.012 27.1804 122.017 28.6648 122.017 30.1493Z" fill="#2A603F"/>
<path d="M94.4102 2.87188C94.4138 1.88799 95.1856 1.05188 96.0957 1.04577C97.0099 1.03966 97.8042 1.90577 97.7979 2.90132C97.7916 3.87743 97.0099 4.70299 96.0899 4.7041C95.1883 4.70521 94.4065 3.85243 94.4102 2.87188Z" fill="#2A603F"/>
<path d="M117.639 2.19858C117.633 3.18858 116.864 4.00747 115.943 4.00414C115.016 4.00081 114.236 3.14081 114.253 2.14025C114.269 1.18803 115.062 0.343029 115.937 0.346363C116.876 0.349696 117.645 1.18636 117.639 2.19858Z" fill="#2A603F"/>
<path d="M135.444 4.54197C134.521 4.53697 133.743 3.70197 133.751 2.72475C133.76 1.73141 134.53 0.924747 135.463 0.930859C136.396 0.936414 137.167 1.76141 137.16 2.7453C137.153 3.73197 136.375 4.54697 135.444 4.54197Z" fill="#2A603F"/>
<path d="M120.684 21.0465C121.631 21.0598 122.28 21.7642 122.265 22.7637C122.252 23.7354 121.585 24.4276 120.67 24.4204C119.699 24.412 119.027 23.702 119.045 22.702C119.063 21.707 119.729 21.0331 120.684 21.0465Z" fill="#2A603F"/>
<path d="M5.77832 9.8643C6.99362 9.8643 8.10263 9.86541 9.21111 9.86263C9.31427 9.86263 9.39438 9.8943 9.46925 9.96818C10.1767 10.6699 10.8861 11.3687 11.6648 12.1376C10.4568 12.1376 9.33783 12.1376 8.21835 12.1382C8.13405 12.1382 8.06336 12.1182 7.99581 12.0515C7.2858 11.3471 6.57264 10.6465 5.77832 9.8643Z" fill="#8C7131"/>
<path d="M67.4355 26.9593C67.467 26.9537 67.4984 26.9487 67.5298 26.9432C67.5162 26.9687 67.5026 26.9943 67.489 27.0193C67.4701 27.0004 67.4523 26.9804 67.4355 26.9593Z" fill="#8C7131"/>
<path d="M66.2346 13.0128C62.573 13.0128 58.9114 13.0128 55.2498 13.0128C55.1398 13.0128 55.0294 13.0178 54.9194 13.0089C54.7513 12.9955 54.6162 12.9016 54.6052 12.7228C54.5916 12.4972 54.767 12.4955 54.9246 12.4872C56.63 12.3916 58.337 12.4511 60.0429 12.4483C65.6885 12.4394 71.3346 12.4439 76.9802 12.4455C77.2106 12.4455 77.4415 12.4755 77.6724 12.4872C77.8038 12.4944 77.9337 12.5155 77.9499 12.6822C77.9667 12.8544 77.8504 12.9578 77.7127 12.9922C77.5813 13.025 77.4394 13.0122 77.3022 13.0122C73.6128 13.0128 69.924 13.0128 66.2346 13.0128Z" fill="#2F6D4A"/>
<path d="M58.4158 21.2336C62.1188 21.2336 65.8223 21.2336 69.5252 21.2336C69.6357 21.2336 69.7457 21.2325 69.8556 21.2364C70.009 21.2414 70.0834 21.3514 70.0865 21.4903C70.0902 21.6292 70.019 21.7431 69.8666 21.7542C69.7708 21.7608 69.6745 21.7586 69.5781 21.7586C62.1439 21.7586 54.7102 21.7586 47.276 21.7581C47.1665 21.7581 47.0534 21.7669 46.9471 21.7442C46.8047 21.7131 46.7534 21.5814 46.7539 21.4464C46.7544 21.3081 46.8529 21.2453 46.9759 21.2386C47.0995 21.2319 47.2236 21.2336 47.3477 21.2336C51.037 21.2336 54.7264 21.2336 58.4158 21.2336Z" fill="#2F6D4A"/>
<path d="M52.0181 25.5191C48.3288 25.5191 44.6389 25.5191 40.9495 25.5191C40.8396 25.5191 40.7291 25.5213 40.6191 25.5147C40.4762 25.5052 40.3866 25.4269 40.383 25.2686C40.3783 25.088 40.4746 25.0036 40.6375 24.9969C40.7338 24.993 40.8301 24.9941 40.9265 24.9941C48.3471 24.9941 55.7672 24.9941 63.1878 24.9941C63.2705 24.9941 63.3533 24.9997 63.4355 24.9936C63.602 24.9819 63.7135 25.068 63.7229 25.2325C63.7329 25.4036 63.603 25.4875 63.458 25.5097C63.3365 25.5286 63.2109 25.5191 63.0868 25.5191C59.3974 25.5191 55.7075 25.5191 52.0181 25.5191Z" fill="#2F6D4A"/>
<path d="M62.7966 16.773C66.4844 16.773 70.1727 16.773 73.8605 16.773C73.9704 16.773 74.0804 16.7747 74.1909 16.7741C74.315 16.7736 74.4061 16.8119 74.4119 16.9669C74.4176 17.1291 74.3789 17.263 74.2061 17.2869C74.0841 17.3036 73.9589 17.2974 73.8354 17.2974C66.4592 17.298 59.0837 17.2991 51.7075 17.2919C51.4955 17.2913 51.13 17.4463 51.1368 17.0224C51.1431 16.6386 51.4866 16.7791 51.6913 16.7786C55.3932 16.7708 59.0947 16.773 62.7966 16.773Z" fill="#2F6D4A"/>
</g>
</g>
<defs>
<clipPath id="clip0_1293_5211">
<rect width="139.583" height="35" fill="white" transform="translate(0 0.356689)"/>
</clipPath>
</defs>
</svg>
