<svg width="93" height="44" viewBox="0 0 93 44" fill="none" xmlns="http://www.w3.org/2000/svg">
<g clip-path="url(#clip0_1242_4033)">
<mask id="mask0_1242_4033" style="mask-type:luminance" maskUnits="userSpaceOnUse" x="0" y="-24" width="93" height="94">
<path d="M0 -23.7148H93V69.2852H0V-23.7148Z" fill="white"/>
</mask>
<g mask="url(#mask0_1242_4033)">
<path fill-rule="evenodd" clip-rule="evenodd" d="M22.595 15.8311C22.595 17.5349 21.2139 18.9141 19.5117 18.9141C17.8098 18.9141 16.4297 17.5349 16.4297 15.8311C16.4297 14.128 17.8098 12.7494 19.5117 12.7494C21.2139 12.7494 22.595 14.128 22.595 15.8311Z" fill="#F16522"/>
</g>
<path d="M14.7461 2.34331C14.7461 3.58145 15.7505 4.58398 16.9871 4.58398C18.2246 4.58398 19.2278 3.58145 19.2278 2.34331C19.2278 1.10579 18.2246 0.102622 16.9871 0.102622C15.7505 0.102622 14.7461 1.10579 14.7461 2.34331Z" fill="url(#paint0_linear_1242_4033)"/>
<path d="M19.9414 2.34331C19.9414 3.58145 20.9461 4.58398 22.1833 4.58398C23.4199 4.58398 24.4231 3.58145 24.4231 2.34331C24.4231 1.10579 23.4199 0.102622 22.1833 0.102622C20.9461 0.102622 19.9414 1.10579 19.9414 2.34331Z" fill="url(#paint1_linear_1242_4033)"/>
<path d="M9.17773 15.7566C9.17773 21.4203 13.7704 26.0059 19.4319 26.0059C25.0947 26.0059 29.6852 21.4203 29.6852 15.7566C29.6852 10.0914 25.0947 5.50029 19.4319 5.50029C13.7704 5.50029 9.17773 10.0914 9.17773 15.7566ZM12.9309 17.7797C12.7322 17.1389 10.149 16.4557 10.149 15.7492C10.149 15.0275 12.7387 14.3341 12.947 13.6799C13.8243 10.9352 16.3958 8.94625 19.4319 8.94625C22.4662 8.94625 25.0364 10.9321 25.9165 13.6744C26.1257 14.3306 28.7514 15.0275 28.7514 15.7566C28.7514 16.4603 26.131 17.1408 25.9326 17.7825C25.0686 20.5502 22.486 22.5645 19.4319 22.5645C16.3769 22.5645 13.7939 20.5495 12.9309 17.7797Z" fill="url(#paint2_linear_1242_4033)"/>
<path d="M67.7936 8.66307C67.7936 8.66307 67.8066 20.0491 67.8066 20.4087C67.8066 20.8442 67.4256 21.4081 66.6013 21.4081H62.5354L62.5357 8.75173C62.5357 8.75173 62.5552 5.64956 59.3411 5.64956C56.1286 5.64956 56.1847 8.71608 56.1779 8.73778C56.1779 8.73778 56.1937 20.1613 56.1937 20.378C56.1937 20.5891 55.8453 21.3418 54.8877 21.3418H51.2405V11.8127C51.2405 11.8127 51.3682 5.64057 43.3129 5.64057C35.2597 5.64057 35.3695 11.8105 35.3648 11.8099V21.3721H26.7406C25.1689 23.8537 22.5534 25.6046 19.5117 26.0138H35.3648C35.3648 26.0138 35.2458 31.8867 43.3371 31.8867C51.4368 31.8867 51.2334 26.0243 51.2334 26.0243L77.2229 26.0138C77.2229 26.0138 83.8218 25.6318 83.8218 20.5482V8.74925C83.8218 8.74925 83.8373 5.64677 80.6239 5.64677C77.411 5.64677 77.4684 8.71329 77.4613 8.7353L77.4755 12.6779C77.4755 12.6779 77.4982 19.9939 77.4982 20.378C77.4982 20.7624 77.2548 21.3418 76.0889 21.4081L74.148 21.4388L74.1523 8.67826C74.1523 8.67826 74.165 5.57485 70.9553 5.57485C67.7428 5.57485 67.7992 8.64385 67.7936 8.66307ZM41.6079 25.5677V12.0306C41.6079 11.0981 42.3615 10.342 43.2977 10.342C44.2336 10.342 44.986 11.0981 44.986 12.0306V25.5677C44.986 26.5033 44.2336 27.2615 43.2977 27.2615C42.3615 27.2615 41.6079 26.5033 41.6079 25.5677Z" fill="url(#paint3_linear_1242_4033)"/>
<mask id="mask1_1242_4033" style="mask-type:luminance" maskUnits="userSpaceOnUse" x="0" y="-24" width="93" height="94">
<path d="M0 -23.7148H93V69.2852H0V-23.7148Z" fill="white"/>
</mask>
<g mask="url(#mask1_1242_4033)">
<path d="M12.0541 34.6746C12.0541 34.8557 11.9081 35.0252 11.7035 35.0252C11.4989 35.0252 11.3414 34.8671 11.3414 34.6628C11.3414 34.4759 11.4989 34.3066 11.7035 34.3066C11.8904 34.3066 12.0541 34.4585 12.0541 34.6746ZM11.5575 36.0647C11.4465 36.0709 11.3414 36.0767 11.2419 36.0767C11.0435 36.0823 10.8681 36.1527 10.722 36.2984C10.576 36.4447 10.506 36.6258 10.506 36.8418C10.5119 37.3502 10.6929 37.6072 11.0491 37.6072C11.2246 37.6072 11.3938 37.584 11.5575 37.5372V36.0647ZM11.1195 34.6746C11.1195 34.8557 10.9735 35.0252 10.7689 35.0252C10.5643 35.0252 10.4127 34.8671 10.4127 34.6628C10.4127 34.4759 10.5643 34.3066 10.7689 34.3066C10.9617 34.3066 11.1195 34.4585 11.1195 34.6746ZM12.4103 38.2207C12.1006 38.2207 11.8554 38.1212 11.6685 37.9228C11.4642 38.0338 11.2128 38.0862 10.9149 38.0917C10.2899 38.0917 9.91016 37.6481 9.91016 36.9469C9.91016 36.5672 10.0329 36.2634 10.284 36.0358C10.5351 35.8021 10.8681 35.6852 11.2773 35.6852H11.4642L11.4288 35.4223C11.6803 35.3582 11.9137 35.3055 12.1301 35.2645V37.2216C12.1301 37.5372 12.2702 37.6946 12.5566 37.6946H12.9246V38.2207H12.4103Z" fill="#206589"/>
<path d="M14.3778 39.1611C14.3778 39.3421 14.2259 39.5117 14.0213 39.5117C13.8288 39.5117 13.671 39.3654 13.671 39.1549C13.671 38.9624 13.8288 38.8046 14.0213 38.8046C14.2144 38.8046 14.3778 38.9565 14.3778 39.1611ZM15.0263 38.2206H14.5883C14.3546 38.2206 14.1617 38.162 14.0154 38.0451C13.8638 38.162 13.6769 38.2206 13.4546 38.2206H12.7596V37.6948H13.303C13.5892 37.6948 13.7293 37.5426 13.7293 37.2332V36.6315L13.6124 35.8779L14.3077 35.726V37.2332C14.3077 37.5426 14.4479 37.6948 14.734 37.6948H15.0263V38.2206ZM13.449 39.1611C13.449 39.3421 13.2913 39.5117 13.0867 39.5117C12.8997 39.5117 12.7305 39.3654 12.7305 39.1549C12.7305 38.9624 12.8997 38.8046 13.0867 38.8046C13.2795 38.8046 13.449 38.9565 13.449 39.1611Z" fill="#206589"/>
<path d="M16.2985 34.815C16.2985 35.0079 16.1525 35.1653 15.9479 35.1653C15.7436 35.1653 15.5917 35.0193 15.5917 34.815C15.5917 34.6108 15.7436 34.4585 15.9479 34.4585C16.1407 34.4585 16.2985 34.6108 16.2985 34.815ZM16.6196 37.3738C16.6196 37.8937 16.2867 38.2207 15.7554 38.2207H14.8613V37.6949H15.6149C15.9011 37.6949 16.0415 37.543 16.0415 37.2337V36.6552L15.9423 35.9075L16.6196 35.7556V37.3738Z" fill="#206589"/>
<path d="M18.6871 38.2207H18.2314C17.6997 38.2207 17.3668 37.8933 17.3668 37.3502V35.3641L17.2676 34.6163L17.9511 34.4585V37.216C17.9511 37.5375 18.0912 37.6949 18.3715 37.6949H18.6871V38.2207Z" fill="#206589"/>
<path d="M21.0354 37.806V36.7371L20.9886 36.4098C20.9008 36.3803 20.8075 36.3689 20.7083 36.3689C20.2232 36.3689 19.978 36.673 19.978 37.2862C19.978 37.7766 20.1884 38.0692 20.4687 38.0692C20.6792 38.0692 20.8661 37.9812 21.0354 37.806ZM22.3265 38.2208H21.9058C21.6898 38.2208 21.5025 38.1622 21.3509 38.0398C21.0645 38.3786 20.7198 38.5479 20.3168 38.5479C19.9897 38.5479 19.7383 38.4018 19.5691 38.1157C19.4404 38.1858 19.2944 38.2208 19.1307 38.2208H18.5234V37.695H18.9732C19.2361 37.695 19.3704 37.5667 19.3762 37.3094C19.4054 36.474 19.9488 35.9659 20.8367 35.9659C21.1231 35.9659 21.4033 36.0127 21.6839 36.1001L21.6138 36.7077V37.2335C21.6138 37.5428 21.7539 37.695 22.0401 37.695H22.3265V38.2208Z" fill="#206589"/>
<path d="M23.8444 34.815C23.8444 35.0079 23.6925 35.1653 23.4883 35.1653C23.2954 35.1653 23.1376 35.0193 23.1376 34.8092C23.1376 34.6163 23.2954 34.4585 23.4883 34.4585C23.6925 34.4585 23.8444 34.6108 23.8444 34.815ZM22.9098 34.815C22.9098 35.0079 22.7579 35.1653 22.5533 35.1653C22.3605 35.1653 22.203 35.0193 22.203 34.8092C22.203 34.6163 22.3605 34.4585 22.5533 34.4585C22.7579 34.4585 22.9098 34.6108 22.9098 34.815ZM24.4344 38.2207H23.9963C23.7626 38.2207 23.5698 38.1624 23.4238 38.0456C23.266 38.1624 23.0791 38.2207 22.863 38.2207H22.168V37.6949H22.7052C22.9916 37.6949 23.1376 37.543 23.1376 37.2337V36.667L23.0149 35.9075L23.7099 35.7497V37.2337C23.7099 37.543 23.8503 37.6949 24.1306 37.6949H24.4344V38.2207Z" fill="#206589"/>
<path d="M26.2148 35.3758H24.4797V35.0134H24.7485C24.7485 34.5168 25.0173 34.1783 25.4847 34.1783C25.6776 34.1783 25.8586 34.2425 26.0396 34.3708C26.0105 34.4468 25.9693 34.5463 25.9287 34.6628C25.8291 34.5754 25.7182 34.5289 25.6013 34.5289C25.3384 34.5404 25.2042 34.7038 25.2101 35.0134H25.5722L25.9051 34.984L26.2148 35.3758ZM26.0279 37.3735C26.0279 37.8933 25.6949 38.2207 25.1633 38.2207H24.2695V37.6946H25.0231C25.3093 37.6946 25.4497 37.5427 25.4497 37.2334V36.6552L25.3502 35.9075L26.0279 35.7556V37.3735Z" fill="#206589"/>
<path d="M29.2011 37.3502C29.2011 37.5954 29.1251 37.8 28.9791 37.9575C28.8272 38.133 28.6171 38.2207 28.3483 38.2207H26.6892L26.9403 37.6946H28.161L27.0748 35.843L26.5078 35.165H27.2791L28.6226 37.4848V35.3988L28.4825 34.6163L29.2011 34.4585V37.3502Z" fill="#206589"/>
<path d="M30.5777 34.4468L30.5132 35.2239V38.2207H29.9351V35.2295L29.8477 34.505L30.5777 34.4468Z" fill="#206589"/>
<path d="M35.2094 35.7729C35.2094 35.9655 35.0516 36.1236 34.8588 36.1236C34.6545 36.1236 34.5026 35.9772 34.5026 35.7667C34.5026 35.5742 34.6545 35.4164 34.8588 35.4164C35.0516 35.4164 35.2094 35.5683 35.2094 35.7729ZM34.2748 35.7729C34.2748 35.9655 34.117 36.1236 33.9242 36.1236C33.7196 36.1236 33.568 35.9772 33.568 35.7667C33.568 35.5742 33.7196 35.4164 33.9242 35.4164C34.117 35.4164 34.2748 35.5683 34.2748 35.7729ZM36.6581 37.3679C36.6581 37.8992 36.331 38.2207 35.7994 38.2207H33.1765C32.8435 38.2207 32.5747 38.1038 32.376 37.8757C32.1776 37.6419 32.0781 37.3384 32.0781 36.9587C32.0781 36.6667 32.1541 36.392 32.306 36.1288H32.8258C32.6448 36.3864 32.5515 36.6258 32.5515 36.8418C32.5515 37.4082 32.7852 37.6946 33.2465 37.6946H35.6534C35.9395 37.6946 36.0858 37.5427 36.0858 37.2334V36.6552L35.9748 35.9075L36.6581 35.7494V37.3679Z" fill="#206589"/>
<path d="M38.7242 38.2207H38.2685C37.7368 38.2207 37.4039 37.8933 37.4039 37.3502V35.3641L37.3047 34.6163L37.9882 34.4585V37.216C37.9882 37.5375 38.1284 37.6949 38.4086 37.6949H38.7242V38.2207Z" fill="#206589"/>
<path d="M40.9379 36.4215L40.8914 36.0823C40.8037 36.0535 40.6983 36.0417 40.5876 36.0417C40.0969 36.0417 39.8514 36.3452 39.8514 36.9587C39.8514 37.4494 40.021 37.6946 40.3539 37.6946C40.7687 37.6946 40.9789 37.4321 40.9789 36.9119C40.9789 36.7773 40.9671 36.614 40.9379 36.4215ZM41.5514 35.7729L41.4987 36.3802V37.1924C41.4987 37.8757 41.0607 38.2207 40.1902 38.2207H38.5605V37.6946H39.4484C39.3315 37.4962 39.2729 37.2861 39.2729 37.07C39.2729 36.6375 39.4016 36.2928 39.6586 36.0296C39.9156 35.7671 40.2662 35.6387 40.716 35.6387C40.9962 35.6387 41.2768 35.6852 41.5514 35.7729Z" fill="#206589"/>
<path d="M43.741 37.6948V36.0183H43.4431C42.9815 36.0183 42.7071 36.3922 42.7071 36.9998C42.7071 37.4611 42.8882 37.6948 43.2503 37.6948H43.741ZM45.0086 38.2206H44.3195C44.2199 38.8923 43.8055 39.3248 43.0869 39.5117L42.9641 39.2839C43.4663 39.091 43.7292 38.7345 43.7587 38.2206H43.2038C42.8882 38.2206 42.6312 38.1273 42.4384 37.9344C42.2223 37.7298 42.1113 37.4552 42.1113 37.1052C42.1113 36.6783 42.2338 36.3398 42.4852 36.0766C42.7363 35.8137 43.0692 35.6795 43.4781 35.6795H44.3309V37.6948H45.0086V38.2206Z" fill="#206589"/>
<path d="M47.0869 38.2207H46.6953C46.4619 38.2207 46.2691 38.1621 46.1172 38.0397C45.9712 38.1621 45.7843 38.2207 45.562 38.2207H44.8496V37.6949H45.4104C45.6906 37.6949 45.8308 37.5375 45.8308 37.216V35.3988L45.7198 34.6163L46.4151 34.4585V37.216C46.4151 37.5375 46.5552 37.6949 46.8358 37.6949H47.0869V38.2207Z" fill="#206589"/>
<path d="M49.8971 36.6552C49.8794 36.5383 49.8034 36.4329 49.6692 36.3452C49.5 36.2404 49.2836 36.1877 49.0325 36.1877C48.7811 36.1877 48.5712 36.2404 48.4016 36.3452C48.2615 36.4447 48.1797 36.5442 48.162 36.6552C48.3548 36.8418 48.6409 37.1165 49.0325 37.4786L49.8971 36.6552ZM51.0186 38.2207H49.6283C49.4528 38.2207 49.2485 38.1683 49.0207 38.0691C48.9798 38.0921 48.8455 38.0979 48.6177 38.0921C48.4481 38.0921 48.3666 38.1333 48.3607 38.2207H46.918V37.6949H48.273C48.3489 37.6949 48.419 37.6891 48.4949 37.6714C48.3607 37.5545 48.0395 37.251 47.5253 36.7603C47.5253 36.4856 47.6713 36.2345 47.9636 36.0126C48.2615 35.7906 48.6177 35.6793 49.0325 35.6793C49.4414 35.6793 49.7979 35.7906 50.1014 36.0182C50.3878 36.2345 50.5279 36.4856 50.5279 36.7603C50.4696 36.8127 50.1423 37.1165 49.5465 37.6714C49.6224 37.6891 49.7042 37.6949 49.7802 37.6949H51.0186V38.2207Z" fill="#206589"/>
<path d="M53.1913 37.806V36.7371L53.1448 36.4098C53.0571 36.3803 52.9638 36.3689 52.8643 36.3689C52.3794 36.3689 52.1342 36.673 52.1342 37.2862C52.1342 37.7766 52.3444 38.0692 52.6249 38.0692C52.8351 38.0692 53.022 37.9812 53.1913 37.806ZM54.4825 38.2208H54.0621C53.8457 38.2208 53.6588 38.1622 53.5072 38.0398C53.2208 38.3786 52.8757 38.5479 52.473 38.5479C52.1457 38.5479 51.8946 38.4018 51.7253 38.1157C51.5964 38.1858 51.4507 38.2208 51.287 38.2208H50.6797V37.695H51.1295C51.3921 37.695 51.5266 37.5667 51.5322 37.3094C51.5616 36.474 52.1048 35.9659 52.9926 35.9659C53.279 35.9659 53.5593 36.0127 53.8398 36.1001L53.7698 36.7077V37.2335C53.7698 37.5428 53.9099 37.695 54.1963 37.695H54.4825V38.2208Z" fill="#206589"/>
<path d="M56.5598 38.2207H56.1683C55.9346 38.2207 55.7418 38.1621 55.5899 38.0397C55.4438 38.1621 55.2569 38.2207 55.035 38.2207H54.3223V37.6949H54.8831C55.1636 37.6949 55.3037 37.5375 55.3037 37.216V35.3988L55.1927 34.6163L55.8878 34.4585V37.216C55.8878 37.5375 56.0282 37.6949 56.3084 37.6949H56.5598V38.2207Z" fill="#206589"/>
<path d="M58.3594 37.3502C58.3594 37.8933 58.0265 38.2207 57.4886 38.2207H56.3965V37.6946H57.3485C57.6349 37.6946 57.7751 37.5375 57.7751 37.2157V35.3582L57.6759 34.5869L58.3594 34.4235V37.3502Z" fill="#206589"/>
<path d="M62.0033 34.6746C62.0033 34.8557 61.8573 35.0252 61.6527 35.0252C61.4484 35.0252 61.2906 34.8671 61.2906 34.6628C61.2906 34.4759 61.4484 34.3066 61.6527 34.3066C61.84 34.3066 62.0033 34.4585 62.0033 34.6746ZM61.5067 36.0647C61.3957 36.0709 61.2906 36.0767 61.1914 36.0767C60.9927 36.0823 60.8176 36.1527 60.6716 36.2984C60.5253 36.4447 60.4555 36.6258 60.4555 36.8418C60.4611 37.3502 60.6421 37.6072 60.9986 37.6072C61.1738 37.6072 61.3433 37.584 61.5067 37.5372V36.0647ZM61.0687 34.6746C61.0687 34.8557 60.9227 35.0252 60.7181 35.0252C60.5138 35.0252 60.3619 34.8671 60.3619 34.6628C60.3619 34.4759 60.5138 34.3066 60.7181 34.3066C60.9112 34.3066 61.0687 34.4585 61.0687 34.6746ZM62.3595 38.2207C62.0501 38.2207 61.8046 38.1212 61.618 37.9228C61.4134 38.0338 61.1623 38.0862 60.8641 38.0917C60.2394 38.0917 59.8594 37.6481 59.8594 36.9469C59.8594 36.5672 59.9821 36.2634 60.2332 36.0358C60.4846 35.8021 60.8176 35.6852 61.2265 35.6852H61.4134L61.3784 35.4223C61.6295 35.3582 61.8632 35.3055 62.0793 35.2645V37.2216C62.0793 37.5372 62.2194 37.6946 62.5058 37.6946H62.8741V38.2207H62.3595Z" fill="#206589"/>
<path d="M64.3036 39.1611C64.3036 39.3421 64.1517 39.5117 63.9474 39.5117C63.7546 39.5117 63.585 39.3654 63.585 39.1549C63.585 38.9624 63.7546 38.8046 63.9474 38.8046C64.134 38.8046 64.3036 38.9565 64.3036 39.1611ZM64.467 37.3733C64.467 37.8932 64.134 38.2206 63.6024 38.2206H62.7086V37.6948H63.4623C63.7487 37.6948 63.8888 37.5426 63.8888 37.2332V36.6551L63.7896 35.9073L64.467 35.7554V37.3733ZM63.3748 39.1611C63.3748 39.3421 63.217 39.5117 63.0124 39.5117C62.8255 39.5117 62.6562 39.3654 62.6562 39.1549C62.6562 38.9624 62.8255 38.8046 63.0124 38.8046C63.2053 38.8046 63.3748 38.9565 63.3748 39.1611Z" fill="#206589"/>
<path d="M67.3235 37.0582V37.6891L67.4109 38.2207H65.0918L65.2437 37.6949H66.7218L66.7391 37.5722V36.959C66.7391 36.6729 66.6809 36.4506 66.5696 36.281C66.4645 36.135 66.3302 36.0591 66.161 36.0591C66.1083 36.0591 66.0441 36.0709 65.9796 36.1C65.9796 36.042 65.9682 35.9304 65.9505 35.7729C65.9682 35.7729 66.0323 35.7671 66.1315 35.7494C66.488 35.7494 66.7745 35.8725 66.9905 36.1236C67.2066 36.3688 67.3173 36.6781 67.3235 37.0582Z" fill="#206589"/>
<path d="M69.6007 37.6948V36.0183H69.3028C68.8415 36.0183 68.5668 36.3922 68.5668 36.9998C68.5668 37.4611 68.7479 37.6948 69.11 37.6948H69.6007ZM70.8686 38.2206H70.1791C70.0799 38.8923 69.6649 39.3248 68.9466 39.5117L68.8238 39.2839C69.326 39.091 69.5892 38.7345 69.6184 38.2206H69.0635C68.7479 38.2206 68.4909 38.1273 68.2981 37.9344C68.082 37.7298 67.9707 37.4552 67.9707 37.1052C67.9707 36.6783 68.0938 36.3398 68.3446 36.0766C68.596 35.8137 68.9289 35.6795 69.3378 35.6795H70.1906V37.6948H70.8686V38.2206Z" fill="#206589"/>
<path d="M73.6842 36.6552C73.6665 36.5383 73.5906 36.4329 73.4563 36.3452C73.2871 36.2404 73.0707 36.1877 72.8196 36.1877C72.5682 36.1877 72.3583 36.2404 72.1887 36.3452C72.0486 36.4447 71.9668 36.5442 71.9491 36.6552C72.1419 36.8418 72.4281 37.1165 72.8196 37.4786L73.6842 36.6552ZM74.8058 38.2207H73.4154C73.2399 38.2207 73.0357 38.1683 72.8078 38.0691C72.7669 38.0921 72.6327 38.0979 72.4048 38.0921C72.2352 38.0921 72.1537 38.1333 72.1478 38.2207H70.7051V37.6949H72.0601C72.136 37.6949 72.2061 37.6891 72.2824 37.6714C72.1478 37.5545 71.8267 37.251 71.3124 36.7603C71.3124 36.4856 71.4584 36.2345 71.7507 36.0126C72.0486 35.7906 72.4048 35.6793 72.8196 35.6793C73.2285 35.6793 73.585 35.7906 73.8885 36.0182C74.1749 36.2345 74.315 36.4856 74.315 36.7603C74.2567 36.8127 73.9294 37.1165 73.3336 37.6714C73.4095 37.6891 73.4914 37.6949 73.5673 37.6949H74.8058V38.2207Z" fill="#206589"/>
<path d="M79.6056 38.2207H79.2959C79.0621 38.2207 78.8696 38.1621 78.7118 38.0456C78.5655 38.1621 78.3789 38.2207 78.1566 38.2207C77.8473 38.2207 77.5903 38.1097 77.3742 37.8878C77.2164 38.1097 76.9827 38.2207 76.6671 38.2207C76.3695 38.2207 76.1063 38.1038 75.8784 37.876C75.8493 37.9169 75.8084 37.9575 75.7675 37.9987C75.6097 38.1448 75.4054 38.2207 75.1422 38.2207H74.4648V37.6949H75.0021C75.2826 37.6949 75.4231 37.5427 75.4231 37.2334L75.4345 36.1062L76.0071 35.9775V37.4321V37.5024C76.1531 37.6367 76.3224 37.7008 76.5152 37.7008C76.7898 37.7008 76.93 37.5489 76.93 37.2392V36.1062L77.5084 35.9775V37.4848C77.6544 37.6308 77.8178 37.7008 78.0106 37.7008C78.2853 37.7008 78.4254 37.5489 78.4254 37.2392V36.6667L78.3144 35.9075L79.0098 35.7494V37.2392C79.0098 37.5427 79.1499 37.6949 79.4304 37.6949H79.6056V38.2207Z" fill="#206589"/>
<path d="M81.4082 37.3502C81.4082 37.8933 81.0753 38.2207 80.5374 38.2207H79.4453V37.6946H80.3973C80.6838 37.6946 80.8239 37.5375 80.8239 37.2157V35.3582L80.7247 34.5869L81.4082 34.4235V37.3502Z" fill="#206589"/>
<path d="M82.7886 34.4468L82.7245 35.2239V38.2207H82.146V35.2295L82.0586 34.505L82.7886 34.4468Z" fill="#206589"/>
<path d="M26.5856 40.9155C26.439 40.9155 26.3196 40.9586 26.2272 41.0448C26.1348 41.1307 26.0887 41.2311 26.0887 41.3458C26.0887 41.4636 26.1246 41.56 26.1962 41.6347C26.2678 41.71 26.3577 41.7773 26.4662 41.8378C26.5744 41.8985 26.6907 41.9565 26.815 42.0123C26.9393 42.0681 27.0555 42.1366 27.1637 42.2178C27.2719 42.299 27.3621 42.3976 27.4337 42.5139C27.5054 42.6301 27.5413 42.7792 27.5413 42.9609C27.5413 43.1199 27.5109 43.2659 27.4505 43.398C27.39 43.5301 27.3039 43.6432 27.1926 43.7371C27.081 43.8314 26.948 43.903 26.7933 43.9523C26.6389 44.0016 26.4662 44.0264 26.275 44.0264C26.1029 44.0264 25.9492 44.0078 25.814 43.9712C25.6785 43.9349 25.5759 43.8897 25.5059 43.8351C25.5375 43.7238 25.5644 43.6218 25.5871 43.5294C25.6094 43.4371 25.6283 43.3369 25.6441 43.2284H25.7349C25.7477 43.2985 25.7718 43.3645 25.8069 43.4265C25.8419 43.4888 25.8865 43.544 25.9405 43.5917C25.9947 43.6395 26.0601 43.6767 26.1364 43.7037C26.213 43.7309 26.2988 43.7443 26.3943 43.7443C26.5856 43.7443 26.7266 43.6965 26.8172 43.601C26.908 43.5056 26.9536 43.3906 26.9536 43.2569C26.9536 43.136 26.9185 43.0372 26.8485 42.9609C26.7784 42.8846 26.6907 42.8167 26.5856 42.7575C26.4805 42.6986 26.3658 42.6413 26.2415 42.5858C26.1175 42.53 26.0028 42.4624 25.8977 42.3824C25.7923 42.3034 25.7049 42.2051 25.6348 42.0889C25.5644 41.9726 25.5297 41.8238 25.5297 41.6422C25.5297 41.4763 25.5589 41.3297 25.6181 41.2026C25.677 41.0752 25.7557 40.9682 25.8546 40.8823C25.9532 40.7962 26.0673 40.7308 26.1962 40.6864C26.3252 40.6418 26.4613 40.6195 26.6048 40.6195C26.7769 40.6195 26.9272 40.6399 27.0565 40.6815C27.1854 40.723 27.2961 40.7804 27.3882 40.8538C27.3597 40.927 27.3349 40.998 27.3144 41.0662C27.2936 41.1347 27.2673 41.2215 27.2353 41.3266H27.1637C27.0617 41.0525 26.8692 40.9155 26.5856 40.9155Z" fill="#206589"/>
<path d="M29.1294 42.9249C29.1309 42.8533 29.1319 42.7901 29.1319 42.7361C29.0649 42.7743 28.9939 42.8053 28.9192 42.8291C28.8442 42.8533 28.7757 42.8834 28.7137 42.92C28.6514 42.9569 28.6005 43.0068 28.5608 43.0706C28.5209 43.1345 28.501 43.2266 28.501 43.3475C28.501 43.4656 28.5258 43.5555 28.5751 43.6175C28.6244 43.6801 28.6907 43.7108 28.7735 43.7108C28.8786 43.7108 28.9638 43.6708 29.0289 43.5914C29.0944 43.5118 29.1269 43.394 29.1269 43.238C29.1269 43.1007 29.1278 42.9962 29.1294 42.9249ZM28.4269 41.6899C28.5813 41.6322 28.7354 41.6037 28.8882 41.6037C29.0153 41.6037 29.1325 41.618 29.2394 41.6468C29.3461 41.6753 29.4385 41.7206 29.5166 41.7829C29.5944 41.8449 29.6551 41.9252 29.6982 42.0241C29.741 42.1227 29.7624 42.2426 29.7624 42.3824C29.7624 42.5864 29.7602 42.7752 29.7553 42.9485C29.7506 43.1224 29.7481 43.2951 29.7481 43.4671C29.7481 43.5437 29.7537 43.6035 29.7649 43.6463C29.776 43.6894 29.7928 43.7219 29.8151 43.7443C29.8374 43.7666 29.8669 43.7812 29.9035 43.787C29.94 43.7939 29.9822 43.797 30.0302 43.797V43.9117C29.9376 43.9498 29.8594 43.9783 29.7959 43.9975C29.7323 44.0164 29.6638 44.0264 29.5904 44.0264C29.4726 44.0264 29.3771 43.9975 29.3036 43.9402C29.2304 43.8828 29.1746 43.7998 29.1365 43.6919C29.0634 43.7939 28.9781 43.8748 28.8811 43.9355C28.7837 43.996 28.6619 44.0264 28.5156 44.0264C28.3944 44.0264 28.2908 44.0102 28.205 43.9783C28.1188 43.9467 28.0478 43.9011 27.992 43.8422C27.9365 43.7836 27.8956 43.7164 27.8705 43.6417C27.8447 43.5666 27.832 43.491 27.832 43.4147C27.832 43.3093 27.8488 43.2185 27.8823 43.1422C27.9157 43.0657 27.9635 43.0006 28.0255 42.946C28.0878 42.8924 28.1619 42.8468 28.2477 42.8102C28.3339 42.7737 28.431 42.7427 28.5395 42.7169C28.6731 42.6853 28.7791 42.6574 28.8572 42.6335C28.935 42.6094 28.9933 42.5855 29.0314 42.5616C29.0699 42.5377 29.0944 42.5114 29.1055 42.4829C29.1167 42.454 29.1223 42.4193 29.1223 42.3775C29.1223 42.2631 29.0816 42.1651 29.0004 42.0839C28.9192 42.0027 28.807 41.9621 28.6635 41.9621C28.6092 41.9621 28.5537 41.9692 28.4964 41.9835C28.439 41.998 28.3841 42.0179 28.3314 42.0433C28.2787 42.0687 28.231 42.0966 28.1879 42.127C28.1451 42.1571 28.1123 42.1899 28.09 42.225H28.0568L27.9945 41.9379C28.1284 41.8297 28.2725 41.7469 28.4269 41.6899Z" fill="#206589"/>
<path d="M31.8313 43.62C31.742 43.7539 31.6378 43.8549 31.5182 43.9234C31.3988 43.9916 31.2624 44.0264 31.1096 44.0264C30.8709 44.0264 30.6867 43.9594 30.5578 43.8255C30.4288 43.6916 30.3643 43.4705 30.3643 43.1615C30.3643 42.9987 30.3674 42.8555 30.3739 42.7312C30.3801 42.6069 30.3836 42.4829 30.3836 42.3589C30.3836 42.2566 30.3811 42.1459 30.3764 42.0262C30.3715 41.9072 30.3659 41.7866 30.3594 41.6654C30.4009 41.6722 30.4536 41.6775 30.5172 41.6825C30.581 41.6874 30.6477 41.6896 30.718 41.6896C30.7878 41.6896 30.8548 41.6874 30.9186 41.6825C30.9822 41.6775 31.0349 41.6722 31.0761 41.6654C31.0541 41.8378 31.0395 42.0368 31.0333 42.2631C31.0268 42.4894 31.0237 42.7473 31.0237 43.0368C31.0237 43.238 31.0578 43.385 31.1266 43.4789C31.1948 43.5731 31.2912 43.62 31.4155 43.62C31.5588 43.62 31.6639 43.558 31.7308 43.4333C31.7978 43.3093 31.8313 43.1373 31.8313 42.9175V42.7262C31.8313 42.5322 31.8288 42.3496 31.8241 42.1797C31.8192 42.0089 31.8089 41.8378 31.7928 41.6654C31.8821 41.6818 32.0014 41.6896 32.1515 41.6896C32.2246 41.6896 32.2916 41.6874 32.3521 41.6825C32.4125 41.6775 32.4649 41.6722 32.5098 41.6654C32.4937 41.8378 32.4835 42.0089 32.4785 42.1797C32.4739 42.3496 32.4714 42.5322 32.4714 42.7262V42.9175C32.4714 43.1119 32.4739 43.2951 32.4785 43.4671C32.4835 43.6392 32.4937 43.8047 32.5098 43.9637C32.4525 43.9579 32.3958 43.9544 32.3403 43.9544H32.1704H32.0008C31.945 43.9544 31.8852 43.9579 31.8216 43.9637L31.8409 43.62H31.8313Z" fill="#206589"/>
<path d="M33.6625 43.2811C33.6848 43.3924 33.7149 43.4823 33.753 43.5511C33.7914 43.6196 33.8351 43.6686 33.8847 43.699C33.934 43.7291 33.9855 43.7443 34.0397 43.7443C34.1706 43.7443 34.2778 43.6705 34.3624 43.522C34.4468 43.3744 34.4889 43.128 34.4889 42.7839C34.4889 42.4878 34.4492 42.2718 34.3696 42.1369C34.2899 42.0011 34.1879 41.9332 34.0636 41.9332C34.0128 41.9332 33.9619 41.9478 33.9108 41.9763C33.8599 42.0055 33.8137 42.0554 33.7722 42.127C33.731 42.1986 33.6966 42.295 33.6696 42.4159C33.6426 42.5371 33.629 42.6884 33.629 42.8701C33.629 43.0325 33.6401 43.1698 33.6625 43.2811ZM35.139 43.1853C35.1452 43.4467 35.1548 43.7061 35.1675 43.9641C35.1263 43.9582 35.0736 43.9548 35.01 43.9548H34.8092H34.625C34.5661 43.9548 34.5209 43.9582 34.4889 43.9641C34.492 43.9582 34.4954 43.9374 34.4985 43.9024C34.5016 43.8673 34.5057 43.8273 34.5106 43.7827C34.5153 43.7384 34.5193 43.6965 34.5224 43.6584C34.5255 43.6203 34.5274 43.5964 34.5274 43.5868L34.5178 43.5772C34.457 43.7207 34.3742 43.8314 34.2691 43.9092C34.164 43.9873 34.019 44.0264 33.8345 44.0264C33.6721 44.0264 33.5332 43.9954 33.4188 43.9334C33.3041 43.8711 33.2099 43.7843 33.1367 43.673C33.0635 43.5614 33.0093 43.4305 32.9743 43.2811C32.9392 43.1314 32.9219 42.9705 32.9219 42.7985C32.9219 42.6264 32.9457 42.468 32.9935 42.3229C33.0412 42.1778 33.1063 42.052 33.1894 41.9453C33.2722 41.839 33.3701 41.7553 33.4833 41.6949C33.5964 41.6344 33.7164 41.604 33.8438 41.604C33.9873 41.604 34.1154 41.6372 34.2285 41.7042C34.3417 41.7711 34.4254 41.8554 34.4796 41.9574H34.4889C34.4889 41.6707 34.4858 41.4007 34.4796 41.1474C34.4731 40.8944 34.4635 40.6322 34.4508 40.3615C34.492 40.3681 34.5447 40.3733 34.6086 40.3783C34.6721 40.3826 34.7391 40.3851 34.8092 40.3851C34.8792 40.3851 34.9462 40.3826 35.01 40.3783C35.0736 40.3733 35.1263 40.3681 35.1675 40.3615C35.1548 40.6291 35.1452 40.8935 35.139 41.1548C35.1325 41.4155 35.1294 41.7026 35.1294 42.0148V42.3254C35.1294 42.6376 35.1325 42.9243 35.139 43.1853Z" fill="#206589"/>
<path d="M35.7573 42.1795C35.7526 42.0087 35.7421 41.8376 35.7263 41.6655C35.7709 41.672 35.8233 41.6776 35.884 41.6823C35.9445 41.6872 36.0111 41.6897 36.0846 41.6897C36.2343 41.6897 36.3537 41.682 36.443 41.6655C36.4272 41.8376 36.4166 42.0087 36.412 42.1795C36.4073 42.3497 36.4048 42.5323 36.4048 42.7263V42.9176C36.4048 43.112 36.4073 43.2952 36.412 43.4669C36.4166 43.6393 36.4272 43.8045 36.443 43.9639C36.4017 43.9577 36.35 43.9546 36.2877 43.9546H36.0846H35.884C35.8233 43.9546 35.7709 43.9577 35.7263 43.9639C35.7421 43.8045 35.7526 43.6393 35.7573 43.4669C35.7622 43.2952 35.7644 43.112 35.7644 42.9176V42.7263C35.7644 42.5323 35.7622 42.3497 35.7573 42.1795ZM35.8171 40.495C35.8902 40.4218 35.9795 40.3849 36.0846 40.3849C36.1897 40.3849 36.279 40.4218 36.3521 40.495C36.4253 40.5684 36.4622 40.6574 36.4622 40.7628C36.4622 40.8679 36.4253 40.9572 36.3521 41.0303C36.279 41.1035 36.1897 41.1398 36.0846 41.1398C35.9795 41.1398 35.8902 41.1035 35.8171 41.0303C35.7439 40.9572 35.707 40.8679 35.707 40.7628C35.707 40.6574 35.7439 40.5684 35.8171 40.495Z" fill="#206589"/>
<path d="M41.0202 43.6274C41.0013 43.6959 40.9886 43.7635 40.9821 43.8301C40.7241 43.961 40.3993 44.0264 40.0071 44.0264C39.73 44.0264 39.4826 43.9873 39.2644 43.9092C39.0461 43.8314 38.8614 43.7213 38.7101 43.5797C38.5588 43.438 38.4432 43.27 38.3635 43.0756C38.2838 42.8812 38.2441 42.6707 38.2441 42.4451C38.2441 42.1134 38.2959 41.8322 38.3995 41.6015C38.5027 41.3706 38.6416 41.1824 38.8152 41.0373C38.9888 40.8926 39.1903 40.7866 39.4194 40.7199C39.6491 40.6526 39.8893 40.6195 40.141 40.6195C40.2238 40.6195 40.3115 40.6257 40.4039 40.6384C40.4963 40.6514 40.5856 40.6678 40.6714 40.6886C40.7573 40.7097 40.8395 40.7342 40.9176 40.763C40.9954 40.7915 41.0617 40.8216 41.116 40.8538C41.0841 40.9332 41.0593 41.0135 41.0416 41.0947C41.0242 41.1762 41.0124 41.2581 41.0059 41.3411H40.939C40.8181 41.188 40.6938 41.0789 40.5664 41.0135C40.4389 40.9481 40.2892 40.9155 40.1172 40.9155C39.9898 40.9155 39.8614 40.9447 39.7325 41.0014C39.6035 41.059 39.4863 41.1468 39.3812 41.2646C39.2761 41.3824 39.1909 41.533 39.1258 41.7159C39.0604 41.8995 39.0278 42.1183 39.0278 42.3728C39.0278 42.6183 39.0613 42.8279 39.1283 43.0012C39.1949 43.1751 39.2817 43.3168 39.3884 43.4265C39.4953 43.5366 39.6162 43.6172 39.7517 43.668C39.8871 43.7188 40.0232 43.7443 40.1603 43.7443C40.2365 43.7443 40.3146 43.7359 40.3943 43.7182C40.474 43.7006 40.5521 43.6767 40.6284 43.6463C40.7049 43.6162 40.7772 43.579 40.846 43.5341C40.9145 43.4898 40.974 43.4402 41.0252 43.3859L41.0872 43.4243C41.0617 43.4913 41.0394 43.5589 41.0202 43.6274Z" fill="#206589"/>
<path d="M42.2005 42.2582C42.2833 42.0385 42.3838 41.8769 42.5016 41.7734C42.6194 41.6699 42.7598 41.6181 42.9222 41.6181C42.938 41.6181 42.9514 41.6187 42.9628 41.62C42.974 41.6218 42.9858 41.6224 42.9985 41.6224C42.9892 41.6705 42.9817 41.7213 42.9771 41.7756C42.9721 41.8295 42.97 41.8934 42.97 41.9668V42.1197V42.2006C42.97 42.2294 42.9715 42.2564 42.9746 42.2818L42.9315 42.3202C42.8996 42.3013 42.8639 42.2855 42.8243 42.2725C42.7843 42.2598 42.7387 42.2533 42.6879 42.2533C42.5446 42.2533 42.4315 42.3007 42.3487 42.3943C42.266 42.4883 42.2244 42.5992 42.2244 42.7263V42.9176C42.2244 43.112 42.2269 43.2952 42.2315 43.4669C42.2365 43.6393 42.2467 43.8045 42.2629 43.9639C42.2213 43.9577 42.1699 43.9546 42.1082 43.9546H41.9067H41.7073C41.6472 43.9546 41.5951 43.9577 41.5508 43.9639C41.5647 43.8045 41.5737 43.6393 41.5781 43.4669C41.5821 43.2952 41.5843 43.112 41.5843 42.9176V42.7263C41.5843 42.5323 41.5821 42.3497 41.5781 42.1795C41.5737 42.0087 41.5647 41.8376 41.5508 41.6655C41.6044 41.672 41.659 41.6776 41.7145 41.6826C41.7696 41.6872 41.8242 41.6897 41.8781 41.6897C41.9318 41.6897 41.9863 41.6872 42.0415 41.6826C42.097 41.6776 42.1516 41.672 42.2055 41.6655L42.1909 42.2486L42.2005 42.2582Z" fill="#206589"/>
<path d="M44.6359 42.0337C44.5836 41.8902 44.4949 41.8189 44.3709 41.8189C44.3005 41.8189 44.2419 41.8424 44.1939 41.8902C44.1461 41.9379 44.108 41.9996 44.0792 42.0743C44.0507 42.1493 44.029 42.2336 44.0147 42.3273C44.0004 42.4215 43.9915 42.5148 43.9887 42.6072H44.7243C44.7181 42.3682 44.6883 42.1772 44.6359 42.0337ZM44.0268 43.1804C44.0522 43.292 44.0913 43.3881 44.144 43.4696C44.1964 43.5511 44.2633 43.6147 44.3442 43.6606C44.4258 43.7068 44.5203 43.73 44.6288 43.73C44.8486 43.73 45.0445 43.6581 45.2163 43.5149L45.2739 43.558L45.1688 43.8255C45.0889 43.8862 44.9934 43.9349 44.8821 43.9712C44.7705 44.0078 44.6239 44.0264 44.4425 44.0264C44.2863 44.0264 44.1384 44.0044 43.998 43.9616C43.8578 43.9185 43.7345 43.8478 43.6275 43.7489C43.5209 43.6503 43.4366 43.5254 43.3746 43.3741C43.3123 43.2228 43.2812 43.0418 43.2812 42.8316C43.2812 42.6245 43.3091 42.4447 43.3649 42.2916C43.4207 42.1388 43.4979 42.0114 43.5965 41.9097C43.6954 41.8077 43.8126 41.7308 43.9477 41.68C44.0832 41.6291 44.2305 41.6037 44.3898 41.6037C44.7054 41.6037 44.9466 41.6961 45.114 41.8809C45.2811 42.0659 45.3644 42.3266 45.3644 42.6645V42.7647C45.3644 42.7935 45.3629 42.8124 45.3598 42.822H43.9887C43.9887 42.9497 44.0014 43.0691 44.0268 43.1804Z" fill="#206589"/>
<path d="M46.4105 43.2806C46.4328 43.3919 46.4629 43.4818 46.501 43.5506C46.5395 43.6192 46.5832 43.6681 46.6328 43.6985C46.6821 43.7286 46.7335 43.7438 46.7878 43.7438C46.9186 43.7438 47.0259 43.67 47.1105 43.5215C47.1948 43.3739 47.2373 43.1275 47.2373 42.7834C47.2373 42.4873 47.1973 42.2713 47.1176 42.1364C47.038 42.0006 46.9363 41.9328 46.8117 41.9328C46.7608 41.9328 46.71 41.9473 46.6588 41.9758C46.608 42.005 46.5618 42.0549 46.5206 42.1265C46.479 42.1981 46.4446 42.2945 46.4176 42.4154C46.3907 42.5366 46.377 42.6879 46.377 42.8696C46.377 43.032 46.3882 43.1693 46.4105 43.2806ZM47.8867 43.1848C47.8932 43.4462 47.9029 43.7056 47.9156 43.9636C47.874 43.9577 47.8216 43.9543 47.7578 43.9543H47.5572H47.3734C47.3145 43.9543 47.2689 43.9577 47.2373 43.9636C47.2401 43.9577 47.2435 43.9369 47.2466 43.9019C47.25 43.8668 47.2537 43.8269 47.2587 43.7822C47.2633 43.7379 47.2674 43.696 47.2705 43.6579C47.2739 43.6198 47.2754 43.5959 47.2754 43.5863L47.2658 43.5767C47.2054 43.7202 47.1223 43.8309 47.0175 43.9087C46.9121 43.9868 46.767 44.0259 46.5826 44.0259C46.4201 44.0259 46.2812 43.9949 46.1669 43.9329C46.0522 43.8706 45.9582 43.7838 45.8848 43.6725C45.8116 43.5609 45.7573 43.4301 45.7223 43.2806C45.6873 43.1309 45.6699 42.97 45.6699 42.798C45.6699 42.6259 45.6938 42.4675 45.7415 42.3224C45.7893 42.1773 45.8547 42.0515 45.9375 41.9448C46.0202 41.8385 46.1182 41.7548 46.2313 41.6944C46.3445 41.6339 46.4645 41.6035 46.5919 41.6035C46.7354 41.6035 46.8637 41.6367 46.9769 41.7037C47.0897 41.7706 47.1731 41.8549 47.2274 41.9569H47.2373C47.2373 41.6702 47.2339 41.4002 47.2274 41.1469C47.2212 40.8939 47.2119 40.6317 47.1992 40.3611C47.2401 40.3676 47.2928 40.3728 47.3563 40.3778C47.4202 40.3821 47.4871 40.3846 47.5572 40.3846C47.6273 40.3846 47.6942 40.3821 47.7578 40.3778C47.8216 40.3728 47.874 40.3676 47.9156 40.3611C47.9029 40.6286 47.8932 40.893 47.8867 41.1543C47.8805 41.4151 47.8774 41.7021 47.8774 42.0143V42.3249C47.8774 42.6371 47.8805 42.9238 47.8867 43.1848Z" fill="#206589"/>
<path d="M48.5053 42.1795C48.5003 42.0087 48.4901 41.8376 48.474 41.6655C48.5186 41.672 48.5713 41.6776 48.6318 41.6823C48.6925 41.6872 48.7592 41.6897 48.8327 41.6897C48.9821 41.6897 49.1017 41.682 49.191 41.6655C49.1749 41.8376 49.1647 42.0087 49.1597 42.1795C49.1551 42.3497 49.1526 42.5323 49.1526 42.7263V42.9176C49.1526 43.112 49.1551 43.2952 49.1597 43.4669C49.1647 43.6393 49.1749 43.8045 49.191 43.9639C49.1495 43.9577 49.0977 43.9546 49.0357 43.9546H48.8327H48.6318C48.5713 43.9546 48.5186 43.9577 48.474 43.9639C48.4901 43.8045 48.5003 43.6393 48.5053 43.4669C48.5103 43.2952 48.5121 43.112 48.5121 42.9176V42.7263C48.5121 42.5323 48.5103 42.3497 48.5053 42.1795ZM48.5648 40.495C48.6383 40.4218 48.7276 40.3849 48.8327 40.3849C48.9377 40.3849 49.027 40.4218 49.1002 40.495C49.1733 40.5684 49.2099 40.6574 49.2099 40.7628C49.2099 40.8679 49.1733 40.9572 49.1002 41.0303C49.027 41.1035 48.9377 41.1398 48.8327 41.1398C48.7276 41.1398 48.6383 41.1035 48.5648 41.0303C48.4917 40.9572 48.4551 40.8679 48.4551 40.7628C48.4551 40.6574 48.4917 40.5684 48.5648 40.495Z" fill="#206589"/>
<path d="M50.994 41.8189C50.994 41.8601 50.999 41.9001 51.0086 41.9382L50.5879 41.9286C50.5814 42.0021 50.5758 42.0864 50.5712 42.1822C50.5665 42.2773 50.5631 42.3747 50.5616 42.4733C50.56 42.5722 50.5585 42.6676 50.5569 42.76C50.5554 42.8524 50.5544 42.9305 50.5544 42.9941C50.5544 43.1599 50.5585 43.2938 50.5665 43.3955C50.5743 43.4975 50.5879 43.5756 50.6071 43.6299C50.6264 43.6841 50.653 43.7207 50.6884 43.7393C50.7234 43.7588 50.768 43.7684 50.822 43.7684C50.8827 43.7684 50.9271 43.7641 50.9559 43.7564C50.9847 43.7486 51.0132 43.7365 51.0418 43.7207V43.9163C50.9779 43.9451 50.8985 43.9706 50.8031 43.9932C50.7073 44.0152 50.6133 44.0264 50.5213 44.0264C50.1164 44.0264 49.9143 43.7843 49.9143 43.2997C49.9143 43.2077 49.9155 43.1035 49.9189 42.9872C49.922 42.871 49.9264 42.7513 49.9307 42.6286C49.9357 42.5061 49.9397 42.3849 49.9428 42.2656C49.9459 42.1462 49.9478 42.0355 49.9478 41.9332L49.6133 41.9382C49.6226 41.9001 49.6275 41.8601 49.6275 41.8189C49.6275 41.7807 49.6226 41.7376 49.6133 41.6899L49.9478 41.7042C49.9478 41.6053 49.9459 41.5132 49.9428 41.427C49.9397 41.3411 49.9348 41.2376 49.9289 41.1164C50.0402 41.0718 50.1499 41.0246 50.2584 40.9753C50.3666 40.9261 50.4748 40.8743 50.5833 40.82L50.631 40.8538C50.6248 40.9047 50.6189 40.9642 50.614 41.033C50.6096 41.1015 50.6047 41.1728 50.6 41.2478C50.5951 41.3225 50.592 41.3991 50.5904 41.4769C50.5885 41.555 50.5879 41.6294 50.5879 41.6992L51.0086 41.6899C50.999 41.7376 50.994 41.7807 50.994 41.8189Z" fill="#206589"/>
<path d="M54.1975 42.5568C54.0974 42.447 53.9517 42.3922 53.7604 42.3922C53.7158 42.3922 53.6773 42.3928 53.6457 42.3946C53.6138 42.3959 53.5837 42.3968 53.5552 42.3968C53.5552 42.4635 53.5543 42.5332 53.5527 42.6045C53.5509 42.6764 53.5502 42.7614 53.5502 42.8603C53.5502 42.9368 53.5509 43.015 53.5527 43.0943C53.5543 43.174 53.5552 43.2521 53.5552 43.3287C53.5552 43.4049 53.5558 43.4753 53.5574 43.5389C53.5589 43.6024 53.5595 43.6551 53.5595 43.6963C53.6045 43.7001 53.6457 43.7019 53.6842 43.7035C53.7223 43.7053 53.7682 43.7059 53.8224 43.7059C53.8928 43.7059 53.9594 43.6917 54.0233 43.6629C54.0872 43.6346 54.1426 43.5922 54.1907 43.5364C54.2384 43.4806 54.2766 43.413 54.3054 43.3333C54.3336 43.2537 54.3482 43.1613 54.3482 43.0562C54.3482 42.8336 54.298 42.6668 54.1975 42.5568ZM54.2883 41.2957C54.2707 41.2272 54.2415 41.168 54.2 41.1187C54.1585 41.0691 54.1061 41.0294 54.0422 40.9993C53.9787 40.969 53.899 40.9538 53.8035 40.9538C53.7334 40.9538 53.6848 40.9547 53.6578 40.9562C53.6305 40.9578 53.6011 40.9618 53.5695 40.968C53.5629 41.0861 53.558 41.2055 53.5552 41.3264C53.5518 41.4476 53.5502 41.5493 53.5502 41.6324C53.5502 41.7182 53.5509 41.8007 53.5527 41.8785C53.5543 41.9566 53.5552 42.0366 53.5552 42.1197H53.77C53.837 42.1197 53.903 42.107 53.9684 42.0815C54.0335 42.0561 54.0915 42.0186 54.1426 41.9693C54.1935 41.9197 54.235 41.8568 54.267 41.7805C54.2986 41.704 54.3147 41.6147 54.3147 41.513C54.3147 41.4364 54.306 41.3639 54.2883 41.2957ZM52.8369 41.3C52.8298 41.0945 52.8193 40.8887 52.8047 40.6813C52.8589 40.6878 52.9178 40.6931 52.9814 40.698C53.0452 40.703 53.1172 40.7051 53.1965 40.7051C53.3335 40.7051 53.4771 40.7014 53.6265 40.6931C53.7765 40.6853 53.9198 40.6813 54.0568 40.6813C54.2 40.6813 54.3308 40.6955 54.4486 40.7247C54.5661 40.7532 54.6684 40.7966 54.7543 40.8561C54.8401 40.9147 54.9065 40.991 54.9527 41.0852C54.9989 41.1794 55.0218 41.2914 55.0218 41.4222C55.0218 41.553 54.9945 41.6649 54.9403 41.7588C54.886 41.8531 54.8197 41.9306 54.7413 41.9932C54.6628 42.0552 54.5782 42.1039 54.4874 42.1386C54.3959 42.1739 54.3135 42.1978 54.24 42.2105V42.2201C54.3131 42.2232 54.399 42.2403 54.4976 42.2703C54.5962 42.3007 54.6898 42.3472 54.7788 42.4111C54.8677 42.4749 54.9434 42.5568 55.0051 42.6572C55.0674 42.7573 55.0984 42.8795 55.0984 43.0227C55.0984 43.1951 55.0674 43.3414 55.0051 43.4626C54.9434 43.5838 54.8609 43.6824 54.7574 43.7586C54.6541 43.8349 54.5357 43.8882 54.4021 43.9186C54.2688 43.949 54.1302 43.9639 53.9873 43.9639C53.8599 43.9639 53.7415 43.9623 53.6321 43.9592C53.5223 43.9561 53.407 43.9546 53.2864 43.9546H53.0217C52.9312 43.9546 52.8589 43.958 52.8047 43.9639C52.8193 43.7664 52.8298 43.5649 52.8369 43.3597C52.8444 43.1541 52.8478 42.9195 52.8478 42.6547V42.0053C52.8478 41.7405 52.8444 41.5056 52.8369 41.3Z" fill="#206589"/>
<path d="M57.0614 43.62C56.9721 43.7539 56.868 43.8549 56.7483 43.9234C56.629 43.9916 56.4929 44.0264 56.34 44.0264C56.1007 44.0264 55.9172 43.9594 55.7882 43.8255C55.659 43.6916 55.5945 43.4705 55.5945 43.1615C55.5945 42.9987 55.5976 42.8555 55.6041 42.7312C55.6103 42.6069 55.6134 42.4829 55.6134 42.3589C55.6134 42.2566 55.6112 42.1459 55.6066 42.0262C55.6016 41.9072 55.5957 41.7866 55.5898 41.6654C55.6311 41.6722 55.6838 41.6775 55.7473 41.6825C55.8112 41.6874 55.8781 41.6896 55.9479 41.6896C56.0183 41.6896 56.0852 41.6874 56.1488 41.6825C56.2126 41.6775 56.265 41.6722 56.3063 41.6654C56.2839 41.8378 56.2697 42.0368 56.2635 42.2631C56.257 42.4894 56.2539 42.7473 56.2539 43.0368C56.2539 43.238 56.288 43.385 56.3568 43.4789C56.425 43.5731 56.5214 43.62 56.6457 43.62C56.7889 43.62 56.894 43.558 56.961 43.4333C57.0279 43.3093 57.0614 43.1373 57.0614 42.9175V42.7262C57.0614 42.5322 57.0589 42.3496 57.0543 42.1797C57.0493 42.0089 57.0391 41.8378 57.0233 41.6654C57.1123 41.6818 57.2319 41.6896 57.3813 41.6896C57.4548 41.6896 57.5215 41.6874 57.5822 41.6825C57.6427 41.6775 57.6954 41.6722 57.7397 41.6654C57.7239 41.8378 57.7137 42.0089 57.709 42.1797C57.704 42.3496 57.7016 42.5322 57.7016 42.7262V42.9175C57.7016 43.1119 57.704 43.2951 57.709 43.4671C57.7137 43.6392 57.7239 43.8047 57.7397 43.9637C57.6827 43.9579 57.6259 43.9544 57.5704 43.9544H57.4009H57.231C57.1752 43.9544 57.1157 43.9579 57.0518 43.9637L57.0707 43.62H57.0614Z" fill="#206589"/>
<path d="M58.9294 42.2582C59.0121 42.0385 59.1126 41.8769 59.2304 41.7734C59.3482 41.6699 59.4883 41.6181 59.6507 41.6181C59.6665 41.6181 59.6802 41.6187 59.6913 41.62C59.7025 41.6218 59.7143 41.6224 59.727 41.6224C59.7177 41.6705 59.7103 41.7213 59.7056 41.7756C59.701 41.8295 59.6985 41.8934 59.6985 41.9668V42.1197V42.2006C59.6985 42.2294 59.7 42.2564 59.7034 42.2818L59.66 42.3202C59.6284 42.3013 59.5928 42.2855 59.5528 42.2725C59.5131 42.2598 59.4675 42.2533 59.4167 42.2533C59.2732 42.2533 59.16 42.3007 59.0775 42.3943C58.9945 42.4883 58.9532 42.5992 58.9532 42.7263V42.9176C58.9532 43.112 58.9554 43.2952 58.9604 43.4669C58.965 43.6393 58.9752 43.8045 58.9914 43.9639C58.9498 43.9577 58.8984 43.9546 58.837 43.9546H58.6352H58.4358C58.376 43.9546 58.3236 43.9577 58.2793 43.9639C58.2932 43.8045 58.3025 43.6393 58.3066 43.4669C58.3109 43.2952 58.3131 43.112 58.3131 42.9176V42.7263C58.3131 42.5323 58.3109 42.3497 58.3066 42.1795C58.3025 42.0087 58.2932 41.8376 58.2793 41.6655C58.3332 41.672 58.3878 41.6776 58.443 41.6826C58.4982 41.6872 58.5527 41.6897 58.6067 41.6897C58.6606 41.6897 58.7152 41.6872 58.7703 41.6826C58.8255 41.6776 58.8804 41.672 58.934 41.6655L58.9198 42.2486L58.9294 42.2582Z" fill="#206589"/>
<path d="M61.3625 42.0337C61.3098 41.8902 61.2215 41.8189 61.0972 41.8189C61.0271 41.8189 60.9679 41.8424 60.9205 41.8902C60.8727 41.9379 60.8343 41.9996 60.8058 42.0743C60.7769 42.1493 60.7555 42.2336 60.7413 42.3273C60.7267 42.4215 60.718 42.5148 60.7149 42.6072H61.4509C61.4444 42.3682 61.4149 42.1772 61.3625 42.0337ZM60.7531 43.1804C60.7785 43.292 60.8175 43.3881 60.8702 43.4696C60.9226 43.5511 60.9896 43.6147 61.0708 43.6606C61.152 43.7068 61.2469 43.73 61.3551 43.73C61.5749 43.73 61.7708 43.6581 61.9428 43.5149L62.0005 43.558L61.8951 43.8255C61.8154 43.8862 61.7199 43.9349 61.6083 43.9712C61.4967 44.0078 61.3504 44.0264 61.1688 44.0264C61.0128 44.0264 60.8643 44.0044 60.7242 43.9616C60.5841 43.9185 60.461 43.8478 60.3541 43.7489C60.2474 43.6503 60.1631 43.5254 60.1011 43.3741C60.0385 43.2228 60.0078 43.0418 60.0078 42.8316C60.0078 42.6245 60.0357 42.4447 60.0912 42.2916C60.147 42.1388 60.2242 42.0114 60.3231 41.9097C60.422 41.8077 60.5388 41.7308 60.6743 41.68C60.8098 41.6291 60.9567 41.6037 61.1164 41.6037C61.4316 41.6037 61.6728 41.6961 61.8402 41.8809C62.0073 42.0659 62.091 42.3266 62.091 42.6645V42.7647C62.091 42.7935 62.0895 42.8124 62.0864 42.822H60.7149C60.7149 42.9497 60.7276 43.0691 60.7531 43.1804Z" fill="#206589"/>
<path d="M63.6528 42.9249C63.6544 42.8533 63.6553 42.7901 63.6553 42.7361C63.5883 42.7743 63.5173 42.8053 63.4426 42.8291C63.3676 42.8533 63.2991 42.8834 63.2371 42.92C63.1751 42.9569 63.124 43.0068 63.0843 43.0706C63.0443 43.1345 63.0248 43.2266 63.0248 43.3475C63.0248 43.4656 63.0492 43.5555 63.0985 43.6175C63.1478 43.6801 63.2139 43.7108 63.2969 43.7108C63.4017 43.7108 63.4873 43.6708 63.5527 43.5914C63.6178 43.5118 63.6503 43.394 63.6503 43.238C63.6503 43.1007 63.6513 42.9962 63.6528 42.9249ZM62.9504 41.6899C63.1047 41.6322 63.2588 41.6037 63.4116 41.6037C63.539 41.6037 63.6559 41.618 63.7626 41.6468C63.8695 41.6753 63.9619 41.7206 64.04 41.7829C64.1178 41.8449 64.1783 41.9252 64.2214 42.0241C64.2644 42.1227 64.2858 42.2426 64.2858 42.3824C64.2858 42.5864 64.2834 42.7752 64.279 42.9485C64.2741 43.1224 64.2716 43.2951 64.2716 43.4671C64.2716 43.5437 64.2772 43.6035 64.2883 43.6463C64.2995 43.6894 64.3162 43.7219 64.3385 43.7443C64.3609 43.7666 64.3903 43.7812 64.4269 43.787C64.4635 43.7939 64.5056 43.797 64.5534 43.797V43.9117C64.461 43.9498 64.3829 43.9783 64.3193 43.9975C64.2555 44.0164 64.1873 44.0264 64.1138 44.0264C63.996 44.0264 63.9005 43.9975 63.827 43.9402C63.7539 43.8828 63.6981 43.7998 63.6599 43.6919C63.5868 43.7939 63.5015 43.8748 63.4042 43.9355C63.3072 43.996 63.1853 44.0264 63.039 44.0264C62.9178 44.0264 62.8143 44.0102 62.7284 43.9783C62.6422 43.9467 62.5715 43.9011 62.5157 43.8422C62.4596 43.7836 62.419 43.7164 62.3936 43.6417C62.3682 43.5666 62.3555 43.491 62.3555 43.4147C62.3555 43.3093 62.3722 43.2185 62.4057 43.1422C62.4392 43.0657 62.4869 43.0006 62.5489 42.946C62.6112 42.8924 62.6853 42.8468 62.7712 42.8102C62.8574 42.7737 62.9544 42.7427 63.0629 42.7169C63.1965 42.6853 63.3022 42.6574 63.3803 42.6335C63.4584 42.6094 63.5167 42.5855 63.5549 42.5616C63.5933 42.5377 63.6178 42.5114 63.6289 42.4829C63.6401 42.454 63.6457 42.4193 63.6457 42.3775C63.6457 42.2631 63.6051 42.1651 63.5239 42.0839C63.4426 42.0027 63.3304 41.9621 63.1869 41.9621C63.1326 41.9621 63.0771 41.9692 63.0198 41.9835C62.9621 41.998 62.9076 42.0179 62.8549 42.0433C62.8025 42.0687 62.7544 42.0966 62.7117 42.127C62.6686 42.1571 62.636 42.1899 62.6134 42.225H62.5802L62.5179 41.9379C62.6515 41.8297 62.7957 41.7469 62.9504 41.6899Z" fill="#206589"/>
<path d="M66.3544 43.62C66.2651 43.7539 66.1609 43.8549 66.0413 43.9234C65.9216 43.9916 65.7858 44.0264 65.633 44.0264C65.3937 44.0264 65.2102 43.9594 65.0812 43.8255C64.9516 43.6916 64.8875 43.4705 64.8875 43.1615C64.8875 42.9987 64.8906 42.8555 64.8971 42.7312C64.9033 42.6069 64.9064 42.4829 64.9064 42.3589C64.9064 42.2566 64.9042 42.1459 64.8996 42.0262C64.8946 41.9072 64.8887 41.7866 64.8828 41.6654C64.924 41.6722 64.9767 41.6775 65.0403 41.6825C65.1042 41.6874 65.1711 41.6896 65.2409 41.6896C65.3112 41.6896 65.3779 41.6874 65.4417 41.6825C65.5056 41.6775 65.558 41.6722 65.5992 41.6654C65.5769 41.8378 65.5626 42.0368 65.5564 42.2631C65.5499 42.4894 65.5468 42.7473 65.5468 43.0368C65.5468 43.238 65.5809 43.385 65.6498 43.4789C65.718 43.5731 65.8144 43.62 65.9387 43.62C66.0819 43.62 66.187 43.558 66.2539 43.4333C66.3209 43.3093 66.3544 43.1373 66.3544 42.9175V42.7262C66.3544 42.5322 66.3519 42.3496 66.3473 42.1797C66.3423 42.0089 66.3321 41.8378 66.3163 41.6654C66.4052 41.6818 66.5249 41.6896 66.6743 41.6896C66.7475 41.6896 66.8144 41.6874 66.8752 41.6825C66.9356 41.6775 66.9883 41.6722 67.0327 41.6654C67.0169 41.8378 67.0066 42.0089 67.002 42.1797C66.997 42.3496 66.9945 42.5322 66.9945 42.7262V42.9175C66.9945 43.1119 66.997 43.2951 67.002 43.4671C67.0066 43.6392 67.0169 43.8047 67.0327 43.9637C66.9756 43.9579 66.9189 43.9544 66.8634 43.9544H66.6938H66.524C66.4682 43.9544 66.4086 43.9579 66.3448 43.9637L66.3637 43.62H66.3544Z" fill="#206589"/>
<path d="M55.7248 30.9715C55.784 31.0568 55.8563 31.129 55.9415 31.1882C56.0271 31.2471 56.1235 31.293 56.2317 31.3255C56.3396 31.3581 56.4524 31.3742 56.5705 31.3742C56.6437 31.3742 56.7168 31.3661 56.7903 31.35C56.8635 31.3336 56.9298 31.3082 56.9887 31.2738C57.0476 31.239 57.0956 31.1932 57.1322 31.1361C57.1688 31.0794 57.1871 31.0121 57.1871 30.9346C57.1871 30.8615 57.1707 30.7967 57.1384 30.7393C57.1056 30.6823 57.0488 30.6252 56.9673 30.5682C56.8858 30.5115 56.7782 30.4513 56.6437 30.3884C56.5094 30.3252 56.3402 30.2511 56.1368 30.1652C55.864 30.0514 55.6424 29.8877 55.4716 29.6738C55.3004 29.4603 55.2152 29.1986 55.2152 28.8892C55.2152 28.6453 55.2577 28.4332 55.3432 28.254C55.4288 28.0752 55.5447 27.9267 55.6913 27.8086C55.8377 27.6905 56.0097 27.6021 56.2072 27.5429C56.4043 27.484 56.6151 27.4542 56.8393 27.4542C57.0591 27.4542 57.2767 27.4787 57.4924 27.5277C57.7082 27.5767 57.9196 27.6396 58.1273 27.7171C58.0663 27.8554 58.0145 28.006 57.9717 28.1688C57.9289 28.3315 57.9016 28.4844 57.8892 28.627H57.645C57.6124 28.4438 57.5281 28.2891 57.3917 28.1626C57.2553 28.0367 57.077 27.9735 56.8573 27.9735C56.7922 27.9735 56.7221 27.9816 56.6468 27.998C56.5714 28.0144 56.5023 28.0398 56.4394 28.0742C56.3761 28.109 56.3244 28.1536 56.2834 28.2088C56.2428 28.2637 56.2227 28.3315 56.2227 28.4131C56.2227 28.4903 56.2428 28.5566 56.2834 28.6115C56.3244 28.6663 56.3789 28.7163 56.4484 28.7609C56.5175 28.8058 56.6009 28.8486 56.6988 28.8892C56.7962 28.9298 56.9 28.9748 57.0101 29.0238L57.48 29.2315C57.7528 29.3496 57.9481 29.508 58.0663 29.7073C58.1844 29.907 58.2433 30.1531 58.2433 30.4464C58.2433 30.7027 58.2005 30.9247 58.1152 31.1116C58.0297 31.2992 57.9116 31.4536 57.7609 31.5757C57.6102 31.6981 57.4314 31.7865 57.2237 31.8414C57.016 31.8962 56.7922 31.9238 56.5522 31.9238C56.4177 31.9238 56.2958 31.9186 56.1858 31.9086C56.0761 31.8984 55.9691 31.8851 55.8653 31.869C55.7614 31.8525 55.6566 31.8283 55.5509 31.7955C55.4449 31.7629 55.3311 31.7245 55.209 31.6795C55.2251 31.594 55.2406 31.5159 55.2546 31.4443C55.2688 31.3733 55.2821 31.3001 55.2942 31.2245C55.3063 31.1494 55.3178 31.0688 55.328 30.9836C55.3379 30.8983 55.3472 30.7982 55.3556 30.6844H55.6058C55.6262 30.7902 55.6659 30.8859 55.7248 30.9715Z" fill="#206589"/>
<path d="M60.3893 30.9135C60.3955 31.2694 60.4125 31.5939 60.441 31.8872C60.3273 31.8671 60.2039 31.8525 60.0718 31.8447C59.9395 31.8364 59.808 31.8323 59.6778 31.8323C59.5476 31.8323 59.4193 31.8382 59.2931 31.8506C59.1672 31.863 59.0529 31.8751 58.9512 31.8872C58.9716 31.5453 58.9871 31.2095 58.9971 30.88C59.0073 30.5502 59.0126 30.2141 59.0126 29.8725C59.0126 29.791 59.0113 29.6905 59.0095 29.5703C59.0073 29.45 59.0064 29.3272 59.0064 29.2007C59.0064 29.0705 59.0051 28.9453 59.0033 28.8253C59.0014 28.7054 59.0002 28.6046 59.0002 28.5231C59.0002 28.3808 58.9961 28.2199 58.9881 28.0404C58.9797 27.8615 58.9676 27.6867 58.9512 27.5156C59.0572 27.5277 59.1793 27.5401 59.3176 27.5525C59.4559 27.5646 59.582 27.5708 59.6964 27.5708C59.8223 27.5708 59.9528 27.5655 60.0867 27.5556C60.2212 27.5453 60.3412 27.532 60.4469 27.5156C60.4268 27.8085 60.4103 28.0978 60.3983 28.3827C60.3862 28.6679 60.38 28.9568 60.38 29.2497V29.8601C60.38 30.2064 60.3831 30.5576 60.3893 30.9135Z" fill="#206589"/>
<path d="M64.2434 30.7089C64.0726 31.12 63.9219 31.5068 63.7917 31.8689C63.743 31.8609 63.6947 31.8537 63.6482 31.8478C63.6014 31.8413 63.5496 31.8385 63.4926 31.8385C63.4479 31.8385 63.3999 31.8413 63.349 31.8478C63.2979 31.8537 63.2439 31.8609 63.1872 31.8689C63.0855 31.5881 62.9745 31.3131 62.8546 31.0449C62.7343 30.7762 62.6196 30.5012 62.5095 30.2203C62.4404 30.0495 62.3669 29.8837 62.2898 29.7228C62.2123 29.5622 62.1391 29.3964 62.07 29.2255C62.025 29.4494 61.9884 29.6719 61.9602 29.8939C61.9314 30.1156 61.9029 30.3425 61.8744 30.5744C61.8418 30.8434 61.8155 31.0855 61.7953 31.301C61.7748 31.5171 61.7606 31.7121 61.7525 31.8872C61.6301 31.8509 61.5042 31.8323 61.3737 31.8323C61.3049 31.8323 61.2376 31.8376 61.1725 31.8478C61.1074 31.8578 61.0401 31.8711 60.9707 31.8872C61.0522 31.5781 61.1238 31.2697 61.1846 30.9622C61.2457 30.655 61.3049 30.3425 61.3616 30.0253C61.4311 29.667 61.4918 29.2925 61.5448 28.9016C61.5978 28.511 61.6384 28.1303 61.667 27.7599L61.6853 27.5156C61.7789 27.5364 61.8725 27.5503 61.9661 27.5587C62.0597 27.5664 62.1534 27.5708 62.247 27.5708C62.3487 27.5708 62.4441 27.5664 62.5337 27.5587C62.6236 27.5503 62.7169 27.5364 62.8149 27.5156C62.8515 27.6216 62.8961 27.7444 62.9491 27.8851C63.0018 28.0255 63.0601 28.174 63.1233 28.3306C63.1863 28.4874 63.2535 28.6486 63.3245 28.8132C63.3958 28.9779 63.4659 29.1391 63.5353 29.2956C63.6045 29.4522 63.6727 29.6019 63.7399 29.7445C63.8069 29.8868 63.867 30.0129 63.9197 30.1227C64.1033 29.6952 64.2896 29.2609 64.4787 28.8191C64.6678 28.3777 64.8376 27.9431 64.9883 27.5156C65.0779 27.5364 65.1672 27.5503 65.2571 27.5587C65.3467 27.5664 65.4381 27.5708 65.5317 27.5708C65.6254 27.5708 65.7211 27.5677 65.8188 27.5618C65.9161 27.5556 66.0119 27.5401 66.1059 27.5156L66.179 28.3033C66.1951 28.462 66.2156 28.6465 66.2401 28.856C66.2646 29.0656 66.29 29.2841 66.3163 29.5123C66.343 29.7401 66.3721 29.972 66.405 30.2082C66.4372 30.4442 66.4692 30.6683 66.4992 30.88C66.5299 31.0914 66.5616 31.2849 66.5941 31.4597C66.6263 31.6349 66.657 31.7775 66.6859 31.8872C66.5554 31.8711 66.4304 31.8578 66.3101 31.8478C66.1899 31.8376 66.0671 31.8323 65.9409 31.8323C65.8188 31.8323 65.6963 31.8376 65.5745 31.8478C65.4524 31.8578 65.3324 31.8711 65.2143 31.8872C65.1941 31.6187 65.1724 31.3562 65.1501 31.0998C65.1278 30.8434 65.1024 30.5806 65.0739 30.3121C65.0534 30.1125 65.0289 29.9103 65.0004 29.7045C64.9722 29.4993 64.9458 29.3229 64.9213 29.1766L64.7747 29.5002C64.5915 29.8948 64.4145 30.2978 64.2434 30.7089Z" fill="#206589"/>
<path d="M68.121 30.4649C68.1659 30.469 68.2105 30.4711 68.2555 30.4711H68.3897H68.6582H68.927H69.0612C69.1061 30.4711 69.1508 30.469 69.1957 30.4649L68.6703 29.042L68.121 30.4649ZM67.6693 31.8872C67.5998 31.8711 67.532 31.8578 67.4647 31.8478C67.3974 31.8376 67.327 31.8323 67.2539 31.8323C67.1848 31.8323 67.1169 31.8376 67.0496 31.8478C66.9823 31.8578 66.9203 31.8711 66.8633 31.8872L67.2235 31.0753C67.2805 30.9532 67.3435 30.8118 67.4129 30.6509C67.4817 30.4903 67.5543 30.3183 67.6296 30.1351C67.7046 29.9522 67.7831 29.7609 67.8646 29.561C67.9461 29.3616 68.0273 29.1623 68.1089 28.9627C68.1535 28.8489 68.2047 28.7175 68.2614 28.569C68.3184 28.4202 68.3733 28.2738 68.4263 28.1294C68.479 27.9849 68.528 27.8547 68.5729 27.7385C68.6176 27.6225 68.6501 27.5404 68.6703 27.4914C68.7397 27.5078 68.811 27.5212 68.8842 27.5308C68.9573 27.541 69.0286 27.5463 69.0978 27.5463C69.1712 27.5463 69.2444 27.541 69.3176 27.5308C69.391 27.5212 69.462 27.5078 69.5315 27.4914C69.5761 27.638 69.6331 27.8101 69.7026 28.0072C69.7714 28.2047 69.8458 28.4124 69.9252 28.63C70.0045 28.8477 70.086 29.0656 70.1694 29.2835C70.2528 29.5011 70.3313 29.7039 70.4044 29.8908C70.49 30.1066 70.5665 30.2978 70.6332 30.4649C70.7005 30.6317 70.7646 30.7895 70.826 30.9377C70.8868 31.0868 70.9509 31.2362 71.0182 31.3866C71.0855 31.5372 71.1617 31.7043 71.247 31.8872C71.1289 31.863 70.9965 31.8478 70.8502 31.8413C70.7036 31.8354 70.5693 31.8323 70.4472 31.8323C70.317 31.8323 70.1856 31.8376 70.0532 31.8478C69.9211 31.8578 69.79 31.8711 69.6598 31.8872C69.6189 31.7328 69.577 31.584 69.5346 31.4414C69.4918 31.2991 69.444 31.1568 69.391 31.0139C69.2568 31.0139 69.1223 31.0136 68.988 31.0111C68.8535 31.0093 68.7196 31.008 68.585 31.008C68.479 31.008 68.3724 31.0093 68.2645 31.0111C68.1566 31.0136 68.0497 31.0139 67.9439 31.0139C67.8869 31.1568 67.8382 31.301 67.7973 31.4476C67.7567 31.5943 67.7142 31.7406 67.6693 31.8872Z" fill="#206589"/>
<path d="M71.781 29.601C71.7788 29.4726 71.7779 29.3371 71.7779 29.1945C71.7779 29.0482 71.7766 28.9118 71.7751 28.7857C71.7729 28.6595 71.7717 28.5724 71.7717 28.5231C71.7717 28.3848 71.7676 28.2323 71.7596 28.0655C71.7512 27.8984 71.7369 27.7152 71.7168 27.5156C71.8268 27.528 71.9496 27.5404 72.086 27.5528C72.2224 27.5649 72.3495 27.5708 72.4679 27.5708C72.5817 27.5708 72.7088 27.5658 72.8492 27.5556C72.9897 27.5453 73.1127 27.532 73.2187 27.5156C73.2067 27.6582 73.1961 27.807 73.1881 27.9614C73.18 28.1164 73.1729 28.2698 73.167 28.4223C73.1608 28.5752 73.1564 28.7218 73.1546 28.8622C73.1527 29.0023 73.1515 29.1316 73.1515 29.2497C73.2454 29.2541 73.3489 29.2572 73.463 29.2587C73.5768 29.2609 73.6949 29.2618 73.817 29.2618C73.9228 29.2618 74.035 29.26 74.1528 29.2559C74.2709 29.2519 74.3868 29.2497 74.5009 29.2497C74.5009 29.1276 74.5 28.9943 74.4978 28.8498C74.4956 28.7054 74.4916 28.5578 74.4857 28.4071C74.4795 28.2568 74.4724 28.1049 74.4643 27.9524C74.456 27.7995 74.446 27.6545 74.4339 27.5156C74.5437 27.528 74.668 27.5404 74.8063 27.5528C74.9445 27.5649 75.0707 27.5708 75.1848 27.5708C75.2988 27.5708 75.4259 27.5658 75.5664 27.5556C75.7068 27.5453 75.8299 27.532 75.9356 27.5156C75.9111 27.7726 75.894 28.037 75.8838 28.3095C75.8736 28.5823 75.8686 28.8997 75.8686 29.2618C75.8686 29.5346 75.8705 29.7839 75.8745 30.0098C75.8789 30.2358 75.8838 30.4516 75.89 30.6568C75.8959 30.8627 75.9021 31.0645 75.9083 31.2616C75.9142 31.4591 75.9213 31.6674 75.9297 31.8872C75.669 31.8509 75.4024 31.8323 75.1299 31.8323C75.0118 31.8323 74.8946 31.8376 74.7787 31.8478C74.6627 31.8578 74.5455 31.8711 74.4274 31.8872C74.4439 31.753 74.4572 31.5912 74.4674 31.4021C74.4773 31.2126 74.4848 31.0214 74.4885 30.8282C74.4925 30.6348 74.4956 30.4516 74.4978 30.2786C74.5 30.1056 74.5009 29.9661 74.5009 29.8601C74.3909 29.8601 74.2793 29.8583 74.1649 29.8539C74.0511 29.8505 73.937 29.848 73.8232 29.848C73.7172 29.848 73.6053 29.8493 73.4875 29.8511C73.3694 29.8533 73.2575 29.8564 73.1515 29.8601C73.1515 29.9702 73.1527 30.1115 73.1546 30.2845C73.1564 30.4578 73.1595 30.6407 73.1639 30.8341C73.1679 31.0276 73.1738 31.2179 73.1822 31.4048C73.1902 31.5924 73.2005 31.753 73.2125 31.8872C73.0864 31.8674 72.9602 31.8528 72.8343 31.8447C72.7079 31.8364 72.5795 31.8323 72.4493 31.8323C72.2946 31.8323 72.1604 31.8376 72.0463 31.8478C71.9322 31.8578 71.8225 31.8711 71.7168 31.8872L71.7413 31.5822C71.7493 31.4926 71.7565 31.3797 71.7624 31.2433C71.7686 31.1066 71.7729 30.9603 71.7751 30.8034C71.7766 30.6472 71.7788 30.4872 71.781 30.3245C71.7828 30.1617 71.7841 30.0108 71.7841 29.8725C71.7841 29.8195 71.7828 29.729 71.781 29.601Z" fill="#206589"/>
</g>
</g>
<defs>
<linearGradient id="paint0_linear_1242_4033" x1="14.6451" y1="-1.55448" x2="27.9887" y2="20.653" gradientUnits="userSpaceOnUse">
<stop stop-color="#A9DAE8"/>
<stop offset="0.797814" stop-color="#0C98CF"/>
<stop offset="1" stop-color="#0C98CF"/>
</linearGradient>
<linearGradient id="paint1_linear_1242_4033" x1="20.9106" y1="0.22683" x2="34.2538" y2="22.4336" gradientUnits="userSpaceOnUse">
<stop stop-color="#A9DAE8"/>
<stop offset="0.797814" stop-color="#0C98CF"/>
<stop offset="1" stop-color="#0C98CF"/>
</linearGradient>
<linearGradient id="paint2_linear_1242_4033" x1="11.263" y1="2.16043" x2="24.6078" y2="24.3699" gradientUnits="userSpaceOnUse">
<stop stop-color="#A9DAE8"/>
<stop offset="0.797814" stop-color="#0C98CF"/>
<stop offset="1" stop-color="#0C98CF"/>
</linearGradient>
<linearGradient id="paint3_linear_1242_4033" x1="21.3263" y1="13.1038" x2="83.6909" y2="21.8685" gradientUnits="userSpaceOnUse">
<stop stop-color="#2398CC"/>
<stop offset="0.102041" stop-color="#2398CC"/>
<stop offset="0.245902" stop-color="#206589"/>
<stop offset="1" stop-color="#206589"/>
</linearGradient>
<clipPath id="clip0_1242_4033">
<rect width="93" height="43.9425" fill="white"/>
</clipPath>
</defs>
</svg>
