<svg width="93" height="40" viewBox="0 0 93 40" fill="none" xmlns="http://www.w3.org/2000/svg">
<g clip-path="url(#clip0_1242_4428)">
<mask id="mask0_1242_4428" style="mask-type:luminance" maskUnits="userSpaceOnUse" x="0" y="-26" width="93" height="94">
<path d="M0 -25.3425H93V67.6575H0V-25.3425Z" fill="white"/>
</mask>
<g mask="url(#mask0_1242_4428)">
<path d="M21.0228 19.6471C21.0253 19.6471 21.0278 19.6471 21.0302 19.6471C21.0302 20.2885 21.0361 20.9302 21.0262 21.5716C21.0237 21.738 21.0755 21.7752 21.2342 21.774C22.1394 21.7666 23.0443 21.7749 23.9495 21.7684C24.413 21.765 24.8504 21.6457 25.2382 21.3874C26.126 20.7966 26.3719 19.8799 26.4537 18.8997C26.4862 18.5081 26.5033 18.1144 26.4686 17.7133C26.4236 17.1931 26.3498 16.6829 26.1511 16.2076C25.7965 15.3595 25.1846 14.8232 24.2288 14.7128C23.5444 14.6335 22.8899 14.6759 22.3074 15.0644C21.3542 15.6999 21.1229 16.7055 21.0327 17.7468C20.9785 18.3758 21.0228 19.0134 21.0228 19.6471ZM2.5 23.1619C2.60416 23 2.54867 22.8116 2.58277 22.6364C2.68507 22.1076 2.82178 21.5945 3.0642 21.1115C3.11659 21.0077 3.16278 20.9513 3.29112 21.0157C3.44023 21.0901 3.60391 21.1348 3.75643 21.2036C4.01125 21.3186 4.10022 21.5403 4.00412 21.845C3.89531 22.1913 3.79704 22.5375 3.74279 22.8984C3.68265 23.297 3.678 23.6966 3.76139 24.0832C3.98769 25.1332 4.56305 25.9351 5.54172 26.4178C6.58301 26.9318 7.68909 27.0623 8.824 26.8915C9.62442 26.7712 10.3787 26.4996 11.0052 25.9581C11.7526 25.3123 12.0979 24.4756 12.0988 23.5047C12.105 17.8931 12.1032 12.2812 12.0967 6.66956C12.0964 6.43892 12.1373 6.33786 12.3905 6.36669C12.6041 6.39087 12.823 6.36824 13.0397 6.37258C13.3196 6.37816 13.4821 6.53626 13.501 6.81619C13.5053 6.88563 13.5022 6.95538 13.5022 7.02482C13.5025 11.4231 13.4945 15.8214 13.5115 20.2193C13.5146 20.9723 13.8252 21.5437 14.67 21.7551C14.7286 21.7697 14.7918 21.7697 14.8529 21.77C16.3691 21.7706 17.8856 21.7666 19.4018 21.7752C19.5934 21.7765 19.6266 21.7154 19.6259 21.5418C19.6219 20.1815 19.6101 18.8209 19.6408 17.4613C19.6507 17.0263 19.7704 16.5917 19.9146 16.1729C20.3913 14.7875 21.2792 13.8163 22.7464 13.5057C24.1532 13.2081 25.4676 13.4254 26.5644 14.4375C27.0849 14.9177 27.4073 15.5272 27.6137 16.1999C27.8992 17.1302 27.9665 18.0741 27.8561 19.0426C27.7721 19.7829 27.6081 20.4912 27.238 21.1394C26.6053 22.2467 25.6375 22.8512 24.3795 23.0258C24.1182 23.062 23.8609 23.0614 23.6011 23.0614C20.6846 23.0611 17.7678 23.0558 14.8513 23.0636C14.3814 23.0648 13.9514 22.9436 13.5022 22.7486C13.5022 23.0735 13.5112 23.3786 13.5007 23.683C13.4498 25.1691 12.9498 26.4404 11.7123 27.3478C10.994 27.8745 10.1768 28.1553 9.30605 28.3134C8.69504 28.4244 8.07721 28.444 7.46837 28.3937C5.66479 28.2452 4.10921 27.6141 3.15379 25.9584C2.7852 25.3192 2.57564 24.6241 2.54712 23.8801C2.54433 23.8116 2.58959 23.7239 2.5 23.6721V23.1619Z" fill="#2D358C"/>
<path d="M45.668 6.90901C43.2004 9.33197 40.7328 11.7549 38.2652 14.1776C38.2835 14.2064 38.3015 14.2352 38.3197 14.2638H38.5622C41.6491 14.2638 44.7364 14.2523 47.8234 14.269C49.3207 14.2771 50.521 15.0056 51.1265 16.4759C51.3438 17.0038 51.4327 17.5597 51.4898 18.1307C51.5611 18.8446 51.4817 19.5381 51.3301 20.2241C51.2095 20.7694 50.9839 21.284 50.5988 21.7704H50.8673C53.1573 21.7704 55.4476 21.7747 57.7375 21.7679C58.4592 21.7658 59.0442 21.359 59.1496 20.5081C59.1942 20.1463 59.2017 19.7886 59.2026 19.4287C59.2066 17.6276 59.2041 15.8265 59.2044 14.0254C59.2044 13.5157 59.3384 13.3834 59.852 13.3827C60.03 13.3824 60.2088 13.3942 60.3855 13.3793C60.5653 13.3644 60.6211 13.4184 60.6196 13.6066C60.6106 14.8125 60.6149 16.0184 60.6149 17.2243C60.6149 18.1518 60.6326 19.0799 60.6097 20.0068C60.5898 20.7945 60.4596 21.5605 59.91 22.1846C59.4772 22.6759 58.9267 22.9444 58.2828 23.0191C58.0072 23.0513 57.7276 23.06 57.4498 23.06C48.6685 23.0622 39.8868 23.0619 31.1054 23.0616C31.0205 23.0616 30.9346 23.0659 30.8506 23.056C30.5852 23.0253 30.4492 22.8911 30.4135 22.6269C30.4042 22.5587 30.4089 22.4881 30.4089 22.4186C30.4085 17.1626 30.4107 11.9062 30.4023 6.65016C30.4017 6.40712 30.469 6.34388 30.6956 6.36775C30.8794 6.38697 31.0667 6.37085 31.2524 6.37178C31.6569 6.37302 31.8097 6.51748 31.8141 6.9273C31.8212 7.56869 31.819 8.21039 31.819 8.85209C31.8194 13.065 31.8215 17.2779 31.8132 21.4908C31.8125 21.7298 31.8764 21.776 32.1046 21.7757C37.3423 21.7689 42.5804 21.7689 47.8181 21.7713C49.0457 21.772 49.7392 20.9514 49.9482 19.9938C50.0725 19.4237 50.1428 18.848 50.0898 18.2649C50.0377 17.6911 49.99 17.1142 49.6896 16.5993C49.3443 16.0072 48.874 15.6123 48.156 15.545C47.9344 15.5239 47.7137 15.5028 47.492 15.5028C43.848 15.501 40.2039 15.5 36.5599 15.5056C36.3658 15.5059 36.2688 15.474 36.3013 15.2573C36.3184 15.1438 36.3088 15.0257 36.3035 14.9098C36.2908 14.6299 36.3919 14.4057 36.5921 14.2073C37.2958 13.5111 37.9911 12.8068 38.6896 12.1052C40.3152 10.4721 41.9436 8.84155 43.5646 7.20382C43.826 6.9397 44.1118 6.8002 44.4909 6.82283C44.8607 6.84515 45.2331 6.82779 45.6044 6.82779C45.6255 6.85476 45.6469 6.88204 45.668 6.90901Z" fill="#2D358C"/>
<path d="M44.1099 31.9573C45.1571 30.5837 47.019 30.6671 47.5298 32.2413C47.5934 32.1377 47.6467 32.0497 47.7013 31.9623C48.3672 30.8977 49.8787 30.6488 50.8137 31.4604C51.2771 31.8628 51.4492 32.4124 51.5226 33.0011C51.5592 33.2937 51.5493 33.5876 51.5493 33.8809C51.5499 35.079 51.5468 36.2768 51.553 37.475C51.554 37.6343 51.513 37.6846 51.3481 37.6836C50.7793 37.6808 50.7793 37.6873 50.7793 37.1275C50.7793 35.9064 50.7783 34.6853 50.7796 33.4639C50.7799 33.2075 50.7523 32.9549 50.6853 32.7081C50.5458 32.1945 50.2566 31.8014 49.7088 31.7059C49.0851 31.5971 48.5311 31.7459 48.1502 32.3005C47.9056 32.6564 47.8172 33.0615 47.8163 33.4862C47.8138 34.8078 47.8123 36.1296 47.8194 37.4511C47.8203 37.6269 47.7831 37.6883 47.5937 37.6846C47.0583 37.6737 47.058 37.683 47.058 37.1386C47.058 35.9486 47.0611 34.7582 47.0562 33.5681C47.0546 33.263 47.0165 32.958 46.9495 32.6604C46.709 31.5896 45.6416 31.4712 44.9218 31.9186C44.6149 32.1089 44.3926 32.3891 44.1884 32.6833C44.1242 32.7757 44.1344 32.8734 44.1344 32.9722C44.1338 34.4562 44.1307 35.9402 44.1378 37.4242C44.1388 37.6151 44.1112 37.6932 43.8911 37.6858C43.3588 37.6678 43.3585 37.6811 43.3585 37.1576C43.3585 35.2253 43.3572 33.2931 43.3613 31.3609C43.3616 31.2533 43.2785 31.0899 43.5191 31.0887C43.9187 31.0865 44.0315 31.1333 44.0473 31.3723C44.06 31.5627 44.0148 31.7583 44.1099 31.9573Z" fill="#1D9AC5"/>
<path d="M36.6598 31.0932C36.5925 31.2271 36.4915 31.2878 36.4115 31.3669C35.5531 32.2144 34.695 33.062 33.832 33.9045C33.7145 34.0196 33.6829 34.0831 33.8146 34.2291C34.7356 35.2509 35.6427 36.285 36.5544 37.3152C36.6502 37.4234 36.7448 37.5328 36.8712 37.6772C36.5851 37.6772 36.3418 37.6831 36.099 37.6751C35.9691 37.6704 35.8715 37.5895 35.7865 37.495C34.9548 36.5696 34.1228 35.6443 33.2901 34.7198C33.2284 34.6513 33.1661 34.581 33.0933 34.5249C32.9624 34.4241 32.8 34.4601 32.6698 34.4966C32.5687 34.5249 32.6252 34.6749 32.6245 34.7688C32.6208 35.6731 32.6199 36.5777 32.6252 37.4819C32.6258 37.6236 32.6004 37.6831 32.4379 37.6841C31.8471 37.6872 31.8471 37.6937 31.8471 37.0997C31.8471 34.1932 31.8495 31.2866 31.8418 28.38C31.8415 28.1717 31.8979 28.0986 32.0997 28.1302C32.1679 28.1407 32.2389 28.1339 32.3083 28.1314C32.525 28.1234 32.6196 28.2387 32.6214 28.4427C32.6242 28.6897 32.6224 28.9371 32.6224 29.1845C32.6224 30.6378 32.6208 32.091 32.6261 33.5443C32.6264 33.6389 32.5508 33.783 32.69 33.8264C32.8229 33.868 32.9646 33.8388 33.0753 33.7278C33.2991 33.5031 33.5263 33.2824 33.7523 33.0598C34.3311 32.4906 34.9158 31.9274 35.4852 31.3489C35.6678 31.1632 35.8585 31.0659 36.1201 31.0904C36.2887 31.1059 36.4602 31.0932 36.6598 31.0932Z" fill="#1D9AC5"/>
<path d="M57.8044 34.5279C57.81 34.0418 57.757 33.7008 57.6993 33.3589C57.5595 32.5253 57.0272 31.9459 56.1998 31.7382C54.8656 31.4031 54.0546 32.1995 53.7899 33.0148C53.5304 33.8136 53.5202 34.6156 53.6929 35.434C53.9365 36.5897 54.9639 37.374 56.2535 37.0339C56.7935 36.8913 57.1943 36.5838 57.4519 36.0909C57.7309 35.5577 57.7932 34.9783 57.8044 34.5279ZM58.5881 34.3834C58.5679 34.9284 58.532 35.4712 58.3286 35.9864C57.8332 37.2438 56.7157 37.9106 55.3712 37.7534C54.1247 37.6077 53.2824 36.8947 52.9585 35.6783C52.6696 34.5936 52.6928 33.517 53.1882 32.4924C53.6492 31.5386 54.4428 31.0559 55.4955 31.0001C57.0573 30.9173 58.1051 31.7611 58.4573 33.1989C58.5518 33.5852 58.598 33.9823 58.5881 34.3834Z" fill="#1D9AC5"/>
<path d="M29.6747 35.393C29.6747 35.1847 29.6691 34.9764 29.6765 34.7684C29.6815 34.6348 29.6335 34.5939 29.5008 34.6081C29.25 34.6348 28.9964 34.6388 28.7456 34.6667C28.161 34.7312 27.5828 34.8282 27.0632 35.1261C26.5669 35.411 26.3936 35.8367 26.5409 36.3795C26.6717 36.8612 27.0112 37.1427 27.6085 37.1619C28.2047 37.1808 28.7279 36.9539 29.2044 36.589C29.5575 36.3184 29.7643 36.0124 29.6762 35.5549C29.6663 35.5028 29.675 35.447 29.6747 35.393ZM30.4385 35.1764C30.4385 36.0214 30.4432 36.7093 30.4329 37.3972C30.4317 37.4917 30.5377 37.6591 30.3161 37.6805C29.9971 37.7112 29.8359 37.6393 29.7981 37.4257C29.7723 37.2816 29.7655 37.1343 29.7475 36.9886C29.7423 36.9449 29.7426 36.8817 29.7156 36.8634C29.6564 36.8228 29.6223 36.8928 29.5857 36.9257C29.2326 37.2441 28.8532 37.52 28.3891 37.6548C27.9002 37.7968 27.4042 37.8473 26.9079 37.7038C26.2448 37.5122 25.8688 37.055 25.7656 36.3841C25.658 35.686 25.8914 35.1212 26.4913 34.7265C27.0589 34.353 27.704 34.2039 28.3631 34.1112C28.749 34.0569 29.1399 34.0352 29.5287 34.0052C29.6198 33.998 29.675 33.9785 29.6747 33.8744C29.6719 33.4196 29.701 32.9633 29.5485 32.5209C29.365 31.9896 28.9056 31.6913 28.3776 31.6811C27.7226 31.6687 27.2114 31.9155 26.7405 32.32C26.4364 32.5813 26.2594 32.5401 26.0796 32.1793C26.0415 32.1024 26.0483 32.0578 26.1035 31.9985C26.9241 31.1209 28.0326 30.7812 29.1049 31.0986C29.9456 31.3472 30.2851 32.0271 30.3936 32.8321C30.5052 33.662 30.4085 34.4999 30.4385 35.1764Z" fill="#1D9AC5"/>
<path d="M41.1883 35.41C41.1883 35.2014 41.1818 34.9924 41.1905 34.7841C41.1964 34.6443 41.1551 34.6012 41.0066 34.6065C40.5606 34.6214 40.1197 34.6793 39.682 34.7556C39.2406 34.8328 38.8125 34.9537 38.4377 35.2178C38.2334 35.362 38.0582 35.5563 38.0257 35.7851C37.9231 36.5083 38.2473 37.1135 39.1014 37.1615C39.6718 37.1938 40.1855 36.9861 40.6498 36.6454C41.0349 36.363 41.2959 36.0375 41.1892 35.5256C41.1818 35.4888 41.1883 35.4488 41.1883 35.41ZM41.2391 36.8056C40.8699 37.133 40.5193 37.4349 40.0745 37.5968C39.4991 37.806 38.9129 37.8658 38.3258 37.6712C37.7175 37.47 37.3765 37.0099 37.2789 36.3995C37.1757 35.7529 37.3648 35.1899 37.9209 34.7913C38.5167 34.3644 39.2052 34.1995 39.9148 34.1074C40.2933 34.0581 40.6756 34.0345 41.0562 34.0045C41.139 33.9977 41.188 33.9735 41.1871 33.8836C41.1837 33.3987 41.2289 32.9096 41.0349 32.4439C40.82 31.929 40.4598 31.7182 39.9055 31.6888C39.2474 31.6534 38.726 31.9089 38.2535 32.3258C37.9652 32.5803 37.7758 32.5345 37.6059 32.1928C37.5582 32.0961 37.5815 32.0431 37.6478 31.9743C38.3149 31.279 39.1231 30.9293 40.0915 30.9972C41.1105 31.0682 41.702 31.69 41.8694 32.6349C41.9401 33.0345 41.9599 33.4397 41.9596 33.8458C41.958 35.0281 41.9618 36.2104 41.9537 37.3928C41.9531 37.487 42.0569 37.6535 41.8446 37.6792C41.5206 37.7183 41.3504 37.6364 41.3129 37.4108C41.2816 37.2229 41.2661 37.0326 41.2391 36.8056Z" fill="#1D9AC5"/>
<path d="M23.5298 33.4021C23.5298 34.7469 23.5264 36.0917 23.5338 37.4364C23.5348 37.6178 23.5078 37.69 23.301 37.6851C22.7129 37.6714 22.7126 37.682 22.7126 37.0964C22.7126 34.5305 22.7098 31.9643 22.7179 29.3985C22.7185 29.183 22.6578 29.1306 22.4485 29.1334C21.5743 29.1449 20.7001 29.134 19.8262 29.1418C19.6625 29.1433 19.6185 29.0943 19.6191 28.9338C19.6207 28.3956 19.6145 28.3956 20.1632 28.3956C22.19 28.3956 24.2168 28.3956 26.2435 28.3959C26.5861 28.3959 26.5948 28.4052 26.5935 28.7453C26.5926 29.1381 26.5926 29.1381 26.2104 29.1381C25.3982 29.1381 24.5857 29.147 23.7738 29.1322C23.5589 29.1281 23.5242 29.196 23.5255 29.3907C23.5338 30.7277 23.5298 32.0651 23.5298 33.4021Z" fill="#1D9AC5"/>
<path d="M59.8331 32.901C59.8331 31.4022 59.8371 29.903 59.8281 28.4042C59.8269 28.207 59.8818 28.1621 60.0715 28.1664C60.6152 28.1785 60.6155 28.1695 60.6155 28.7108C60.6155 31.6161 60.6134 34.5214 60.6199 37.4264C60.6202 37.622 60.5858 37.6924 60.3706 37.6856C59.8334 37.6688 59.8331 37.6812 59.8331 37.1431V32.901Z" fill="#1D9AC5"/>
<path d="M70.2775 14.367C70.2775 14.2207 70.2955 14.0716 70.2738 13.9287C70.2316 13.6512 70.51 13.3865 70.7757 13.3843C71.1074 13.3815 71.4388 13.3855 71.7702 13.3806C71.8709 13.3793 71.9047 13.4168 71.9035 13.5154C71.8994 13.8698 71.9109 14.2244 71.8976 14.5781C71.8864 14.8757 71.7199 15.053 71.4199 15.0722C71.082 15.0936 70.7419 15.0791 70.4031 15.0859C70.2958 15.0877 70.2747 15.0363 70.2763 14.9445C70.28 14.752 70.2775 14.5595 70.2775 14.367Z" fill="#E68524"/>
<path d="M65.4461 13.3735C65.447 13.752 65.4526 14.1306 65.4476 14.5091C65.4427 14.8783 65.2616 15.0683 64.8937 15.0816C64.5849 15.0928 64.2752 15.0801 63.9658 15.0863C63.8518 15.0888 63.8211 15.0444 63.8223 14.9372C63.827 14.5661 63.8183 14.195 63.8263 13.8243C63.8316 13.5763 64.0715 13.3887 64.3819 13.3835C64.7377 13.3769 65.0933 13.3797 65.4492 13.3782L65.4461 13.3735Z" fill="#1D9AC5"/>
<path d="M74.1456 5.03373C73.9831 5.03373 73.8207 5.02784 73.6586 5.03559C73.5389 5.04148 73.4943 5.00025 73.4967 4.87811C73.5029 4.55354 73.4887 4.22866 73.502 3.90471C73.5181 3.51628 73.697 3.35477 74.0916 3.35012C74.3852 3.34671 74.6791 3.35415 74.973 3.34733C75.0936 3.34454 75.136 3.38546 75.1335 3.50636C75.1277 3.81512 75.137 4.1245 75.1304 4.43326C75.1211 4.86385 74.9469 5.03032 74.5166 5.03373C74.393 5.03466 74.2693 5.03373 74.1456 5.03373Z" fill="#5557A1"/>
<path d="M73.4824 1.68619C73.4877 1.35449 73.4958 1.02279 73.4979 0.691089C73.5016 0.166259 73.6532 0.0106387 74.1691 0.0103287C74.4316 0.0103287 74.6948 0.0152887 74.9574 0.00815868C75.0826 0.0047487 75.1391 0.0363688 75.135 0.174319C75.1267 0.483079 75.1388 0.792149 75.131 1.10091C75.1205 1.52003 74.9453 1.6865 74.529 1.68712C74.1886 1.68743 73.8485 1.68557 73.5085 1.68464C73.5001 1.68929 73.4914 1.6896 73.4824 1.68619Z" fill="#E68524"/>
<path d="M68.6748 6.70184C68.6764 7.06237 68.6857 7.42321 68.6776 7.78374C68.668 8.21433 68.4969 8.37367 68.066 8.37305C67.7281 8.37243 67.3902 8.3684 67.0526 8.36592L67.043 8.36995C67.0439 8.02306 67.043 7.67586 67.0464 7.32897C67.051 6.86986 67.2234 6.69688 67.6744 6.69657C68.0061 6.69657 68.3381 6.69874 68.6698 6.69967L68.6748 6.70184Z" fill="#E68524"/>
<path d="M89.6357 11.0785C89.6357 10.909 89.6283 10.7391 89.6373 10.5701C89.6559 10.2266 89.8428 10.0472 90.1819 10.0434C90.4904 10.0397 90.7988 10.0431 91.1076 10.0422C91.1885 10.0419 91.266 10.0388 91.2589 10.1563C91.2347 10.5608 91.3026 10.9672 91.2167 11.3715C91.1755 11.5662 91.0654 11.6781 90.8856 11.7063C90.5031 11.767 90.1162 11.7221 89.7312 11.7317C89.6249 11.7345 89.6342 11.657 89.6342 11.5872C89.6342 11.4177 89.6342 11.2481 89.6342 11.0785H89.6357Z" fill="#1D9AC5"/>
<path d="M71.8995 20.086C71.8794 20.5141 71.9519 20.9453 71.8574 21.3716C71.8006 21.6273 71.6807 21.7547 71.4262 21.765C71.087 21.778 70.747 21.7665 70.4075 21.7724C70.3061 21.774 70.2739 21.7386 70.2754 21.6388C70.2801 21.2842 70.2696 20.9292 70.281 20.5749C70.2903 20.2906 70.4528 20.1108 70.7408 20.091C71.1248 20.0646 71.5114 20.0699 71.8967 20.0615C71.9042 20.0687 71.9051 20.077 71.8995 20.086Z" fill="#1D9AC5"/>
<path d="M83.1827 14.4128C83.1827 14.2429 83.175 14.0727 83.1843 13.9032C83.2016 13.5873 83.3811 13.3985 83.6958 13.3858C84.02 13.3724 84.3449 13.383 84.6695 13.3817C84.7451 13.3814 84.8118 13.3855 84.8056 13.4884C84.7805 13.8858 84.8425 14.2838 84.7681 14.6831C84.7228 14.9246 84.5886 15.0486 84.3734 15.0638C84.012 15.0886 83.648 15.0777 83.285 15.0839C83.1812 15.0858 83.1805 15.0188 83.1809 14.9457C83.1818 14.7681 83.1812 14.5904 83.1812 14.4128H83.1827Z" fill="#5557A1"/>
<path d="M68.647 13.3699C68.6966 13.8054 68.6889 14.2429 68.6507 14.6775C68.6287 14.9276 68.4322 15.073 68.1386 15.0805C67.7772 15.0895 67.4154 15.0786 67.0536 15.0761L67.0542 15.0786C67.0521 14.7091 67.0425 14.3396 67.0493 13.9704C67.057 13.5671 67.2505 13.3866 67.6572 13.3826C67.9883 13.3792 68.3194 13.3767 68.6507 13.3742L68.647 13.3699Z" fill="#1D9AC5"/>
<path d="M76.7287 14.4076C76.7287 14.2455 76.7231 14.083 76.73 13.9212C76.7433 13.5914 76.9225 13.3982 77.2477 13.3855C77.5716 13.3731 77.8968 13.3837 78.2214 13.3818C78.301 13.3812 78.3587 13.3948 78.3531 13.4931C78.3292 13.8986 78.3968 14.3059 78.3106 14.7111C78.2676 14.9148 78.1501 15.0273 77.9603 15.0577C77.5846 15.1178 77.2046 15.0732 76.8267 15.0837C76.7197 15.0868 76.7287 15.0102 76.7284 14.9405C76.7281 14.7629 76.7284 14.5852 76.7287 14.4076Z" fill="#1D9AC5"/>
<path d="M67.0531 15.0785L67.0525 15.076C67.0565 15.461 67.0757 15.847 67.0599 16.2311C67.0463 16.5736 66.8522 16.7438 66.5057 16.7525C66.205 16.7599 65.9036 16.7497 65.6026 16.7562C65.4858 16.7587 65.4368 16.7274 65.4396 16.6018C65.4467 16.2549 65.4358 15.9074 65.4451 15.5609C65.4532 15.2636 65.6293 15.0763 65.9194 15.0695C66.297 15.0605 66.6752 15.0745 67.0531 15.0785Z" fill="#D15229"/>
<path d="M67.0622 11.7169C67.0575 11.331 67.0374 10.9447 67.0523 10.5597C67.0656 10.2113 67.2593 10.0463 67.6069 10.0432C67.9085 10.0404 68.2101 10.0466 68.5117 10.0408C68.6323 10.0383 68.6754 10.0814 68.6733 10.2013C68.6671 10.5411 68.6795 10.8818 68.6652 11.2209C68.6519 11.5377 68.4835 11.7166 68.1748 11.7275C67.8046 11.7402 67.4336 11.7222 67.0628 11.7175L67.0622 11.7169Z" fill="#1D9AC5"/>
<path d="M67.0425 8.36982L67.0521 8.36579C67.0565 8.74895 67.0747 9.13242 67.0611 9.51496C67.0484 9.87549 66.8689 10.0475 66.509 10.0581C66.1562 10.0686 65.8025 10.055 65.4494 10.0519V10.0513C65.4466 9.66686 65.4379 9.28215 65.4429 8.89775C65.4472 8.56078 65.6363 8.37447 65.9798 8.36796C66.3338 8.36114 66.6882 8.36858 67.0425 8.36982Z" fill="#D15229"/>
<path d="M73.4902 11.065C73.4998 10.8651 73.4958 10.6636 73.5225 10.4658C73.5587 10.1998 73.7246 10.0532 73.9918 10.0455C74.3232 10.0362 74.6555 10.0473 74.9872 10.0411C75.1056 10.0386 75.1311 10.0957 75.1301 10.1952C75.127 10.5343 75.1394 10.8744 75.1211 11.2126C75.1022 11.5666 74.9268 11.7191 74.5687 11.725C74.2758 11.7297 73.9819 11.7179 73.6893 11.7291C73.5308 11.7353 73.4874 11.6745 73.4971 11.5279C73.507 11.3744 73.4992 11.2197 73.4992 11.0654C73.4961 11.0654 73.4933 11.065 73.4902 11.065Z" fill="#D15229"/>
<path d="M71.9015 16.7566C71.9018 17.1184 71.9055 17.4802 71.9015 17.8419C71.8975 18.2362 71.7102 18.421 71.319 18.4235C70.9721 18.4257 70.6256 18.4247 70.2787 18.425L70.2815 18.4297C70.2802 18.0509 70.2746 17.672 70.279 17.2935C70.2833 16.9302 70.4609 16.742 70.8168 16.7377C71.1792 16.7337 71.5425 16.7154 71.9043 16.7606L71.9015 16.7566Z" fill="#D15229"/>
<path d="M68.6677 3.35748C68.6708 3.72793 68.6854 4.099 68.6739 4.46914C68.6615 4.87214 68.4823 5.03179 68.0734 5.03303C67.7334 5.03427 67.3933 5.02869 67.0535 5.02621V5.02714C67.0535 4.64925 67.0464 4.27136 67.0551 3.89378C67.0638 3.53015 67.2408 3.35624 67.6022 3.35128C67.9572 3.34632 68.3121 3.355 68.6671 3.35779L68.6677 3.35748Z" fill="#D15229"/>
<path d="M76.7306 11.0169C76.7306 10.8628 76.7293 10.7088 76.7309 10.5547C76.7334 10.2769 76.9132 10.0612 77.1884 10.0485C77.5347 10.0324 77.8822 10.0466 78.2291 10.0417C78.3361 10.0404 78.3568 10.0906 78.3559 10.1827C78.3525 10.537 78.3643 10.8917 78.3503 11.2454C78.3388 11.5343 78.1643 11.7098 77.8831 11.72C77.5446 11.7324 77.2049 11.7203 76.8657 11.7265C76.7464 11.7287 76.7262 11.6716 76.7287 11.5715C76.7334 11.3867 76.7299 11.2017 76.7306 11.0169Z" fill="#5557A1"/>
<path d="M83.1889 9.05719C83.1889 9.22707 83.1961 9.39757 83.1874 9.56714C83.1731 9.85265 83.0095 10.0318 82.7249 10.0461C82.3854 10.0625 82.0447 10.051 81.7047 10.0576C81.5875 10.0597 81.5627 10.0039 81.5639 9.90132C81.568 9.57675 81.5559 9.25187 81.5683 8.92792C81.5835 8.54352 81.7719 8.37085 82.1576 8.36682C82.4437 8.36372 82.7301 8.37488 83.0157 8.36248C83.1651 8.35628 83.2017 8.40991 83.193 8.54755C83.1821 8.71681 83.1905 8.88731 83.1905 9.05719C83.1899 9.05719 83.1896 9.05719 83.1889 9.05719Z" fill="#D15229"/>
<path d="M70.2794 11.7065C70.2785 11.3202 70.2763 10.9336 70.2773 10.5474C70.2779 10.2733 70.4664 10.0588 70.7444 10.047C71.0842 10.0328 71.4252 10.0476 71.7653 10.0408C71.8868 10.0387 71.9041 10.0954 71.9029 10.1961C71.8989 10.5285 71.9088 10.8608 71.8992 11.1928C71.8889 11.5437 71.7107 11.7226 71.361 11.722C70.9992 11.721 70.6362 11.7539 70.2754 11.7024L70.2794 11.7065Z" fill="#5557A1"/>
<path d="M63.8232 11.7046C63.8257 12.0983 63.8375 12.4926 63.8273 12.886C63.8186 13.2242 63.6379 13.3888 63.2969 13.3935C62.9875 13.3975 62.6781 13.391 62.3687 13.3959C62.2515 13.3978 62.2029 13.3606 62.2054 13.2372C62.2116 12.9052 62.1985 12.5723 62.21 12.2406C62.2215 11.9008 62.4158 11.7191 62.7584 11.7136C63.1143 11.708 63.4698 11.7108 63.8257 11.7098L63.8232 11.7046Z" fill="#E68524"/>
<path d="M67.0614 11.7172L67.062 11.7179C67.0632 12.0809 67.0697 12.4442 67.0648 12.8072C67.0589 13.2238 66.8816 13.3974 66.4634 13.3928C66.1239 13.3891 65.7839 13.4198 65.4453 13.3739L65.4484 13.3785C65.446 13.0016 65.4382 12.6243 65.4429 12.2473C65.4472 11.9073 65.6354 11.7191 65.9751 11.7144C66.3372 11.7092 66.6993 11.7157 67.0614 11.7172Z" fill="#5557A1"/>
<path d="M71.9005 7.36523C71.9005 7.52705 71.9064 7.68918 71.8992 7.85038C71.8834 8.20006 71.7064 8.37025 71.3595 8.37304C71.0666 8.37521 70.7733 8.36498 70.4807 8.37676C70.3244 8.38327 70.2649 8.34545 70.2721 8.17712C70.2857 7.8541 70.2748 7.53015 70.2764 7.20651C70.2776 6.93278 70.4639 6.71392 70.7371 6.70183C71.0833 6.68664 71.4308 6.70028 71.7777 6.69408C71.8868 6.69222 71.9045 6.74244 71.902 6.83358C71.8977 7.0109 71.9008 7.18791 71.9005 7.36523Z" fill="#D15229"/>
<path d="M63.8218 8.3635C63.8243 8.75596 63.8352 9.14873 63.8268 9.54119C63.82 9.85708 63.6516 10.0344 63.3435 10.048C63.0127 10.0629 62.681 10.0508 62.3496 10.0561C62.2368 10.058 62.203 10.0108 62.2043 9.9042C62.2086 9.56537 62.1965 9.22623 62.2089 8.88771C62.2213 8.55322 62.4178 8.37311 62.7616 8.36753C63.1163 8.36195 63.4709 8.36753 63.8256 8.36815L63.8218 8.3635Z" fill="#1D9AC5"/>
<path d="M78.3527 6.69314C78.3533 7.06359 78.3564 7.43435 78.3533 7.8048C78.3502 8.19571 78.1738 8.37148 77.7891 8.37334C77.4878 8.37458 77.1861 8.36869 76.8851 8.37582C76.7655 8.37861 76.7236 8.34358 76.7267 8.2202C76.7345 7.8885 76.7283 7.55618 76.7298 7.22417C76.7314 6.91231 76.9295 6.70399 77.2447 6.6981C77.6155 6.69128 77.9863 6.69717 78.357 6.69779L78.3527 6.69314Z" fill="#D15229"/>
<path d="M70.2786 18.4254C70.2804 18.8029 70.2888 19.1808 70.2823 19.5584C70.2758 19.914 70.0867 20.091 69.7286 20.0935C69.4354 20.0956 69.1418 20.0857 68.8488 20.0972C68.6923 20.1034 68.6517 20.0473 68.6566 19.8988C68.6669 19.591 68.6545 19.2822 68.6613 18.9738C68.6694 18.6014 68.8513 18.4148 69.2187 18.4145C69.5727 18.4142 69.9276 18.39 70.2814 18.43L70.2786 18.4254Z" fill="#5557A1"/>
<path d="M65.4498 10.0514L65.4495 10.052C65.4491 10.4125 65.4519 10.7734 65.4479 11.1342C65.4436 11.544 65.2644 11.7257 64.8558 11.7226C64.5111 11.7201 64.1661 11.749 63.8223 11.7043L63.8247 11.7096C63.8244 11.3394 63.8204 10.969 63.8251 10.5989C63.8297 10.2303 64.0173 10.0452 64.3855 10.0436C64.7402 10.0424 65.0951 10.0486 65.4498 10.0514Z" fill="#5557A1"/>
<path d="M78.3583 6.69759C78.3558 6.30451 78.3428 5.91112 78.3543 5.51835C78.3633 5.19998 78.5551 5.03072 78.8772 5.02731C79.1937 5.0239 79.5106 5.02979 79.8268 5.02452C79.9356 5.02297 79.9768 5.05676 79.9749 5.16929C79.9694 5.50843 79.9827 5.8485 79.9697 6.18733C79.9563 6.53019 79.766 6.70131 79.4185 6.70255C79.0635 6.70348 78.7086 6.69666 78.3536 6.69325L78.3583 6.69759Z" fill="#E68524"/>
<path d="M68.6745 6.70157L68.6696 6.6994C68.6661 6.31469 68.651 5.92936 68.6624 5.54465C68.6727 5.20334 68.8704 5.02913 69.2124 5.02665C69.5208 5.02479 69.8293 5.03006 70.1377 5.02448C70.2456 5.02262 70.2878 5.05424 70.2856 5.16739C70.2794 5.51397 70.2915 5.86116 70.2791 6.20743C70.2673 6.53231 70.0869 6.69878 69.762 6.70219C69.3996 6.70653 69.0369 6.70219 68.6745 6.70157Z" fill="#1D9AC5"/>
<path d="M71.903 16.7607C71.9006 16.3599 71.8885 15.9591 71.8984 15.5589C71.9061 15.2486 72.089 15.0737 72.3993 15.075C72.776 15.0768 73.1539 15.0449 73.5299 15.0948L73.5256 15.0914C73.5234 15.4463 73.5234 15.801 73.5184 16.1559C73.5129 16.5614 73.3238 16.7499 72.9195 16.7539C72.5798 16.757 72.24 16.7558 71.9002 16.7567L71.903 16.7607Z" fill="#1D9AC5"/>
<path d="M63.826 8.36822C63.8254 7.99777 63.821 7.62732 63.8251 7.25718C63.8294 6.88797 64.0173 6.6998 64.3824 6.69732C64.7377 6.69484 65.093 6.6998 65.4479 6.70135L65.4439 6.69732C65.4457 7.07428 65.4538 7.45124 65.447 7.82789C65.4402 8.20206 65.2591 8.37287 64.8843 8.37256C64.5303 8.37256 64.1763 8.36698 63.8223 8.36357L63.826 8.36822Z" fill="#E68524"/>
<path d="M68.6693 3.3576L68.6687 3.35791C68.6659 2.97971 68.655 2.60182 68.6631 2.22393C68.6705 1.86898 68.8637 1.68391 69.2152 1.68112C69.5701 1.67833 69.9254 1.68577 70.2807 1.68856L70.2766 1.68453C70.2791 2.07017 70.2897 2.45612 70.2816 2.84176C70.2745 3.18617 70.0863 3.35512 69.7357 3.35667C69.3801 3.35791 69.0249 3.35729 68.6693 3.3576Z" fill="#5557A1"/>
<path d="M76.7336 19.0876C76.7336 19.2649 76.7429 19.4426 76.7315 19.6193C76.7126 19.9094 76.5275 20.0858 76.2364 20.092C75.9202 20.0988 75.6037 20.0892 75.2875 20.096C75.1638 20.0985 75.1058 20.0703 75.1095 19.9311C75.1182 19.6078 75.1043 19.2835 75.1148 18.9602C75.1269 18.5956 75.3182 18.4177 75.6865 18.4127C75.9797 18.409 76.273 18.4171 76.5659 18.4096C76.694 18.4065 76.7473 18.4447 76.7395 18.5792C76.7299 18.7482 76.7374 18.918 76.7374 19.0876C76.7361 19.0876 76.7349 19.0876 76.7336 19.0876Z" fill="#E68524"/>
<path d="M88.0375 9.01741C88.0375 9.17954 88.0424 9.34167 88.0365 9.50349C88.0229 9.86557 87.8499 10.0429 87.4909 10.0525C87.1899 10.0606 86.8883 10.05 86.5873 10.0565C86.4608 10.059 86.4072 10.0215 86.4103 9.88665C86.418 9.5627 86.4041 9.23813 86.4159 8.91449C86.4295 8.53908 86.6109 8.37106 86.9863 8.36672C87.2876 8.363 87.5889 8.36951 87.8899 8.36393C87.9987 8.36207 88.0437 8.39524 88.0393 8.50808C88.0325 8.67765 88.0375 8.84753 88.0375 9.01741Z" fill="#E68524"/>
<path d="M71.9001 20.0859C71.9056 20.0769 71.9047 20.0685 71.8973 20.0614C71.8963 19.7065 71.8929 19.3518 71.8954 18.9969C71.8982 18.5898 72.069 18.415 72.4692 18.4097C72.7625 18.406 73.0561 18.4141 73.3493 18.4069C73.4786 18.4038 73.526 18.4441 73.5223 18.5778C73.5142 18.894 73.526 19.2105 73.518 19.5267C73.5083 19.9129 73.3227 20.0921 72.942 20.0927C72.5948 20.0933 72.2473 20.0884 71.9001 20.0859Z" fill="#2D358C"/>
<path d="M70.2794 1.68848C70.2785 1.31865 70.2742 0.949127 70.2776 0.579297C70.2816 0.190557 70.4602 0.0132365 70.843 0.0104465C71.1437 0.00827646 71.4447 0.0147866 71.7454 0.00765657C71.8645 0.00517654 71.9069 0.0405165 71.9041 0.163586C71.8967 0.494977 71.9082 0.826367 71.8995 1.15745C71.8905 1.50093 71.7005 1.68414 71.3623 1.68631C70.9999 1.68879 70.6378 1.68538 70.2754 1.68445L70.2794 1.68848Z" fill="#1D9AC5"/>
<path d="M67.0534 5.02707L67.0531 5.02614C67.0571 5.40961 67.0754 5.79339 67.0608 6.17624C67.0472 6.53584 66.8581 6.70169 66.5038 6.70293C66.1504 6.70417 65.797 6.69921 65.4433 6.69673L65.4473 6.70076C65.4454 6.30861 65.438 5.91615 65.4433 5.524C65.4473 5.21059 65.6451 5.02831 65.9675 5.02676C66.3292 5.0249 66.6913 5.02676 67.0534 5.02707Z" fill="#2D358C"/>
<path d="M74.124 8.37361C73.9473 8.3516 73.663 8.46816 73.5403 8.32649C73.4352 8.20559 73.5056 7.93 73.5046 7.72292C73.504 7.5301 73.4997 7.33635 73.5186 7.14508C73.5459 6.87259 73.7207 6.70674 73.9898 6.69868C74.3215 6.68876 74.6538 6.70023 74.9858 6.69372C75.0986 6.69155 75.1327 6.7303 75.1309 6.83973C75.125 7.16368 75.1358 7.48825 75.125 7.81189C75.1114 8.2214 74.9446 8.37237 74.531 8.37361C74.4073 8.37392 74.284 8.37361 74.124 8.37361Z" fill="#2D358C"/>
<path d="M78.3533 4.01549C78.3533 4.18537 78.3601 4.35556 78.3517 4.52513C78.3359 4.84133 78.1508 5.02516 77.8365 5.03198C77.5197 5.0388 77.2025 5.02919 76.8857 5.03601C76.7661 5.03849 76.7239 5.00284 76.7267 4.87946C76.7341 4.54745 76.7224 4.21513 76.7313 3.88312C76.7406 3.54119 76.9279 3.35922 77.2717 3.35147C77.5811 3.34465 77.8904 3.35457 78.1995 3.34713C78.322 3.34403 78.3626 3.38495 78.3561 3.50585C78.3474 3.67542 78.3539 3.84561 78.3533 4.01549Z" fill="#1D9AC5"/>
<path d="M73.481 1.68605C73.49 1.68946 73.4987 1.68915 73.507 1.6845C73.5105 2.06177 73.5256 2.43935 73.5142 2.81631C73.5027 3.19048 73.3148 3.35602 72.9413 3.35664C72.6403 3.35757 72.3396 3.35323 72.0386 3.35881C71.9316 3.36067 71.8885 3.33122 71.8907 3.21714C71.8972 2.87056 71.8864 2.52336 71.8966 2.17678C71.9059 1.87112 72.09 1.68853 72.3935 1.68264C72.7559 1.67582 73.1186 1.68419 73.481 1.68605Z" fill="#D15229"/>
<path d="M73.5292 15.0947C73.4833 14.6728 73.4945 14.2497 73.5218 13.8287C73.5394 13.554 73.7313 13.3944 74.0221 13.3851C74.3377 13.3755 74.6542 13.3872 74.9701 13.3804C75.0981 13.3776 75.126 13.4347 75.1245 13.5472C75.1198 13.8786 75.1304 14.21 75.1198 14.5411C75.1087 14.8982 74.9286 15.0721 74.5652 15.0826C74.2187 15.0926 73.8718 15.0888 73.5249 15.0913L73.5292 15.0947Z" fill="#5557A1"/>
<path d="M55.7541 11.0575C55.7541 10.8953 55.7485 10.7329 55.7553 10.5711C55.7696 10.2298 55.9572 10.0481 56.2994 10.0438C56.6085 10.04 56.9178 10.0425 57.2269 10.0435C57.2933 10.0438 57.3822 10.0255 57.3766 10.1334C57.3549 10.5463 57.4259 10.9611 57.3326 11.374C57.2805 11.6052 57.1352 11.706 56.9299 11.7165C56.583 11.7345 56.2346 11.7233 55.8871 11.728C55.7876 11.7292 55.7501 11.6889 55.7529 11.5904C55.7575 11.4127 55.7541 11.2351 55.7541 11.0575Z" fill="#2D358C"/>
<path d="M70.2765 11.7026C70.2783 12.104 70.2882 12.5058 70.2796 12.9069C70.2734 13.1769 70.1301 13.3626 69.8927 13.3793C69.4785 13.4088 69.0616 13.4246 68.6465 13.37L68.6502 13.3741C68.6533 13.0266 68.6567 12.6794 68.6604 12.3319C68.6648 11.8932 68.8443 11.7156 69.2832 11.7131C69.6155 11.7112 69.9479 11.7088 70.2805 11.7066L70.2765 11.7026Z" fill="#2D358C"/>
<path d="M59.972 10.0433C60.1419 10.0433 60.3121 10.0474 60.482 10.0418C60.5833 10.0387 60.6171 10.079 60.6159 10.1776C60.6115 10.5096 60.6258 10.8422 60.61 11.1733C60.5917 11.562 60.4097 11.7232 60.0185 11.7269C59.7327 11.7297 59.4466 11.722 59.161 11.7297C59.0346 11.7331 58.9828 11.7015 58.9865 11.5642C58.9955 11.2325 58.985 10.9002 58.9905 10.5685C58.9964 10.2309 59.1874 10.0492 59.5315 10.0436C59.6784 10.0412 59.8251 10.0433 59.972 10.0433Z" fill="#2D358C"/>
<path d="M68.6583 17.4331C68.6583 17.6182 68.6729 17.8045 68.6549 17.9877C68.6292 18.2469 68.455 18.4115 68.1955 18.4205C67.8638 18.4319 67.5312 18.4205 67.1991 18.4257C67.086 18.4273 67.0522 18.3795 67.0534 18.2738C67.0575 17.9266 67.046 17.5788 67.0596 17.2322C67.0717 16.9179 67.2487 16.7508 67.5597 16.7443C67.8762 16.7372 68.193 16.7462 68.5095 16.7409C68.6286 16.7387 68.6769 16.779 68.6723 16.9008C68.6651 17.0779 68.6704 17.2555 68.6704 17.4331C68.6664 17.4331 68.6623 17.4331 68.6583 17.4331Z" fill="#E68524"/>
<path d="M81.57 12.378C81.57 12.5708 81.584 12.7645 81.5666 12.9558C81.5421 13.2249 81.3794 13.3833 81.1156 13.3926C80.7761 13.4044 80.436 13.3941 80.0963 13.3975C80.0005 13.3985 79.9552 13.3675 79.9571 13.2655C79.9633 12.9031 79.9549 12.5401 79.9713 12.178C79.9837 11.9055 80.1685 11.7273 80.4466 11.7164C80.7783 11.7031 81.1109 11.7167 81.4429 11.7108C81.5638 11.709 81.5827 11.77 81.5806 11.8686C81.5771 12.0382 81.5796 12.2081 81.5796 12.378C81.5765 12.378 81.5731 12.378 81.57 12.378Z" fill="#2D358C"/>
</g>
</g>
<defs>
<clipPath id="clip0_1242_4428">
<rect width="93" height="39.2925" fill="white"/>
</clipPath>
</defs>
</svg>
