<svg width="124" height="35" viewBox="0 0 124 35" fill="none" xmlns="http://www.w3.org/2000/svg">
<g clip-path="url(#clip0_1293_5038)">
<mask id="mask0_1293_5038" style="mask-type:luminance" maskUnits="userSpaceOnUse" x="-11" y="-54" width="146" height="145">
<path d="M-10.3408 -53.8986H134.34V90.7822H-10.3408V-53.8986Z" fill="white"/>
</mask>
<g mask="url(#mask0_1293_5038)">
<path d="M21.1779 7.65461C21.1779 7.65461 10.2864 1.33977 4.54013 6.56227C4.36266 6.78459 4.33951 7.10192 4.49625 7.3474C4.55412 7.44048 5.98115 9.65747 9.39176 9.65747C11.0956 9.65747 12.4513 8.8352 13.7606 8.03753C15.0271 7.26734 16.2193 6.53912 17.6979 6.53912C18.9855 6.53912 20.0726 7.04839 21.1789 7.65461" fill="#A8A9CF"/>
<path d="M33.556 11.1696C33.4547 10.9033 33.1929 10.7254 32.9049 10.7379C32.7964 10.7413 30.1796 10.8797 28.4738 13.8611C27.6222 15.3499 27.6496 16.9457 27.681 18.4894C27.7085 19.9816 27.736 21.3869 26.9971 22.6794C26.3543 23.8041 25.3733 24.5009 24.2998 25.1636C24.309 25.1578 35.1653 18.8 33.555 11.1696" fill="#A8A9CF"/>
<path d="M15.2161 28.4138C14.3644 26.925 12.9813 26.1514 11.6406 25.4068C10.3462 24.6849 9.12555 24.0063 8.38671 22.7153C7.74191 21.5906 7.6363 20.3854 7.60254 19.1166C7.60254 19.12 7.62906 31.793 14.9842 34.202C15.2644 34.2459 15.5479 34.1065 15.6806 33.848C15.7326 33.7515 16.9209 31.3961 15.2161 28.4152" fill="#A8A9CF"/>
<path d="M4.54004 6.56232C7.78041 2.53779 12.5775 0.230125 17.6968 0.230125C22.8156 0.230125 27.6075 2.53779 30.8474 6.56232C31.0412 6.80298 31.0461 7.14635 30.8589 7.39424C30.7967 7.47526 29.2752 9.44678 25.9981 9.44678C24.3661 9.44678 23.0196 8.68961 21.7243 7.95705C21.541 7.85481 21.3587 7.75208 21.1779 7.65322C21.1779 7.65322 10.2863 1.33838 4.54004 6.56136" fill="#6B47F5"/>
<path d="M33.5557 11.1696C35.3898 16.0144 34.9712 21.3599 32.4123 25.8339C29.8558 30.3026 25.4768 33.3409 20.4023 34.1598C20.0995 34.2085 19.8019 34.0412 19.6823 33.7538C19.6442 33.6583 18.7115 31.3439 20.3507 28.4787C21.1667 27.0517 22.4891 26.255 23.7661 25.4881C23.946 25.3792 24.1245 25.2706 24.301 25.1626C24.301 25.1626 35.167 18.801 33.5567 11.1686" fill="#6B47F5"/>
<path d="M14.9847 34.2017C9.91074 33.3818 5.53173 30.3435 2.97136 25.87C0.414849 21.4008 -0.00231355 16.0548 1.83031 11.2104C1.93979 10.9206 2.23252 10.745 2.53828 10.7836C2.63956 10.7976 5.09142 11.1405 6.73017 14.0042C7.54665 15.4312 7.57076 16.9856 7.58909 18.485C7.59247 18.6967 7.59584 18.906 7.60163 19.1143C7.60163 19.1143 7.62815 31.7903 14.9837 34.1992" fill="#6B47F5"/>
<path d="M21.1779 7.65461C21.1779 7.65461 10.2864 1.33977 4.54013 6.56227C4.36266 6.78459 4.33951 7.10192 4.49625 7.3474C4.55412 7.44048 5.98115 9.65747 9.39176 9.65747C11.0956 9.65747 12.4513 8.8352 13.7606 8.03753C15.0271 7.26734 16.2193 6.53912 17.6979 6.53912C18.9855 6.53912 20.0726 7.04839 21.1789 7.65461" fill="#A8A9CF"/>
<path d="M33.556 11.1696C33.4547 10.9033 33.1929 10.7254 32.9049 10.7379C32.7964 10.7413 30.1796 10.8797 28.4738 13.8611C27.6222 15.3499 27.6496 16.9457 27.681 18.4894C27.7085 19.9816 27.736 21.3869 26.9971 22.6794C26.3543 23.8041 25.3733 24.5009 24.2998 25.1636C24.309 25.1578 35.1653 18.8 33.555 11.1696" fill="#A8A9CF"/>
<path d="M15.2161 28.4138C14.3644 26.925 12.9813 26.1514 11.6406 25.4068C10.3462 24.6849 9.12555 24.0063 8.38671 22.7153C7.74191 21.5906 7.6363 20.3854 7.60254 19.1166C7.60254 19.12 7.62906 31.793 14.9842 34.202C15.2644 34.2459 15.5479 34.1065 15.6806 33.848C15.7326 33.7515 16.9209 31.3961 15.2161 28.4152" fill="#A8A9CF"/>
<path d="M4.54004 6.56232C7.78041 2.53779 12.5775 0.230125 17.6968 0.230125C22.8156 0.230125 27.6075 2.53779 30.8474 6.56232C31.0412 6.80298 31.0461 7.14635 30.8589 7.39424C30.7967 7.47526 29.2752 9.44678 25.9981 9.44678C24.3661 9.44678 23.0196 8.68961 21.7243 7.95705C21.541 7.85481 21.3587 7.75208 21.1779 7.65322C21.1779 7.65322 10.2863 1.33838 4.54004 6.56136" fill="#6B47F5"/>
<path d="M33.5557 11.1696C35.3898 16.0144 34.9712 21.3599 32.4123 25.8339C29.8558 30.3026 25.4768 33.3409 20.4023 34.1598C20.0995 34.2085 19.8019 34.0412 19.6823 33.7538C19.6442 33.6583 18.7115 31.3439 20.3507 28.4787C21.1667 27.0517 22.4891 26.255 23.7661 25.4881C23.946 25.3792 24.1245 25.2706 24.301 25.1626C24.301 25.1626 35.167 18.801 33.5567 11.1686" fill="#6B47F5"/>
<path d="M14.9847 34.2017C9.91074 33.3818 5.53173 30.3435 2.97136 25.87C0.414849 21.4008 -0.00231355 16.0548 1.83031 11.2104C1.93979 10.9206 2.23252 10.745 2.53828 10.7836C2.63956 10.7976 5.09142 11.1405 6.73017 14.0042C7.54665 15.4312 7.57076 16.9856 7.58909 18.485C7.59247 18.6967 7.59584 18.906 7.60163 19.1143C7.60163 19.1143 7.62815 31.7903 14.9837 34.1992" fill="#6B47F5"/>
<path d="M77.8189 10.2089C77.8189 7.2613 76.4816 5.2213 73.4862 5.2213C71.1347 5.2213 68.8555 6.54128 68.8555 9.5381C68.8555 12.5349 71.3638 13.5771 73.6333 13.5771H75.6531V13.8732C75.6531 15.0557 74.9176 16.2812 73.2277 16.2812C72.2757 16.2812 71.6266 16.0309 70.2516 15.335C69.5056 16.2537 69.9632 17.0051 70.6828 17.3624C71.56 17.7979 72.528 18.0125 73.507 18.0265C76.6533 18.0723 77.8189 16.1934 77.8189 13.0481V10.2089ZM75.6531 11.7421H73.5967C73.1009 11.7421 71.0585 11.7107 71.0585 9.46335C71.0585 7.96686 71.9854 7.03657 73.3015 7.03657C74.8207 7.03657 75.6531 8.14772 75.6531 10.3715V11.743V11.7421Z" fill="#312E52"/>
<path d="M54.7428 13.5941C55.0124 13.5966 55.3861 13.5917 55.6499 13.5941C56.5904 13.6023 57.5728 13.6347 58.4683 13.298C58.9617 13.1124 59.3456 12.7849 59.6176 12.3157C60.0622 13.1562 60.8223 13.5758 61.8963 13.5758H67.7231V5.53446C67.6126 5.47369 67.3913 5.42402 67.2066 5.38592C67.0214 5.34927 66.8425 5.33046 66.6698 5.33046C66.3366 5.33046 66.0679 5.41341 65.8639 5.58076C65.6599 5.74811 65.5582 5.99117 65.5582 6.31284V11.7408H63.2852C62.4128 11.7408 61.266 11.7799 60.9038 10.7772C60.7736 10.4184 60.709 9.91829 60.709 9.27639V5.5335C60.5985 5.47225 60.3771 5.42306 60.1929 5.38496C60.0072 5.34782 59.8283 5.3295 59.6557 5.3295C59.3224 5.3295 59.0538 5.41245 58.8498 5.57979C58.6458 5.74666 58.5445 5.98972 58.5445 6.3114V9.27639C58.5445 9.90672 58.4823 10.4001 58.3589 10.7584C58.0695 11.5966 57.1575 11.735 56.3705 11.7475C55.7777 11.7581 55.0563 11.7683 54.4674 11.7408C54.0122 11.7186 53.485 11.6255 53.159 11.2773C52.8687 10.9682 52.7235 10.4309 52.7235 9.66606V5.33046H49.7253C47.9582 5.33046 46.5669 5.71001 45.5478 6.46958C44.5288 7.22916 44.0195 8.27568 44.0195 9.60916C44.0195 10.4001 44.1956 11.0917 44.5476 11.6844C44.8987 12.2766 45.3969 12.74 46.0388 13.0733C46.6812 13.4061 47.4948 13.5734 48.3339 13.5734C49.7412 13.5734 50.847 13.1355 51.65 12.2583C51.9095 12.6788 52.2702 13.0029 52.7337 13.231C53.3572 13.5387 54.0536 13.586 54.7438 13.5917M50.5562 9.29568C50.5562 10.061 50.3614 10.6605 49.9731 11.0931C49.5835 11.5252 49.0438 11.7418 48.3522 11.7418C47.6607 11.7418 47.1606 11.5503 46.7776 11.1679C46.3952 10.7849 46.2037 10.2723 46.2037 9.62989C46.2037 8.82788 46.5056 8.21588 47.1123 7.79631C47.7171 7.37673 48.6001 7.1655 49.761 7.1655H50.5577V9.29568H50.5562Z" fill="#312E52"/>
<path d="M47.7206 4.25879C48.0572 4.25879 48.3432 4.1387 48.5771 3.89902C48.81 3.65933 48.9272 3.3772 48.9272 3.05312C48.9272 2.72903 48.811 2.43051 48.5771 2.1966C48.3432 1.9627 48.0581 1.84599 47.7206 1.84599C47.383 1.84599 47.1177 1.9627 46.8838 2.1966C46.6509 2.43051 46.5332 2.71553 46.5332 3.05312C46.5332 3.3907 46.6499 3.65933 46.8838 3.89902C47.1177 4.1387 47.3955 4.25879 47.7206 4.25879Z" fill="#312E52"/>
<path d="M50.9637 4.25879C51.3003 4.25879 51.5897 4.1387 51.8294 3.89902C52.0691 3.65933 52.1892 3.3772 52.1892 3.05312C52.1892 2.72903 52.0691 2.43051 51.8294 2.1966C51.5897 1.9627 51.3013 1.84599 50.9637 1.84599C50.6261 1.84599 50.3609 1.9627 50.127 2.1966C49.8931 2.43051 49.7764 2.71553 49.7764 3.05312C49.7764 3.3907 49.8931 3.65933 50.127 3.89902C50.3609 4.1387 50.6387 4.25879 50.9637 4.25879Z" fill="#312E52"/>
<path d="M66.6315 4.22192C66.9681 4.22192 67.2541 4.10184 67.488 3.86215C67.7209 3.62246 67.8381 3.34034 67.8381 3.01625C67.8381 2.69217 67.7219 2.41004 67.488 2.17035C67.2541 1.93018 66.969 1.81058 66.6315 1.81058C66.2939 1.81058 66.0021 1.93018 65.7566 2.17035C65.5097 2.41004 65.3867 2.69217 65.3867 3.01625C65.3867 3.34034 65.5097 3.62246 65.7566 3.86215C66.0031 4.10184 66.2948 4.22192 66.6315 4.22192Z" fill="#312E52"/>
<path d="M122.241 0.231305C121.609 0.231305 121.13 0.542369 121.13 1.21321V13.5771H123.296V0.435306C122.97 0.294483 122.536 0.231305 122.241 0.231305Z" fill="#312E52"/>
<path d="M111.722 4.25879C112.059 4.25879 112.348 4.1387 112.588 3.89902C112.828 3.65933 112.947 3.3772 112.947 3.05312C112.947 2.72903 112.828 2.43051 112.588 2.1966C112.348 1.9627 112.059 1.84599 111.722 1.84599C111.386 1.84599 111.119 1.9627 110.886 2.1966C110.652 2.43051 110.535 2.71553 110.535 3.05312C110.535 3.3907 110.651 3.65933 110.886 3.89902C111.119 4.1387 111.397 4.25879 111.722 4.25879Z" fill="#312E52"/>
<path d="M108.48 4.25879C108.818 4.25879 109.102 4.1387 109.337 3.89902C109.569 3.65933 109.687 3.3772 109.687 3.05312C109.687 2.72903 109.571 2.43051 109.337 2.1966C109.104 1.9627 108.818 1.84599 108.48 1.84599C108.143 1.84599 107.877 1.9627 107.643 2.1966C107.411 2.43051 107.293 2.71553 107.293 3.05312C107.293 3.3907 107.409 3.65933 107.643 3.89902C107.877 4.1387 108.156 4.25879 108.48 4.25879Z" fill="#312E52"/>
<path d="M119.689 13.5757V0.433841C119.578 0.373075 119.357 0.3234 119.172 0.285301C118.987 0.248649 118.808 0.22984 118.635 0.22984C118.302 0.22984 118.034 0.312791 117.829 0.480139C117.626 0.647487 117.524 0.89055 117.524 1.21222V11.7416H111.314V5.55892C111.142 5.48851 110.968 5.42147 110.786 5.37903C110.607 5.33756 110.426 5.3308 110.243 5.3308C109.896 5.3308 109.627 5.41472 109.436 5.57966C109.243 5.74652 109.148 6.00357 109.148 6.34936V11.7406H101.645C97.6085 11.7406 95.6254 9.40646 94.4945 7.98425C95.5618 7.08723 96.7848 7.00766 97.4769 7.05395C98.4462 7.11858 99.3442 7.48173 99.9191 8.01849C99.5424 8.51909 98.7679 9.38573 97.8873 10.0821C98.4544 10.3922 99.0925 10.6719 99.8593 10.8219C101.082 9.6693 101.942 8.4453 102.242 7.97027C102.027 7.63123 100.849 5.43883 97.5989 5.22471C94.086 4.99177 92.3137 7.52995 92.0099 7.8931C93.0506 9.22802 93.9785 10.385 95.2903 11.4315C94.6537 11.6254 93.9621 11.7416 93.2175 11.7416H81.0614V0.433841C80.9509 0.373075 80.8019 0.3234 80.6162 0.285301C80.4311 0.248649 80.1798 0.22984 80.0067 0.22984C79.6734 0.22984 79.4048 0.312791 79.2008 0.480139C78.9968 0.647487 78.8955 0.89055 78.8955 1.21222V13.5757H93.2175C94.6734 13.5757 96.0166 13.2101 97.2082 12.6304C98.5432 13.2588 100.03 13.5757 101.645 13.5757H119.689Z" fill="#312E52"/>
<path d="M57.8817 17.1387C58.2183 17.1387 58.5043 17.0186 58.7382 16.7789C58.9711 16.5392 59.0883 16.2571 59.0883 15.933C59.0883 15.6089 58.9721 15.3104 58.7382 15.0765C58.5043 14.8426 58.2193 14.7264 57.8817 14.7264C57.5441 14.7264 57.2788 14.8426 57.0449 15.0765C56.812 15.3104 56.6943 15.5954 56.6943 15.933C56.6943 16.2706 56.811 16.5392 57.0449 16.7789C57.2788 17.0186 57.5566 17.1387 57.8817 17.1387Z" fill="#312E52"/>
<path d="M61.1229 17.1387C61.4595 17.1387 61.7489 17.0186 61.9886 16.7789C62.2283 16.5392 62.3483 16.2571 62.3483 15.933C62.3483 15.6089 62.2283 15.3104 61.9886 15.0765C61.7489 14.8426 61.4605 14.7264 61.1229 14.7264C60.7853 14.7264 60.5201 14.8426 60.2862 15.0765C60.0523 15.3104 59.9355 15.5954 59.9355 15.933C59.9355 16.2706 60.0523 16.5392 60.2862 16.7789C60.5201 17.0186 60.7978 17.1387 61.1229 17.1387Z" fill="#312E52"/>
<path d="M77.8189 10.2089C77.8189 7.2613 76.4816 5.2213 73.4862 5.2213C71.1347 5.2213 68.8555 6.54128 68.8555 9.5381C68.8555 12.5349 71.3638 13.5771 73.6333 13.5771H75.6531V13.8732C75.6531 15.0557 74.9176 16.2812 73.2277 16.2812C72.2757 16.2812 71.6266 16.0309 70.2516 15.335C69.5056 16.2537 69.9632 17.0051 70.6828 17.3624C71.56 17.7979 72.528 18.0125 73.507 18.0265C76.6533 18.0723 77.8189 16.1934 77.8189 13.0481V10.2089ZM75.6531 11.7421H73.5967C73.1009 11.7421 71.0585 11.7107 71.0585 9.46335C71.0585 7.96686 71.9854 7.03657 73.3015 7.03657C74.8207 7.03657 75.6531 8.14772 75.6531 10.3715V11.743V11.7421Z" fill="#312E52"/>
<path d="M54.7428 13.5941C55.0124 13.5966 55.3861 13.5917 55.6499 13.5941C56.5904 13.6023 57.5728 13.6347 58.4683 13.298C58.9617 13.1124 59.3456 12.7849 59.6176 12.3157C60.0622 13.1562 60.8223 13.5758 61.8963 13.5758H67.7231V5.53446C67.6126 5.47369 67.3913 5.42402 67.2066 5.38592C67.0214 5.34927 66.8425 5.33046 66.6698 5.33046C66.3366 5.33046 66.0679 5.41341 65.8639 5.58076C65.6599 5.74811 65.5582 5.99117 65.5582 6.31284V11.7408H63.2852C62.4128 11.7408 61.266 11.7799 60.9038 10.7772C60.7736 10.4184 60.709 9.91829 60.709 9.27639V5.5335C60.5985 5.47225 60.3771 5.42306 60.1929 5.38496C60.0072 5.34782 59.8283 5.3295 59.6557 5.3295C59.3224 5.3295 59.0538 5.41245 58.8498 5.57979C58.6458 5.74666 58.5445 5.98972 58.5445 6.3114V9.27639C58.5445 9.90672 58.4823 10.4001 58.3589 10.7584C58.0695 11.5966 57.1575 11.735 56.3705 11.7475C55.7777 11.7581 55.0563 11.7683 54.4674 11.7408C54.0122 11.7186 53.485 11.6255 53.159 11.2773C52.8687 10.9682 52.7235 10.4309 52.7235 9.66606V5.33046H49.7253C47.9582 5.33046 46.5669 5.71001 45.5478 6.46958C44.5288 7.22916 44.0195 8.27568 44.0195 9.60916C44.0195 10.4001 44.1956 11.0917 44.5476 11.6844C44.8987 12.2766 45.3969 12.74 46.0388 13.0733C46.6812 13.4061 47.4948 13.5734 48.3339 13.5734C49.7412 13.5734 50.847 13.1355 51.65 12.2583C51.9095 12.6788 52.2702 13.0029 52.7337 13.231C53.3572 13.5387 54.0536 13.586 54.7438 13.5917M50.5562 9.29568C50.5562 10.061 50.3614 10.6605 49.9731 11.0931C49.5835 11.5252 49.0438 11.7418 48.3522 11.7418C47.6607 11.7418 47.1606 11.5503 46.7776 11.1679C46.3952 10.7849 46.2037 10.2723 46.2037 9.62989C46.2037 8.82788 46.5056 8.21588 47.1123 7.79631C47.7171 7.37673 48.6001 7.1655 49.761 7.1655H50.5577V9.29568H50.5562Z" fill="#312E52"/>
<path d="M47.7206 4.25879C48.0572 4.25879 48.3432 4.1387 48.5771 3.89902C48.81 3.65933 48.9272 3.3772 48.9272 3.05312C48.9272 2.72903 48.811 2.43051 48.5771 2.1966C48.3432 1.9627 48.0581 1.84599 47.7206 1.84599C47.383 1.84599 47.1177 1.9627 46.8838 2.1966C46.6509 2.43051 46.5332 2.71553 46.5332 3.05312C46.5332 3.3907 46.6499 3.65933 46.8838 3.89902C47.1177 4.1387 47.3955 4.25879 47.7206 4.25879Z" fill="#312E52"/>
<path d="M50.9637 4.25879C51.3003 4.25879 51.5897 4.1387 51.8294 3.89902C52.0691 3.65933 52.1892 3.3772 52.1892 3.05312C52.1892 2.72903 52.0691 2.43051 51.8294 2.1966C51.5897 1.9627 51.3013 1.84599 50.9637 1.84599C50.6261 1.84599 50.3609 1.9627 50.127 2.1966C49.8931 2.43051 49.7764 2.71553 49.7764 3.05312C49.7764 3.3907 49.8931 3.65933 50.127 3.89902C50.3609 4.1387 50.6387 4.25879 50.9637 4.25879Z" fill="#312E52"/>
<path d="M66.6315 4.22192C66.9681 4.22192 67.2541 4.10184 67.488 3.86215C67.7209 3.62246 67.8381 3.34034 67.8381 3.01625C67.8381 2.69217 67.7219 2.41004 67.488 2.17035C67.2541 1.93018 66.969 1.81058 66.6315 1.81058C66.2939 1.81058 66.0021 1.93018 65.7566 2.17035C65.5097 2.41004 65.3867 2.69217 65.3867 3.01625C65.3867 3.34034 65.5097 3.62246 65.7566 3.86215C66.0031 4.10184 66.2948 4.22192 66.6315 4.22192Z" fill="#312E52"/>
<path d="M122.241 0.231305C121.609 0.231305 121.13 0.542369 121.13 1.21321V13.5771H123.296V0.435306C122.97 0.294483 122.536 0.231305 122.241 0.231305Z" fill="#312E52"/>
<path d="M111.722 4.25879C112.059 4.25879 112.348 4.1387 112.588 3.89902C112.828 3.65933 112.947 3.3772 112.947 3.05312C112.947 2.72903 112.828 2.43051 112.588 2.1966C112.348 1.9627 112.059 1.84599 111.722 1.84599C111.386 1.84599 111.119 1.9627 110.886 2.1966C110.652 2.43051 110.535 2.71553 110.535 3.05312C110.535 3.3907 110.651 3.65933 110.886 3.89902C111.119 4.1387 111.397 4.25879 111.722 4.25879Z" fill="#312E52"/>
<path d="M108.48 4.25879C108.818 4.25879 109.102 4.1387 109.337 3.89902C109.569 3.65933 109.687 3.3772 109.687 3.05312C109.687 2.72903 109.571 2.43051 109.337 2.1966C109.104 1.9627 108.818 1.84599 108.48 1.84599C108.143 1.84599 107.877 1.9627 107.643 2.1966C107.411 2.43051 107.293 2.71553 107.293 3.05312C107.293 3.3907 107.409 3.65933 107.643 3.89902C107.877 4.1387 108.156 4.25879 108.48 4.25879Z" fill="#312E52"/>
<path d="M119.689 13.5757V0.433841C119.578 0.373075 119.357 0.3234 119.172 0.285301C118.987 0.248649 118.808 0.22984 118.635 0.22984C118.302 0.22984 118.034 0.312791 117.829 0.480139C117.626 0.647487 117.524 0.89055 117.524 1.21222V11.7416H111.314V5.55892C111.142 5.48851 110.968 5.42147 110.786 5.37903C110.607 5.33756 110.426 5.3308 110.243 5.3308C109.896 5.3308 109.627 5.41472 109.436 5.57966C109.243 5.74652 109.148 6.00357 109.148 6.34936V11.7406H101.645C97.6085 11.7406 95.6254 9.40646 94.4945 7.98425C95.5618 7.08723 96.7848 7.00766 97.4769 7.05395C98.4462 7.11858 99.3442 7.48173 99.9191 8.01849C99.5424 8.51909 98.7679 9.38573 97.8873 10.0821C98.4544 10.3922 99.0925 10.6719 99.8593 10.8219C101.082 9.6693 101.942 8.4453 102.242 7.97027C102.027 7.63123 100.849 5.43883 97.5989 5.22471C94.086 4.99177 92.3137 7.52995 92.0099 7.8931C93.0506 9.22802 93.9785 10.385 95.2903 11.4315C94.6537 11.6254 93.9621 11.7416 93.2175 11.7416H81.0614V0.433841C80.9509 0.373075 80.8019 0.3234 80.6162 0.285301C80.4311 0.248649 80.1798 0.22984 80.0067 0.22984C79.6734 0.22984 79.4048 0.312791 79.2008 0.480139C78.9968 0.647487 78.8955 0.89055 78.8955 1.21222V13.5757H93.2175C94.6734 13.5757 96.0166 13.2101 97.2082 12.6304C98.5432 13.2588 100.03 13.5757 101.645 13.5757H119.689Z" fill="#312E52"/>
<path d="M57.8817 17.1387C58.2183 17.1387 58.5043 17.0186 58.7382 16.7789C58.9711 16.5392 59.0883 16.2571 59.0883 15.933C59.0883 15.6089 58.9721 15.3104 58.7382 15.0765C58.5043 14.8426 58.2193 14.7264 57.8817 14.7264C57.5441 14.7264 57.2788 14.8426 57.0449 15.0765C56.812 15.3104 56.6943 15.5954 56.6943 15.933C56.6943 16.2706 56.811 16.5392 57.0449 16.7789C57.2788 17.0186 57.5566 17.1387 57.8817 17.1387Z" fill="#312E52"/>
<path d="M61.1229 17.1387C61.4595 17.1387 61.7489 17.0186 61.9886 16.7789C62.2283 16.5392 62.3483 16.2571 62.3483 15.933C62.3483 15.6089 62.2283 15.3104 61.9886 15.0765C61.7489 14.8426 61.4605 14.7264 61.1229 14.7264C60.7853 14.7264 60.5201 14.8426 60.2862 15.0765C60.0523 15.3104 59.9355 15.5954 59.9355 15.933C59.9355 16.2706 60.0523 16.5392 60.2862 16.7789C60.5201 17.0186 60.7978 17.1387 61.1229 17.1387Z" fill="#312E52"/>
<path d="M51.8173 29.6471C51.678 29.7484 51.4716 29.9017 51.1557 30.016C50.8388 30.1299 50.4964 30.1863 50.1299 30.1863C49.9018 30.1863 49.6838 30.1612 49.474 30.1106C49.2652 30.0599 49.081 29.9712 48.9228 29.8444C48.7641 29.7175 48.6406 29.5502 48.5529 29.3404C48.4641 29.132 48.4193 28.862 48.4193 28.5326V24.2954H52.0676C52.1057 24.2192 52.1564 24.0889 52.2196 23.9057C52.2827 23.7224 52.3141 23.5228 52.3141 23.3072C52.3141 22.9778 52.2287 22.7275 52.058 22.5568C51.8878 22.3865 51.5926 22.2997 51.174 22.2997H48.4193V19.8112C48.3561 19.7861 48.2254 19.7447 48.0296 19.6878C47.8324 19.6313 47.6216 19.6029 47.3935 19.6029C47.0385 19.6029 46.7603 19.682 46.5577 19.8402C46.3547 19.9993 46.2534 20.2549 46.2534 20.6103V22.3012H45.1596C44.741 22.3012 44.4473 22.3865 44.2751 22.5582C44.1049 22.7285 44.0195 22.9788 44.0195 23.3086C44.0195 23.5242 44.0518 23.7234 44.1141 23.9066C44.1772 24.0899 44.2284 24.2201 44.266 24.2963H46.2534V28.9705C46.2534 29.9075 46.5379 30.6647 47.1085 31.2415C47.679 31.8173 48.5206 32.1057 49.6351 32.1057C50.0272 32.1057 50.3879 32.071 50.7178 32.0011C51.0472 31.9306 51.3447 31.8453 51.6109 31.744C51.8771 31.6423 52.1019 31.5352 52.2851 31.4209C52.4684 31.3071 52.6116 31.2125 52.7129 31.1364C52.7129 31.1364 52.6251 30.7433 52.3845 30.3454C52.1434 29.948 51.8164 29.6471 51.8164 29.6471" fill="#312E52"/>
<path d="M101.223 22.302C100.855 22.302 100.57 22.3816 100.367 22.5393C100.164 22.6984 100.063 22.9545 100.063 23.3095V31.8403H102.229V22.5118C102.166 22.4862 102.039 22.4448 101.848 22.3883C101.658 22.3319 101.449 22.303 101.221 22.303" fill="#312E52"/>
<path d="M101.147 18.0268C100.779 18.0268 100.469 18.1537 100.215 18.4074C99.9618 18.661 99.835 18.9711 99.835 19.3386C99.835 19.7061 99.9618 20.0162 100.215 20.2699C100.469 20.5236 100.779 20.6504 101.147 20.6504C101.514 20.6504 101.824 20.5236 102.078 20.2699C102.332 20.0162 102.459 19.7061 102.459 19.3386C102.459 18.9711 102.332 18.661 102.078 18.4074C101.824 18.1537 101.514 18.0268 101.147 18.0268Z" fill="#312E52"/>
<path d="M121.877 22.9604C121.432 22.6445 120.905 22.413 120.291 22.2664C119.675 22.1222 118.995 22.0475 118.249 22.0475C117.628 22.0475 117.114 22.0856 116.71 22.1618C116.303 22.2375 115.981 22.3426 115.741 22.4752C115.499 22.6079 115.332 22.7598 115.236 22.9315C115.142 23.1022 115.094 23.2773 115.094 23.4538C115.094 23.7084 115.16 23.923 115.293 24.099C115.426 24.278 115.531 24.3976 115.607 24.4598C115.745 24.346 116.034 24.2076 116.471 24.0417C116.909 23.8777 117.488 23.7947 118.21 23.7947C118.638 23.7947 119.032 23.827 119.387 23.8893C119.741 23.9539 120.044 24.0682 120.299 24.2317C120.552 24.3966 120.751 24.6247 120.897 24.9155C120.96 25.0409 121.006 25.1842 121.042 25.337C119.922 25.2025 118.63 25.093 117.886 25.1629C117.091 25.2382 116.28 25.3925 115.605 25.8188C114.152 26.739 113.654 28.6984 114.501 30.1901C114.909 30.9106 115.634 31.4117 116.414 31.6909C117.193 31.9697 118.029 32.0459 118.857 32.0782C120.131 32.1274 121.417 32.0483 122.682 31.8983C122.954 31.8684 123.153 31.8395 123.28 31.8129V26.0947C123.28 25.3611 123.157 24.7342 122.91 24.2133C122.663 23.6944 122.318 23.2773 121.875 22.9594M121.137 30.3087C120.661 30.357 119.435 30.4134 119.3 30.4158C118.629 30.4283 117.907 30.3951 117.272 30.1578C116.716 29.949 116.19 29.4903 116.074 28.8957C116.057 28.8089 116.051 28.7182 116.052 28.6256C116.066 28.0204 116.461 27.4503 116.984 27.1759C117.59 26.8576 118.387 26.8981 119.051 26.9396C119.665 26.9777 120.468 27.0515 121.127 27.1263C121.13 27.3891 121.132 27.5955 121.135 27.5955V30.3078L121.137 30.3087Z" fill="#312E52"/>
<path d="M77.0194 22.2908C76.6784 22.2619 76.3119 22.353 76.0765 22.6019C75.9092 22.7784 75.8238 23.0157 75.7423 23.2452C75.0643 25.1565 74.3876 27.0677 73.71 28.9784C72.9987 26.9336 72.2888 24.8888 71.5774 22.8454C71.5374 22.7287 71.4935 22.6091 71.4033 22.5257C71.2997 22.4312 71.1545 22.4037 71.0161 22.3796C70.4894 22.2874 69.8707 22.2228 69.4936 22.6009C69.3252 22.7702 69.2375 23.0007 69.156 23.2245C68.4837 25.047 67.8292 26.8748 67.1927 28.7103C66.8609 27.8605 66.8965 27.8707 66.5647 27.0214C66.5257 26.9235 66.4827 26.8184 66.395 26.7595C66.3212 26.7103 66.176 26.6583 66.0897 26.6341C65.0972 26.3588 63.4637 25.8861 62.2614 25.5842C62.2166 25.0663 62.1013 24.6086 61.9137 24.2136C61.6668 23.6947 61.321 23.2761 60.8783 22.9592C60.4336 22.6434 59.9056 22.4119 59.2926 22.2653C58.6767 22.1215 57.9967 22.0463 57.2497 22.0463C56.6285 22.0463 56.1154 22.0844 55.7113 22.1606C55.3042 22.2368 54.9816 22.3415 54.7414 22.4741C54.5008 22.6067 54.3334 22.7586 54.2379 22.9303C54.1424 23.101 54.0947 23.2761 54.0947 23.4526C54.0947 23.7072 54.1617 23.9219 54.2944 24.0984C54.427 24.2768 54.5316 24.3969 54.6078 24.4591C54.7462 24.3448 55.0356 24.2064 55.4725 24.0405C55.9095 23.877 56.4892 23.7941 57.2106 23.7941C57.6394 23.7941 58.0339 23.8259 58.3888 23.8886C58.7428 23.9532 59.0457 24.067 59.3003 24.2305C59.553 24.3954 59.7522 24.6236 59.8988 24.9144C59.961 25.0398 60.0068 25.183 60.043 25.3364C58.9237 25.2013 57.6312 25.0918 56.8866 25.1623C56.0913 25.237 55.2811 25.3913 54.6069 25.8181C53.1533 26.7378 52.6551 28.6973 53.5015 30.1889C53.9095 30.9095 54.6353 31.4105 55.4147 31.6898C56.194 31.9685 57.0308 32.0447 57.8583 32.077C59.132 32.1267 60.4187 32.0471 61.6832 31.8971C61.9552 31.8672 62.1544 31.8383 62.2812 31.8118V27.4627C63.3302 27.7038 64.5715 28.0472 64.6038 28.0771C64.8792 28.3332 66.0357 31.8383 66.0608 31.8383C66.8068 31.8383 67.5524 31.8398 68.297 31.8407C69.0219 29.6946 69.7125 27.5355 70.3674 25.3672C71.0233 27.5403 71.7265 29.699 72.4778 31.8407C73.2268 31.8407 73.9763 31.8417 74.7267 31.8431C75.8147 28.7595 76.9041 25.6773 77.9921 22.5937C77.9897 22.5927 77.9863 22.5918 77.9844 22.5903C77.6753 22.4485 77.3546 22.3183 77.017 22.2894M60.1385 30.309C59.6635 30.3573 58.437 30.4137 58.3035 30.4161C57.6312 30.4286 56.9111 30.3954 56.276 30.1576C55.719 29.9493 55.1933 29.4906 55.078 28.8969C55.0607 28.8092 55.053 28.7195 55.0549 28.6269C55.0689 28.0221 55.4643 27.4511 55.9876 27.1772C56.5938 26.8589 57.3905 26.8994 58.0546 26.9409C58.669 26.979 59.471 27.0523 60.1303 27.1275C60.1337 27.3903 60.1361 27.5967 60.1385 27.5967V30.309Z" fill="#312E52"/>
<path d="M64.0679 22.3033C63.7013 22.3033 63.4293 22.4036 63.2504 22.6076C63.0744 22.8092 63.0479 22.9418 63.0479 23.208C63.0479 23.2577 63.2981 24.0911 63.6748 25.1492L66.146 25.8547C65.6772 24.542 65.1076 22.7518 65.0372 22.4933C64.9875 22.4668 64.8839 22.4292 64.7237 22.3795C64.566 22.3289 64.348 22.3033 64.0679 22.3033Z" fill="#312E52"/>
<path d="M87.1336 22.2861C86.7781 22.2861 86.5008 22.3657 86.2983 22.5234C86.1145 22.6666 86.006 22.8923 85.9949 23.1956V27.7719C85.9949 28.6327 85.788 29.2886 85.3767 29.7381C84.9653 30.1876 84.347 30.4123 83.5243 30.4123C82.702 30.4123 82.0996 30.1876 81.681 29.7381C81.2639 29.2886 81.0541 28.6327 81.0541 27.7719V22.4949C80.9904 22.4693 80.8607 22.4279 80.6644 22.3714C80.4686 22.315 80.2564 22.2861 80.0283 22.2861C79.6733 22.2861 79.3955 22.3657 79.1925 22.5234C78.9919 22.6815 78.8906 22.9352 78.8896 23.2853V28.3226C78.8896 28.9554 79.0035 29.5225 79.2306 30.0226C79.4587 30.5232 79.7794 30.9472 80.1898 31.2954C80.6012 31.6436 81.0927 31.9098 81.6617 32.093C82.2318 32.2763 82.8525 32.3684 83.5238 32.3684C84.1941 32.3684 84.8124 32.2763 85.3757 32.093C85.9395 31.9098 86.427 31.6436 86.8384 31.2954C87.2498 30.9472 87.5739 30.5218 87.8078 30.0226C88.0422 29.5225 88.1594 28.9554 88.1594 28.3226V22.4949C88.0957 22.4693 87.966 22.4279 87.7692 22.3714C87.5729 22.315 87.3607 22.2861 87.1336 22.2861Z" fill="#312E52"/>
<path d="M97.4258 23.0965C97.0144 22.7483 96.5268 22.482 95.9631 22.2988C95.3993 22.1155 94.7829 22.0234 94.1111 22.0234C93.4389 22.0234 92.8182 22.1155 92.2491 22.2988C91.6795 22.482 91.1881 22.7483 90.7767 23.0965C90.3654 23.4447 90.0447 23.8686 89.817 24.3692C89.5884 24.8693 89.4746 25.4364 89.4746 26.0692V31.1065C89.4756 31.4566 89.5773 31.7103 89.778 31.8685C89.9805 32.0262 90.2597 32.1057 90.6132 32.1057C90.8418 32.1057 91.0536 32.0768 91.2498 32.0204C91.4456 31.9639 91.5754 31.9225 91.6395 31.8969V26.6214C91.6395 25.76 91.8483 25.1046 92.2669 24.6547C92.6836 24.2052 93.2995 23.9805 94.1092 23.9805C94.9199 23.9805 95.5502 24.2052 95.9616 24.6547C96.373 25.1046 96.5799 25.76 96.5799 26.6214V31.1976C96.591 31.5005 96.6995 31.7252 96.8828 31.8694C97.0858 32.0276 97.3631 32.1072 97.7185 32.1072C97.9471 32.1072 98.1588 32.0782 98.3551 32.0218C98.5509 31.9654 98.6807 31.9234 98.7438 31.8984V26.0701C98.7438 25.4374 98.6276 24.8702 98.3927 24.3701C98.1588 23.87 97.8348 23.4456 97.4234 23.0974" fill="#312E52"/>
<path d="M112.019 22.3022C111.663 22.3022 111.385 22.3852 111.182 22.5491C110.979 22.7136 110.878 22.9673 110.878 23.3087V27.3742C110.878 28.2476 110.656 28.9108 110.212 29.3588C109.769 29.8083 109.161 30.033 108.389 30.033C107.553 30.033 106.935 29.8121 106.536 29.3679C106.137 28.9243 105.938 28.3296 105.938 27.5826V22.5096C105.875 22.4845 105.744 22.443 105.549 22.3866C105.351 22.3297 105.141 22.3012 104.912 22.3012C104.558 22.3012 104.278 22.3842 104.076 22.5477C103.874 22.7126 103.772 22.9663 103.772 23.3073V28.0195C103.772 28.6397 103.877 29.1919 104.086 29.6723C104.295 30.1545 104.583 30.5553 104.951 30.8794C105.317 31.202 105.76 31.4499 106.281 31.6206C106.8 31.7909 107.364 31.8777 107.972 31.8777C108.617 31.8777 109.209 31.7668 109.748 31.5444C110.286 31.3231 110.681 31.0279 110.935 30.6604C110.935 33.3471 110.576 34.9102 107.762 34.9102C106.2 34.9102 105.114 34.5634 104.684 34.3778C104.615 34.5287 104.285 35.1629 104.466 35.7054C104.585 36.0643 104.916 36.2369 105.252 36.3363C106.245 36.6314 108.265 36.7616 109.548 36.5518C112.209 36.1159 113.044 34.2982 113.044 30.8307V22.5086C112.98 22.4831 112.851 22.4416 112.654 22.3852C112.457 22.3287 112.244 22.2998 112.017 22.2998" fill="#312E52"/>
<path d="M51.8173 29.6471C51.678 29.7484 51.4716 29.9017 51.1557 30.016C50.8388 30.1299 50.4964 30.1863 50.1299 30.1863C49.9018 30.1863 49.6838 30.1612 49.474 30.1106C49.2652 30.0599 49.081 29.9712 48.9228 29.8444C48.7641 29.7175 48.6406 29.5502 48.5529 29.3404C48.4641 29.132 48.4193 28.862 48.4193 28.5326V24.2954H52.0676C52.1057 24.2192 52.1564 24.0889 52.2196 23.9057C52.2827 23.7224 52.3141 23.5228 52.3141 23.3072C52.3141 22.9778 52.2287 22.7275 52.058 22.5568C51.8878 22.3865 51.5926 22.2997 51.174 22.2997H48.4193V19.8112C48.3561 19.7861 48.2254 19.7447 48.0296 19.6878C47.8324 19.6313 47.6216 19.6029 47.3935 19.6029C47.0385 19.6029 46.7603 19.682 46.5577 19.8402C46.3547 19.9993 46.2534 20.2549 46.2534 20.6103V22.3012H45.1596C44.741 22.3012 44.4473 22.3865 44.2751 22.5582C44.1049 22.7285 44.0195 22.9788 44.0195 23.3086C44.0195 23.5242 44.0518 23.7234 44.1141 23.9066C44.1772 24.0899 44.2284 24.2201 44.266 24.2963H46.2534V28.9705C46.2534 29.9075 46.5379 30.6647 47.1085 31.2415C47.679 31.8173 48.5206 32.1057 49.6351 32.1057C50.0272 32.1057 50.3879 32.071 50.7178 32.0011C51.0472 31.9306 51.3447 31.8453 51.6109 31.744C51.8771 31.6423 52.1019 31.5352 52.2851 31.4209C52.4684 31.3071 52.6116 31.2125 52.7129 31.1364C52.7129 31.1364 52.6251 30.7433 52.3845 30.3454C52.1434 29.948 51.8164 29.6471 51.8164 29.6471" fill="#312E52"/>
<path d="M101.223 22.302C100.855 22.302 100.57 22.3816 100.367 22.5393C100.164 22.6984 100.063 22.9545 100.063 23.3095V31.8403H102.229V22.5118C102.166 22.4862 102.039 22.4448 101.848 22.3883C101.658 22.3319 101.449 22.303 101.221 22.303" fill="#312E52"/>
<path d="M101.147 18.0268C100.779 18.0268 100.469 18.1537 100.215 18.4074C99.9618 18.661 99.835 18.9711 99.835 19.3386C99.835 19.7061 99.9618 20.0162 100.215 20.2699C100.469 20.5236 100.779 20.6504 101.147 20.6504C101.514 20.6504 101.824 20.5236 102.078 20.2699C102.332 20.0162 102.459 19.7061 102.459 19.3386C102.459 18.9711 102.332 18.661 102.078 18.4074C101.824 18.1537 101.514 18.0268 101.147 18.0268Z" fill="#312E52"/>
<path d="M121.877 22.9604C121.432 22.6445 120.905 22.413 120.291 22.2664C119.675 22.1222 118.995 22.0475 118.249 22.0475C117.628 22.0475 117.114 22.0856 116.71 22.1618C116.303 22.2375 115.981 22.3426 115.741 22.4752C115.499 22.6079 115.332 22.7598 115.236 22.9315C115.142 23.1022 115.094 23.2773 115.094 23.4538C115.094 23.7084 115.16 23.923 115.293 24.099C115.426 24.278 115.531 24.3976 115.607 24.4598C115.745 24.346 116.034 24.2076 116.471 24.0417C116.909 23.8777 117.488 23.7947 118.21 23.7947C118.638 23.7947 119.032 23.827 119.387 23.8893C119.741 23.9539 120.044 24.0682 120.299 24.2317C120.552 24.3966 120.751 24.6247 120.897 24.9155C120.96 25.0409 121.006 25.1842 121.042 25.337C119.922 25.2025 118.63 25.093 117.886 25.1629C117.091 25.2382 116.28 25.3925 115.605 25.8188C114.152 26.739 113.654 28.6984 114.501 30.1901C114.909 30.9106 115.634 31.4117 116.414 31.6909C117.193 31.9697 118.029 32.0459 118.857 32.0782C120.131 32.1274 121.417 32.0483 122.682 31.8983C122.954 31.8684 123.153 31.8395 123.28 31.8129V26.0947C123.28 25.3611 123.157 24.7342 122.91 24.2133C122.663 23.6944 122.318 23.2773 121.875 22.9594M121.137 30.3087C120.661 30.357 119.435 30.4134 119.3 30.4158C118.629 30.4283 117.907 30.3951 117.272 30.1578C116.716 29.949 116.19 29.4903 116.074 28.8957C116.057 28.8089 116.051 28.7182 116.052 28.6256C116.066 28.0204 116.461 27.4503 116.984 27.1759C117.59 26.8576 118.387 26.8981 119.051 26.9396C119.665 26.9777 120.468 27.0515 121.127 27.1263C121.13 27.3891 121.132 27.5955 121.135 27.5955V30.3078L121.137 30.3087Z" fill="#312E52"/>
<path d="M77.0194 22.2908C76.6784 22.2619 76.3119 22.353 76.0765 22.6019C75.9092 22.7784 75.8238 23.0157 75.7423 23.2452C75.0643 25.1565 74.3876 27.0677 73.71 28.9784C72.9987 26.9336 72.2888 24.8888 71.5774 22.8454C71.5374 22.7287 71.4935 22.6091 71.4033 22.5257C71.2997 22.4312 71.1545 22.4037 71.0161 22.3796C70.4894 22.2874 69.8707 22.2228 69.4936 22.6009C69.3252 22.7702 69.2375 23.0007 69.156 23.2245C68.4837 25.047 67.8292 26.8748 67.1927 28.7103C66.8609 27.8605 66.8965 27.8707 66.5647 27.0214C66.5257 26.9235 66.4827 26.8184 66.395 26.7595C66.3212 26.7103 66.176 26.6583 66.0897 26.6341C65.0972 26.3588 63.4637 25.8861 62.2614 25.5842C62.2166 25.0663 62.1013 24.6086 61.9137 24.2136C61.6668 23.6947 61.321 23.2761 60.8783 22.9592C60.4336 22.6434 59.9056 22.4119 59.2926 22.2653C58.6767 22.1215 57.9967 22.0463 57.2497 22.0463C56.6285 22.0463 56.1154 22.0844 55.7113 22.1606C55.3042 22.2368 54.9816 22.3415 54.7414 22.4741C54.5008 22.6067 54.3334 22.7586 54.2379 22.9303C54.1424 23.101 54.0947 23.2761 54.0947 23.4526C54.0947 23.7072 54.1617 23.9219 54.2944 24.0984C54.427 24.2768 54.5316 24.3969 54.6078 24.4591C54.7462 24.3448 55.0356 24.2064 55.4725 24.0405C55.9095 23.877 56.4892 23.7941 57.2106 23.7941C57.6394 23.7941 58.0339 23.8259 58.3888 23.8886C58.7428 23.9532 59.0457 24.067 59.3003 24.2305C59.553 24.3954 59.7522 24.6236 59.8988 24.9144C59.961 25.0398 60.0068 25.183 60.043 25.3364C58.9237 25.2013 57.6312 25.0918 56.8866 25.1623C56.0913 25.237 55.2811 25.3913 54.6069 25.8181C53.1533 26.7378 52.6551 28.6973 53.5015 30.1889C53.9095 30.9095 54.6353 31.4105 55.4147 31.6898C56.194 31.9685 57.0308 32.0447 57.8583 32.077C59.132 32.1267 60.4187 32.0471 61.6832 31.8971C61.9552 31.8672 62.1544 31.8383 62.2812 31.8118V27.4627C63.3302 27.7038 64.5715 28.0472 64.6038 28.0771C64.8792 28.3332 66.0357 31.8383 66.0608 31.8383C66.8068 31.8383 67.5524 31.8398 68.297 31.8407C69.0219 29.6946 69.7125 27.5355 70.3674 25.3672C71.0233 27.5403 71.7265 29.699 72.4778 31.8407C73.2268 31.8407 73.9763 31.8417 74.7267 31.8431C75.8147 28.7595 76.9041 25.6773 77.9921 22.5937C77.9897 22.5927 77.9863 22.5918 77.9844 22.5903C77.6753 22.4485 77.3546 22.3183 77.017 22.2894M60.1385 30.309C59.6635 30.3573 58.437 30.4137 58.3035 30.4161C57.6312 30.4286 56.9111 30.3954 56.276 30.1576C55.719 29.9493 55.1933 29.4906 55.078 28.8969C55.0607 28.8092 55.053 28.7195 55.0549 28.6269C55.0689 28.0221 55.4643 27.4511 55.9876 27.1772C56.5938 26.8589 57.3905 26.8994 58.0546 26.9409C58.669 26.979 59.471 27.0523 60.1303 27.1275C60.1337 27.3903 60.1361 27.5967 60.1385 27.5967V30.309Z" fill="#312E52"/>
<path d="M64.0679 22.3033C63.7013 22.3033 63.4293 22.4036 63.2504 22.6076C63.0744 22.8092 63.0479 22.9418 63.0479 23.208C63.0479 23.2577 63.2981 24.0911 63.6748 25.1492L66.146 25.8547C65.6772 24.542 65.1076 22.7518 65.0372 22.4933C64.9875 22.4668 64.8839 22.4292 64.7237 22.3795C64.566 22.3289 64.348 22.3033 64.0679 22.3033Z" fill="#312E52"/>
<path d="M87.1336 22.2861C86.7781 22.2861 86.5008 22.3657 86.2983 22.5234C86.1145 22.6666 86.006 22.8923 85.9949 23.1956V27.7719C85.9949 28.6327 85.788 29.2886 85.3767 29.7381C84.9653 30.1876 84.347 30.4123 83.5243 30.4123C82.702 30.4123 82.0996 30.1876 81.681 29.7381C81.2639 29.2886 81.0541 28.6327 81.0541 27.7719V22.4949C80.9904 22.4693 80.8607 22.4279 80.6644 22.3714C80.4686 22.315 80.2564 22.2861 80.0283 22.2861C79.6733 22.2861 79.3955 22.3657 79.1925 22.5234C78.9919 22.6815 78.8906 22.9352 78.8896 23.2853V28.3226C78.8896 28.9554 79.0035 29.5225 79.2306 30.0226C79.4587 30.5232 79.7794 30.9472 80.1898 31.2954C80.6012 31.6436 81.0927 31.9098 81.6617 32.093C82.2318 32.2763 82.8525 32.3684 83.5238 32.3684C84.1941 32.3684 84.8124 32.2763 85.3757 32.093C85.9395 31.9098 86.427 31.6436 86.8384 31.2954C87.2498 30.9472 87.5739 30.5218 87.8078 30.0226C88.0422 29.5225 88.1594 28.9554 88.1594 28.3226V22.4949C88.0957 22.4693 87.966 22.4279 87.7692 22.3714C87.5729 22.315 87.3607 22.2861 87.1336 22.2861Z" fill="#312E52"/>
<path d="M97.4258 23.0965C97.0144 22.7483 96.5268 22.482 95.9631 22.2988C95.3993 22.1155 94.7829 22.0234 94.1111 22.0234C93.4389 22.0234 92.8182 22.1155 92.2491 22.2988C91.6795 22.482 91.1881 22.7483 90.7767 23.0965C90.3654 23.4447 90.0447 23.8686 89.817 24.3692C89.5884 24.8693 89.4746 25.4364 89.4746 26.0692V31.1065C89.4756 31.4566 89.5773 31.7103 89.778 31.8685C89.9805 32.0262 90.2597 32.1057 90.6132 32.1057C90.8418 32.1057 91.0536 32.0768 91.2498 32.0204C91.4456 31.9639 91.5754 31.9225 91.6395 31.8969V26.6214C91.6395 25.76 91.8483 25.1046 92.2669 24.6547C92.6836 24.2052 93.2995 23.9805 94.1092 23.9805C94.9199 23.9805 95.5502 24.2052 95.9616 24.6547C96.373 25.1046 96.5799 25.76 96.5799 26.6214V31.1976C96.591 31.5005 96.6995 31.7252 96.8828 31.8694C97.0858 32.0276 97.3631 32.1072 97.7185 32.1072C97.9471 32.1072 98.1588 32.0782 98.3551 32.0218C98.5509 31.9654 98.6807 31.9234 98.7438 31.8984V26.0701C98.7438 25.4374 98.6276 24.8702 98.3927 24.3701C98.1588 23.87 97.8348 23.4456 97.4234 23.0974" fill="#312E52"/>
<path d="M112.019 22.3022C111.663 22.3022 111.385 22.3852 111.182 22.5491C110.979 22.7136 110.878 22.9673 110.878 23.3087V27.3742C110.878 28.2476 110.656 28.9108 110.212 29.3588C109.769 29.8083 109.161 30.033 108.389 30.033C107.553 30.033 106.935 29.8121 106.536 29.3679C106.137 28.9243 105.938 28.3296 105.938 27.5826V22.5096C105.875 22.4845 105.744 22.443 105.549 22.3866C105.351 22.3297 105.141 22.3012 104.912 22.3012C104.558 22.3012 104.278 22.3842 104.076 22.5477C103.874 22.7126 103.772 22.9663 103.772 23.3073V28.0195C103.772 28.6397 103.877 29.1919 104.086 29.6723C104.295 30.1545 104.583 30.5553 104.951 30.8794C105.317 31.202 105.76 31.4499 106.281 31.6206C106.8 31.7909 107.364 31.8777 107.972 31.8777C108.617 31.8777 109.209 31.7668 109.748 31.5444C110.286 31.3231 110.681 31.0279 110.935 30.6604C110.935 33.3471 110.576 34.9102 107.762 34.9102C106.2 34.9102 105.114 34.5634 104.684 34.3778C104.615 34.5287 104.285 35.1629 104.466 35.7054C104.585 36.0643 104.916 36.2369 105.252 36.3363C106.245 36.6314 108.265 36.7616 109.548 36.5518C112.209 36.1159 113.044 34.2982 113.044 30.8307V22.5086C112.98 22.4831 112.851 22.4416 112.654 22.3852C112.457 22.3287 112.244 22.2998 112.017 22.2998" fill="#312E52"/>
</g>
</g>
<defs>
<clipPath id="clip0_1293_5038">
<rect width="122.255" height="34" fill="white" transform="translate(0.87207 0.356689)"/>
</clipPath>
</defs>
</svg>
