<svg width="56" height="63" viewBox="0 0 56 63" fill="none" xmlns="http://www.w3.org/2000/svg">
<g clip-path="url(#clip0_1293_5266)">
<mask id="mask0_1293_5266" style="mask-type:luminance" maskUnits="userSpaceOnUse" x="-24" y="-18" width="99" height="99">
<path d="M-23.1885 -17.2181H74.4493V80.4197H-23.1885V-17.2181Z" fill="white"/>
</mask>
<g mask="url(#mask0_1293_5266)">
<path d="M31.9233 22.4494C31.8169 24.5821 31.9344 26.9625 32.8799 29.2385C34.0226 31.9896 36.2015 32.6763 38.7652 32.2861C39.5059 32.1731 40.1884 31.8233 40.7404 31.2648C42.0585 29.9304 42.3768 28.2061 42.6576 26.4597C42.8204 25.4475 42.7257 24.4252 42.8018 23.4118C42.9818 21.0222 42.7315 18.6946 41.87 16.4521C41.5469 15.6108 41.0483 14.8414 40.2951 14.3428C38.0934 12.8854 34.4372 13.0915 32.9505 16.3477C32.1024 18.2054 31.871 20.1591 31.9233 22.4494ZM38.2454 59.1482C38.9432 58.9936 39.6374 58.992 40.3374 58.9151C42.0549 58.727 43.7304 58.3762 45.372 57.8571C46.4382 57.5199 47.4237 56.9682 48.1355 56.1263C49.6244 54.3642 49.5593 51.6626 46.7015 50.6758C45.0231 50.0962 43.2832 50.0311 41.5628 49.9481C38.4026 49.7961 35.2313 50.0347 32.0692 49.6728C30.6124 49.5061 29.1228 49.5318 27.7073 49.1289C26.2753 48.7214 25.3956 49.4726 24.7733 50.3484C23.0819 52.7291 23.9288 55.6772 26.2691 57.157C28.6037 58.6333 31.2881 58.963 33.9741 59.1326C35.3924 59.2221 36.8212 59.1482 38.2454 59.1482ZM30.7592 32.9269C29.4427 32.5604 28.1877 32.1425 27.0011 31.5219C24.6624 30.2985 23.135 28.4274 22.5517 25.8693C21.8322 22.714 22.4144 19.7464 24.3698 17.1691C25.6846 15.4364 27.4457 14.1866 29.5016 13.3883C31.636 12.5597 33.8403 12.1144 36.1302 12.1004C36.4899 12.0982 36.8251 11.9598 37.1922 11.954C37.6778 11.9462 37.616 11.4537 37.6394 11.1742C37.8353 8.83347 38.4927 6.62848 39.6963 4.62593C41.0613 2.35455 43.1315 1.22228 45.9842 1.68476C48.8886 2.15602 50.3798 5.09687 49.4506 7.67972C48.638 9.93776 46.018 10.9291 44.0236 9.97453C43.4241 9.6878 42.82 9.40172 42.1952 9.17976C40.9932 8.75308 39.9241 9.21003 39.3481 10.3635C39.171 10.7179 39.0366 11.0935 38.8745 11.4554C38.731 11.7766 38.841 11.9172 39.1769 11.9738C40.3466 12.1711 41.5224 12.3439 42.6795 12.6007C45.4221 13.2099 48.0102 14.1957 50.0749 16.1784C51.5625 17.6075 52.5597 19.3139 52.8035 21.4431C53.2351 25.2122 51.9808 28.1986 48.9146 30.4368C46.7666 32.0052 44.2661 32.6646 41.7385 33.2432C39.9072 33.6621 38.0423 33.8138 36.1647 33.9195C34.4955 34.0139 32.8092 34.1142 31.22 34.7784C30.2404 35.1882 29.361 35.7395 28.8084 36.6267C28.1812 37.6334 28.8233 39.289 29.9869 39.8745C30.7748 40.2709 31.6425 40.4294 32.5082 40.5508C35.8207 41.0142 39.157 40.8948 42.4871 40.9664C44.6452 41.0123 46.8063 41.1867 48.9149 41.712C50.9084 42.2083 52.756 42.9901 54.1083 44.6252C54.973 45.6706 55.4576 46.9301 55.5608 48.2401C55.6776 49.7212 55.7652 51.2356 55.2367 52.6979C54.5001 54.7362 53.1931 56.2864 51.3995 57.4766C49.0041 59.0658 46.2751 59.7656 43.5387 60.3979C42.2772 60.6892 40.9461 60.6736 39.6484 60.8155C37.7784 61.0196 35.9005 60.9828 34.0291 60.9265C32.2055 60.8715 30.3914 60.6795 28.5841 60.3517C26.99 60.0627 25.4734 59.5862 24.0443 58.8738C22.2865 57.9977 20.9388 56.6737 20.5554 54.6666C20.2316 52.971 20.5267 51.3635 21.6463 49.9608C22.5247 48.8607 23.698 48.19 24.9468 47.6243C24.747 47.1628 24.3216 47.0056 24.0196 46.7228C23.2001 45.9557 22.6188 45.0691 22.3578 43.9642C22.1866 43.241 22.0047 43.1886 21.3843 43.6999C20.0428 44.8058 18.4812 45.4144 16.8217 45.8405C15.5257 46.1731 14.2093 46.0781 12.8967 46.1132C10.6237 46.1737 8.62437 45.3861 6.93133 43.9551C5.64674 42.869 4.89265 41.3706 4.46565 39.7326C4.19715 38.7022 4.16981 37.6464 4.16818 36.5903C4.15809 29.9473 4.14637 23.304 4.15223 16.6611C4.15288 16.2292 3.99178 16.1762 3.62434 16.1853C2.55683 16.2113 1.48835 16.2058 0.420517 16.1999C0.269504 16.1993 0.0537244 16.3089 -0.0263386 16.0886C-0.0959869 15.8972 0.0677194 15.7788 0.194649 15.6662C1.20813 14.7672 2.24699 13.8953 3.23281 12.9671C6.88674 9.52735 9.98219 5.63778 12.5309 1.31438C12.6998 1.02765 12.8378 0.722698 12.9998 0.406677C13.3139 0.626038 13.3051 0.913414 13.3055 1.20665C13.312 4.73073 13.3354 8.25513 13.3185 11.7792C13.3159 12.3435 13.4666 12.5037 14.0338 12.4981C16.8748 12.4698 19.7163 12.4841 22.5576 12.4858C23.2697 12.4861 23.3299 12.5753 23.0198 13.1985C22.6582 13.9263 22.2341 14.627 21.9275 15.3765C21.6551 16.0427 21.2135 16.2129 20.5466 16.1963C18.476 16.1456 16.4045 16.1378 14.3333 16.1173C14.1211 16.1153 13.9082 16.1355 13.696 16.1521C13.4281 16.1729 13.3068 16.2712 13.3077 16.5905C13.3233 22.9132 13.3256 29.2359 13.3243 35.5586C13.324 36.9222 13.3666 38.267 13.8031 39.589C14.4771 41.631 16.7013 42.9302 18.8412 42.5263C19.9051 42.3255 20.8408 41.9799 21.7049 41.355C21.8995 41.2144 21.9985 41.0888 22.018 40.8541C22.2507 38.0841 23.6515 36.0559 26.0039 34.6515C27.3676 33.8375 28.8764 33.4216 30.4197 33.1134C30.517 33.0942 30.6339 33.1339 30.7592 32.9269Z" fill="#292F45"/>
</g>
</g>
<defs>
<clipPath id="clip0_1293_5266">
<rect width="55.6535" height="62" fill="white" transform="translate(0 0.356689)"/>
</clipPath>
</defs>
</svg>
