<svg width="93" height="31" viewBox="0 0 93 31" fill="none" xmlns="http://www.w3.org/2000/svg">
<g clip-path="url(#clip0_1242_4168)">
<path d="M48.1651 9.61931C48.1156 13.803 51.8963 16.1349 54.7453 17.526C57.6713 18.949 58.653 19.8627 58.6422 21.1354C58.6203 23.0854 56.3073 23.9448 54.1442 23.9788C50.3665 24.0373 48.1733 22.9575 46.4256 22.1433L45.0655 28.5091C46.8196 29.3151 50.0608 30.0173 53.4222 30.0518C61.3173 30.0518 66.4805 26.1535 66.505 20.1124C66.5386 12.4468 55.9039 12.0235 55.9771 8.59804C56.0008 7.55652 56.9923 6.44871 59.1645 6.1654C60.2396 6.02504 63.2087 5.91611 66.5731 7.46439L67.8936 1.30529C66.084 0.648258 63.7585 0.0170631 60.8626 0.0170631C53.436 0.0170631 48.2069 3.96612 48.1651 9.61931ZM80.5889 0.548372C79.1466 0.548372 77.9298 1.38709 77.3903 2.67876L66.1145 29.5975H74.0036L75.5712 25.2575H85.2118L86.1199 29.5975H93.0703L87.0034 0.548372H80.5889ZM81.6903 8.39783L83.9675 19.3051H77.7344L81.6903 8.39783ZM38.6042 0.548372L32.3878 29.5975H39.9036L46.1178 0.548372H38.6042ZM27.4864 0.548372L19.6653 20.3203L16.5003 3.50973C16.1305 1.63208 14.664 0.548372 13.0352 0.548372H0.247272L0.0703125 1.39097C2.69455 1.96189 5.67744 2.88155 7.48362 3.86322C8.58972 4.46342 8.90488 4.9874 9.2687 6.41426L15.2607 29.5975H23.2041L35.3797 0.548372H27.4864Z" fill="url(#paint0_linear_1242_4168)"/>
</g>
<defs>
<linearGradient id="paint0_linear_1242_4168" x1="0.0702608" y1="15.0346" x2="93.0703" y2="15.0346" gradientUnits="userSpaceOnUse">
<stop stop-color="#241F5D"/>
<stop offset="1" stop-color="#034EA1"/>
</linearGradient>
<clipPath id="clip0_1242_4168">
<rect width="93" height="30.0312" fill="white"/>
</clipPath>
</defs>
</svg>
