<svg width="118" height="25" viewBox="0 0 118 25" fill="none" xmlns="http://www.w3.org/2000/svg">
<g clip-path="url(#clip0_1242_4177)">
<mask id="mask0_1242_4177" style="mask-type:luminance" maskUnits="userSpaceOnUse" x="0" y="-44" width="118" height="118">
<path d="M0.00195312 -43.6179H117.098V73.4785H0.00195312V-43.6179Z" fill="white"/>
</mask>
<g mask="url(#mask0_1242_4177)">
<path d="M10.6601 7.44727C11.0333 9.49529 11.495 11.4141 12.3518 13.2201C12.5204 13.5753 12.8311 13.6639 13.1562 13.7935C13.9657 14.1163 14.7437 14.5203 15.5926 14.7393C16.433 14.9559 17.2764 15.1639 18.1523 15.1862C18.2097 15.1877 18.2655 15.235 18.3334 15.3708C17.7909 15.4711 17.2499 15.5823 16.7054 15.6694C15.2882 15.8962 14.0114 16.5207 12.698 17.0406C12.5098 17.1147 12.3725 17.2681 12.2983 17.4582C11.7499 18.8649 11.1855 20.2689 10.9181 21.7623C10.842 22.1866 10.8639 22.6284 10.609 23.1421C10.472 22.0484 10.3771 21.0644 10.0945 20.1206C9.8178 19.1959 9.46261 18.2959 9.0719 17.4114C8.98095 17.2057 8.80179 17.0843 8.59961 16.993C6.75807 16.1635 4.86618 15.5203 2.81778 15.4481C2.71122 15.4442 2.54299 15.4879 2.54104 15.3271C2.5387 15.1635 2.70771 15.2084 2.81387 15.2022C4.76665 15.0859 6.61834 14.5968 8.38259 13.7615C8.77798 13.5741 9.03716 13.3208 9.21553 12.9122C9.83302 11.4965 10.2136 10.0187 10.4911 8.50894C10.5504 8.1842 10.3771 7.82705 10.6601 7.44727Z" fill="#59B8B3"/>
</g>
<path d="M97.0812 -0.0516777C96.6752 0.0295086 96.2662 0.0283337 95.8567 0.0267715C95.6413 0.0259914 95.4254 0.0252151 95.2104 0.0365334C94.8298 0.0568314 94.6889 0.204372 94.692 0.611868C94.7111 3.05762 94.6979 5.50337 94.6951 7.94913C94.6951 8.07325 94.6936 8.19659 94.6928 8.32032C94.6916 8.50143 94.6436 8.56623 94.4383 8.48738C93.126 7.98191 91.7666 7.93156 90.3833 8.08379C87.491 8.4019 85.58 9.94952 84.6487 12.6478C83.8579 14.939 83.8192 17.3055 84.3188 19.6506C84.9324 22.5311 86.6932 24.0194 89.594 24.1447C91.3727 24.222 92.9781 23.6611 94.3189 22.4546C94.4153 22.3676 94.4976 22.2044 94.6643 22.2786C94.8013 22.3391 94.7595 22.4925 94.7712 22.6115C94.8068 22.9823 94.9188 23.3368 95.0019 23.6978C95.0706 23.9945 95.2342 24.0717 95.5054 24.0108C95.9688 23.9066 96.4414 23.9176 96.9071 23.9461C97.3411 23.9726 97.4754 23.8278 97.4629 23.3965C97.3521 19.5745 97.4286 15.7509 97.3634 10.1002C97.3634 8.19776 97.3634 4.46746 97.3634 0.73716C97.3634 0.551367 97.3669 0.365576 97.3595 0.179783C97.354 0.0310707 97.2728 -0.0583134 97.1444 -0.0583134C97.1245 -0.0583134 97.103 -0.0563622 97.0812 -0.0516777ZM90.3598 22.014C88.5597 21.9211 87.6366 21.0023 87.1545 19.4367C86.5304 17.4082 86.6413 15.3406 87.1428 13.2961C87.6112 11.3847 89.3185 10.0592 91.3591 10.0327C92.3591 10.0198 93.3505 10.1181 94.2997 10.4944C94.6015 10.6138 94.701 10.761 94.6983 11.0705C94.685 12.5253 94.6924 13.98 94.6924 15.4351H94.6854C94.6854 16.859 94.6752 18.2825 94.692 19.7064C94.6963 20.1022 94.5609 20.3816 94.2392 20.61C93.1381 21.391 91.9797 22.0202 90.596 22.0202C90.5179 22.0202 90.4395 22.0183 90.3598 22.014ZM105.81 8.1033C104.043 8.34218 102.468 9.0713 100.989 10.0272C100.733 10.1931 100.728 10.3726 100.904 10.6064C101.138 10.9156 101.374 11.2278 101.566 11.5623C101.771 11.9191 101.938 11.8648 102.253 11.6619C103.77 10.6868 105.393 10.0128 107.254 10.0967C108.344 10.1455 109.103 10.8086 109.244 11.884C109.39 12.9921 109.288 14.1096 109.328 15.222C109.343 15.6314 109.232 15.7934 108.783 15.7864C106.689 15.7536 104.652 16.1326 102.657 16.7321C101.604 17.0483 100.716 17.6268 100.236 18.6385C99.3294 20.551 100.312 23.5023 103.115 24.1108C105.271 24.5792 107.155 23.9086 108.753 22.4355C109.219 22.0058 109.228 21.9781 109.475 22.5838C109.811 23.4094 110.391 23.8645 111.289 23.9804C112.28 24.1076 113.251 23.9679 114.227 23.8641C114.47 23.8387 114.539 23.7005 114.537 23.4866C114.534 23.0998 114.5 22.7083 114.547 22.327C114.607 21.8442 114.383 21.7845 113.99 21.8578C113.604 21.9304 113.213 21.9453 112.822 21.8863C112.188 21.7911 112.01 21.6236 112.002 20.9761C111.983 19.4913 111.996 18.0058 111.996 16.5206C111.984 16.5206 111.973 16.5206 111.961 16.5206C111.961 15.2204 111.94 13.9199 111.969 12.6205C111.986 11.8215 111.903 11.0502 111.616 10.3016C111.199 9.21455 110.434 8.49011 109.299 8.19113C108.705 8.03461 108.104 7.97449 107.502 7.97449C106.938 7.97449 106.373 8.02719 105.81 8.1033ZM104.171 22.0292C103.45 21.8813 102.76 21.2259 102.632 20.5147C102.431 19.3922 102.635 18.8496 103.492 18.382C104.227 17.9808 105.05 17.8243 105.868 17.7345C106.83 17.6295 107.789 17.5058 108.744 17.3609C109.163 17.2973 109.331 17.4 109.282 17.8336C109.252 18.0928 109.276 18.3586 109.276 18.6209C109.562 19.7282 108.856 20.3235 108.082 20.875C107.121 21.5596 106.121 22.1096 104.951 22.1096C104.699 22.1096 104.44 22.0842 104.171 22.0292ZM39.5931 8.55998C39.6146 12.0885 39.5958 15.6174 39.5931 19.1463C39.5931 19.4464 39.5853 19.7466 39.3542 19.9691C38.2266 21.0581 36.9276 21.704 35.2992 21.4605C34.7519 21.3785 34.387 20.9972 34.2941 20.4558C34.2285 20.0721 34.2121 19.6873 34.2121 19.3001C34.2102 15.6935 34.2008 12.0873 34.2133 8.48113C34.2149 8.09354 34.1083 7.96591 33.7184 7.99011C33.3698 8.01158 33.0197 8.00689 32.6692 8.0026C32.5185 8.00065 32.3679 7.9987 32.2176 7.9987C31.5458 7.99909 31.5447 7.99908 31.5435 8.65092C31.5392 11.948 31.5345 15.2442 31.5334 18.5413C31.5334 18.8403 31.5322 19.1283 31.2832 19.3527C30.2937 20.245 29.2375 21.0304 27.9268 21.4051C27.4826 21.5323 27.024 21.528 26.579 21.4378C25.9291 21.3071 25.4268 20.6576 25.3975 19.882C25.3624 18.939 25.3729 17.9944 25.3686 17.0506C25.355 14.2341 25.3444 11.4175 25.3308 8.60057C25.3276 8.00026 25.3245 7.99948 24.7027 7.9983C24.5279 7.9983 24.3526 8.00026 24.1777 8.00221C23.8054 8.00651 23.433 8.0108 23.0614 7.99323C22.7066 7.97684 22.618 8.0994 22.6211 8.44249C22.6379 10.3613 22.6293 12.2809 22.6293 14.2001H22.6204C22.6204 15.98 22.6247 17.7599 22.6172 19.5393C22.6157 19.9285 22.6477 20.3114 22.7101 20.6935C23.0017 22.4722 24.2023 23.6865 25.8405 23.845C27.9615 24.0503 29.8249 23.4425 31.4225 22.0577C31.6856 21.8297 31.7964 21.8157 31.9576 22.1393C32.5181 23.2634 33.506 23.8293 34.7125 23.8399C37.8901 23.8676 40.3687 22.5452 42.0709 19.8586C42.2352 19.5987 42.2773 19.3184 42.2754 19.0163C42.2648 17.546 42.2668 16.076 42.2613 14.6053C42.2535 12.5779 42.236 10.5506 42.2399 8.52329C42.241 8.13297 42.1333 7.9624 41.7075 7.99089C41.2094 8.02407 40.7063 8.01392 40.2075 7.98464C40.1653 7.98191 40.1255 7.98074 40.0884 7.98074C39.736 7.98074 39.59 8.10291 39.5931 8.55998ZM77.1654 8.05256C75.4746 8.27192 74.1666 9.21182 72.9601 10.3195C72.6002 10.6498 72.5706 10.6587 72.4316 10.2142C71.9308 8.61072 71.1748 8.13258 69.4339 8.00416C67.0541 7.82891 65.1771 8.85936 63.5213 10.4206C63.4121 10.5237 63.3106 10.7052 63.1451 10.6369C62.9792 10.5682 63.0311 10.3629 63.0307 10.2157C63.0295 9.61072 62.9792 9.01392 62.8371 8.42259C62.7731 8.15717 62.6462 8.06466 62.3793 8.0955C61.9917 8.14038 61.6017 8.16575 61.2126 8.1962C60.4995 8.25163 60.4655 8.28051 60.4647 8.9948C60.462 11.3785 60.4636 13.7618 60.4636 16.1451C60.4558 16.1451 60.4483 16.1451 60.4409 16.1451C60.4409 17.5229 60.4417 18.9 60.4405 20.2774C60.4394 21.2837 60.4347 22.2899 60.4339 23.2958C60.4335 23.9363 60.4355 23.9371 61.0584 23.9375C61.213 23.9375 61.3679 23.9343 61.5229 23.9316C61.8691 23.925 62.2157 23.9179 62.5592 23.9461C63.0116 23.9831 63.1306 23.8438 63.1267 23.391C63.0982 20.0631 63.0994 16.7357 63.0959 13.4078C63.0955 13.1822 63.0393 12.9386 63.2313 12.7473C64.4187 11.5658 65.7606 10.5908 67.4222 10.2345C68.6767 9.96592 69.7036 10.4234 69.909 11.7985C69.9656 12.1794 69.9823 12.5694 69.9792 12.9546C69.9499 16.4987 70.0179 20.0432 69.9168 23.587C69.9082 23.8922 70.0233 23.9519 70.295 23.9421C70.763 23.9254 71.2329 23.9375 71.7021 23.9379C72.5627 23.9379 72.5483 23.9379 72.544 23.0955C72.5272 19.8449 72.5198 16.5947 72.5116 13.3441C72.5108 13.051 72.4902 12.7388 72.7318 12.5163C73.852 11.4847 75.0589 10.5861 76.5842 10.2298C77.8863 9.92532 79.0425 10.6619 79.1939 11.8777C79.238 12.2298 79.2607 12.5869 79.2618 12.9417C79.2673 14.752 79.2622 16.5627 79.2614 18.3734C79.2603 20.0756 79.265 21.7774 79.2544 23.48C79.2525 23.8282 79.3555 23.9687 79.7357 23.9464C80.3282 23.9121 80.925 23.9168 81.5175 23.9453C81.8622 23.9621 81.9582 23.8149 81.9515 23.5171C81.9367 22.8208 81.9184 22.1248 81.9156 21.4285C81.9016 17.8992 81.916 14.3699 81.8672 10.8414C81.8516 9.68293 81.0671 8.58145 79.9468 8.23679C79.3668 8.05842 78.7786 7.98347 78.1869 7.98347C77.8469 7.98347 77.5062 8.00807 77.1654 8.05256ZM44.8531 10.0409C44.6399 10.19 44.6193 10.3516 44.7582 10.5514C44.9885 10.8828 45.2379 11.2025 45.4471 11.5455C45.6321 11.8496 45.7766 11.8754 46.0974 11.6697C47.5861 10.7149 49.1833 10.0545 51.003 10.0928C52.3305 10.1205 53.1923 10.971 53.2118 12.2879C53.2231 13.0612 53.2122 13.8348 53.2122 14.6084C53.2126 15.7563 53.2134 15.763 52.0268 15.7961C50.0619 15.8512 48.1517 16.213 46.2926 16.8239C45.419 17.1111 44.6185 17.5643 44.2001 18.4289C43.4678 19.9421 43.798 21.4019 44.7395 22.6654C45.8355 24.1373 47.4651 24.3906 49.2044 24.1693C50.6306 23.987 51.7703 23.2478 52.8156 22.336C53.1002 22.0881 53.2391 22.0179 53.3511 22.4757C53.535 23.2247 54.0201 23.7072 54.7992 23.8922C55.9386 24.1631 57.0658 23.9995 58.1931 23.8262C58.4261 23.7903 58.4632 23.6037 58.4604 23.4019C58.4558 23.0151 58.4421 22.6275 58.4608 22.2419C58.478 21.8953 58.3363 21.8145 58.01 21.8692C57.5471 21.9468 57.0783 21.9488 56.6107 21.8715C56.2239 21.8075 55.9854 21.6112 55.9526 21.2083C55.9327 20.962 55.8964 20.7161 55.8953 20.4702C55.8894 19.1392 55.8925 17.8086 55.8925 16.4784H55.8871C55.8871 15.3024 55.8711 14.126 55.8929 12.9507C55.9085 12.0912 55.7903 11.2594 55.5319 10.4409C55.1622 9.26919 54.4015 8.44717 53.1907 8.2044C52.4612 8.05841 51.7461 7.9866 51.0471 7.9866C48.8328 7.9866 46.7699 8.70362 44.8531 10.0409ZM48.8008 22.1104C47.2516 22.1002 46.4007 21.1998 46.4885 19.6728C46.5154 19.2029 46.7063 18.8516 47.0962 18.5873C47.9077 18.037 48.8492 17.8567 49.7863 17.738C50.6973 17.6225 51.6087 17.503 52.519 17.3781C53.1415 17.2926 53.181 17.318 53.1778 17.9476C53.1774 18.1482 53.1778 18.3488 53.1778 18.5499C53.4436 19.6486 52.8117 20.2852 52.0014 20.8602C51.0424 21.5401 50.0529 22.1104 48.8258 22.1104C48.8172 22.1104 48.8094 22.1104 48.8008 22.1104Z" fill="url(#paint0_linear_1242_4177)"/>
</g>
<defs>
<linearGradient id="paint0_linear_1242_4177" x1="68.587" y1="24.2584" x2="68.587" y2="-0.0585978" gradientUnits="userSpaceOnUse">
<stop stop-color="#0C555B"/>
<stop offset="1" stop-color="#019083"/>
</linearGradient>
<clipPath id="clip0_1242_4177">
<rect width="117.096" height="24.2975" fill="white"/>
</clipPath>
</defs>
</svg>
