<svg width="185" height="56" viewBox="0 0 185 56" fill="none" xmlns="http://www.w3.org/2000/svg">
<g clip-path="url(#clip0_1242_3518)">
<path d="M169.076 0.000181998H15.7613C15.2024 0.000181998 14.6503 0.000181998 14.0929 0.00298196C13.6264 0.00578193 13.1635 0.0139158 12.6924 0.0207617C11.6691 0.0318279 10.6481 0.114531 9.63851 0.268153C8.63027 0.425123 7.65362 0.721055 6.74158 1.14594C5.83065 1.57442 4.99832 2.13119 4.27476 2.79605C3.54741 3.45903 2.9411 4.22535 2.47916 5.06554C2.01594 5.90406 1.69474 6.80261 1.52666 7.73016C1.35698 8.65654 1.26567 9.59359 1.25356 10.5329C1.23941 10.9622 1.23792 11.3928 1.23047 11.8221V44.1817C1.23792 44.6164 1.23941 45.0375 1.25356 45.4723C1.26567 46.4116 1.35698 47.3486 1.52666 48.275C1.69428 49.203 2.01549 50.1021 2.47916 50.9409C2.94089 51.7784 3.54728 52.5416 4.27476 53.2009C4.99557 53.8687 5.82845 54.4259 6.74158 54.8511C7.65361 55.2771 8.63016 55.5748 9.63851 55.7342C10.6483 55.8866 11.6692 55.9693 12.6925 55.9817C13.1635 55.9912 13.6264 55.9967 14.093 55.9967C14.6503 55.9995 15.2025 55.9995 15.7613 55.9995H169.076C169.623 55.9995 170.18 55.9995 170.728 55.9967C171.192 55.9967 171.668 55.9912 172.133 55.9817C173.154 55.97 174.173 55.8873 175.181 55.7342C176.192 55.5737 177.172 55.2761 178.089 54.8511C179.001 54.4256 179.833 53.8685 180.553 53.2009C181.279 52.5391 181.887 51.7764 182.354 50.9409C182.814 50.1015 183.132 49.2025 183.298 48.275C183.467 47.3485 183.562 46.4117 183.58 45.4723C183.586 45.0375 183.586 44.6164 183.586 44.1817C183.598 43.6731 183.598 43.1673 183.598 42.6504V13.3506C183.598 12.8379 183.598 12.3293 183.586 11.8221C183.586 11.3928 183.586 10.9622 183.58 10.5329C183.562 9.59346 183.467 8.65661 183.298 7.7301C183.132 6.80309 182.814 5.90462 182.354 5.06549C181.413 3.38141 179.922 2.01059 178.089 1.14582C177.172 0.721969 176.192 0.426115 175.181 0.268027C174.173 0.113724 173.154 0.0309923 172.133 0.0205657C171.668 0.0137338 171.192 0.00552993 170.728 0.00279997C170.18 0 169.623 0 169.076 0V0.000181998Z" fill="black"/>
<path d="M14.1 54.7744C13.6357 54.7744 13.1825 54.769 12.7219 54.7595C11.7675 54.748 10.8154 54.6717 9.87329 54.5311C8.99485 54.3921 8.14387 54.1336 7.34843 53.7641C6.56028 53.3976 5.84143 52.917 5.2194 52.3409C4.58838 51.7714 4.06302 51.111 3.66415 50.3858C3.26088 49.6558 2.9818 48.8734 2.83662 48.0657C2.67984 47.1979 2.59501 46.3204 2.58287 45.4408C2.57321 45.1455 2.56055 44.1624 2.56055 44.1624V11.822C2.56055 11.822 2.57403 10.8541 2.58295 10.5697C2.59457 9.69147 2.6789 8.81532 2.83522 7.94884C2.98067 7.13898 3.25997 6.35428 3.66345 5.62193C4.06085 4.89715 4.58329 4.23622 5.21052 3.66475C5.83704 3.0879 6.5582 2.60491 7.34768 2.23338C8.14129 1.86502 8.99066 1.60832 9.86734 1.47187C10.8125 1.32987 11.7679 1.25309 12.7256 1.24219L14.1007 1.2251H170.72L172.111 1.24288C173.06 1.25324 174.007 1.32933 174.943 1.4705C175.829 1.60866 176.687 1.86715 177.49 2.23748C179.072 2.98626 180.359 4.17089 181.17 5.62534C181.567 6.35264 181.842 7.13093 181.986 7.9338C182.144 8.80739 182.233 9.69043 182.251 10.5759C182.255 10.9723 182.255 11.3982 182.255 11.822C182.267 12.347 182.267 12.8467 182.267 13.3505V42.6503C182.267 43.1589 182.267 43.6552 182.255 44.1556C182.255 44.6108 182.255 45.0279 182.249 45.4571C182.232 46.3268 182.145 47.194 181.989 48.052C181.847 48.8655 181.569 49.654 181.166 50.39C180.764 51.1074 180.242 51.762 179.618 52.3299C178.996 52.9092 178.275 53.3926 177.486 53.7614C176.685 54.1338 175.828 54.3933 174.943 54.5311C174.001 54.6725 173.049 54.7488 172.095 54.7595C171.648 54.769 171.181 54.7744 170.727 54.7744L169.075 54.7772L14.1 54.7744Z" fill="white"/>
<path d="M167.257 27.8448C167.273 26.6297 167.596 25.4383 168.195 24.3814C168.795 23.3246 169.653 22.4366 170.688 21.8001C170.03 20.8609 169.163 20.0879 168.154 19.5426C167.145 18.9974 166.024 18.6948 164.878 18.6589C162.433 18.4023 160.063 20.1218 158.817 20.1218C157.547 20.1218 155.629 18.6844 153.564 18.7269C152.228 18.7701 150.926 19.1586 149.784 19.8545C148.643 20.5505 147.702 21.5302 147.052 22.6982C144.236 27.5729 146.336 34.7372 149.034 38.6776C150.383 40.607 151.96 42.7623 154.024 42.6859C156.043 42.6021 156.797 41.3983 159.235 41.3983C161.649 41.3983 162.357 42.6859 164.462 42.6373C166.629 42.6021 167.994 40.6993 169.297 38.7515C170.266 37.3767 171.012 35.8572 171.507 34.2493C170.248 33.7169 169.174 32.8256 168.418 31.6867C167.662 30.5478 167.259 29.2117 167.257 27.8448Z" fill="black"/>
<path d="M163.281 16.0676C164.463 14.6493 165.045 12.8264 164.904 10.9858C163.099 11.1754 161.431 12.0381 160.234 13.4019C159.649 14.0682 159.2 14.8434 158.914 15.6831C158.629 16.5227 158.511 17.4105 158.569 18.2956C159.472 18.3049 160.365 18.1092 161.181 17.7233C161.997 17.3373 162.715 16.7712 163.281 16.0676Z" fill="black"/>
<path d="M40.9858 37.9956H34.3591L32.7678 42.6945H29.9609L36.2376 25.3096H39.1538L45.4304 42.6945H42.5758L40.9858 37.9956ZM35.0454 35.8272H40.2982L37.7087 28.2012H37.6363L35.0454 35.8272Z" fill="black"/>
<path d="M58.9863 36.3574C58.9863 40.2962 56.8782 42.8268 53.6968 42.8268C52.8909 42.869 52.0894 42.6834 51.3841 42.2912C50.6788 41.899 50.0982 41.3161 49.7088 40.6093H49.6486V46.8873H47.0469V30.0192H49.5652V32.1274H49.613C50.0203 31.424 50.6108 30.8441 51.3214 30.4495C52.0321 30.0549 52.8364 29.8604 53.6489 29.8866C56.8659 29.8866 58.9863 32.4295 58.9863 36.3574ZM56.3122 36.3574C56.3122 33.7913 54.986 32.1042 52.9626 32.1042C50.9747 32.1042 49.6376 33.8268 49.6376 36.3574C49.6376 38.9113 50.9747 40.6216 52.9626 40.6216C54.986 40.6216 56.3122 38.9468 56.3122 36.3574H56.3122Z" fill="black"/>
<path d="M72.9363 36.3574C72.9363 40.2962 70.8274 42.8268 67.646 42.8268C66.8401 42.869 66.0387 42.6834 65.3334 42.2912C64.6281 41.899 64.0475 41.3161 63.658 40.6093H63.5978V46.8873H60.9961V30.0192H63.5144V32.1274H63.5623C63.9696 31.424 64.56 30.8441 65.2707 30.4495C65.9813 30.055 66.7857 29.8604 67.5981 29.8866C70.8151 29.8866 72.9363 32.4295 72.9363 36.3574ZM70.2614 36.3574C70.2614 33.7913 68.9353 32.1042 66.9119 32.1042C64.924 32.1042 63.5869 33.8268 63.5869 36.3574C63.5869 38.9113 64.924 40.6216 66.9119 40.6216C68.9353 40.6216 70.2614 38.9468 70.2614 36.3574Z" fill="black"/>
<path d="M82.1555 37.8505C82.3483 39.5745 84.0231 40.7064 86.3117 40.7064C88.5046 40.7064 90.0823 39.5744 90.0823 38.0199C90.0823 36.6705 89.1308 35.8626 86.8777 35.3088L84.6246 34.7661C81.4323 33.995 79.9503 32.502 79.9503 30.0794C79.9503 27.0799 82.5643 25.0195 86.2748 25.0195C89.9497 25.0195 92.468 27.0799 92.5528 30.0794H89.9265C89.7692 28.3445 88.3351 27.2972 86.2392 27.2972C84.1433 27.2972 82.7092 28.3568 82.7092 29.899C82.7092 31.128 83.6252 31.8513 85.866 32.4049L87.7814 32.8752C91.3483 33.7188 92.8289 35.1516 92.8289 37.6945C92.8289 40.947 90.2395 42.984 86.1188 42.984C82.2634 42.984 79.6604 40.9948 79.4922 37.8503L82.1555 37.8505Z" fill="black"/>
<path d="M98.4472 27.0195V30.0191H100.858V32.0794H98.4472V39.067C98.4472 40.1525 98.9298 40.6584 99.9893 40.6584C100.275 40.6534 100.561 40.6333 100.845 40.5982V42.6462C100.369 42.7352 99.8846 42.7755 99.4001 42.7665C96.8339 42.7665 95.8332 41.8027 95.8332 39.3445V32.0794H93.9902V30.0191H95.8332V27.0195H98.4472Z" fill="black"/>
<path d="M102.252 36.3573C102.252 32.3693 104.601 29.8633 108.263 29.8633C111.938 29.8633 114.276 32.3692 114.276 36.3573C114.276 40.3563 111.951 42.8514 108.263 42.8514C104.577 42.8514 102.252 40.3563 102.252 36.3573ZM111.625 36.3573C111.625 33.6216 110.372 32.007 108.263 32.007C106.155 32.007 104.902 33.6339 104.902 36.3573C104.902 39.1039 106.155 40.7063 108.263 40.7063C110.372 40.7063 111.625 39.1039 111.625 36.3573Z" fill="black"/>
<path d="M116.422 30.0196H118.903V32.177H118.963C119.131 31.5032 119.526 30.9077 120.081 30.4907C120.637 30.0737 121.318 29.8605 122.012 29.887C122.312 29.8859 122.611 29.9185 122.904 29.984V32.4176C122.525 32.3019 122.13 32.2488 121.735 32.2604C121.357 32.245 120.98 32.3117 120.63 32.4557C120.28 32.5998 119.966 32.8178 119.708 33.0948C119.451 33.3719 119.256 33.7014 119.138 34.0607C119.02 34.42 118.981 34.8007 119.024 35.1765V42.6946H116.422V30.0196Z" fill="black"/>
<path d="M134.898 38.9718C134.548 41.2728 132.308 42.8518 129.441 42.8518C125.753 42.8518 123.465 40.3814 123.465 36.418C123.465 32.4422 125.766 29.8638 129.331 29.8638C132.838 29.8638 135.043 32.2727 135.043 36.1158V37.0072H126.091V37.1644C126.05 37.6309 126.108 38.1008 126.263 38.543C126.417 38.9852 126.663 39.3895 126.986 39.729C127.308 40.0686 127.699 40.3356 128.133 40.5125C128.567 40.6893 129.033 40.7718 129.501 40.7546C130.116 40.8122 130.733 40.6698 131.26 40.3486C131.787 40.0274 132.197 39.5445 132.428 38.9718H134.898ZM126.103 35.1889H132.44C132.463 34.7892 132.406 34.3891 132.273 34.0113C132.141 33.6335 131.936 33.2855 131.669 32.9872C131.402 32.6888 131.079 32.446 130.718 32.2725C130.357 32.0989 129.966 31.9982 129.566 31.9759C129.488 31.9716 129.41 31.9702 129.331 31.9719C128.91 31.9694 128.492 32.0499 128.102 32.2088C127.712 32.3678 127.357 32.602 127.057 32.8982C126.757 33.1944 126.519 33.5467 126.355 33.935C126.192 34.3234 126.106 34.7401 126.104 35.1615C126.103 35.1706 126.103 35.1798 126.103 35.1889Z" fill="black"/>
<path d="M92.2184 22.5166H91.3038C89.523 22.5166 87.6445 22.1509 87.6445 19.6866C87.764 18.5785 88.0178 17.4891 88.4005 16.4423L89.5838 16.7595L89.4129 17.3084C89.1598 18.0804 88.9922 18.8779 88.9132 19.6866C88.9132 21.3819 90.5353 21.3819 91.6332 21.3819H92.4015C92.9504 21.3819 93.7065 21.1624 93.7065 20.4672V15.6493H95.0121V19.26C95.2933 19.3794 95.5967 19.4374 95.9021 19.4302H96.3533V20.5527H95.9021C95.6006 20.5506 95.3009 20.5055 95.0121 20.4187V20.5895C95.0122 21.2233 94.5241 22.5166 92.2184 22.5166ZM91.4746 14.3321C91.3212 14.3239 91.1735 14.271 91.0497 14.18C90.9259 14.0889 90.8315 13.9635 90.7781 13.8195C90.7247 13.6754 90.7146 13.5188 90.7491 13.369C90.7836 13.2193 90.8611 13.0829 90.9722 12.9766C91.0833 12.8704 91.223 12.799 91.3741 12.7713C91.5253 12.7435 91.6813 12.7606 91.8228 12.8204C91.9644 12.8802 92.0854 12.9801 92.1708 13.1078C92.2563 13.2355 92.3025 13.3854 92.3038 13.5391C92.3094 13.7443 92.2333 13.9433 92.0922 14.0923C91.9511 14.2413 91.7565 14.3282 91.5514 14.3338C91.5258 14.3345 91.5002 14.3339 91.4746 14.3321V14.3321Z" fill="black"/>
<path d="M97.8268 19.4302C97.6765 18.8945 97.6065 18.3396 97.619 17.7834C97.5805 17.4156 97.6206 17.0438 97.7368 16.6927C97.853 16.3416 98.0426 16.0192 98.2929 15.7469C98.5433 15.4747 98.8486 15.2588 99.1888 15.1136C99.5289 14.9685 99.896 14.8973 100.266 14.9048C101.998 14.9048 102.669 16.3199 102.669 18.0035C102.669 19.2476 102.23 20.9306 100.534 20.9306C99.9755 20.8767 99.426 20.7496 98.9 20.5526H96.1309V19.4302L97.8268 19.4302ZM99.144 19.4794C99.5585 19.6547 99.9998 19.7578 100.449 19.7843C101.205 19.7843 101.413 18.8204 101.413 17.9666C101.413 17.1497 101.181 15.9788 100.193 15.9788C99.3027 15.9788 98.9123 16.8079 98.9123 17.8572C98.8957 18.4073 98.9741 18.956 99.144 19.4794V19.4794Z" fill="black"/>
<path d="M111.278 22.5164H110.363C108.582 22.5164 106.703 22.1507 106.703 19.6864C106.823 18.5784 107.077 17.489 107.459 16.4421L108.643 16.7593L108.472 17.3082C108.219 18.0802 108.051 18.8777 107.972 19.6864C107.972 21.3817 109.595 21.3817 110.692 21.3817H111.461C112.009 21.3817 112.765 21.1622 112.765 20.467V12.3311H114.071V19.2599C114.352 19.3791 114.655 19.4371 114.961 19.4301H115.412V20.5525H114.961C114.659 20.5503 114.36 20.5052 114.071 20.4185V20.5893C114.071 21.2231 113.583 22.5164 111.278 22.5164Z" fill="black"/>
<path d="M119.801 14.9663V18.3938C119.801 19.845 118.934 20.5526 117.214 20.5526H115.189V19.4301H117.166C118.203 19.4301 118.483 18.9789 118.483 18.2106V14.9663H119.801ZM116.532 23.2848C116.379 23.2765 116.231 23.2236 116.107 23.1324C115.983 23.0412 115.889 22.9159 115.836 22.7718C115.783 22.6276 115.773 22.4711 115.807 22.3214C115.842 22.1716 115.919 22.0353 116.03 21.9292C116.141 21.823 116.281 21.7517 116.432 21.7239C116.583 21.6962 116.739 21.7133 116.881 21.7731C117.022 21.833 117.143 21.9329 117.229 22.0606C117.314 22.1883 117.361 22.3382 117.362 22.4919C117.365 22.6 117.345 22.7075 117.304 22.8075C117.263 22.9075 117.201 22.9978 117.123 23.0725C117.045 23.1472 116.952 23.2047 116.85 23.2413C116.748 23.2779 116.64 23.2927 116.532 23.2848H116.532ZM118.581 23.2848C118.428 23.2768 118.28 23.224 118.156 23.133C118.032 23.042 117.938 22.9167 117.884 22.7726C117.831 22.6285 117.821 22.4719 117.855 22.3221C117.889 22.1723 117.967 22.0359 118.078 21.9296C118.189 21.8233 118.329 21.7519 118.48 21.724C118.631 21.6962 118.787 21.7132 118.929 21.773C119.07 21.8328 119.191 21.9327 119.277 22.0605C119.362 22.1882 119.409 22.3382 119.41 22.4919C119.415 22.697 119.339 22.896 119.198 23.045C119.057 23.194 118.862 23.2809 118.657 23.2865C118.632 23.2872 118.607 23.2866 118.581 23.2848H118.581Z" fill="black"/>
<path d="M120.774 22.3826C120.96 22.4054 121.147 22.4175 121.335 22.4188C122.409 22.4188 122.945 21.7967 122.945 20.5403V15.637H124.263V19.4302H125.47V20.5526H124.251C124.265 21.3842 123.965 22.1904 123.409 22.8091C122.816 23.3051 122.059 23.5618 121.287 23.5289C121.009 23.5245 120.732 23.5042 120.457 23.4681L120.774 22.3826ZM123.543 14.4537C123.389 14.4454 123.242 14.3924 123.118 14.3013C122.994 14.2101 122.9 14.0847 122.847 13.9406C122.793 13.7965 122.783 13.6399 122.818 13.4902C122.852 13.3405 122.93 13.2042 123.041 13.098C123.152 12.9919 123.292 12.9205 123.443 12.8928C123.594 12.8651 123.75 12.8822 123.892 12.942C124.033 13.0018 124.154 13.1017 124.24 13.2294C124.325 13.3572 124.371 13.5071 124.373 13.6607C124.376 13.7689 124.356 13.8764 124.315 13.9765C124.274 14.0765 124.212 14.1668 124.134 14.2415C124.056 14.3163 123.963 14.3737 123.861 14.4103C123.759 14.4468 123.651 14.4616 123.543 14.4537Z" fill="black"/>
<path d="M129.798 20.5526C129.272 20.5363 128.758 20.394 128.298 20.1377C127.667 20.4757 126.95 20.62 126.236 20.5526H125.248V19.4301H126.31C127.31 19.4301 127.505 19.2716 127.505 18.5401V14.9664H128.811V19.2107C129.119 19.3587 129.456 19.4338 129.798 19.4302H130.616V20.5526L129.798 20.5526ZM128.103 13.7462C127.949 13.7379 127.802 13.6849 127.678 13.5937C127.554 13.5026 127.46 13.3772 127.407 13.2331C127.353 13.089 127.343 12.9324 127.378 12.7827C127.412 12.633 127.49 12.4966 127.601 12.3905C127.712 12.2843 127.852 12.213 128.003 12.1853C128.154 12.1576 128.31 12.1747 128.452 12.2345C128.593 12.2943 128.714 12.3942 128.8 12.5219C128.885 12.6496 128.931 12.7996 128.932 12.9532C128.936 13.0613 128.916 13.1689 128.875 13.2689C128.834 13.369 128.772 13.4593 128.694 13.534C128.615 13.6087 128.522 13.6662 128.421 13.7028C128.319 13.7393 128.211 13.7541 128.103 13.7462Z" fill="black"/>
<path d="M133.737 14.9664V18.3938C133.737 19.8451 132.872 20.5526 131.152 20.5526H130.395V19.4302H131.103C132.139 19.4302 132.419 18.979 132.419 18.2107V14.9664H133.737ZM131.797 13.7462C131.644 13.7379 131.496 13.6849 131.372 13.5937C131.249 13.5026 131.154 13.3772 131.101 13.2331C131.048 13.089 131.038 12.9324 131.072 12.7827C131.107 12.633 131.185 12.4966 131.296 12.3905C131.407 12.2843 131.546 12.213 131.698 12.1853C131.849 12.1576 132.005 12.1747 132.146 12.2345C132.288 12.2943 132.409 12.3942 132.494 12.5219C132.58 12.6496 132.626 12.7996 132.627 12.9532C132.63 13.0613 132.61 13.1689 132.569 13.2689C132.528 13.369 132.466 13.4593 132.388 13.534C132.31 13.6087 132.217 13.6662 132.115 13.7028C132.013 13.7393 131.905 13.7541 131.797 13.7462ZM133.847 13.7462C133.693 13.7379 133.546 13.6849 133.422 13.5937C133.298 13.5026 133.204 13.3772 133.15 13.2331C133.097 13.089 133.087 12.9324 133.122 12.7827C133.156 12.633 133.234 12.4966 133.345 12.3905C133.456 12.2843 133.596 12.213 133.747 12.1853C133.898 12.1576 134.054 12.1747 134.196 12.2345C134.337 12.2943 134.458 12.3942 134.544 12.5219C134.629 12.6496 134.675 12.7996 134.676 12.9532C134.679 13.0613 134.66 13.1689 134.619 13.2689C134.578 13.369 134.516 13.4593 134.438 13.534C134.359 13.6087 134.266 13.6662 134.165 13.7028C134.063 13.7393 133.954 13.7541 133.847 13.7462Z" fill="black"/>
</g>
<defs>
<clipPath id="clip0_1242_3518">
<rect width="184" height="56" fill="white" transform="translate(0.730469)"/>
</clipPath>
</defs>
</svg>
