<svg width="27" height="33" viewBox="0 0 27 33" fill="none" xmlns="http://www.w3.org/2000/svg">
<path d="M22.701 17.0809C22.7169 15.8498 23.0439 14.6426 23.6516 13.5719C24.2594 12.5011 25.1281 11.6014 26.177 10.9566C25.5107 10.005 24.6316 9.22184 23.6097 8.66937C22.5878 8.11691 21.4511 7.81034 20.29 7.77401C17.8131 7.51403 15.4119 9.25614 14.1497 9.25614C12.8631 9.25614 10.9198 7.79982 8.82719 7.84288C7.47362 7.88661 6.15446 8.28022 4.99824 8.98535C3.84202 9.69049 2.88817 10.6831 2.22963 11.8665C-0.623021 16.8054 1.5048 24.064 4.2374 28.0562C5.60458 30.0111 7.20241 32.1948 9.29315 32.1173C11.3391 32.0325 12.1032 30.8127 14.5728 30.8127C17.0194 30.8127 17.7363 32.1173 19.8695 32.0681C22.0649 32.0325 23.448 30.1045 24.7672 28.1311C25.7496 26.7382 26.5055 25.1987 27.0069 23.5697C25.7315 23.0302 24.643 22.1272 23.8773 20.9734C23.1116 19.8195 22.7025 18.4657 22.701 17.0809V17.0809Z" fill="white"/>
<path d="M18.6715 5.14866C19.8685 3.71171 20.4582 1.86474 20.3154 0C18.4866 0.192075 16.7974 1.0661 15.5842 2.44792C14.9911 3.12298 14.5368 3.90832 14.2473 4.75906C13.9578 5.6098 13.8389 6.50924 13.8972 7.40597C14.812 7.41539 15.7169 7.21713 16.5438 6.82613C17.3708 6.43513 18.0983 5.86157 18.6715 5.14866Z" fill="white"/>
</svg>
