<svg width="27" height="33" viewBox="0 0 27 33" fill="none" xmlns="http://www.w3.org/2000/svg">
<path d="M22.5258 17.8448C22.5414 16.6297 22.8642 15.4383 23.464 14.3814C24.0639 13.3246 24.9213 12.4366 25.9565 11.8001C25.2989 10.8609 24.4313 10.0879 23.4226 9.54265C22.414 8.99737 21.2921 8.69478 20.1461 8.65892C17.7014 8.40231 15.3314 10.1218 14.0856 10.1218C12.8157 10.1218 10.8976 8.6844 8.8322 8.72689C7.49622 8.77006 6.1942 9.15855 5.05301 9.85452C3.91182 10.5505 2.97037 11.5302 2.32039 12.6982C-0.495123 17.5729 1.605 24.7372 4.30207 28.6776C5.65148 30.607 7.22854 32.7623 9.29212 32.6859C11.3115 32.6021 12.0656 31.3983 14.5031 31.3983C16.918 31.3983 17.6256 32.6859 19.731 32.6373C21.8979 32.6021 23.2631 30.6993 24.5651 28.7515C25.5347 27.3767 26.2808 25.8572 26.7757 24.2493C25.5168 23.7169 24.4425 22.8256 23.6868 21.6867C22.931 20.5478 22.5272 19.2117 22.5258 17.8448Z" fill="black"/>
<path d="M18.5487 6.06748C19.7301 4.6492 20.3122 2.82623 20.1713 0.985718C18.3663 1.17529 16.699 2.03796 15.5016 3.40183C14.9161 4.06811 14.4677 4.84325 14.182 5.68293C13.8963 6.52261 13.7789 7.41037 13.8365 8.29545C14.7393 8.30475 15.6325 8.10906 16.4487 7.72314C17.2649 7.33722 17.983 6.77112 18.5487 6.06748Z" fill="black"/>
</svg>
