<svg width="56" height="56" viewBox="0 0 56 56" fill="none" xmlns="http://www.w3.org/2000/svg">
<path d="M27.9841 7.38198C15.7778 -3.29417 0.257652 6.08621 0.0031559 18.8028C-0.0616985 22.0437 0.873824 25.2005 2.73601 28.1109H14.8062L16.953 24.5326C17.5764 23.4938 19.085 23.4603 19.7437 24.496L24.2734 31.6139L30.8762 17.675C31.452 16.4588 33.1681 16.4202 33.8031 17.5996L39.4631 28.1109H53.2321C63.4319 12.1696 43.2738 -5.99083 27.9841 7.38198Z" fill="#ED6665"/>
<path d="M37.0358 30.5293L32.4494 22.0117L25.9639 35.7033C25.4121 36.8682 23.7892 36.9694 23.0973 35.8818L18.3978 28.4971L17.1386 30.5956C16.9929 30.8385 16.7867 31.0395 16.5402 31.1791C16.2937 31.3186 16.0152 31.392 15.732 31.392H5.32812C5.65426 31.7333 3.91609 29.9987 26.8239 52.7878C27.4637 53.4244 28.498 53.4246 29.1379 52.7878C51.6932 30.3493 50.3082 31.7327 50.6337 31.392H38.4802C38.184 31.392 37.8933 31.3119 37.639 31.16C37.3847 31.0081 37.1762 30.7901 37.0358 30.5293Z" fill="#ED6665"/>
</svg>
