<svg width="56" height="56" viewBox="0 0 56 56" fill="none" xmlns="http://www.w3.org/2000/svg">
<path d="M49.507 24.5667C49.507 24.5667 51.5685 14.996 39.6387 13.6975C39.6387 13.6975 41.044 11.2912 46.8102 10.5562C46.8102 10.5562 41.3765 3.91147 32.42 10.8782C28.1517 0.367721 20.1227 3.40572 20.1227 3.40572C24.7515 6.92322 24.7602 9.71272 24.7602 9.71272C13.7825 4.87222 10.7812 14.1892 10.7812 14.1892C17.8162 12.0262 24.0602 16.1037 24.0602 16.1037C7.43175 15.8237 13.2558 30.928 13.2558 30.928C20.891 19.434 29.5727 21.5042 29.5727 21.5042C29.5727 21.5042 38.132 24.0505 38.9965 37.8247C38.9965 37.8247 51.5913 27.6555 37.0488 19.5827C37.0488 19.5827 44.5002 19.1767 49.507 24.5667Z" fill="#18BBB8"/>
<path d="M21.6011 46.0461C21.6151 45.9096 21.6256 45.7766 21.6413 45.6436C21.8951 43.7221 22.2608 41.8146 22.7246 39.9351C24.0721 34.4979 26.2998 29.1954 29.3483 24.4581C29.1861 24.3742 29.0196 24.2989 28.8496 24.2324C28.5441 24.1891 28.2358 24.1686 27.9273 24.1711C27.1486 24.1711 26.1371 24.2744 24.9733 24.6226C24.5796 25.2106 24.1736 25.7881 23.8008 26.3831C22.7007 28.1254 21.6891 29.922 20.7698 31.7661C18.5321 36.2397 16.9041 40.993 15.9293 45.8991C9.07631 46.4049 6.35156 49.3886 6.35156 53.0024H29.7683C29.7701 49.6441 27.4216 46.8354 21.6011 46.0461Z" fill="#18BBB8"/>
</svg>
