<svg width="56" height="56" viewBox="0 0 56 56" fill="none" xmlns="http://www.w3.org/2000/svg">
<path d="M50.1693 21.0001V29.1668H42.0026C38.7861 29.1668 36.1693 31.7836 36.1693 35.0001C36.1693 38.2166 38.7861 40.8334 42.0026 40.8334H50.1693V49.0001C50.1693 50.9304 48.5995 52.5001 46.6693 52.5001H9.33594C7.40569 52.5001 5.83594 50.9304 5.83594 49.0001V21.0001C5.83594 19.0699 7.40569 17.5001 9.33594 17.5001H46.6693C48.5995 17.5001 50.1693 19.0699 50.1693 21.0001ZM42.0026 31.5001H50.1693V38.5001H42.0026C40.0724 38.5001 38.5026 36.9304 38.5026 35.0001C38.5026 33.0699 40.0724 31.5001 42.0026 31.5001ZM44.3359 33.8334H42.0026C41.6932 33.8334 41.3964 33.9564 41.1776 34.1752C40.9589 34.3939 40.8359 34.6907 40.8359 35.0001C40.8359 35.3095 40.9589 35.6063 41.1776 35.8251C41.3964 36.0439 41.6932 36.1668 42.0026 36.1668H44.3359C44.6454 36.1668 44.9421 36.0439 45.1609 35.8251C45.3797 35.6063 45.5026 35.3095 45.5026 35.0001C45.5026 34.6907 45.3797 34.3939 45.1609 34.1752C44.9421 33.9564 44.6454 33.8334 44.3359 33.8334ZM30.4363 15.1668L37.3068 8.29627L36.0398 7.02927L27.9017 15.1668H30.4363ZM34.3901 5.37902L34.0483 5.03719C32.0008 2.99086 28.6705 2.99086 26.623 5.03719L16.4946 15.1668H24.6024L34.3901 5.37902ZM44.1773 15.1668L38.957 9.94594L33.7356 15.1668H44.1773Z" fill="#9C66ED"/>
</svg>
