<svg width="20" height="20" viewBox="0 0 20 20" fill="none" xmlns="http://www.w3.org/2000/svg">
<g opacity="0.5">
<path d="M17.2904 13.0205C17.2904 13.5088 17.0625 13.8994 16.7695 14.2249V16.8617C17.0625 17.057 17.2904 17.3825 17.2904 17.7406C17.2904 18.2939 16.8021 18.7497 16.2487 18.7497H5.83203C4.07422 18.7497 2.70703 17.3825 2.70703 15.6247V5.20801C2.70703 3.48275 4.07422 2.08301 5.83203 2.08301H15.7279C16.5742 2.08301 17.2904 2.79915 17.2904 3.64551V13.0205ZM7.36198 6.24967C7.10156 6.24967 6.8737 6.51009 6.8737 6.77051C6.8737 7.06348 7.10156 7.29134 7.36198 7.29134H13.6445C13.9049 7.29134 14.1654 7.06348 14.1654 6.77051C14.1654 6.51009 13.9049 6.24967 13.612 6.24967H7.36198ZM7.36198 8.33301C7.10156 8.33301 6.8737 8.59342 6.8737 8.85384C6.8737 9.14681 7.10156 9.37467 7.36198 9.37467H13.6445C13.9049 9.37467 14.1654 9.14681 14.1654 8.85384C14.1654 8.59342 13.9049 8.33301 13.612 8.33301H7.36198ZM15.207 16.6663V14.583H5.83203C5.24609 14.583 4.79036 15.0713 4.79036 15.6247C4.79036 16.2106 5.24609 16.6663 5.83203 16.6663H15.207Z" fill="#EAEAEB"/>
</g>
</svg>
