<svg width="28" height="28" viewBox="0 0 28 28" fill="none" xmlns="http://www.w3.org/2000/svg">
<path d="M16.6857 2.57129H11.3143C10.1257 2.57129 9.1543 3.53129 9.1543 4.71986V5.79415C9.1543 6.98272 10.1143 7.94272 11.3029 7.94272H16.6857C17.8743 7.94272 18.8343 6.98272 18.8343 5.79415V4.71986C18.8457 3.53129 17.8743 2.57129 16.6857 2.57129Z" fill="#00B551"/>
<path d="M19.9878 5.79423C19.9878 7.61137 18.5021 9.09708 16.6849 9.09708H11.3135C9.49635 9.09708 8.01064 7.61137 8.01064 5.79423C8.01064 5.15423 7.32492 4.75423 6.75349 5.05137C5.14206 5.90851 4.04492 7.61137 4.04492 9.56566V20.3199C4.04492 23.1314 6.34206 25.4285 9.15349 25.4285H18.8449C21.6563 25.4285 23.9535 23.1314 23.9535 20.3199V9.56566C23.9535 7.61137 22.8563 5.90851 21.2449 5.05137C20.6735 4.75423 19.9878 5.15423 19.9878 5.79423ZM17.8163 14.8342L13.2449 19.4057C13.0735 19.5771 12.8564 19.6571 12.6392 19.6571C12.4221 19.6571 12.2049 19.5771 12.0335 19.4057L10.3192 17.6914C9.98778 17.3599 9.98778 16.8114 10.3192 16.4799C10.6506 16.1485 11.1992 16.1485 11.5306 16.4799L12.6392 17.5885L16.6049 13.6228C16.9363 13.2914 17.4849 13.2914 17.8163 13.6228C18.1478 13.9542 18.1478 14.5028 17.8163 14.8342Z" fill="#00B551"/>
</svg>
