<svg width="28" height="28" viewBox="0 0 28 28" fill="none" xmlns="http://www.w3.org/2000/svg">
<g clip-path="url(#clip0_1259_2179)">
<path d="M13.9993 27.4379C6.60352 27.4379 0.666016 21.5004 0.666016 14.1046C0.666016 6.76082 6.60352 0.77124 13.9993 0.77124C21.3431 0.77124 27.3327 6.76082 27.3327 14.1046C27.3327 21.5004 21.3431 27.4379 13.9993 27.4379ZM12.7493 14.1046C12.7493 14.5212 12.9577 14.9379 13.2702 15.1462L18.2702 18.4796C18.8431 18.8962 19.6243 18.74 19.9889 18.1671C20.4056 17.5942 20.2493 16.8129 19.6764 16.3962L15.2493 13.4796V7.02124C15.2493 6.34416 14.6764 5.77124 13.9473 5.77124C13.2702 5.77124 12.6973 6.34416 12.6973 7.02124L12.7493 14.1046Z" fill="#00B551"/>
</g>
<defs>
<clipPath id="clip0_1259_2179">
<rect width="26.6667" height="26.6667" fill="white" transform="translate(0.666016 0.77124)"/>
</clipPath>
</defs>
</svg>
