<svg width="49" height="48" viewBox="0 0 49 48" fill="none" xmlns="http://www.w3.org/2000/svg">
<path d="M26.043 31.84H27.343C28.643 31.84 29.723 30.68 29.723 29.28C29.723 27.54 29.103 27.2 28.083 26.84L26.063 26.14V31.84H26.043Z" fill="#00B551"/>
<path d="M24.4831 3.79996C13.4431 3.83996 4.5031 12.82 4.5431 23.86C4.5831 34.9 13.5631 43.84 24.6031 43.8C35.6431 43.76 44.5831 34.78 44.5431 23.74C44.5031 12.7 35.5231 3.77996 24.4831 3.79996ZM29.0631 24C30.6231 24.54 32.7231 25.7 32.7231 29.28C32.7231 32.36 30.3031 34.84 27.3431 34.84H26.0431V36C26.0431 36.82 25.3631 37.5 24.5431 37.5C23.7231 37.5 23.0431 36.82 23.0431 36V34.84H22.3231C19.0431 34.84 16.3831 32.08 16.3831 28.68C16.3831 27.86 17.0631 27.18 17.8831 27.18C18.7031 27.18 19.3831 27.86 19.3831 28.68C19.3831 30.42 20.7031 31.84 22.3231 31.84H23.0431V25.08L20.0231 24C18.4631 23.46 16.3631 22.3 16.3631 18.72C16.3631 15.64 18.7831 13.16 21.7431 13.16H23.0431V12C23.0431 11.18 23.7231 10.5 24.5431 10.5C25.3631 10.5 26.0431 11.18 26.0431 12V13.16H26.7631C30.0431 13.16 32.7031 15.92 32.7031 19.32C32.7031 20.14 32.0231 20.82 31.2031 20.82C30.3831 20.82 29.7031 20.14 29.7031 19.32C29.7031 17.58 28.3831 16.16 26.7631 16.16H26.0431V22.92L29.0631 24Z" fill="#00B551"/>
<path d="M19.3828 18.74C19.3828 20.48 20.0028 20.82 21.0228 21.18L23.0428 21.88V16.16H21.7428C20.4428 16.16 19.3828 17.32 19.3828 18.74Z" fill="#00B551"/>
</svg>
