<svg width="272" height="442" viewBox="0 0 272 442" fill="none" xmlns="http://www.w3.org/2000/svg">
<path d="M139.036 111.427C144.786 108.414 150.708 105.721 156.758 103.352C134.619 157.503 91.2516 204.867 38.2052 227.323C57.1078 178.494 92.1119 136.019 139.036 111.427ZM249.15 226.299C170.015 223.069 105.417 279.541 82.0365 352.646C79.8397 359.513 78.0151 366.479 76.5225 373.506C65.6508 357.056 55.9954 339.838 47.9646 321.944C64.3383 313.929 79.7437 303.485 93.7565 290.901C133.406 255.277 158.723 203.839 170.403 151.489C182.992 95.0689 174.016 26.045 167.482 -9.15527e-05C150.044 5.11768 129.245 14.693 105.533 34.3438C60.3209 71.8128 30.8947 126.72 24.3324 184.956C23.248 194.572 22.8279 204.215 22.6118 213.882C22.4678 220.328 22.3437 226.783 22.2317 233.233C19.3827 234.137 16.5137 234.982 13.6167 235.738C-3.17714 240.123 -20.3951 241.764 -37.5611 240.96L-69 336.593C-37.429 343.431 -5.9461 341.394 23.3321 331.915C24.4725 344.772 26.5052 357.532 29.5222 370.112C35.5603 395.277 45.1997 419.254 57.3239 441.961H101.603C116.216 385.23 152.549 334.452 209.197 312.725C229.232 305.038 250.571 301.853 271.982 302.729C271.91 302.725 249.947 226.335 249.15 226.299Z" fill="#00B551" fill-opacity="0.1"/>
</svg>
