<svg width="10" height="18" viewBox="0 0 10 18" fill="none" xmlns="http://www.w3.org/2000/svg">
<path d="M9.5 3H6.5C6.23478 3 5.98043 3.10536 5.79289 3.29289C5.60536 3.48043 5.5 3.73478 5.5 4V7H9.5C9.55605 6.99876 9.61157 7.01099 9.66191 7.03568C9.71224 7.06037 9.7559 7.09679 9.78922 7.14188C9.82255 7.18696 9.84455 7.23939 9.85339 7.29475C9.86223 7.35011 9.85763 7.40678 9.84 7.46L9.1 9.66C9.06673 9.7585 9.00359 9.84419 8.91935 9.90513C8.83511 9.96606 8.73397 9.99923 8.63 10H5.5V17.5C5.5 17.6326 5.44732 17.7598 5.35355 17.8536C5.25979 17.9473 5.13261 18 5 18H2.5C2.36739 18 2.24021 17.9473 2.14645 17.8536C2.05268 17.7598 2 17.6326 2 17.5V10H0.5C0.367392 10 0.240215 9.94732 0.146447 9.85355C0.0526785 9.75979 0 9.63261 0 9.5V7.5C0 7.36739 0.0526785 7.24021 0.146447 7.14645C0.240215 7.05268 0.367392 7 0.5 7H2V4C2 2.93913 2.42143 1.92172 3.17157 1.17157C3.92172 0.421427 4.93913 0 6 0H9.5C9.63261 0 9.75979 0.0526785 9.85355 0.146447C9.94732 0.240215 10 0.367392 10 0.5V2.5C10 2.63261 9.94732 2.75979 9.85355 2.85355C9.75979 2.94732 9.63261 3 9.5 3Z" fill="#2AAF8C"/>
</svg>
