<svg width="111" height="40" viewBox="0 0 111 40" fill="none" xmlns="http://www.w3.org/2000/svg">
<path d="M18.8266 10.0847C19.347 9.81187 19.8827 9.56814 20.43 9.3541L21.2214 9.03829C20.0689 13.3955 15.3759 19.4778 9.70257 20.5739C11.4133 16.1548 14.5808 12.3103 18.8266 10.0847ZM28.7904 20.4815C22.0783 20.6677 15.2177 27.6217 14.0307 35.1407C13.8257 34.8303 13.3651 34.1204 13.1699 33.8041C12.1862 32.3155 11.3123 30.7571 10.5857 29.1378C12.0673 28.4123 13.4613 27.467 14.7289 26.328C18.3171 23.104 20.6078 18.4484 21.6649 13.7104C22.8038 8.60575 21.9923 2.36147 21.4011 0.0022316C14.2241 2.65041 8.88506 12.1902 9.13296 20.8563L8.12159 21.1514L8.12155 21.1513C7.90825 21.2171 7.6938 21.2792 7.47766 21.3356C6.22434 21.6627 4.94507 21.821 3.66398 21.8257L0.824219 30.4633C1.82803 30.6809 2.83054 30.7971 3.82386 30.8219C3.8177 30.8225 3.81155 30.823 3.80542 30.8235C5.36196 30.7835 6.8898 30.515 8.35672 30.0401C8.46014 31.2036 8.64377 32.3586 8.91686 33.4971C9.46315 35.7747 10.3355 37.9446 11.4327 40H15.439C16.7614 34.8655 20.0491 30.2698 25.1752 28.3032C26.9881 27.6077 28.9191 27.3195 30.8562 27.3986C30.8499 27.3983 28.8624 20.4844 28.7904 20.4815Z" fill="white"/>
<path d="M21.4006 0.00224304L21.4001 3.8147e-06C21.3998 3.8147e-06 21.3995 3.8147e-06 21.3993 3.8147e-06C19.8216 0.46364 17.9395 1.33044 15.7942 3.10842C11.7033 6.49934 9.04057 11.469 8.44681 16.7397C8.34884 17.6098 8.31065 18.4826 8.29106 19.3576C8.278 19.9409 8.26676 20.5249 8.25676 21.109C8.2116 21.1233 8.16637 21.1374 8.12109 21.1513L8.12113 21.1514L9.1325 20.8564C8.8846 12.1902 14.2236 2.65042 21.4006 0.00224304Z" fill="white"/>
<path d="M21.22 9.03807L20.4286 9.35388C18.4257 14.2545 14.501 18.5414 9.70117 20.5737C15.3745 19.4776 20.0675 13.3953 21.22 9.03807Z" fill="white"/>
<path d="M13.6669 31.9169C13.4682 32.5385 13.3029 33.1686 13.168 33.8046C13.3631 34.1208 13.8238 34.8308 14.0287 35.1411C15.2157 27.6222 22.0764 20.6681 28.7885 20.4819C21.6278 20.1895 15.7823 25.3002 13.6669 31.9169Z" fill="white"/>
<path d="M3.66309 21.8255C3.3907 21.8265 3.11819 21.8208 2.84586 21.808L0 30.4632C1.2756 30.7396 2.54941 30.8556 3.80456 30.8234C3.81068 30.8228 3.81684 30.8223 3.823 30.8218C2.82948 30.7969 1.82678 30.6807 0.822771 30.4632L3.66309 21.8255Z" fill="white"/>
<path d="M84.5588 27.1144L84.1147 27.1978C81.8928 27.1978 80.5783 26.4571 80.1712 24.9757C79.5232 26.4571 78.2737 27.1978 76.4221 27.1978L75.978 27.1144L75.7734 24.6146L76.2179 24.5312C79.1832 24.5312 79.8461 21.3068 80.3727 19.8037L81.3655 20.6703C81.3282 20.874 81.2636 21.2212 81.171 21.712C81.0785 22.2027 81.0322 22.5499 81.0322 22.7535C81.0322 23.2536 81.2912 23.6748 81.8096 24.0174C82.328 24.3599 83.0965 24.5312 84.1147 24.5312L84.5588 24.6146V27.1144Z" fill="white"/>
<path d="M85.7888 24.5312V27.1978H84.1094V24.5312H85.7888Z" fill="white"/>
<path d="M88.0609 18.9106C89.5355 20.876 92.6523 24.5712 85.7805 24.5312L85.3359 24.6146V27.1144L85.7805 27.1978C90.4797 27.1978 91.6711 23.8714 91.062 21.6205C90.4432 20.4225 89.2712 19.6883 88.0609 18.9106Z" fill="white"/>
<path d="M109.195 24.9624C110.64 19.8989 104.24 18.091 101.428 17.4081L102.963 14.8419C107.258 15.6997 111.837 19.2027 110.031 25.2217L109.195 24.9624Z" fill="white"/>
<path d="M96.3674 26.8572C100.433 28.0119 105.364 26.0395 106.424 22.5715C106.921 20.9477 106.377 18.7628 104.293 18.1952C102.674 17.7542 100.774 18.9107 100.251 20.9174C99.688 23.0822 100.893 24.6452 102.372 25.4459C104.335 26.5084 106.658 26.752 109.299 27.6567L110.029 25.2221C106.029 23.8765 100.475 22.8997 101.027 20.9635C101.233 20.2433 102.354 19.7491 103.532 19.9324C104.829 20.1341 105.732 21.1185 105.841 21.8509C105.976 22.7665 104.179 23.7639 102.38 24.2282C99.704 24.9184 96.0845 24.5842 93.9504 22.3584C91.9708 20.2933 88.6562 16.4045 88.6562 16.4045L96.8403 11.3554L96.8459 8.42723L87.0998 14.3967L86.2246 17.1608C86.2246 17.1608 87.463 18.2623 90.5514 21.5393C92.3765 23.4758 94.1437 26.2256 96.3674 26.8572Z" fill="white"/>
<path d="M43.6843 21.0731C43.6843 20.2847 46.5126 18.9577 48.9677 17.9081V21.6913C46.4219 23.2279 43.6843 21.9868 43.6843 21.0731ZM76.2195 24.5313H52.975C51.1828 24.5313 51.0048 23.6491 51.0048 22.5607V17.0527C51.3355 16.9135 51.6333 16.786 51.8893 16.6713L51.9319 16.6523C51.9319 16.6523 51.0134 14.3681 51.0048 14.3726V12.6926L48.9677 14.4823V15.5024C43.921 18.4344 43.1939 20.0539 43.1973 21.6249C43.2059 25.6357 48.2433 26.1365 48.9677 22.5453V22.6083C48.9677 25.143 51.022 27.1978 53.5562 27.1978H76.4237L76.2195 24.5313Z" fill="white"/>
<path d="M78.6582 30.0173L80.2137 28.4619L81.7689 30.0173L80.2137 31.5728L78.6582 30.0173Z" fill="white"/>
</svg>
