<svg width="48" height="48" viewBox="0 0 48 48" fill="none" xmlns="http://www.w3.org/2000/svg">
<path d="M15.9555 4H16.1102C18.5852 4 20.8281 5.31485 22.0656 7.48047L23.9992 10.6516L25.8555 7.48047C27.093 5.31485 29.336 4 31.811 4H32.043C35.7555 4 38.8493 7.09375 38.8493 10.8063C38.8493 11.9664 38.5399 12.9719 38.0758 13.9H41.3243C42.6391 13.9 43.7993 15.0602 43.7993 16.375V21.325C43.7993 22.7172 42.6391 23.8 41.3243 23.8H6.67422C5.28203 23.8 4.19922 22.7172 4.19922 21.325V16.375C4.19922 15.0602 5.28203 13.9 6.67422 13.9H9.84532C9.38126 12.9719 9.14923 11.9664 9.14923 10.8063C9.14923 7.09375 12.1656 4 15.9555 4ZM18.8946 9.33673C18.2758 8.33126 17.2703 7.7125 16.1102 7.7125H15.9555C14.1766 7.7125 12.8617 9.10469 12.8617 10.8063C12.8617 12.5852 14.1766 13.9 15.9555 13.9H21.6016L18.8946 9.33673ZM32.043 7.7125H31.811C30.6508 7.7125 29.6453 8.33126 29.0266 9.33673L26.3196 13.9H32.043C33.7446 13.9 35.1368 12.5852 35.1368 10.8063C35.1368 9.10469 33.7446 7.7125 32.043 7.7125ZM6.67422 26.275H21.5242V43.6001H10.3867C8.29844 43.6001 6.67422 41.9758 6.67422 39.8875V26.275ZM26.4742 43.6001V26.275H41.3243V39.8875C41.3243 41.9758 39.6227 43.6001 37.6118 43.6001H26.4742Z" fill="#F68B1A"/>
</svg>
