<svg width="69" height="56" viewBox="0 0 69 56" fill="none" xmlns="http://www.w3.org/2000/svg">
<path opacity="0.8" d="M21.0925 2.33915C22.3648 0.814938 24.5901 0.513638 26.2219 1.6446C27.7753 2.72112 28.313 4.76866 27.489 6.46948L17.2494 27.6065C23.6939 27.6065 28.9181 32.8308 28.9181 39.2753V43.3793C28.9181 50.1546 23.4257 55.6471 16.6504 55.6471H13.432C6.01373 55.6471 -7.62939e-06 49.6334 -7.62939e-06 42.2151V35.1271C-7.62939e-06 30.2681 1.70564 25.5633 4.81947 21.8331L21.0925 2.33915ZM61.172 2.33915C62.4444 0.814938 64.6696 0.513638 66.3015 1.6446C67.8548 2.72112 68.3926 4.76866 67.5686 6.46949L57.329 27.6065C63.7735 27.6065 68.9977 32.8308 68.9977 39.2753V43.3793C68.9977 50.1546 63.5053 55.6471 56.73 55.6471H53.5116C46.0933 55.6471 40.0795 49.6334 40.0795 42.2151V35.1271C40.0795 30.2681 41.7852 25.5633 44.899 21.8331L61.172 2.33915Z" fill="#F1C739"/>
</svg>
