<svg width="99" height="38" viewBox="0 0 99 38" fill="none" xmlns="http://www.w3.org/2000/svg">
<path d="M98.2183 19.7649C98.3794 23.3875 98.2183 25.6797 97.4932 25.7759C96.7681 25.8721 95.8819 23.7402 94.8346 20.2298C94.3189 18.4826 93.7872 16.3827 93.2233 14.0265C92.9977 12.9525 92.756 11.8144 92.5143 10.6283C91.7433 12.444 90.8104 14.1875 89.7267 15.8378C86.3021 20.995 81.8822 25.4246 76.7235 28.8695C68.2946 34.5959 58.3757 37.7644 48.1712 37.9902C37.0552 38.1992 26.1339 35.071 16.8314 29.0138C8.29153 23.3716 2.6681 15.966 0.831215 9.89091C0.0416641 7.52802 -0.189926 5.01587 0.154442 2.54953C0.460594 0.818381 0.944 -0.031184 1.10513 0.000874297C1.60464 0.000874297 0.605629 3.83191 3.02258 9.20167C5.43954 14.5714 11.0791 21.0313 19.1356 25.824C27.8358 30.9132 37.83 33.3904 47.9134 32.957C52.7154 32.7265 57.4562 31.7865 61.9801 30.1679C71.2068 26.8459 79.263 20.9257 85.1668 13.1288C86.5041 11.3336 87.4548 9.92298 88.196 8.80094L86.1335 9.15357L79.4627 10.4359C75.644 11.1572 73.1787 11.5099 72.937 10.9328C72.6953 10.3558 74.7255 8.97724 78.3993 7.43844C80.566 6.56151 82.7827 5.81218 85.0378 5.19436C86.3269 4.84172 87.6804 4.5051 89.0822 4.21657C89.8234 4.05628 90.4679 3.92804 91.3058 3.78378C91.9872 3.59194 92.7026 3.55137 93.4015 3.66493C94.1003 3.7785 94.7656 4.04343 95.3502 4.44098C95.8897 4.85097 96.2983 5.40774 96.5264 6.04391C96.6368 6.36296 96.723 6.68981 96.7842 7.02169L96.897 7.77505L97.1871 9.73062C97.3643 11.029 97.5254 12.2793 97.6704 13.4654C97.9444 15.8378 98.1377 17.9857 98.2183 19.8771" fill="#00B551"/>
</svg>
