<svg width="37" height="32" viewBox="0 0 37 32" fill="none" xmlns="http://www.w3.org/2000/svg">
<path d="M18.3352 12.4635C21.7769 12.4635 24.567 9.67342 24.567 6.23173C24.567 2.79004 21.7769 0 18.3352 0C14.8936 0 12.1035 2.79004 12.1035 6.23173C12.1035 9.67342 14.8936 12.4635 18.3352 12.4635Z" fill="#00B34F"/>
<path d="M30.9416 12.4632C33.1173 12.4632 34.8812 10.6994 34.8812 8.52358C34.8812 6.3478 33.1173 4.58398 30.9416 4.58398C28.7658 4.58398 27.002 6.3478 27.002 8.52358C27.002 10.6994 28.7658 12.4632 30.9416 12.4632Z" fill="#00B34F"/>
<path d="M5.73062 12.4632C7.9064 12.4632 9.67022 10.6994 9.67022 8.52358C9.67022 6.3478 7.9064 4.58398 5.73062 4.58398C3.55483 4.58398 1.79102 6.3478 1.79102 8.52358C1.79102 10.6994 3.55483 12.4632 5.73062 12.4632Z" fill="#00B34F"/>
<path d="M9.6119 16.0009C8.06114 14.7303 6.6567 14.8985 4.86361 14.8985C2.18182 14.8985 0 17.0674 0 19.7327V27.5553C0 28.7129 0.944787 29.6541 2.10661 29.6541C7.12251 29.6541 6.51824 29.7448 6.51824 29.4378C6.51824 23.8947 5.86169 19.8296 9.6119 16.0009Z" fill="#00B34F"/>
<path d="M20.0412 14.928C16.9093 14.6668 14.1871 14.931 11.839 16.8692C7.90964 20.0166 8.66583 24.2543 8.66583 29.4386C8.66583 30.8103 9.78181 31.9471 11.1743 31.9471C26.2939 31.9471 26.8956 32.4348 27.7922 30.4493C28.0863 29.7779 28.0057 29.9913 28.0057 23.5679C28.0057 18.4661 23.5881 14.928 20.0412 14.928ZM31.8092 14.8994C30.0063 14.8994 28.6096 14.7329 27.0609 16.0017C30.7831 19.8021 30.1546 23.5898 30.1546 29.4386C30.1546 29.7477 29.6529 29.655 34.491 29.655C35.6943 29.655 36.6728 28.6801 36.6728 27.4817V19.7336C36.6728 17.0683 34.491 14.8994 31.8092 14.8994Z" fill="#00B34F"/>
</svg>
