<svg width="73" height="61" viewBox="0 0 73 61" fill="none" xmlns="http://www.w3.org/2000/svg">
<path d="M45.625 13.7708C44.8183 13.7708 44.0446 13.4504 43.4742 12.8799C42.9038 12.3095 42.5833 11.5359 42.5833 10.7292V6.16666H30.4167V10.7292C30.4167 11.5359 30.0962 12.3095 29.5258 12.8799C28.9554 13.4504 28.1817 13.7708 27.375 13.7708C26.5683 13.7708 25.7946 13.4504 25.2242 12.8799C24.6538 12.3095 24.3333 11.5359 24.3333 10.7292V6.16666C24.3333 2.8117 27.0617 0.0833282 30.4167 0.0833282H42.5833C45.9383 0.0833282 48.6667 2.8117 48.6667 6.16666V10.7292C48.6667 11.5359 48.3462 12.3095 47.7758 12.8799C47.2054 13.4504 46.4317 13.7708 45.625 13.7708ZM38.6596 40.7808C37.1974 41.2834 35.606 41.2619 34.1579 40.72L0 29.3442V52.5521C0 57.1754 3.74125 60.9167 8.36458 60.9167H64.6354C69.2588 60.9167 73 57.1754 73 52.5521V29.3442L38.6596 40.7808Z" fill="#00B551"/>
<path d="M73 17.5729V24.5383L37.23 36.4617C36.9867 36.5529 36.7433 36.5833 36.5 36.5833C36.2567 36.5833 36.0133 36.5529 35.77 36.4617L0 24.5383V17.5729C0 12.9496 3.74125 9.20833 8.36458 9.20833H64.6354C69.2588 9.20833 73 12.9496 73 17.5729Z" fill="#43D082"/>
</svg>
