<svg width="12" height="15" viewBox="0 0 12 15" fill="none" xmlns="http://www.w3.org/2000/svg">
<path d="M7.09174 4.22303C7.27785 4.12546 7.46942 4.03831 7.66513 3.96176L7.94809 3.84883C7.53601 5.40693 5.85782 7.58189 3.8291 7.97386C4.44082 6.39364 5.5735 5.01888 7.09174 4.22303ZM10.6547 7.9408C8.25453 8.00738 5.80123 10.4941 5.37679 13.1828C5.30349 13.0718 5.13877 12.8179 5.06898 12.7048C4.71722 12.1725 4.40472 11.6152 4.1449 11.0362C4.6747 10.7768 5.17319 10.4387 5.62648 10.0314C6.90958 8.8786 7.72871 7.2138 8.1067 5.51955C8.51394 3.69416 8.22376 1.46128 8.01237 0.617639C5.44595 1.5646 3.53677 4.97592 3.62541 8.07484L3.26376 8.18034L3.26375 8.18033C3.18747 8.20386 3.11079 8.22606 3.0335 8.24623C2.58532 8.36319 2.12787 8.41979 1.66977 8.42147L0.654297 11.5102C1.01325 11.588 1.37174 11.6295 1.72694 11.6384C1.72473 11.6386 1.72253 11.6388 1.72034 11.639C2.27694 11.6247 2.82328 11.5287 3.34784 11.3588C3.38482 11.7749 3.45048 12.1879 3.54814 12.5951C3.74349 13.4095 4.05541 14.1854 4.44779 14.9204H5.88039C6.35327 13.0844 7.52892 11.441 9.36196 10.7378C10.0102 10.4891 10.7007 10.386 11.3934 10.4143C11.3911 10.4142 10.6805 7.94185 10.6547 7.9408Z" fill="#18AD4E"/>
<path d="M8.0123 0.617476L8.01209 0.616676C8.012 0.616676 8.01189 0.616676 8.0118 0.616676C7.44766 0.782467 6.77463 1.09242 6.0075 1.72821C4.54463 2.94077 3.59247 4.71786 3.38014 6.60261C3.34511 6.91374 3.33146 7.22586 3.32445 7.53876C3.31978 7.74733 3.31576 7.95616 3.31218 8.16503C3.29604 8.17014 3.27986 8.17517 3.26367 8.18016L3.26369 8.18018L3.62534 8.07468C3.53669 4.97576 5.44587 1.56444 8.0123 0.617476Z" fill="#FDD227"/>
<path d="M7.94809 3.84861L7.66513 3.96154C6.94888 5.71393 5.54545 7.24689 3.8291 7.97363C5.85782 7.58166 7.536 5.4067 7.94809 3.84861Z" fill="#FDD227"/>
<path d="M5.24775 12.0297C5.17668 12.252 5.1176 12.4773 5.06934 12.7047C5.13912 12.8178 5.30384 13.0716 5.37714 13.1826C5.80159 10.4939 8.25489 8.00723 10.6551 7.94065C8.09447 7.83609 6.00419 9.66361 5.24775 12.0297Z" fill="#FDD227"/>
<path d="M1.67023 8.42146C1.57283 8.42182 1.47538 8.41976 1.378 8.41519L0.360352 11.5102C0.816492 11.609 1.27199 11.6505 1.72082 11.639C1.72301 11.6388 1.72521 11.6386 1.72741 11.6384C1.37214 11.6295 1.01359 11.588 0.654566 11.5102L1.67023 8.42146Z" fill="#FDD227"/>
</svg>
