<svg width="41" height="40" viewBox="0 0 41 40" fill="none" xmlns="http://www.w3.org/2000/svg">
<path d="M20.7188 0C9.67875 0 0.71875 8.96 0.71875 20C0.71875 31.04 9.67875 40 20.7188 40C31.7587 40 40.7188 31.04 40.7188 20C40.7188 8.96 31.7587 0 20.7188 0ZM20.7188 35.5C12.1788 35.5 5.21875 28.54 5.21875 20C5.21875 17.28 5.93875 14.62 7.27875 12.28C7.67875 11.56 8.59875 11.32 9.31875 11.72L21.4587 18.7C22.1787 19.12 22.4187 20.02 22.0187 20.74C21.5987 21.46 20.6988 21.7 19.9788 21.3L9.19875 15.12C8.55875 16.66 8.21875 18.32 8.21875 20C8.21875 26.9 13.8187 32.5 20.7188 32.5C27.6188 32.5 33.2188 26.9 33.2188 20C33.2188 13.1 27.6188 7.5 20.7188 7.5C17.9987 7.5 15.3988 8.36 13.2188 10C12.5587 10.5 11.6187 10.36 11.1187 9.7C10.6187 9.04 10.7587 8.1 11.4187 7.6C14.1187 5.58 17.3387 4.5 20.7188 4.5C29.2587 4.5 36.2188 11.46 36.2188 20C36.2188 28.54 29.2587 35.5 20.7188 35.5Z" fill="#00B34F"/>
</svg>
