<svg width="16" height="20" viewBox="0 0 16 20" fill="none" xmlns="http://www.w3.org/2000/svg">
<path d="M16 7C16 11.19 13.59 14 10 14C9.37323 14.0351 8.74595 13.9405 8.15746 13.7219C7.56897 13.5034 7.03194 13.1657 6.58 12.73L5.92 15.84C5.74631 16.5955 5.46689 17.3226 5.09 18L4.09 19.78C4.05935 19.8352 4.01436 19.881 3.95979 19.9127C3.90522 19.9444 3.8431 19.9607 3.78 19.96C3.74222 19.9598 3.7049 19.9517 3.67045 19.9362C3.636 19.9207 3.60519 19.8982 3.58 19.87C3.52949 19.8155 3.50099 19.7443 3.5 19.67L3.58 17.67C3.60151 17.213 3.65834 16.7583 3.75 16.31L5.18 9.7C5.05402 8.95002 4.99379 8.19046 5 7.43C5 6.86 5.09 4 6.79 4C6.97922 3.99211 7.16773 4.02766 7.34107 4.10393C7.51441 4.1802 7.66798 4.29517 7.79 4.44C7.95015 4.69701 8.05195 4.98603 8.08824 5.28668C8.12452 5.58732 8.0944 5.89227 8 6.18L7.24 9.73C7.27129 10.0606 7.36762 10.3818 7.52346 10.6751C7.67929 10.9683 7.89155 11.2279 8.14804 11.4388C8.40453 11.6498 8.70018 11.808 9.01801 11.9043C9.33583 12.0006 9.66956 12.0331 10 12C12.95 12 14 9.42 14 7C14 4.1 11.48 2 8 2C4.69 2 2 4.24 2 7C2.01537 8.06 2.42541 9.07618 3.15 9.85C3.20346 9.90857 3.24222 9.97902 3.26309 10.0555C3.28395 10.132 3.28632 10.2124 3.27 10.29L3 11.46C2.98366 11.5484 2.94329 11.6307 2.88332 11.6977C2.82335 11.7647 2.74609 11.814 2.66 11.84C2.57512 11.8663 2.48468 11.869 2.39837 11.8479C2.31206 11.8268 2.23312 11.7826 2.17 11.72C1.50226 11.1255 0.964758 10.3993 0.591306 9.58697C0.217854 8.77467 0.0165312 7.89388 0 7C0 3.14 3.59 0 8 0C12.41 0 16 3 16 7Z" fill="#2AAF8C"/>
</svg>
