<svg width="35" height="39" viewBox="0 0 35 39" fill="none" xmlns="http://www.w3.org/2000/svg">
<path fill-rule="evenodd" clip-rule="evenodd" d="M26.0592 13.2726L4.59638 1.03121C3.3399 0.310261 2.21163 0.409575 1.54492 1.13052L19.8573 19.5L26.0592 13.2726Z" fill="url(#paint0_linear_1242_4770)"/>
<path fill-rule="evenodd" clip-rule="evenodd" d="M1.54537 1.11201C1.12043 1.5718 0.875 2.27435 0.875 3.19393V35.8095C0.875 36.729 1.12043 37.4316 1.56002 37.873L1.67358 37.9723L19.8724 19.6985V19.2902L1.65893 1.0127L1.54537 1.11201Z" fill="url(#paint1_linear_1242_4770)"/>
<path fill-rule="evenodd" clip-rule="evenodd" d="M25.9274 25.8085L19.8574 19.7135V19.2868L25.9274 13.1919L26.0593 13.2728L33.2392 17.3704C35.2943 18.5328 35.2943 20.4529 33.2392 21.6299L26.0593 25.7276L25.9274 25.8085Z" fill="url(#paint2_linear_1242_4770)"/>
<path fill-rule="evenodd" clip-rule="evenodd" d="M26.0592 25.7274L19.8573 19.5L1.54492 37.8878C2.21529 38.6088 3.3399 38.6897 4.59638 37.9872L26.0592 25.7274Z" fill="url(#paint3_linear_1242_4770)"/>
<path opacity="0.25" fill-rule="evenodd" clip-rule="evenodd" d="M4.59683 1.24463L33.2395 17.5837C34.17 18.1097 34.6938 18.7975 34.7744 19.5001C34.7744 18.7313 34.2689 17.9588 33.2395 17.3703L4.59683 1.03129C2.54176 -0.14945 0.875 0.836336 0.875 3.19413V3.40747C0.875 1.046 2.54176 0.0786054 4.59683 1.24463Z" fill="white"/>
<defs>
<linearGradient id="paint0_linear_1242_4770" x1="-3.06634" y1="-9.73631" x2="7.4381" y2="7.88978" gradientUnits="userSpaceOnUse">
<stop stop-color="#32A071"/>
<stop offset="0.0685" stop-color="#2DA771"/>
<stop offset="0.4762" stop-color="#15CF74"/>
<stop offset="0.8009" stop-color="#06E775"/>
<stop offset="1" stop-color="#00F076"/>
</linearGradient>
<linearGradient id="paint1_linear_1242_4770" x1="18.24" y1="2.84204" x2="-10.9272" y2="10.5818" gradientUnits="userSpaceOnUse">
<stop stop-color="#00A0FF"/>
<stop offset="0.00657" stop-color="#00A1FF"/>
<stop offset="0.2601" stop-color="#00BEFF"/>
<stop offset="0.5122" stop-color="#00D2FF"/>
<stop offset="0.7604" stop-color="#00DFFF"/>
<stop offset="1" stop-color="#00E3FF"/>
</linearGradient>
<linearGradient id="paint2_linear_1242_4770" x1="35.9192" y1="19.5002" x2="0.375058" y2="19.5002" gradientUnits="userSpaceOnUse">
<stop stop-color="#FFE000"/>
<stop offset="0.4087" stop-color="#FFBD00"/>
<stop offset="0.7754" stop-color="#FFA500"/>
<stop offset="1" stop-color="#FF9C00"/>
</linearGradient>
<linearGradient id="paint3_linear_1242_4770" x1="22.6868" y1="22.8886" x2="-0.858248" y2="62.3544" gradientUnits="userSpaceOnUse">
<stop stop-color="#FF3A44"/>
<stop offset="1" stop-color="#C31162"/>
</linearGradient>
</defs>
</svg>
