<svg width="56" height="56" viewBox="0 0 56 56" fill="none" xmlns="http://www.w3.org/2000/svg">
<path d="M31.6279 15.274C31.5143 15.2745 31.4046 15.233 31.3199 15.1573C31.2466 15.0929 31.1954 15.007 31.1735 14.9119C31.1516 14.8168 31.16 14.7173 31.1976 14.6272L31.6997 13.4279L30.1345 14.3304C30.0402 14.3848 29.9298 14.4045 29.8224 14.3861C29.7151 14.3676 29.6176 14.3123 29.5468 14.2295C29.476 14.1467 29.4364 14.0418 29.4348 13.9329C29.4332 13.824 29.4698 13.718 29.5381 13.6332L30.4603 12.4927L28.6179 13.5557C28.5176 13.6123 28.3999 13.6297 28.2875 13.6048C28.1751 13.5798 28.076 13.5142 28.009 13.4205C27.9421 13.3268 27.9122 13.2117 27.925 13.0973C27.9378 12.9829 27.9924 12.8772 28.0784 12.8007L29.8667 11.2485L23.4724 14.9399C23.3695 15.0002 23.2474 15.0188 23.1312 14.992C23.015 14.9651 22.9134 14.8947 22.8475 14.7953C22.7815 14.6959 22.7562 14.575 22.7766 14.4575C22.797 14.34 22.8616 14.2347 22.9572 14.1633L28.6132 9.89334L23.5545 12.8137C23.4526 12.8719 23.3325 12.8895 23.2182 12.863C23.1038 12.8365 23.0037 12.768 22.9376 12.671C22.8716 12.574 22.8445 12.4556 22.8618 12.3396C22.8791 12.2235 22.9395 12.1182 23.0309 12.0447L27.1031 8.79947L23.9297 10.6307C23.8273 10.6904 23.706 10.7088 23.5904 10.6823C23.4749 10.6558 23.3738 10.5863 23.3076 10.4879C23.2414 10.3896 23.2152 10.2697 23.2342 10.1527C23.2532 10.0357 23.316 9.93025 23.4099 9.85787L24.892 8.70427L23.2708 9.6376C23.1685 9.69567 23.0481 9.71297 22.9336 9.68607C22.8191 9.65916 22.719 9.59001 22.6533 9.49247C22.5876 9.39493 22.5612 9.27618 22.5793 9.15998C22.5974 9.04377 22.6587 8.93868 22.7509 8.86574L24.3525 7.62067L22.3617 8.77334C22.2589 8.83227 22.1374 8.84985 22.0221 8.8225C21.9067 8.79515 21.8061 8.72493 21.7407 8.62609C21.6752 8.52725 21.6498 8.40721 21.6697 8.29033C21.6895 8.17346 21.7531 8.06851 21.8475 7.9968L23.1252 7.03454L21.5143 7.96787C21.4349 8.01375 21.3437 8.03521 21.2522 8.02958C21.1606 8.02395 21.0728 7.99148 20.9996 7.93621C20.9264 7.88095 20.8711 7.80535 20.8407 7.71885C20.8102 7.63236 20.8059 7.5388 20.8283 7.44987L21.0653 6.51094L20.8367 6.64254C20.73 6.69833 20.6059 6.71075 20.4903 6.67722C20.3747 6.64368 20.2766 6.56678 20.2163 6.46257C20.1561 6.35837 20.1385 6.23491 20.1671 6.11801C20.1957 6.0011 20.2684 5.89978 20.37 5.8352L21.56 5.1464C21.6394 5.10082 21.7304 5.0796 21.8218 5.08537C21.9132 5.09114 22.0008 5.12366 22.0738 5.17887C22.1468 5.23409 22.202 5.30956 22.2325 5.39589C22.2629 5.48222 22.2673 5.5756 22.2451 5.6644L22.008 6.60334L29.2703 2.408C29.3731 2.34907 29.4946 2.33149 29.6099 2.35884C29.7253 2.38619 29.8259 2.45641 29.8913 2.55525C29.9568 2.65409 29.9822 2.77413 29.9623 2.89101C29.9425 3.00788 29.8789 3.11283 29.7845 3.18454L28.5049 4.14867L29.7808 3.41227C29.8831 3.35421 30.0035 3.3369 30.118 3.36381C30.2325 3.39072 30.3326 3.45986 30.3983 3.5574C30.464 3.65494 30.4904 3.7737 30.4723 3.8899C30.4542 4.0061 30.3929 4.11119 30.3007 4.18414L28.7019 5.4264L30.3268 4.49307C30.4291 4.43501 30.5495 4.4177 30.664 4.44461C30.7785 4.47152 30.8786 4.54066 30.9443 4.6382C31.01 4.73575 31.0364 4.8545 31.0183 4.9707C31.0002 5.0869 30.9389 5.19199 30.8467 5.26494L29.3599 6.41574L32.0367 4.87107C32.1385 4.81325 32.2583 4.79583 32.3724 4.82225C32.4865 4.84868 32.5864 4.91702 32.6525 5.01372C32.7185 5.11041 32.7458 5.2284 32.7289 5.34427C32.712 5.46013 32.6521 5.56541 32.5612 5.6392L28.4881 8.88534L34.7004 5.29947C34.8033 5.24054 34.9247 5.22296 35.04 5.25031C35.1554 5.27765 35.256 5.34788 35.3215 5.44671C35.3869 5.54555 35.4123 5.6656 35.3925 5.78247C35.3726 5.89935 35.3091 6.0043 35.2147 6.076L29.5568 10.3479L33.5888 8.02014C33.6891 7.96361 33.8067 7.94615 33.9191 7.97112C34.0315 7.99609 34.1307 8.06172 34.1976 8.15539C34.2646 8.24907 34.2945 8.36418 34.2817 8.47859C34.2689 8.593 34.2142 8.69864 34.1283 8.7752L32.2821 10.3815C32.3671 10.3598 32.4563 10.3621 32.54 10.3882C32.6237 10.4142 32.6986 10.4629 32.7563 10.5289C32.8272 10.6119 32.8667 10.7171 32.8681 10.8263C32.8695 10.9354 32.8325 11.0415 32.7637 11.1263L31.8416 12.2687L32.4305 11.928C32.5151 11.8793 32.6128 11.8583 32.7099 11.868C32.807 11.8777 32.8987 11.9176 32.9719 11.9821C33.0452 12.0466 33.0964 12.1324 33.1183 12.2275C33.1402 12.3226 33.1318 12.4222 33.0941 12.5123L32.592 13.7116L32.7096 13.6444C32.7627 13.6106 32.8221 13.588 32.8842 13.5778C32.9463 13.5675 33.0098 13.57 33.071 13.585C33.1321 13.5999 33.1896 13.6271 33.2399 13.6649C33.2903 13.7026 33.3325 13.7502 33.364 13.8047C33.3955 13.8592 33.4156 13.9195 33.4232 13.982C33.4308 14.0444 33.4257 14.1078 33.4081 14.1683C33.3906 14.2287 33.361 14.285 33.3212 14.3337C33.2813 14.3824 33.232 14.4226 33.1763 14.4517L31.8612 15.2115C31.7903 15.2524 31.7098 15.274 31.6279 15.274Z" fill="#F2C32F"/>
<path d="M26.0521 4.17013C25.9646 4.17012 25.8788 4.14547 25.8046 4.099C25.7304 4.05254 25.6707 3.98613 25.6325 3.90738C25.5942 3.82862 25.5789 3.74069 25.5882 3.65363C25.5976 3.56657 25.6312 3.4839 25.6853 3.41506L26.8184 1.97213C26.7728 1.9351 26.7343 1.89022 26.7045 1.8396C26.6426 1.73241 26.6259 1.60504 26.6579 1.48549C26.6899 1.36594 26.7681 1.26402 26.8753 1.20213L27.958 0.576798C28.0518 0.52257 28.1616 0.502682 28.2685 0.520546C28.3753 0.538411 28.4727 0.592914 28.5438 0.674705C28.6148 0.756496 28.6552 0.860475 28.658 0.968803C28.6608 1.07713 28.6258 1.18305 28.5591 1.2684L27.9132 2.08973L28.8381 1.55586C28.8912 1.5221 28.9506 1.49943 29.0127 1.48921C29.0749 1.479 29.1384 1.48145 29.1995 1.49642C29.2606 1.5114 29.3181 1.53858 29.3685 1.57634C29.4188 1.6141 29.461 1.66166 29.4925 1.71615C29.524 1.77064 29.5442 1.83094 29.5517 1.89342C29.5593 1.9559 29.5542 2.01927 29.5367 2.07972C29.5191 2.14016 29.4896 2.19644 29.4497 2.24515C29.4099 2.29387 29.3606 2.33402 29.3048 2.3632L26.2855 4.10666C26.2148 4.14837 26.1342 4.17029 26.0521 4.17013ZM15.0435 21.882C14.9703 21.8819 14.8981 21.8645 14.8329 21.8313C14.7676 21.7982 14.7111 21.7501 14.6679 21.6911C14.6246 21.632 14.5959 21.5636 14.5839 21.4914C14.572 21.4192 14.5772 21.3452 14.5992 21.2753L15.0528 19.8333L13.2981 20.846C13.2007 20.9016 13.0866 20.9202 12.9766 20.8985C12.8666 20.8768 12.7681 20.8162 12.699 20.7279C12.63 20.6395 12.5952 20.5292 12.6008 20.4172C12.6064 20.3052 12.6522 20.199 12.7297 20.118L13.0097 19.8296L12.2127 20.2897C12.1127 20.3466 11.9952 20.3646 11.8828 20.3401C11.7703 20.3157 11.6709 20.2506 11.6035 20.1573C11.5362 20.064 11.5057 19.9492 11.5178 19.8348C11.53 19.7204 11.584 19.6145 11.6695 19.5375L11.7516 19.4637L7.78866 21.7513C7.68456 21.8095 7.56214 21.8256 7.44654 21.7964C7.33093 21.7671 7.23091 21.6947 7.16701 21.594C7.10311 21.4933 7.08018 21.372 7.10293 21.2549C7.12568 21.1379 7.19237 21.034 7.28933 20.9645L8.35706 20.2179L6.55013 21.2641C6.44557 21.3221 6.32277 21.3376 6.20705 21.3077C6.09133 21.2777 5.99153 21.2045 5.92821 21.1031C5.86489 21.0017 5.84289 20.8799 5.86674 20.7628C5.89059 20.6457 5.95847 20.5422 6.0564 20.4736L6.72 20.0293L6.62666 20.0835C6.52359 20.1421 6.40207 20.1592 6.28679 20.1315C6.17152 20.1037 6.07113 20.0331 6.00602 19.934C5.9409 19.8349 5.91595 19.7148 5.93623 19.598C5.95651 19.4811 6.0205 19.3764 6.1152 19.3051L9.93066 16.4761L6.94866 18.2C6.84807 18.2562 6.73024 18.2732 6.61787 18.2477C6.5055 18.2222 6.40653 18.156 6.34002 18.062C6.27351 17.9679 6.24416 17.8525 6.25762 17.7381C6.27108 17.6236 6.3264 17.5182 6.41293 17.4421L9.80186 14.5488L6.66306 16.3567C6.56132 16.4152 6.44125 16.4333 6.32677 16.4073C6.21229 16.3813 6.11183 16.3131 6.04541 16.2163C5.97899 16.1195 5.9515 16.0012 5.96841 15.885C5.98532 15.7688 6.0454 15.6633 6.13666 15.5895L8.274 13.8675L5.64573 15.3851C5.54957 15.4399 5.43704 15.4588 5.32824 15.4383C5.21944 15.4179 5.12146 15.3594 5.0518 15.2734C4.98214 15.1873 4.94533 15.0793 4.94795 14.9687C4.95058 14.858 4.99247 14.7518 5.06613 14.6692L6.16 13.4559L4.57893 14.3733C4.49667 14.4205 4.40199 14.4415 4.3075 14.4335C4.213 14.4255 4.12319 14.3889 4.05001 14.3286C3.97683 14.2683 3.92376 14.1872 3.89787 14.0959C3.87197 14.0047 3.87448 13.9078 3.90506 13.818L4.14493 13.1143L4.03666 13.1759C3.93001 13.2317 3.80593 13.2441 3.69033 13.2105C3.57473 13.177 3.47656 13.1001 3.41633 12.9959C3.35609 12.8917 3.33845 12.7682 3.36708 12.6513C3.39572 12.5344 3.46842 12.4331 3.57 12.3685L4.76 11.6797C4.84218 11.6327 4.93672 11.6118 5.03107 11.6198C5.12542 11.6278 5.21511 11.6643 5.28822 11.7244C5.36134 11.7846 5.41443 11.8655 5.44045 11.9566C5.46646 12.0476 5.46416 12.1444 5.43386 12.2341L5.194 12.9379L8.25066 11.172C8.34682 11.1171 8.45935 11.0983 8.56815 11.1187C8.67695 11.1392 8.77493 11.1977 8.84459 11.2837C8.91426 11.3697 8.95106 11.4777 8.94844 11.5884C8.94581 11.6991 8.90393 11.8052 8.83026 11.8879L7.7364 13.1012L13.0312 10.0455C13.1329 9.98795 13.2525 9.97067 13.3663 9.99706C13.4801 10.0234 13.5799 10.0916 13.6459 10.188C13.712 10.2844 13.7394 10.402 13.7229 10.5177C13.7064 10.6334 13.647 10.7386 13.5567 10.8127L11.4231 12.5309L13.7433 11.1916C13.8441 11.1343 13.9625 11.1166 14.0756 11.1418C14.1887 11.1671 14.2883 11.2335 14.3552 11.3282C14.422 11.4228 14.4512 11.5389 14.4371 11.654C14.4231 11.769 14.3667 11.8746 14.2791 11.9504L10.8883 14.8437L16.5293 11.5873C16.6324 11.5287 16.7539 11.5116 16.8692 11.5393C16.9845 11.5671 17.0849 11.6377 17.15 11.7368C17.2151 11.8358 17.24 11.956 17.2198 12.0728C17.1995 12.1897 17.1355 12.2944 17.0408 12.3657L13.2263 15.1928L18.3167 12.2547C18.4214 12.196 18.5447 12.1799 18.661 12.2097C18.7773 12.2396 18.8776 12.3132 18.941 12.4151C19.0045 12.517 19.0262 12.6394 19.0017 12.757C18.9772 12.8745 18.9084 12.9781 18.8095 13.0461L17.6895 13.7975C17.7928 13.7849 17.8973 13.8073 17.9865 13.861C18.0757 13.9146 18.1443 13.9966 18.1816 14.0938C18.2188 14.191 18.2224 14.2979 18.192 14.3974C18.1615 14.4969 18.0986 14.5834 18.0133 14.6431L15.6147 16.3119C15.7195 16.3387 15.8115 16.4019 15.8741 16.4901C15.9417 16.5838 15.9722 16.6992 15.9596 16.814C15.947 16.9289 15.8923 17.0349 15.806 17.1117L15.6016 17.2919C15.6833 17.2815 15.7663 17.2921 15.8428 17.3228C15.9192 17.3536 15.9866 17.4033 16.0384 17.4673C16.1074 17.5562 16.142 17.6669 16.1359 17.7793C16.1297 17.8916 16.0831 17.9979 16.0048 18.0787L15.7043 18.3885C15.786 18.3601 15.8741 18.355 15.9586 18.3737C16.0431 18.3924 16.1208 18.4343 16.1828 18.4946C16.2449 18.555 16.289 18.6314 16.3101 18.7153C16.3313 18.7993 16.3286 18.8875 16.3025 18.97L15.848 20.412L15.876 20.3971C15.9826 20.3413 16.1067 20.3288 16.2223 20.3624C16.3379 20.3959 16.4361 20.4728 16.4963 20.577C16.5566 20.6812 16.5742 20.8047 16.5456 20.9216C16.5169 21.0385 16.4442 21.1398 16.3427 21.2044L15.2768 21.8195C15.2059 21.8604 15.1254 21.882 15.0435 21.882ZM9.39773 10.4123C9.3094 10.4121 9.22292 10.387 9.14834 10.3396C9.07376 10.2923 9.01414 10.2248 8.97641 10.145C8.93868 10.0651 8.92438 9.97616 8.93519 9.8885C8.946 9.80083 8.98146 9.71804 9.03746 9.64973L9.9932 8.484C9.95629 8.45226 9.92477 8.41475 9.89986 8.37293C9.83798 8.26575 9.82121 8.13837 9.85324 8.01883C9.88527 7.89928 9.96348 7.79735 10.0707 7.73547L11.1533 7.11013C11.248 7.05532 11.3588 7.03548 11.4666 7.05407C11.5743 7.07266 11.6721 7.1285 11.7429 7.21185C11.8137 7.29519 11.853 7.40075 11.8539 7.51009C11.8548 7.61944 11.8173 7.72563 11.7479 7.81013L11.3745 8.26187L11.9504 7.9296C12.057 7.87381 12.1811 7.86138 12.2967 7.89492C12.4123 7.92845 12.5105 8.00536 12.5707 8.10956C12.631 8.21377 12.6486 8.33722 12.62 8.45413C12.5913 8.57104 12.5186 8.67236 12.4171 8.73693L9.6236 10.3497C9.55503 10.3899 9.47718 10.4114 9.39773 10.4123ZM40.8119 21.9016C40.7126 21.9016 40.6159 21.8699 40.5358 21.8111C40.4558 21.7523 40.3966 21.6696 40.3668 21.5749C40.3371 21.4801 40.3383 21.3784 40.3703 21.2844C40.4023 21.1904 40.4635 21.1091 40.5449 21.0523L42.4741 19.7111L40.1025 21.0803C39.9998 21.1387 39.8787 21.1561 39.7637 21.1287C39.6487 21.1014 39.5484 21.0314 39.483 20.9329C39.4176 20.8344 39.392 20.7148 39.4113 20.5982C39.4307 20.4816 39.4936 20.3767 39.5873 20.3047L44.9335 16.2568L40.4357 18.8533C40.3337 18.9107 40.2138 18.9277 40.0999 18.9008C39.986 18.874 39.8863 18.8053 39.8206 18.7084C39.7549 18.6115 39.7281 18.4934 39.7454 18.3776C39.7627 18.2619 39.8229 18.1568 39.914 18.0833L43.3403 15.3767L40.7792 16.856C40.6799 16.9114 40.5637 16.9286 40.4526 16.9043C40.3415 16.8801 40.243 16.8161 40.1758 16.7244C40.1085 16.6328 40.077 16.5196 40.0872 16.4064C40.0975 16.2931 40.1487 16.1875 40.2313 16.1093L43.4355 13.1945L39.3923 15.5279C39.291 15.5863 39.1714 15.6046 39.0573 15.5791C38.9431 15.5536 38.8427 15.4861 38.7759 15.3901C38.7092 15.2941 38.6809 15.1765 38.6967 15.0607C38.7124 14.9448 38.7712 14.839 38.8612 14.7644L41.6873 12.4245L38.234 14.4191C38.1529 14.4662 38.0594 14.4877 37.9658 14.4809C37.8723 14.474 37.7829 14.4392 37.7095 14.3808C37.636 14.3225 37.5819 14.2433 37.5541 14.1538C37.5263 14.0642 37.5261 13.9683 37.5536 13.8787L37.7981 13.0825L37.6395 13.1759C37.5328 13.2317 37.4087 13.2441 37.2931 13.2105C37.1775 13.177 37.0794 13.1001 37.0191 12.9959C36.9589 12.8917 36.9412 12.7682 36.9699 12.6513C36.9985 12.5344 37.0712 12.4331 37.1728 12.3685L38.3591 11.6844C38.4402 11.6376 38.5335 11.6163 38.6269 11.6233C38.7202 11.6303 38.8094 11.6652 38.8826 11.7234C38.9559 11.7817 39.01 11.8607 39.0378 11.9501C39.0656 12.0395 39.0658 12.1352 39.0385 12.2248L38.794 13.0209L46.0236 8.848C46.1248 8.7908 46.2436 8.77339 46.3569 8.79919C46.4702 8.825 46.5698 8.89215 46.6363 8.98751C46.7027 9.08287 46.7311 9.19958 46.716 9.31481C46.7009 9.43004 46.6434 9.53549 46.5547 9.61053L43.7248 11.9467L46.7199 10.2172C46.8192 10.1618 46.9353 10.1446 47.0465 10.1689C47.1576 10.1931 47.256 10.2571 47.3233 10.3488C47.3906 10.4404 47.4221 10.5536 47.4118 10.6668C47.4016 10.7801 47.3504 10.8857 47.2677 10.9639L44.0636 13.8787L48.4503 11.3456C48.5523 11.2871 48.6727 11.2693 48.7873 11.2958C48.9019 11.3223 49.0023 11.3911 49.0684 11.4884C49.1344 11.5858 49.1613 11.7044 49.1436 11.8207C49.1259 11.937 49.065 12.0423 48.9729 12.1156L45.5476 14.8223L50.9497 11.7031C51.0525 11.6446 51.1736 11.6273 51.2886 11.6546C51.4036 11.682 51.5039 11.752 51.5693 11.8504C51.6347 11.9489 51.6603 12.0685 51.6409 12.1851C51.6216 12.3017 51.5587 12.4066 51.4649 12.4787L46.1188 16.5265L51.6637 13.3252C51.7679 13.2654 51.8911 13.2481 52.0077 13.2769C52.1243 13.3056 52.2254 13.3782 52.2898 13.4796C52.3543 13.5809 52.3771 13.7032 52.3537 13.821C52.3303 13.9388 52.2623 14.043 52.164 14.112L49.1587 16.2008C49.2393 16.2147 49.3149 16.2495 49.3779 16.3019C49.4408 16.3542 49.4889 16.4222 49.5173 16.499C49.5456 16.5758 49.5533 16.6587 49.5395 16.7393C49.5257 16.82 49.4909 16.8957 49.4387 16.9587L48.1768 18.48L49.1372 17.9256C49.2249 17.8749 49.3267 17.8541 49.4273 17.8664C49.5278 17.8787 49.6216 17.9234 49.6946 17.9936C49.7675 18.0639 49.8156 18.1561 49.8315 18.2561C49.8475 18.3561 49.8305 18.4586 49.7831 18.5481L49.0868 19.8548L49.4405 19.6513C49.5472 19.5955 49.6713 19.5831 49.7869 19.6167C49.9025 19.6502 50.0006 19.7271 50.0609 19.8313C50.1211 19.9355 50.1387 20.059 50.1101 20.1759C50.0815 20.2928 50.0088 20.3941 49.9072 20.4587L48.1432 21.4769C48.0555 21.5272 47.9539 21.5477 47.8535 21.5352C47.7532 21.5228 47.6597 21.4781 47.5869 21.4079C47.5142 21.3377 47.4662 21.2458 47.4502 21.1459C47.4342 21.0461 47.4511 20.9438 47.4983 20.8544L48.1945 19.5477L46.3941 20.5893C46.2993 20.644 46.1883 20.6637 46.0805 20.6449C45.9727 20.626 45.8749 20.5699 45.8043 20.4862C45.7337 20.4026 45.6947 20.2968 45.6942 20.1874C45.6937 20.0779 45.7316 19.9718 45.8015 19.8875L47.0624 18.3652L41.0452 21.84C40.9742 21.8806 40.8937 21.9019 40.8119 21.9016Z" fill="#F2C32F"/>
<path d="M42.9427 10.5233C42.8547 10.5233 42.7685 10.4985 42.694 10.4516C42.6196 10.4048 42.5599 10.3378 42.5218 10.2585C42.4838 10.1792 42.4689 10.0907 42.479 10.0033C42.489 9.9159 42.5236 9.83312 42.5787 9.76452L43.6053 8.49332C43.5662 8.45863 43.5328 8.418 43.5064 8.37292C43.4445 8.26573 43.4277 8.13836 43.4598 8.01881C43.4918 7.89926 43.57 7.79734 43.6772 7.73545L44.7599 7.11012C44.8541 7.05565 44.9645 7.03586 45.0718 7.05416C45.1791 7.07246 45.2766 7.1277 45.3475 7.21032C45.4184 7.29295 45.4582 7.39776 45.4599 7.50661C45.4617 7.61546 45.4254 7.7215 45.3572 7.80638L44.8747 8.39998L45.5887 7.98838C45.6953 7.93259 45.8194 7.92017 45.935 7.9537C46.0506 7.98724 46.1488 8.06414 46.209 8.16835C46.2692 8.27256 46.2869 8.39601 46.2582 8.51291C46.2296 8.62982 46.1569 8.73114 46.0553 8.79572L43.176 10.4608C43.1052 10.5022 43.0246 10.5238 42.9427 10.5233Z" fill="#F2C32F"/>
<path d="M21.4844 55.5053C21.3835 55.5054 21.2853 55.4727 21.2045 55.4123C21.1237 55.3518 21.0647 55.2668 21.0363 55.1699C21.0079 55.0731 21.0117 54.9697 21.0471 54.8752C21.0824 54.7807 21.1474 54.7002 21.2324 54.6457L24.7305 52.4057L19.4768 55.44C19.372 55.4979 19.249 55.5132 19.1332 55.4829C19.0173 55.4526 18.9176 55.379 18.8546 55.2772C18.7915 55.1755 18.77 55.0534 18.7944 54.9362C18.8189 54.819 18.8874 54.7157 18.9859 54.6476L26.4208 49.728L16.5275 55.44C16.4227 55.4979 16.2996 55.5132 16.1838 55.4829C16.068 55.4526 15.9683 55.379 15.9052 55.2772C15.8422 55.1755 15.8206 55.0534 15.8451 54.9362C15.8695 54.819 15.9381 54.7157 16.0365 54.6476L23.5965 49.6403L13.6584 55.3765C13.554 55.4362 13.4306 55.4533 13.3139 55.4242C13.1972 55.3951 13.0963 55.3221 13.0321 55.2204C12.9679 55.1186 12.9455 54.9961 12.9695 54.8782C12.9935 54.7604 13.0621 54.6564 13.1609 54.5879L22.7416 47.9995L11.9467 54.2313C11.8415 54.2911 11.7173 54.3077 11.6001 54.2777C11.483 54.2477 11.3821 54.1733 11.3187 54.0703C11.2552 53.9673 11.2343 53.8438 11.2602 53.7256C11.2861 53.6075 11.3569 53.504 11.4576 53.4371L15.736 50.6464L11.4949 53.0945C11.3911 53.1537 11.2686 53.1709 11.1525 53.1424C11.0365 53.1139 10.9358 53.042 10.8712 52.9415C10.8065 52.841 10.7829 52.7195 10.8052 52.6021C10.8275 52.4848 10.894 52.3804 10.9909 52.3105L18.466 46.9905L11.4613 51.0337C11.3578 51.0941 11.2351 51.1124 11.1185 51.0847C11.002 51.0571 10.9005 50.9857 10.8351 50.8853C10.7697 50.7849 10.7455 50.6632 10.7674 50.5454C10.7892 50.4276 10.8556 50.3227 10.9527 50.2525L16.1597 46.4529L11.4613 49.1661C11.3599 49.2249 11.2401 49.2433 11.1257 49.2177C11.0114 49.1922 10.9108 49.1246 10.844 49.0282C10.7772 48.9319 10.7491 48.814 10.7652 48.698C10.7814 48.5819 10.8406 48.4761 10.9312 48.4017L15.1984 44.8747L11.4651 47.0325C11.3636 47.0905 11.244 47.1083 11.13 47.0823C11.016 47.0564 10.916 46.9886 10.8496 46.8924C10.7832 46.7962 10.7553 46.6786 10.7714 46.5628C10.7876 46.447 10.8466 46.3415 10.9368 46.2672L12.5235 44.9727L11.4679 45.5812C11.3717 45.6367 11.2589 45.656 11.1497 45.6358C11.0406 45.6156 10.9422 45.5571 10.8723 45.4709C10.8023 45.3847 10.7654 45.2763 10.7682 45.1653C10.771 45.0543 10.8132 44.948 10.8873 44.8653L12.0615 43.5587L11.4679 43.9003C11.3883 43.9461 11.297 43.9674 11.2054 43.9616C11.1138 43.9558 11.026 43.9231 10.9529 43.8676C10.8797 43.8121 10.8246 43.7363 10.7944 43.6497C10.7641 43.563 10.7601 43.4693 10.7828 43.3804L11.0395 42.3883C10.9522 42.3495 10.8794 42.2841 10.8313 42.2016C10.7694 42.0945 10.7525 41.9672 10.7843 41.8477C10.8162 41.7282 10.8942 41.6262 11.0012 41.5641L11.4679 41.2944C11.5474 41.2482 11.6389 41.2266 11.7307 41.2322C11.8226 41.2379 11.9107 41.2706 11.984 41.3261C12.0569 41.3823 12.1117 41.4584 12.1419 41.5453C12.1721 41.6322 12.1762 41.726 12.1539 41.8152L11.9672 42.5395L14.1288 41.2916C14.225 41.2361 14.3378 41.2168 14.4469 41.237C14.5561 41.2572 14.6545 41.3157 14.7244 41.4019C14.7943 41.4881 14.8312 41.5965 14.8285 41.7075C14.8257 41.8185 14.7835 41.9248 14.7093 42.0075L13.5352 43.3141L17.0483 41.286C17.1498 41.228 17.2693 41.2103 17.3833 41.2362C17.4973 41.2622 17.5974 41.3299 17.6638 41.4261C17.7302 41.5223 17.7581 41.6399 17.7419 41.7557C17.7257 41.8715 17.6667 41.977 17.5765 42.0513L15.9899 43.3459L19.5627 41.2832C19.6641 41.2245 19.7839 41.206 19.8983 41.2316C20.0126 41.2571 20.1132 41.3248 20.18 41.4211C20.2468 41.5174 20.2749 41.6353 20.2588 41.7514C20.2426 41.8674 20.1834 41.9732 20.0928 42.0476L15.8247 45.5756L23.2643 41.2823C23.3676 41.224 23.4892 41.2072 23.6044 41.2353C23.7196 41.2635 23.8198 41.3345 23.8846 41.4338C23.9493 41.5332 23.9738 41.6535 23.9531 41.7703C23.9324 41.887 23.868 41.9915 23.7729 42.0625L18.5668 45.8612L26.5001 41.2795C26.6037 41.2222 26.7252 41.2065 26.84 41.2354C26.9547 41.2643 27.0542 41.3358 27.1183 41.4353C27.1823 41.5349 27.2062 41.655 27.185 41.7715C27.1638 41.8879 27.0991 41.992 27.0041 42.0625L19.5281 47.3825L30.1093 41.2739C30.2144 41.216 30.3377 41.2008 30.4536 41.2314C30.5695 41.2621 30.6693 41.3361 30.732 41.4383C30.7948 41.5405 30.8159 41.6629 30.7908 41.7802C30.7658 41.8974 30.6965 42.0005 30.5975 42.0681L26.334 44.8495L32.5323 41.2711C32.6365 41.2122 32.7594 41.1957 32.8755 41.2248C32.9916 41.254 33.0921 41.3267 33.1561 41.4279C33.2201 41.5291 33.2428 41.651 33.2194 41.7684C33.1961 41.8858 33.1285 41.9898 33.0307 42.0588L23.4416 48.6509L36.2283 41.2673C36.3332 41.2077 36.4571 41.191 36.574 41.2207C36.691 41.2504 36.7918 41.3243 36.8555 41.4269C36.9191 41.5294 36.9406 41.6526 36.9153 41.7706C36.8901 41.8886 36.8201 41.9922 36.7201 42.0597L29.1601 47.068L39.2187 41.2645C39.3233 41.2028 39.448 41.1848 39.5658 41.2145C39.6836 41.2442 39.7849 41.3192 39.8477 41.4232C39.9117 41.5262 39.933 41.65 39.9072 41.7685C39.8814 41.887 39.8106 41.9907 39.7096 42.0579L32.2728 46.9775L42.1727 41.2627C42.2779 41.2063 42.4006 41.1925 42.5157 41.2239C42.6309 41.2553 42.7296 41.3296 42.7916 41.4315C42.8536 41.5335 42.8742 41.6553 42.8492 41.7719C42.8242 41.8886 42.7554 41.9913 42.6571 42.0588L39.1664 44.2904L44.4164 41.2599C44.5219 41.2018 44.6458 41.1868 44.7622 41.218C44.8785 41.2493 44.9783 41.3242 45.0406 41.4273C45.1029 41.5304 45.123 41.6536 45.0966 41.7711C45.0702 41.8886 44.9994 41.9914 44.8989 42.0579L43.3188 43.0575L44.5387 42.3537C44.6428 42.294 44.766 42.2766 44.8827 42.3054C44.9993 42.3341 45.1003 42.4067 45.1648 42.5081C45.2292 42.6094 45.2521 42.7317 45.2286 42.8495C45.2052 42.9673 45.1373 43.0716 45.0389 43.1405L36.3533 49.2072L44.5387 44.4817C44.642 44.4234 44.7636 44.4067 44.8788 44.4348C44.994 44.463 45.0942 44.5339 45.159 44.6333C45.2237 44.7326 45.2482 44.8529 45.2275 44.9697C45.2068 45.0865 45.1424 45.191 45.0473 45.262L38.1631 50.2908L44.5387 46.6107C44.6423 46.5534 44.7637 46.5377 44.8785 46.5666C44.9933 46.5955 45.0928 46.667 45.1568 46.7665C45.2209 46.8661 45.2447 46.9862 45.2235 47.1027C45.2023 47.2191 45.1377 47.3232 45.0427 47.3937L41.8133 49.6851L44.5387 48.1124C44.6404 48.0549 44.76 48.0376 44.8738 48.064C44.9876 48.0904 45.0874 48.1585 45.1534 48.2549C45.2194 48.3513 45.2469 48.469 45.2304 48.5846C45.2138 48.7003 45.1545 48.8056 45.0641 48.8796L41.6817 51.5975L44.5387 49.9492C44.6363 49.8936 44.7506 49.875 44.8608 49.8969C44.971 49.9188 45.0695 49.9797 45.1384 50.0685C45.2073 50.1572 45.2418 50.2678 45.2357 50.38C45.2296 50.4921 45.1833 50.5983 45.1052 50.6791L42.9007 52.9293L44.5303 51.9867C44.6271 51.9312 44.7406 51.9123 44.8502 51.9333C44.9597 51.9543 45.0582 52.0139 45.1276 52.1013C45.197 52.1887 45.2328 52.298 45.2285 52.4095C45.2243 52.521 45.1802 52.6273 45.1043 52.7091L44.3912 53.4744C44.4738 53.5055 44.5458 53.5594 44.599 53.6299C44.6521 53.7003 44.6842 53.7843 44.6916 53.8723C44.6989 53.9602 44.6811 54.0484 44.6404 54.1267C44.5996 54.2049 44.5375 54.27 44.4612 54.3144L42.5497 55.4213C42.4529 55.4768 42.3394 55.4957 42.2298 55.4747C42.1202 55.4537 42.0218 55.3941 41.9524 55.3067C41.883 55.2193 41.8472 55.11 41.8515 54.9985C41.8557 54.887 41.8998 54.7807 41.9757 54.6989L42.2931 54.3573L40.4133 55.44C40.3157 55.4963 40.2011 55.5154 40.0905 55.4937C39.9799 55.4721 39.8809 55.4112 39.8117 55.3222C39.7426 55.2333 39.7079 55.1223 39.7142 55.0098C39.7205 54.8973 39.7672 54.7908 39.8459 54.7101L42.0513 52.4599L36.8881 55.44C36.7864 55.4975 36.6668 55.5148 36.553 55.4884C36.4392 55.462 36.3394 55.3939 36.2734 55.2975C36.2074 55.2011 36.1799 55.0834 36.1964 54.9678C36.213 54.8521 36.2723 54.7468 36.3627 54.6728L39.7441 51.9559L33.7073 55.44C33.6035 55.4992 33.481 55.5163 33.3649 55.4879C33.2489 55.4594 33.1482 55.3875 33.0836 55.287C33.0189 55.1865 32.9953 55.065 33.0176 54.9476C33.0399 54.8302 33.1064 54.7258 33.2033 54.656L36.4317 52.36L31.0996 55.44C30.9963 55.4983 30.8747 55.5151 30.7595 55.4869C30.6443 55.4588 30.5441 55.3878 30.4793 55.2884C30.4145 55.1891 30.39 55.0688 30.4108 54.952C30.4315 54.8352 30.4959 54.7307 30.5909 54.6597L37.4761 49.6309L27.4129 55.44C27.309 55.4976 27.187 55.5133 27.0718 55.484C26.9567 55.4547 26.857 55.3826 26.7932 55.2823C26.7294 55.1821 26.7062 55.0613 26.7284 54.9446C26.7506 54.8278 26.8165 54.724 26.9127 54.6541L35.5983 48.5875L23.7328 55.44C23.6271 55.5004 23.5021 55.5171 23.3842 55.4866C23.2664 55.4561 23.1652 55.3807 23.1021 55.2766C23.0391 55.1725 23.0192 55.0479 23.0467 54.9294C23.0742 54.8108 23.1469 54.7077 23.2493 54.642L24.8173 53.6508L21.7177 55.44C21.6471 55.4819 21.5666 55.5045 21.4844 55.5053Z" fill="#A3584A"/>
<path d="M23.4267 43.372C23.3255 43.3719 23.2272 43.3389 23.1464 43.2781C23.0656 43.2172 23.0068 43.1317 22.9788 43.0346C22.9508 42.9374 22.9551 42.8337 22.9911 42.7392C23.0271 42.6447 23.0928 42.5645 23.1784 42.5105L24.4851 41.6845L21.6757 43.3067C21.5709 43.3674 21.4466 43.385 21.329 43.3558C21.2115 43.3265 21.1099 43.2527 21.0458 43.1499C20.9817 43.0471 20.96 42.9234 20.9854 42.805C21.0109 42.6865 21.0814 42.5826 21.182 42.5152L30.2783 36.4299L18.3671 43.3067C18.2616 43.3656 18.1374 43.3814 18.0205 43.3506C17.9037 43.3198 17.8033 43.2449 17.7406 43.1417C17.6778 43.0384 17.6576 42.9149 17.6841 42.797C17.7106 42.6791 17.7818 42.5761 17.8827 42.5096L21.8316 39.9896L16.0897 43.3067C15.9845 43.363 15.8618 43.3769 15.7467 43.3455C15.6315 43.3141 15.5328 43.2398 15.4708 43.1378C15.4088 43.0359 15.3882 42.9141 15.4132 42.7974C15.4382 42.6807 15.507 42.5781 15.6053 42.5105L20.4755 39.3867L13.7461 43.2712C13.6408 43.3283 13.5175 43.3427 13.4018 43.3114C13.2861 43.28 13.1869 43.2054 13.1248 43.1029C13.0626 43.0005 13.0423 42.878 13.0679 42.761C13.0936 42.6439 13.1633 42.5412 13.2627 42.4741L16.1093 40.6691L12.3956 42.8157C12.2905 42.8755 12.1662 42.8921 12.0491 42.8621C11.9319 42.8321 11.831 42.7577 11.7676 42.6547C11.7042 42.5517 11.6832 42.4282 11.7091 42.31C11.7351 42.1919 11.8058 42.0884 11.9065 42.0215L18.6779 37.5825L11.2868 41.8488C11.1814 41.9088 11.0568 41.9254 10.9394 41.8951C10.8219 41.8648 10.7209 41.79 10.6577 41.6865C10.5945 41.583 10.574 41.4589 10.6007 41.3406C10.6274 41.2223 10.699 41.119 10.8005 41.0527L14.1605 38.8901L10.7576 40.8501C10.6533 40.909 10.5305 40.9255 10.4144 40.8964C10.2982 40.8672 10.1978 40.7945 10.1338 40.6933C10.0698 40.5921 10.0471 40.4702 10.0704 40.3528C10.0938 40.2354 10.1614 40.1314 10.2592 40.0624L17.2825 35.2249L10.528 39.1253C10.4233 39.184 10.3 39.2001 10.1837 39.1703C10.0674 39.1404 9.96711 39.0668 9.90365 38.9649C9.84019 38.863 9.81846 38.7406 9.84296 38.623C9.86746 38.5055 9.93631 38.4019 10.0352 38.3339L12.9089 36.4103L10.528 37.7841C10.4255 37.8418 10.305 37.8587 10.1907 37.8313C10.0763 37.804 9.97646 37.7345 9.91112 37.6367C9.84578 37.539 9.81976 37.4201 9.83827 37.304C9.85678 37.1879 9.91844 37.083 10.0109 37.0104L15.3365 32.9233L10.528 35.6991C10.4243 35.7592 10.3014 35.7771 10.1849 35.7491C10.0683 35.7211 9.96699 35.6493 9.90194 35.5486C9.83689 35.4479 9.81308 35.326 9.83546 35.2082C9.85784 35.0905 9.92468 34.9858 10.0221 34.916L11.2737 34.0153L10.5271 34.4456C10.4259 34.5028 10.307 34.5202 10.1937 34.4944C10.0804 34.4686 9.98082 34.4015 9.91441 34.3061C9.84799 34.2107 9.81955 34.094 9.83464 33.9788C9.84973 33.8636 9.90727 33.7581 9.996 33.6831L11.8972 32.1067L10.528 32.8963C10.436 32.9492 10.3287 32.9691 10.2238 32.9529C10.119 32.9366 10.0228 32.8851 9.9511 32.8068C9.87945 32.7285 9.83662 32.6281 9.82968 32.5222C9.82274 32.4163 9.8521 32.3112 9.91293 32.2243L11.1608 30.4444L11.0731 30.4948C10.9664 30.5506 10.8423 30.563 10.7267 30.5295C10.6111 30.4959 10.513 30.419 10.4527 30.3148C10.3925 30.2106 10.3748 30.0872 10.4035 29.9703C10.4321 29.8534 10.5048 29.752 10.6064 29.6875L12.5197 28.5824C12.6117 28.5295 12.719 28.5095 12.8239 28.5258C12.9288 28.542 13.025 28.5936 13.0966 28.6719C13.1683 28.7501 13.2111 28.8505 13.218 28.9564C13.225 29.0623 13.1956 29.1674 13.1348 29.2544L11.8869 31.0352L16.1719 28.5619C16.273 28.5047 16.3919 28.4873 16.5052 28.5131C16.6185 28.5389 16.7181 28.606 16.7845 28.7014C16.8509 28.7967 16.8794 28.9135 16.8643 29.0287C16.8492 29.1439 16.7917 29.2494 16.7029 29.3244L14.8036 30.9036L18.8617 28.56C18.9654 28.4999 19.0883 28.482 19.2049 28.51C19.3214 28.538 19.4227 28.6098 19.4878 28.7105C19.5528 28.8112 19.5766 28.9331 19.5543 29.0508C19.5319 29.1686 19.465 29.2732 19.3676 29.3431L18.1151 30.2437L21.0327 28.5637C21.1352 28.5049 21.2562 28.4871 21.3713 28.5141C21.4864 28.541 21.587 28.6106 21.6528 28.7088C21.7185 28.8071 21.7446 28.9266 21.7256 29.0433C21.7067 29.16 21.6441 29.2651 21.5507 29.3375L16.2307 33.4236L24.64 28.56C24.7446 28.5021 24.8674 28.4865 24.9831 28.5165C25.0988 28.5464 25.1986 28.6196 25.2619 28.721C25.3252 28.8224 25.3472 28.9442 25.3234 29.0613C25.2995 29.1785 25.2317 29.282 25.1337 29.3505L22.2591 31.2751L26.9631 28.56C27.0672 28.5026 27.1894 28.4872 27.3046 28.5168C27.4198 28.5465 27.5193 28.619 27.5828 28.7196C27.6463 28.8201 27.669 28.9412 27.6463 29.0579C27.6236 29.1747 27.5571 29.2783 27.4605 29.3477L20.44 34.1815L30.1849 28.56C30.29 28.5044 30.4123 28.4909 30.5269 28.5224C30.6415 28.5538 30.7398 28.6278 30.8017 28.7293C30.8636 28.8307 30.8845 28.952 30.8601 29.0683C30.8357 29.1846 30.7678 29.2872 30.6703 29.3552L27.3103 31.5233L32.4436 28.56C32.5485 28.5029 32.6712 28.4882 32.7866 28.5189C32.902 28.5496 33.0012 28.6234 33.0639 28.725C33.1266 28.8267 33.1479 28.9484 33.1235 29.0653C33.099 29.1822 33.0308 29.2853 32.9327 29.3533L26.1632 33.7867L35.2259 28.5553C35.3312 28.4982 35.4545 28.4839 35.5702 28.5152C35.6859 28.5465 35.7851 28.6211 35.8472 28.7236C35.9094 28.8261 35.9297 28.9485 35.904 29.0656C35.8784 29.1826 35.8087 29.2853 35.7093 29.3524L32.8533 31.1733L37.3763 28.56C37.4816 28.5021 37.6051 28.487 37.7212 28.518C37.8374 28.5489 37.9371 28.6234 37.9996 28.726C38.0622 28.8286 38.0827 28.9514 38.057 29.0688C38.0313 29.1861 37.9613 29.2891 37.8616 29.3561L32.9952 32.4763L39.7796 28.5563C39.8851 28.4973 40.0093 28.4816 40.1261 28.5123C40.243 28.5431 40.3433 28.618 40.4061 28.7213C40.4688 28.8245 40.4891 28.9481 40.4626 29.066C40.4361 29.1839 40.3649 29.2869 40.264 29.3533L36.3076 31.8733L42.0532 28.56C42.1579 28.5013 42.2812 28.4852 42.3975 28.5151C42.5138 28.545 42.6141 28.6185 42.6775 28.7204C42.741 28.8223 42.7627 28.9448 42.7382 29.0623C42.7137 29.1798 42.6449 29.2834 42.546 29.3515L33.4544 35.4331L44.3744 29.1265C44.4801 29.0673 44.6048 29.0515 44.7219 29.0825C44.8391 29.1135 44.9396 29.1889 45.0022 29.2927C45.0648 29.3965 45.0845 29.5206 45.0572 29.6387C45.0299 29.7568 44.9578 29.8596 44.856 29.9255L43.5493 30.7515L45.0585 29.8816C45.1629 29.8236 45.2855 29.8077 45.4011 29.8374C45.5168 29.867 45.6167 29.9398 45.6803 30.0408C45.7439 30.1418 45.7663 30.2634 45.743 30.3805C45.7198 30.4976 45.6525 30.6013 45.5551 30.6703L37.4976 36.148L45.472 31.5467C45.5771 31.4896 45.7001 31.4751 45.8156 31.5061C45.9312 31.5371 46.0303 31.6113 46.0927 31.7134C46.1551 31.8154 46.176 31.9375 46.151 32.0545C46.1259 32.1714 46.057 32.2743 45.9583 32.3419L44.24 33.4497L45.4683 32.7413C45.5723 32.6805 45.6959 32.6624 45.8131 32.6906C45.9303 32.7189 46.032 32.7914 46.0969 32.893C46.1618 32.9946 46.1849 33.1174 46.1613 33.2356C46.1377 33.3538 46.0693 33.4583 45.9704 33.5272L40.6084 37.3007L45.4683 34.4951C45.5726 34.4344 45.6964 34.4164 45.8136 34.4451C45.9309 34.4737 46.0325 34.5466 46.0971 34.6486C46.1618 34.7505 46.1844 34.8735 46.1602 34.9918C46.1361 35.1101 46.067 35.2144 45.9676 35.2828L43.6921 36.8592L45.4655 35.8325C45.5674 35.7754 45.687 35.7586 45.8007 35.7855C45.9144 35.8123 46.0139 35.8807 46.0795 35.9774C46.1452 36.074 46.1722 36.1917 46.1553 36.3073C46.1384 36.4228 46.0787 36.5279 45.9881 36.6016L42.56 39.3297L45.4729 37.6497C45.5745 37.5925 45.6939 37.5754 45.8074 37.6017C45.921 37.628 46.0206 37.6959 46.0867 37.7921C46.1527 37.8882 46.1803 38.0055 46.1642 38.121C46.148 38.2365 46.0892 38.3417 45.9993 38.416L44.6227 39.536L45.4627 39.0525C45.5589 38.9971 45.6718 38.9778 45.781 38.9981C45.8903 39.0184 45.9887 39.0771 46.0585 39.1635C46.1284 39.2499 46.1651 39.3583 46.1621 39.4694C46.1591 39.5805 46.1166 39.6868 46.0423 39.7693L44.8383 41.1049C44.9423 41.1015 45.0445 41.133 45.1286 41.1943C45.2127 41.2556 45.2739 41.3433 45.3024 41.4434C45.3309 41.5435 45.3252 41.6503 45.2861 41.7467C45.247 41.8432 45.1767 41.9238 45.0865 41.9757L42.8699 43.2553C42.7736 43.3108 42.6607 43.3301 42.5515 43.3098C42.4423 43.2894 42.3439 43.2308 42.274 43.1444C42.2042 43.058 42.1674 42.9495 42.1704 42.8385C42.1734 42.7274 42.2159 42.6211 42.2903 42.5385L43.3748 41.3355L39.9392 43.3067C39.8376 43.3639 39.7183 43.381 39.6047 43.3547C39.4911 43.3284 39.3915 43.2605 39.3255 43.1643C39.2594 43.0682 39.2318 42.9509 39.2479 42.8354C39.2641 42.7199 39.3229 42.6147 39.4128 42.5404L40.7867 41.4288L37.5312 43.3067C37.4293 43.3648 37.3092 43.3824 37.1948 43.3559C37.0805 43.3295 36.9803 43.2609 36.9143 43.1639C36.8482 43.0669 36.8212 42.9486 36.8385 42.8325C36.8557 42.7164 36.9161 42.6111 37.0076 42.5376L40.4423 39.8141L34.3924 43.3067C34.2882 43.3665 34.165 43.3838 34.0484 43.355C33.9318 43.3263 33.8308 43.2537 33.7663 43.1523C33.7019 43.051 33.679 42.9287 33.7024 42.8109C33.7259 42.6931 33.7938 42.5888 33.8921 42.5199L36.1676 40.9425L32.0712 43.3067C31.9673 43.365 31.8451 43.3814 31.7295 43.3525C31.6139 43.3237 31.5137 43.2517 31.4495 43.1513C31.3853 43.0509 31.3619 42.9298 31.3842 42.8127C31.4064 42.6957 31.4725 42.5916 31.5691 42.5217L36.9348 38.7455L29.0323 43.3067C28.9271 43.3637 28.8041 43.3782 28.6886 43.3472C28.5731 43.3162 28.4739 43.242 28.4115 43.14C28.3491 43.0379 28.3283 42.9158 28.3533 42.7989C28.3783 42.6819 28.4473 42.579 28.546 42.5115L30.2493 41.4073L26.9584 43.3067C26.8541 43.3633 26.7322 43.3781 26.6174 43.3481C26.5027 43.318 26.4036 43.2454 26.3405 43.1449C26.2774 43.0444 26.2549 42.9237 26.2776 42.8073C26.3003 42.6908 26.3665 42.5874 26.4628 42.518L34.5221 37.0393L23.6637 43.3067C23.592 43.3492 23.5101 43.3718 23.4267 43.372Z" fill="#A55B4C"/>
<path d="M29.0631 47.1053C28.9696 47.1056 28.8782 47.0777 28.8008 47.0254C28.7233 46.9731 28.6634 46.8987 28.6287 46.8119C28.594 46.7251 28.5861 46.6299 28.6062 46.5386C28.6262 46.4473 28.6732 46.3641 28.7411 46.2999L29.4775 45.5999L26.978 47.04C26.8786 47.0995 26.7605 47.1199 26.6469 47.0972C26.5333 47.0745 26.4322 47.0103 26.3632 46.9172C26.2943 46.824 26.2625 46.7085 26.274 46.5932C26.2855 46.4779 26.3395 46.371 26.4255 46.2933L29.3599 43.5456L24.1733 46.5416C24.0706 46.5989 23.9501 46.6153 23.8358 46.5876C23.7216 46.5599 23.622 46.49 23.557 46.392C23.492 46.294 23.4664 46.1751 23.4853 46.059C23.5043 45.9429 23.5663 45.8383 23.6591 45.766L25.9177 44.0571L23.6133 45.3917C23.5125 45.4502 23.3934 45.4687 23.2795 45.4438C23.1656 45.4188 23.0652 45.3521 22.998 45.2569C22.9309 45.1616 22.9018 45.0446 22.9165 44.929C22.9312 44.8133 22.9887 44.7074 23.0776 44.632L25.9467 42.1867L23.5947 43.5419C23.4974 43.5974 23.3833 43.6161 23.2734 43.5945C23.1635 43.5729 23.065 43.5125 22.9959 43.4243C22.9268 43.3361 22.8918 43.226 22.8972 43.1141C22.9026 43.0022 22.9481 42.8959 23.0253 42.8148L24.4981 41.2851L23.5947 41.8068C23.4998 41.8615 23.3887 41.881 23.2808 41.8621C23.173 41.8431 23.0752 41.7868 23.0047 41.703C22.9342 41.6193 22.8953 41.5133 22.895 41.4038C22.8947 41.2943 22.9329 41.1882 23.0029 41.104L23.4593 40.5571C23.3601 40.5192 23.2773 40.4479 23.2251 40.3555C23.1634 40.2485 23.1467 40.1214 23.1785 40.0021C23.2103 39.8828 23.2882 39.781 23.3949 39.7189L24.9405 38.8267C25.0354 38.7726 25.1463 38.7534 25.2538 38.7726C25.3613 38.7918 25.4587 38.8481 25.5289 38.9318C25.5992 39.0154 25.638 39.121 25.6384 39.2302C25.6388 39.3394 25.6009 39.4453 25.5313 39.5295L25.4007 39.6863L26.894 38.8248C26.9913 38.7686 27.1056 38.7494 27.216 38.7707C27.3263 38.792 27.4253 38.8525 27.4946 38.9409C27.564 39.0293 27.5991 39.1398 27.5935 39.2521C27.5879 39.3643 27.542 39.4708 27.4643 39.5519L25.9905 41.0825L29.9012 38.8248C30.0019 38.7675 30.1204 38.7498 30.2335 38.7751C30.3465 38.8003 30.4462 38.8667 30.513 38.9614C30.5799 39.056 30.6091 39.1722 30.595 39.2872C30.581 39.4022 30.5246 39.5078 30.4369 39.5836L27.5669 42.0289L31.9732 39.4865C32.0759 39.4281 32.197 39.4108 32.312 39.4381C32.427 39.4655 32.5274 39.5354 32.5928 39.6339C32.6582 39.7324 32.6838 39.852 32.6644 39.9686C32.645 40.0852 32.5821 40.1901 32.4884 40.2621L30.2307 41.9692L32.4053 40.7139C32.5048 40.6544 32.6228 40.634 32.7364 40.6567C32.85 40.6794 32.9512 40.7436 33.0201 40.8367C33.089 40.9299 33.1208 41.0453 33.1093 41.1606C33.0978 41.2759 33.0438 41.3828 32.9579 41.4605L30.0235 44.2083L32.4053 42.8344C32.5042 42.778 32.6203 42.7597 32.7317 42.7829C32.8431 42.8061 32.9422 42.8693 33.0104 42.9605C33.0785 43.0516 33.111 43.1646 33.1016 43.278C33.0923 43.3915 33.0418 43.4976 32.9597 43.5764L32.2243 44.2764L32.4053 44.1719C32.512 44.1161 32.6361 44.1037 32.7517 44.1372C32.8673 44.1707 32.9654 44.2476 33.0257 44.3518C33.0859 44.456 33.1035 44.5795 33.0749 44.6964C33.0463 44.8133 32.9736 44.9146 32.872 44.9792L29.2964 47.04C29.2259 47.0824 29.1453 47.1049 29.0631 47.1053Z" fill="#F2C32F"/>
<path d="M36.0687 5.96027C35.0943 4.52761 32.7329 5.12027 31.22 4.64147C29.0939 -0.875458 27.0265 -0.725192 24.8733 4.67601C19.04 5.13334 18.3493 6.38027 23.0253 10.1379C21.4667 15.8564 23.0515 16.4845 27.8432 13.5156C32.7031 16.5583 34.5875 15.7061 32.9765 9.92507C33.9052 8.64827 36.3393 7.73361 36.0687 5.96027ZM23.0421 10.1472C23.0617 10.2405 23.1355 10.1743 23.0421 10.1472V10.1472ZM33.4301 8.16294C30.7365 9.63014 31.9872 11.6433 32.284 14.0373C32.2915 14.6169 32.1431 14.4844 31.8015 14.3089C28.28 11.9868 27.6015 12.5225 24.1761 14.4825C22.5951 13.2841 25.914 9.90174 23.3959 8.74441C19.3984 5.46934 21.8503 5.97334 25.2719 5.43014C26.7512 4.84587 26.9183 2.69081 27.7919 1.48121C28.9333 1.69587 29.0481 4.88974 30.3865 5.43387C32.284 5.82867 37.0197 5.53094 33.4301 8.16294ZM13.1488 21.1587C17.5009 23.7244 16.9391 19.3667 16.1868 16.5041C20.8105 12.642 20.2617 11.5827 14.3929 11.1216C12.2603 5.62147 10.2312 5.74654 8.08453 11.1496C2.27733 11.6069 1.50266 12.8623 6.1908 16.6637C6.19418 16.6218 6.21123 16.5821 6.23933 16.5508C6.21968 16.589 6.20884 16.6311 6.2076 16.674C6.33453 16.7085 6.30093 16.7673 6.2076 16.7067C4.6704 22.4345 6.30093 23.0767 11.0871 20.0947L13.1488 21.1587ZM8.20213 20.5221C5.68866 22.1321 7.76533 17.5952 7.59733 16.4668C7.308 15.0332 3.9704 14.0719 4.61906 12.5711C5.8772 12.3079 7.22026 12.2911 8.4896 12.0204C10.8229 11.1664 10.2919 4.95787 12.4451 10.3096C12.8772 13.2963 16.5051 11.4819 17.9611 13.0004C17.4011 15.0127 13.6677 15.6959 15.0873 18.3297C16.6357 24.8267 13.0191 16.2848 8.20586 20.5221H8.20213Z" fill="#262626"/>
<path d="M6.19079 16.6637C6.18924 16.6791 6.19358 16.6944 6.20293 16.7067V16.674C6.19862 16.6709 6.19456 16.6675 6.19079 16.6637ZM50.5577 11.5808L48.0443 11.2233C45.9237 5.68305 43.8144 5.88559 41.6687 11.2747C35.9753 11.6751 35.1783 12.992 39.8384 16.6684C38.2648 22.3785 39.8328 22.9348 44.6059 20.0013C49.4527 23.0253 51.3996 22.2049 49.77 16.4089C51.4985 14.8596 55.3336 11.7852 50.5577 11.5808ZM50.1415 14.8381C47.5412 16.268 48.8133 18.2551 49.084 20.5707C49.1045 21.1549 48.9543 21.0522 48.6108 20.8749C45.0697 18.4828 44.3175 19.1837 40.8772 21.1419C39.9523 19.8109 41.2953 18.0031 41.1843 16.4752C40.8632 14.9949 37.4985 14.0803 38.1901 12.4497C41.8833 12.0829 43.0743 12.1259 44.4192 8.30852C45.2209 6.92252 46.0759 11.6536 47.0325 11.8981C49.0233 12.3853 53.9607 11.9868 50.1415 14.84V14.8381ZM44.8933 29.0266C42.56 28 39.5416 28.8288 37.0748 28.6122C37.4771 24.5243 36.9553 20.4288 31.7996 21.1577C25.4679 21.3733 17.3012 19.1044 18.9196 28.6122C15.82 28.8624 10.4832 27.3429 9.60679 31.5345C9.86439 34.8329 8.61746 38.9918 10.5196 41.8525C10.6615 45.5205 10.2321 49.265 10.5597 52.905C11.4632 57.8218 30.2699 54.3769 35.1129 55.3485C48.3243 56.672 45.2228 51.8224 45.4729 41.5781C46.8207 39.2831 47.3947 30.5835 44.8933 29.0266ZM20.3224 24.0651C21.5012 19.8781 27.4792 22.4494 30.7085 21.7793C35.5451 20.9645 36.1219 24.7333 35.7243 28.6085H20.2757C20.3317 27.0993 20.1535 25.5621 20.3224 24.0651ZM10.9424 32.8981C10.9424 31.4552 10.8696 29.4905 12.7979 29.2581C22.5876 29.2012 32.4249 29.2926 42.2315 29.2581C46.9625 29.5932 44.5219 36.0976 45.0576 39.2336C44.7011 44.9017 37.0804 41.9029 33.3424 42.6085C34.048 39.1449 31.1817 38.4262 28.3565 38.8201C25.5855 38.5326 21.9268 38.8957 22.6576 42.6085C13.1917 42.6785 9.93159 44.1662 10.9424 32.8981ZM31.0641 46.2858C28.3472 45.9974 23.1308 47.6924 23.9941 43.1965H31.9909C31.906 44.1877 32.3755 45.9797 31.0641 46.2858ZM24.6241 39.6844C27.3131 39.7227 32.8851 38.1911 31.9891 42.6711H24.0035C24.08 41.7303 23.6908 40.3069 24.626 39.6844H24.6241ZM44.1243 52.3675C44.8392 57.1797 25.3596 53.8757 21.3892 54.7941C9.16253 55.8292 12.2061 52.6745 11.8757 42.8055C15.2992 43.8321 19.1072 43.0369 22.6576 43.2619C21.9109 46.7226 24.8257 47.4768 27.6435 47.0493C30.4071 47.3293 34.0947 46.9803 33.3424 43.2609C36.8891 43.0052 40.7624 43.8974 44.1299 42.6487C44.1467 45.8817 44.2559 49.1381 44.1243 52.3675Z" fill="#262626"/>
</svg>
