<svg width="40" height="40" viewBox="0 0 40 40" fill="none" xmlns="http://www.w3.org/2000/svg">
<path d="M30.8974 6.86673L21.7307 3.4334C20.7807 3.0834 19.2307 3.0834 18.2807 3.4334L9.11406 6.86673C7.3474 7.5334 5.91406 9.60006 5.91406 11.4834V24.9834C5.91406 26.3334 6.7974 28.1167 7.88073 28.9167L17.0474 35.7667C18.6641 36.9834 21.3141 36.9834 22.9307 35.7667L32.0974 28.9167C33.1807 28.1001 34.0641 26.3334 34.0641 24.9834V11.4834C34.0807 9.60006 32.6474 7.5334 30.8974 6.86673ZM25.7974 16.2001L18.6307 23.3667C18.3807 23.6167 18.0641 23.7334 17.7474 23.7334C17.4307 23.7334 17.1141 23.6167 16.8641 23.3667L14.1974 20.6667C13.7141 20.1834 13.7141 19.3834 14.1974 18.9001C14.6807 18.4167 15.4807 18.4167 15.9641 18.9001L17.7641 20.7001L24.0474 14.4167C24.5307 13.9334 25.3307 13.9334 25.8141 14.4167C26.2974 14.9001 26.2974 15.7167 25.7974 16.2001Z" fill="#10212E"/>
</svg>
