<svg width="32" height="32" viewBox="0 0 32 32" fill="none" xmlns="http://www.w3.org/2000/svg">
<path d="M29.3327 14.3333C29.8793 14.3333 30.3327 13.8799 30.3327 13.3333V11.9999C30.3327 6.11992 28.546 4.33325 22.666 4.33325H14.3327V7.33325C14.3327 7.87992 13.8793 8.33325 13.3327 8.33325C12.786 8.33325 12.3327 7.87992 12.3327 7.33325V4.33325H9.33268C3.45268 4.33325 1.66602 6.11992 1.66602 11.9999V12.6666C1.66602 13.2133 2.11935 13.6666 2.66602 13.6666C3.94602 13.6666 4.99935 14.7199 4.99935 15.9999C4.99935 17.2799 3.94602 18.3333 2.66602 18.3333C2.11935 18.3333 1.66602 18.7866 1.66602 19.3333V19.9999C1.66602 25.8799 3.45268 27.6666 9.33268 27.6666H12.3327V24.6666C12.3327 24.1199 12.786 23.6666 13.3327 23.6666C13.8793 23.6666 14.3327 24.1199 14.3327 24.6666V27.6666H22.666C28.546 27.6666 30.3327 25.8799 30.3327 19.9999C30.3327 19.4533 29.8793 18.9999 29.3327 18.9999C28.0527 18.9999 26.9993 17.9466 26.9993 16.6666C26.9993 15.3866 28.0527 14.3333 29.3327 14.3333ZM14.3327 18.8933C14.3327 19.4399 13.8793 19.8933 13.3327 19.8933C12.786 19.8933 12.3327 19.4399 12.3327 18.8933V13.1066C12.3327 12.5599 12.786 12.1066 13.3327 12.1066C13.8793 12.1066 14.3327 12.5599 14.3327 13.1066V18.8933Z" fill="#00B551"/>
</svg>
