<svg width="32" height="33" viewBox="0 0 32 33" fill="none" xmlns="http://www.w3.org/2000/svg">
<g clip-path="url(#clip0_1259_90)">
<path d="M0.166016 16.3379C0.166016 7.61721 7.2168 0.504578 15.9993 0.504578C24.7201 0.504578 31.8327 7.61721 31.8327 16.3379C31.8327 25.1205 24.7201 32.1712 15.9993 32.1712C7.2168 32.1712 0.166016 25.1205 0.166016 16.3379ZM23.112 13.6166C23.7923 12.9362 23.7923 11.8848 23.112 11.2044C22.4316 10.5241 21.3802 10.5241 20.6999 11.2044L14.0202 17.8841L11.237 15.1628C10.5566 14.4824 9.50521 14.4824 8.82487 15.1628C8.14453 15.8431 8.14453 16.8946 8.82487 17.5749L12.7832 21.5332C13.4635 22.2136 14.515 22.2136 15.1953 21.5332L23.112 13.6166Z" fill="#00B551"/>
</g>
<defs>
<clipPath id="clip0_1259_90">
<rect width="31.6667" height="31.6667" fill="white" transform="translate(0.166016 0.504578)"/>
</clipPath>
</defs>
</svg>
