<svg width="21" height="18" viewBox="0 0 21 18" fill="none" xmlns="http://www.w3.org/2000/svg">
<path fill-rule="evenodd" clip-rule="evenodd" d="M20.0008 3.45006C19.484 4.13912 18.8593 4.74019 18.1508 5.23006C18.1508 5.41006 18.1508 5.59006 18.1508 5.78006C18.1536 7.39827 17.8345 9.00088 17.2119 10.4946C16.5894 11.9882 15.6759 13.3432 14.5247 14.4804C13.3735 15.6177 12.0076 16.5145 10.5064 17.1188C9.00524 17.723 7.39886 18.0226 5.7808 18.0001C3.89123 18.0064 2.02585 17.5751 0.330796 16.7401C0.286077 16.7205 0.248046 16.6884 0.221392 16.6475C0.194738 16.6066 0.180627 16.5589 0.180796 16.5101V16.4001C0.180796 16.3311 0.208189 16.265 0.256949 16.2162C0.305708 16.1675 0.37184 16.1401 0.440796 16.1401C2.2982 16.0789 4.08934 15.4352 5.5608 14.3001C4.737 14.2835 3.93468 14.0343 3.24639 13.5814C2.55811 13.1284 2.0119 12.4901 1.6708 11.7401C1.65351 11.6989 1.64708 11.6541 1.65214 11.6098C1.6572 11.5655 1.67357 11.5232 1.69969 11.487C1.7258 11.4509 1.76077 11.422 1.80125 11.4033C1.84172 11.3846 1.88633 11.3766 1.9308 11.3801C2.44175 11.4314 2.95781 11.3839 3.4508 11.2401C2.54627 11.0524 1.72473 10.5823 1.10467 9.8975C0.484606 9.21273 0.0980648 8.34871 0.000796377 7.43006C-0.00269153 7.3856 0.00531672 7.34098 0.0240512 7.30051C0.0427858 7.26004 0.0716165 7.22506 0.107772 7.19895C0.143928 7.17284 0.186193 7.15646 0.230505 7.1514C0.274817 7.14635 0.319685 7.15277 0.360796 7.17006C0.858843 7.38972 1.39648 7.50541 1.9408 7.51006C1.15002 6.99128 0.553342 6.22519 0.243975 5.33146C-0.065393 4.43773 -0.0700271 3.4667 0.230796 2.57006C0.262187 2.48198 0.31591 2.40356 0.386707 2.34248C0.457503 2.2814 0.542947 2.23975 0.634674 2.22161C0.726401 2.20346 0.821267 2.20945 0.909987 2.23898C0.998706 2.26851 1.07824 2.32057 1.1408 2.39006C3.33528 4.72454 6.35053 6.11564 9.5508 6.27006C9.46882 5.94311 9.4285 5.60712 9.4308 5.27006C9.44543 4.40591 9.71657 3.5656 10.2098 2.85586C10.703 2.14612 11.396 1.59897 12.2008 1.28391C13.0056 0.968846 13.8859 0.900081 14.7298 1.08635C15.5738 1.27262 16.3434 1.70551 16.9408 2.33006C17.7737 2.17147 18.5789 1.89184 19.3308 1.50006C19.3578 1.48321 19.389 1.47428 19.4208 1.47428C19.4526 1.47428 19.4838 1.48321 19.5108 1.50006C19.5276 1.52706 19.5366 1.55824 19.5366 1.59006C19.5366 1.62188 19.5276 1.65306 19.5108 1.68006C19.1466 2.51366 18.5313 3.21283 17.7508 3.68006C18.4343 3.60083 19.1058 3.43968 19.7508 3.20006C19.7773 3.182 19.8087 3.17235 19.8408 3.17235C19.8729 3.17235 19.9043 3.182 19.9308 3.20006C19.9533 3.21034 19.9732 3.22539 19.9893 3.24418C20.0054 3.26296 20.0171 3.28502 20.0238 3.30882C20.0305 3.33262 20.0319 3.35758 20.0279 3.38198C20.0239 3.40637 20.0147 3.4296 20.0008 3.45006Z" fill="#2AAF8C"/>
</svg>
