<svg width="25" height="25" viewBox="0 0 25 25" fill="none" xmlns="http://www.w3.org/2000/svg">
<g clip-path="url(#clip0_1293_6662)">
<path fill-rule="evenodd" clip-rule="evenodd" d="M11.6564 13.2491L10.2905 11.9337C10.2219 11.8637 10.14 11.8081 10.0496 11.7703C9.95917 11.7324 9.86207 11.7131 9.76405 11.7135C9.66603 11.7139 9.56908 11.734 9.47896 11.7725C9.38883 11.8111 9.30736 11.8673 9.23937 11.9379C9.17138 12.0085 9.11825 12.092 9.08313 12.1836C9.04802 12.2751 9.03163 12.3727 9.03494 12.4707C9.03825 12.5686 9.06119 12.6649 9.10241 12.7539C9.14362 12.8428 9.20226 12.9226 9.27486 12.9884L11.1576 14.8019C11.2955 14.9354 11.4804 15.0093 11.6723 15.0076C11.8643 15.006 12.0479 14.9288 12.1834 14.7929L15.7341 11.2422C15.8715 11.1048 15.9487 10.9185 15.9487 10.7242C15.9487 10.53 15.8715 10.3437 15.7341 10.2063C15.5968 10.0689 15.4105 9.99176 15.2162 9.99176C15.0219 9.99176 14.8356 10.0689 14.6983 10.2063L11.6566 13.2491H11.6564ZM12.5496 0.000488281C12.9806 0.0123963 13.3907 0.18886 13.6958 0.493652L15.1959 1.99492C15.2226 2.02523 15.2576 2.04702 15.2966 2.05756C15.3356 2.0681 15.3768 2.06693 15.4151 2.0542L17.4659 1.50493C17.8992 1.38904 18.3608 1.44989 18.7493 1.67413C19.1378 1.89837 19.4213 2.26764 19.5377 2.70083L20.087 4.75161C20.0952 4.79097 20.1147 4.82708 20.1431 4.85551C20.1715 4.88393 20.2076 4.90342 20.247 4.91157L22.2986 5.46089C22.7315 5.57776 23.1004 5.86141 23.3246 6.24973C23.5487 6.63805 23.6098 7.09938 23.4945 7.53267L22.9442 9.58345C22.9319 9.62182 22.9309 9.66292 22.9415 9.70181C22.952 9.7407 22.9735 9.77573 23.0034 9.80268L24.5045 11.3039C24.8215 11.6211 24.9995 12.0513 24.9995 12.4997C24.9995 12.9482 24.8215 13.3783 24.5045 13.6956L23.0032 15.1969C22.9733 15.2238 22.9518 15.2589 22.9413 15.2978C22.9307 15.3367 22.9317 15.3778 22.944 15.4162L23.4943 17.4669C23.6096 17.9002 23.5485 18.3616 23.3244 18.7499C23.1002 19.1382 22.7313 19.4219 22.2984 19.5388L20.2468 20.088C20.2074 20.0962 20.1713 20.1157 20.1429 20.1441C20.1145 20.1725 20.095 20.2086 20.0868 20.248L19.5375 22.2988C19.4211 22.732 19.1376 23.1012 18.7491 23.3255C18.3606 23.5497 17.899 23.6105 17.4657 23.4946L15.415 22.9454C15.3766 22.9326 15.3354 22.9315 15.2964 22.942C15.2574 22.9525 15.2224 22.9743 15.1957 23.0046L13.6956 24.5053C13.3779 24.822 12.9477 24.9998 12.4991 24.9998C12.0506 24.9998 11.6204 24.822 11.3027 24.5053L9.80162 23.0041C9.77504 22.9739 9.7402 22.9522 9.70142 22.9417C9.66265 22.9312 9.62163 22.9322 9.58346 22.9448L7.53233 23.494C7.09904 23.6099 6.63748 23.549 6.24903 23.3248C5.86059 23.1006 5.57703 22.7313 5.46065 22.2982L4.91129 20.2474C4.90313 20.208 4.88361 20.1719 4.85514 20.1434C4.82667 20.115 4.79049 20.0956 4.75108 20.0875L2.7003 19.5382C2.26731 19.4215 1.89826 19.1378 1.67402 18.7495C1.44978 18.3611 1.38864 17.8997 1.50401 17.4664L2.05377 15.4158C2.0665 15.3775 2.06769 15.3363 2.05719 15.2973C2.04668 15.2583 2.02495 15.2233 1.99469 15.1965L0.493809 13.6955C0.176976 13.3781 -0.000976563 12.948 -0.000976562 12.4996C-0.000976563 12.0512 0.176976 11.6211 0.493809 11.3037L1.99527 9.80244C2.02537 9.7756 2.04695 9.74054 2.05736 9.70159C2.06777 9.66263 2.06656 9.62148 2.05387 9.5832L1.50411 7.53242C1.38876 7.09908 1.4499 6.63767 1.67414 6.24933C1.89838 5.86098 2.26742 5.57737 2.7004 5.46064L4.75118 4.91133C4.79059 4.90323 4.82676 4.88376 4.85523 4.85533C4.88371 4.82691 4.90323 4.79076 4.91139 4.75137L5.46075 2.70083C5.57719 2.26771 5.86075 1.8985 6.24918 1.67428C6.6376 1.45005 7.09914 1.38915 7.53243 1.50493L9.58355 2.0542C9.62171 2.06693 9.66278 2.06809 9.7016 2.05754C9.74042 2.047 9.77525 2.02521 9.80172 1.99492L11.303 0.493848C11.6079 0.189009 12.018 0.0124757 12.449 0.000488281H12.5496ZM12.4987 17.9487C11.421 17.9487 10.3674 17.6291 9.47132 17.0304C8.5752 16.4316 7.87676 15.5806 7.46432 14.5848C7.05188 13.5891 6.94397 12.4935 7.15423 11.4364C7.36449 10.3794 7.88347 9.40842 8.64556 8.64633C9.40765 7.88424 10.3786 7.36526 11.4357 7.155C12.4927 6.94474 13.5884 7.05265 14.5841 7.46509C15.5798 7.87753 16.4308 8.57597 17.0296 9.47209C17.6284 10.3682 17.948 11.4218 17.948 12.4995C17.9465 13.9443 17.3719 15.3294 16.3503 16.351C15.3287 17.3727 13.9435 17.9472 12.4987 17.9487Z" fill="white"/>
</g>
<defs>
<clipPath id="clip0_1293_6662">
<rect width="25" height="25" fill="white"/>
</clipPath>
</defs>
</svg>
